<svg id="Layer_1" data-name="Layer 1" xmlns="http://www.w3.org/2000/svg" viewBox="0 0 600 600"><defs><style>.cls-1{fill:#424242;}.cls-2{fill:#f8c469;}.cls-3{fill:#919191;}.cls-4{fill:silver;}.cls-5{fill:#b47d64;}.cls-6{fill:#d2916e;}.cls-7{opacity:0.3;}.cls-8{fill:#020202;}.cls-9{fill:#e0e0e0;}.cls-10{fill:#aec341;}.cls-11{fill:#c2dc8f;}</style></defs><title>hop dung cu</title><g id="hộp_dụng_cụ" data-name="hộp dụng cụ"><path class="cls-1" d="M209.39,380.72h-.27l-107.21-4.58a6.32,6.32,0,0,1-6-5.53L85.83,290a6.31,6.31,0,0,1,4.91-7l218.08-48.2a6.34,6.34,0,0,1,7.7,6.18V353.32a6.32,6.32,0,0,1-5,6.19L210.69,380.58A6.31,6.31,0,0,1,209.39,380.72Zm-101.59-17L208.87,368l95-19.86V248.86L99.09,294.11Z"/><path class="cls-1" d="M310.19,380.72a6.34,6.34,0,0,1-6.33-6.33V241a6.33,6.33,0,0,1,8.41-6l164.94,57.36a6.33,6.33,0,0,1,.57,11.72L312.84,380.13A6.31,6.31,0,0,1,310.19,380.72Zm6.33-130.84V364.51l141.72-65.35Z"/><path class="cls-1" d="M209.39,539.24a6.33,6.33,0,0,1-4.25-1.64L87.86,431.31a6.3,6.3,0,0,1-2.08-4.69V289.18a6.32,6.32,0,0,1,10-5.12l114.8,83.4,262.77-75.21a6.34,6.34,0,0,1,8.07,6.16l-1.84,149.37a6.32,6.32,0,0,1-4.38,5.94l-263.9,85.22A6.55,6.55,0,0,1,209.39,539.24Zm-111-115.42,112.5,101.95L467,443.07l1.67-136.31L211.13,380.47a6.33,6.33,0,0,1-5.46-1L98.43,301.59Z"/><polygon class="cls-2" points="310.19 240.98 92.1 289.18 102.18 369.81 209.39 374.39 310.19 353.32 310.19 240.98"/><path class="cls-3" d="M149.64,172l1.57,5.48-4.77,1.37A10.79,10.79,0,0,0,139,192.16l15.81,55.29L149,249.12,128.64,178Z"/><path class="cls-4" d="M151.21,177.45,170,243.12l-15.14,4.33L139,192a10.67,10.67,0,0,1,7.32-13.19Z"/><path class="cls-3" d="M204,173.4s.1,5.66-10.17.26-29.55-10.51-48.43,4.36l-29.09,8.32-.52-.28a18.27,18.27,0,0,0-13.92-1.6L93.3,186.9a10.35,10.35,0,0,1-7.11,12.79l-.17.05L73.3,203.16l-2.88-10.08,12.72-3.42.17,0a10.36,10.36,0,0,0,7.11-12.8L99,174.38a18.31,18.31,0,0,1,13.92,1.6l.52.29L142.48,168c18.88-14.88,38.17-9.77,48.43-4.37s10.17-.25,10.17-.25l.06-.46C203.41,166.19,204.56,169.72,204,173.4Z"/><path class="cls-4" d="M201.14,162.86h0l-.06.46s.1,5.66-10.17.25-29.55-10.51-48.43,4.37l-29.09,8.32-.52-.29A18.31,18.31,0,0,0,99,174.38l-8.53,2.44a10.36,10.36,0,0,1-7.11,12.8l-.17,0-12.72,3.42L60.07,156.91l11.44-3.27a10.35,10.35,0,0,1,12.79,7.11l.67,2.31,7.43-2.12a18.32,18.32,0,0,0,11-8.72,16.18,16.18,0,0,1,9.45-7.64c8.53-2.63,24.37-6.81,39.63-7.23a26.07,26.07,0,0,1,9.78,1.61C171.72,142.45,193.24,151.36,201.14,162.86Z"/><path class="cls-1" d="M149,251.83a2.71,2.71,0,0,1-2.61-2l-18.32-64.08L117,189a2.7,2.7,0,0,1-2.06-.24l-.51-.28a15.52,15.52,0,0,0-11.87-1.37l-6.19,1.77a13.08,13.08,0,0,1-9.44,13.47l-.17,0L74,205.78a2.71,2.71,0,0,1-3.31-1.88L57.47,157.66a2.71,2.71,0,0,1,.23-2.07,2.77,2.77,0,0,1,1.63-1.29L70.76,151a13,13,0,0,1,16.06,8.67l4.83-1.38A15.67,15.67,0,0,0,101,150.9a19,19,0,0,1,4.65-5.53A18.71,18.71,0,0,1,112,142c8.32-2.56,24.61-6.92,40.36-7.35a28.59,28.59,0,0,1,10.79,1.78c11.54,4.25,32.11,13.13,40.2,24.91l.06.09c2.76,4.05,3.84,8.17,3.23,12.23a5.25,5.25,0,0,1-2.47,4.19c-2.57,1.58-6.38,1-11.66-1.79-6.15-3.23-21.95-9.53-39-.22l19,66.54a2.72,2.72,0,0,1-1.86,3.35l-21,6A2.76,2.76,0,0,1,149,251.83Zm-19.07-72.1a2.7,2.7,0,0,1,2.61,2l18.32,64.07,15.79-4.51-18.86-66a2.7,2.7,0,0,1,1.2-3.06c20.06-12.22,38.91-4.74,46.08-1,4.07,2.14,5.73,2.07,6.18,2a2.41,2.41,0,0,1,.05-.28c.45-2.77-.32-5.57-2.38-8.57a.56.56,0,0,1-.05-.08c-7.55-10.89-28.77-19.58-37.56-22.81a23.35,23.35,0,0,0-8.76-1.45c-15.1.42-30.86,4.63-38.92,7.11a13.49,13.49,0,0,0-4.55,2.42,13.3,13.3,0,0,0-3.32,3.95,21.18,21.18,0,0,1-12.6,10l-7.43,2.12a2.72,2.72,0,0,1-3.35-1.86l-.66-2.32a7.63,7.63,0,0,0-9.45-5.24l-8.82,2.52,11.74,41.08,10.28-2.76A7.68,7.68,0,0,0,90,193.45a7.6,7.6,0,0,0,.66-5.81,2.71,2.71,0,0,1,1.86-3.35l8.53-2.44a20.89,20.89,0,0,1,15.51,1.58l12.58-3.6A2.64,2.64,0,0,1,129.91,179.73Zm71.34-6.28Z"/><path class="cls-5" d="M215.23,436.19l-15.64,4.47a9,9,0,0,1-11.16-6.19L137,254.5a9,9,0,0,1,6.2-11.16l15.64-4.47a9,9,0,0,0-6.2,11.16l51.46,180A9,9,0,0,0,215.23,436.19Z"/><rect class="cls-6" x="177.72" y="232.98" width="32.12" height="205.23" rx="9.03" transform="translate(-84.79 66.2) rotate(-15.96)"/><path class="cls-1" d="M197.09,443.73a11.75,11.75,0,0,1-11.27-8.52l-51.46-180a11.76,11.76,0,0,1,8.06-14.51l29.17-8.34a11.74,11.74,0,0,1,14.51,8l51.46,180a11.73,11.73,0,0,1-8.06,14.51l-29.17,8.34A11.63,11.63,0,0,1,197.09,443.73ZM174.83,237.36a6.22,6.22,0,0,0-1.75.25h0L143.91,246a6.32,6.32,0,0,0-4.33,7.81l51.46,180a6.32,6.32,0,0,0,7.8,4.34L228,429.72a6.32,6.32,0,0,0,4.34-7.81l-51.46-180a6.34,6.34,0,0,0-6.06-4.58ZM172.34,235h0Z"/><polygon class="cls-2" points="475.13 298.33 310.19 240.98 310.19 374.39 475.13 298.33"/><g class="cls-7"><polygon class="cls-8" points="475.13 298.33 310.19 240.98 310.19 374.39 475.13 298.33"/></g><polygon class="cls-4" points="348.35 117.83 352.92 131.19 346.79 128.19 342.22 114.82 379.92 62.98 386.05 65.98 348.35 117.83"/><polygon class="cls-9" points="379.97 133.32 366.6 137.9 352.92 131.19 348.35 117.83 386.05 65.98 397.85 71.77 379.97 133.32"/><path class="cls-1" d="M366.6,140.61a2.81,2.81,0,0,1-1.2-.28l-19.8-9.71a2.65,2.65,0,0,1-1.37-1.55l-4.57-13.37a2.69,2.69,0,0,1,.37-2.47l37.69-51.85a2.73,2.73,0,0,1,3.39-.84L399,69.33a2.7,2.7,0,0,1,1.41,3.19l-17.88,61.56a2.72,2.72,0,0,1-1.73,1.81l-13.36,4.57A2.71,2.71,0,0,1,366.6,140.61ZM349,126.25,366.78,135l11-3.76,16.85-58-13.84-6.79-35.53,48.87Z"/><rect class="cls-9" x="233.29" y="198.96" width="171.38" height="22.06" transform="translate(-9.96 403.99) rotate(-63.89)"/><polygon class="cls-4" points="352.92 131.19 275.94 288.26 271.37 282.07 346.79 128.19 352.92 131.19"/><path class="cls-1" d="M291.17,294.49a2.79,2.79,0,0,1-1.19-.27l-11.24-5.51-.37.75a2.72,2.72,0,0,1-4.62.41l-4.57-6.19a2.72,2.72,0,0,1-.25-2.8L344.36,127a2.71,2.71,0,0,1,3.63-1.24l19.8,9.7a2.7,2.7,0,0,1,1.37,1.56,2.66,2.66,0,0,1-.13,2.07L293.6,293A2.69,2.69,0,0,1,291.17,294.49ZM277.5,282.37a2.76,2.76,0,0,1,1.19.27l11.24,5.51,73-149L348,131.82l-73.51,150,1,1.4a2.58,2.58,0,0,1,1.06-.68A2.89,2.89,0,0,1,277.5,282.37Z"/><path class="cls-10" d="M215.42,436.79a30.1,30.1,0,0,1-20.26-42.58L261.54,258.8l12.27,6L207.43,400.23A30.1,30.1,0,0,0,215.42,436.79Z"/><path class="cls-11" d="M315.59,285.29,249.22,420.71a30.1,30.1,0,0,1-33.8,16.08,30.1,30.1,0,0,1-8-36.56l66.38-135.42Z"/><path class="cls-1" d="M222.3,440.75a33.51,33.51,0,0,1-7.59-.88,33.27,33.27,0,0,1-22.39-47.05L258.7,257.41a3.16,3.16,0,0,1,4.23-1.45L317,282.46a3.15,3.15,0,0,1,1.44,4.23L252.06,422.1A33.1,33.1,0,0,1,222.3,440.75ZM263,263,198,395.61a26.94,26.94,0,0,0,12.33,36,27.1,27.1,0,0,0,5.8,2.06,26.8,26.8,0,0,0,30.25-14.39l65-132.58Z"/><polygon class="cls-5" points="209.39 374.39 209.39 532.92 92.1 426.63 92.1 289.18 209.39 374.39"/><path class="cls-4" d="M470.64,262.23c13.74,7.2,28.2,9,43.12,4.77,25.66-7.28,42.84-29.82,43.43-56.46,0-.7,0-1.4,0-2.1L510.48,240c-7.86-11.36-15.58-22.48-23.36-33.72l.16-.11L539.34,171a59.91,59.91,0,0,0-11-6.31,57,57,0,0,0-16.25-4.48c-14.59-1.81-28.17,1.27-40.14,9.71-19.4,13.67-27.7,32.72-25.82,56.27a2.44,2.44,0,0,1-1.28,2.63Q421.43,244.58,398,260.43,377.49,274.26,357,288q-32,21.61-64,43.27a3,3,0,0,1-3.18.29,46.8,46.8,0,0,0-17.89-3.67,50.09,50.09,0,0,0-44.68,72.79c13.22,15.55,35.53,22.39,56.25,13.66A50,50,0,0,0,314.17,368c0-1.15-.21-2.25,1.15-3.15,8.85-5.88,17.6-11.9,26.41-17.85q25.9-17.49,51.84-34.94,36.74-24.81,73.44-49.67A3,3,0,0,1,470.64,262.23Zm-134.16,64a5.89,5.89,0,0,1,2.17.05,6.4,6.4,0,0,1,4.92,7.52,6.5,6.5,0,0,1-7.42,4.86,6.39,6.39,0,0,1-4.91-7.36,5.94,5.94,0,0,1,.79-2.07A6.29,6.29,0,0,1,336.48,326.25Zm102.84-68A6.33,6.33,0,0,1,437,270.67a6.34,6.34,0,0,1-5-7.47,5.35,5.35,0,0,1,.78-2,6.69,6.69,0,0,1,4.41-3A5.65,5.65,0,0,1,439.32,258.23ZM294.13,388a2.59,2.59,0,0,1-1,1.92q-9.57,6.61-19.27,13a2.71,2.71,0,0,1-2.31.15c-6.9-3.34-13.77-6.78-20.61-10.25a2.61,2.61,0,0,1-1.29-1.71c-.13-1.8-.25-3.6-.38-5.39-.4-6.13-.77-12.26-1.15-18.4,0-.21,0-.41,0-.88a8.42,8.42,0,0,1,1-.92c6.42-4.35,12.83-8.72,19.3-13a2.77,2.77,0,0,1,2.32-.13q8,3.87,16,7.87l4.65,2.36a2.84,2.84,0,0,1,1.3,1.94Q293.52,376.29,294.13,388Z"/><path class="cls-3" d="M473.32,271.8q-36.69,24.9-73.45,49.66Q374,339,348,356.41c-8.81,5.94-17.55,12-26.4,17.85-1.37.9-1.14,2-1.15,3.15a50,50,0,0,1-30.68,46.42c-24.53,10.34-51.32-1.16-62.55-23.11,13.22,15.55,35.53,22.39,56.25,13.66A50,50,0,0,0,314.17,368c0-1.15-.21-2.25,1.15-3.15,8.85-5.88,17.6-11.9,26.41-17.85q25.9-17.49,51.84-34.94,36.74-24.81,73.44-49.67a3,3,0,0,1,3.63-.12c13.74,7.2,28.2,9,43.12,4.77,25.66-7.28,42.84-29.82,43.43-56.46,0-.7,0-1.4,0-2.1l4.71-3.17A55.75,55.75,0,0,1,563.5,220c-.59,26.63-17.77,49.18-43.43,56.45-14.92,4.23-29.38,2.44-43.12-4.76A3,3,0,0,0,473.32,271.8Z"/><path class="cls-1" d="M271.17,430.75a53,53,0,0,1,.65-106h.12a50.24,50.24,0,0,1,19.09,3.9l.14.06.05,0c20.15-13.67,40.15-27.19,64-43.27q10.2-6.89,20.4-13.74t20.61-13.87l18.61-12.55q14.1-9.51,28.2-19c-2-25,7.18-44.87,27.16-58.95,12.42-8.75,26.67-12.2,42.35-10.25a60.25,60.25,0,0,1,17.14,4.72,63.19,63.19,0,0,1,11.52,6.63,3.17,3.17,0,0,1-.08,5.19l-49.57,33.47,8.63,12.46,11.13,16.06,13.6-9.18,30.52-20.59,4.71-3.18A3.17,3.17,0,0,1,565,204.5a58.69,58.69,0,0,1,1.69,15.56,62.78,62.78,0,0,1-45.73,59.43c-15.46,4.39-30.75,2.7-45.45-5l-.28-.14a.52.52,0,0,1-.11.07C450.68,291,425.81,307.78,401.76,324l-.12.08q-13,8.78-26,17.53L349.8,359l-9.65,6.55c-5.39,3.67-11,7.46-16.51,11.14v.19c0,.17,0,.34,0,.51A53.41,53.41,0,0,1,291,426.74,51,51,0,0,1,271.17,430.75Zm.65-99.66a46.93,46.93,0,0,0-41.75,68.19c10.92,21.36,36.62,30.86,58.5,21.63a47.08,47.08,0,0,0,28.75-43.5v-.35a5.71,5.71,0,0,1,2.57-5.44c5.58-3.71,11.24-7.56,16.71-11.28l9.67-6.55q12.9-8.71,25.83-17.42t26-17.53l.12-.08c24-16.23,48.91-33,73.33-49.57a6.11,6.11,0,0,1,6.87-.31c13.21,6.93,26.93,8.45,40.78,4.53a56.5,56.5,0,0,0,41.14-53.48,55.26,55.26,0,0,0-.6-9.39l-.78.53-30.52,20.58-16.19,10.93a3.16,3.16,0,0,1-4.37-.82L495,223.13,484.52,208a3.12,3.12,0,0,1-.51-2.39,3.2,3.2,0,0,1,1.35-2l.17-.11L533.66,171a54.71,54.71,0,0,0-21.9-7.67c-14.08-1.74-26.85,1.34-37.94,9.15-18.07,12.74-26.31,30.72-24.48,53.44a5.55,5.55,0,0,1-2.68,5.51q-14.15,9.51-28.3,19.07l-18.61,12.55q-10.31,7-20.62,13.88l-20.39,13.73c-23.83,16.08-43.82,29.6-64,43.27a6.13,6.13,0,0,1-6.16.59,43.87,43.87,0,0,0-16.68-3.43Zm.75,75.38a5.42,5.42,0,0,1-2.35-.51c-6.2-3-13-6.36-20.67-10.28a5.7,5.7,0,0,1-3-4.29l-.37-5.42q-.47-7.08-.89-14.15l-.31-5.19a3.17,3.17,0,0,1,1-2.46l.13-.13a8,8,0,0,1,1.23-1.08h0l1.46-1c5.84-4,11.87-8.06,17.86-12a5.85,5.85,0,0,1,5.44-.34c5.19,2.5,10.59,5.16,16,7.9l1.88.95q1.39.69,2.79,1.41a6,6,0,0,1,3,4.5c.54,7.44,1,15.11,1.47,23.48a5.7,5.7,0,0,1-2.32,4.69c-6.5,4.49-13,8.9-19.32,13.08A5.68,5.68,0,0,1,272.57,406.47Zm-.41-6.14h0Zm-19.37-10.1c7.33,3.72,13.81,6.95,19.76,9.83,6-4,12.2-8.17,18.39-12.44-.42-7.95-.88-15.27-1.4-22.33l-2.38-1.21-1.87-.95c-5.28-2.65-10.51-5.23-15.54-7.66-5.84,3.86-11.71,7.85-17.4,11.72l-1,.67.22,3.57q.43,7.06.89,14.12ZM291,388.16h0Zm.4-.84h0ZM270.16,355.2h0ZM337.29,342a8.86,8.86,0,0,1-1.77-.18,9.59,9.59,0,0,1-7.39-11,9.24,9.24,0,0,1,1.22-3.16,9.34,9.34,0,0,1,6.66-4.45,9,9,0,0,1,3.26.08,9.55,9.55,0,0,1,6.08,4.2,9.43,9.43,0,0,1,1.31,7.12A9.74,9.74,0,0,1,337.29,342Zm.12-12.63a1.75,1.75,0,0,0-.4,0,3.23,3.23,0,0,0-2.67,2.55h0a3.26,3.26,0,0,0,2.43,3.66,3.38,3.38,0,0,0,3.72-2.45,3.08,3.08,0,0,0-.46-2.31,3.18,3.18,0,0,0-2-1.42A2.52,2.52,0,0,0,337.41,329.33Zm-6.17,2h0Zm106.84-57.38a9,9,0,0,1-1.71-.16,9.54,9.54,0,0,1-7.48-11.16,8.39,8.39,0,0,1,1.22-3.08,9.85,9.85,0,0,1,6.52-4.41,8.82,8.82,0,0,1,3.28,0,9.6,9.6,0,0,1,7.5,11.24A9.65,9.65,0,0,1,438.08,273.94Zm.2-12.64a2.18,2.18,0,0,0-.5.05,3.55,3.55,0,0,0-2.31,1.55,2.23,2.23,0,0,0-.36.86v0a3.22,3.22,0,0,0,2.48,3.78,3.36,3.36,0,0,0,3.64-2.49,3.18,3.18,0,0,0-.52-2.38,3.1,3.1,0,0,0-2-1.36A2.45,2.45,0,0,0,438.28,261.3ZM432,263.2h0Z"/><g class="cls-7"><polygon class="cls-8" points="209.39 374.39 209.39 532.92 92.1 426.63 92.1 289.18 209.39 374.39"/></g><polygon class="cls-6" points="209.39 374.39 163.58 426.63 37.12 336.82 92.1 289.18 209.39 374.39"/><path class="cls-1" d="M163.58,429.79a3.09,3.09,0,0,1-1.83-.59L35.29,339.4A3.16,3.16,0,0,1,34,337a3.22,3.22,0,0,1,1.09-2.55l55-47.64a3.15,3.15,0,0,1,3.93-.17l117.29,85.21a3.16,3.16,0,0,1,.52,4.65L166,428.71A3.18,3.18,0,0,1,163.58,429.79ZM42.24,336.58l120.84,85.81,41.65-47.48L92.28,293.21Z"/><polygon class="cls-5" points="475.13 298.33 473.3 447.7 209.39 532.92 209.39 374.39 475.13 298.33"/><polygon class="cls-6" points="209.39 374.39 281.78 441.29 545.69 354.24 475.13 298.34 209.39 374.39"/><path class="cls-1" d="M281.78,444.45a3.14,3.14,0,0,1-2.14-.84l-72.39-66.89a3.17,3.17,0,0,1,1.27-5.37L474.26,295.3a3.16,3.16,0,0,1,2.83.56l70.56,55.9a3.16,3.16,0,0,1-1,5.48L282.77,444.29A3,3,0,0,1,281.78,444.45Zm-66.11-68.56,66.89,61.81,256.56-84.63-64.68-51.24Z"/></g></svg>