<svg id="Layer_1" data-name="Layer 1" xmlns="http://www.w3.org/2000/svg" viewBox="0 0 600 600"><defs><style>.cls-1{fill:#424242;}.cls-2{opacity:0.29;}.cls-3{fill:#f8ded8;}.cls-4{fill:#abe0fb;}.cls-5{fill:#5e5e5e;}.cls-6{fill:#fff;}.cls-7{fill:#c2dc8f;}.cls-8{fill:#f8c469;}.cls-9{fill:#fbfcfd;}.cls-10{opacity:0.2;}.cls-11{fill:#9b6a57;}.cls-12{fill:#d0bbb7;}.cls-13{fill:#d2916e;}.cls-14{fill:#b47d64;}.cls-15{fill:#aec341;}.cls-16{opacity:0.9;}</style></defs><title>kinh lup</title><g id="find_gần_mặt_:_" data-name="find gần mặt :)))"><path class="cls-1" d="M341.14,537.37H247.29a2.95,2.95,0,0,1-2.91-3.43c.34-2.05.68-4.1,1-6.2-6.94-.69-11.73-5.37-12.67-12.54-.18-1.31-.3-2.62-.41-3.89-20.33,1.07-38.26-5.33-53.28-19l-3.91-3.58c-4.34-4-8.82-8.09-13.36-11.94-8.9-7.53-18.52-17.09-22.37-31a.31.31,0,0,0,0-.08l-.24-1-.26-1s0-.05,0-.08l-.36-1.68c-.05-.27-.1-.54-.16-.8l0-.16-.22-1.43-.28-2.05a1.1,1.1,0,0,1,0-.18v-.15c-.05-.59-.09-1.18-.14-1.77a2.26,2.26,0,0,1,0-.26v-6.44a1.7,1.7,0,0,1,0-.22l.15-1.94c0-.07,0-.13,0-.19l.28-2c.08-.51.15-1,.21-1.45a1.29,1.29,0,0,1,0-.19l.3-1.46.21-1,0-.14.49-1.92c0-.05,0-.11.05-.16a55.34,55.34,0,0,1,15.89-25.15c.62-.56,1.22-1.22,1.85-1.91l1-1.09.25-.23.56-.45c.36-.29.69-.56,1-.82l6.22-6c6.8-6.59,13.84-13.4,20.74-20.13,14.28-13.92,31.94-23.43,54-29l1.47-2.36c2.16-3.45,4.33-6.9,6.48-10.36.28-.44.55-.91.83-1.4l-1-9.39a2.95,2.95,0,0,1,4.13-3q2.42,1.08,4.81,2.19c3.43,1.58,7,3.21,10.53,4.61A118,118,0,0,0,298,320.84H298l4.26.52a3,3,0,0,1,2,1.2l2.16,3,6.49.59a93.07,93.07,0,0,1,51.1,20.77c7.94,6.44,16.08,12.92,23.95,19.18l9.6,7.64c3.72,3,8,4.14,12,3.27s7.53-3.72,9.74-8l1.4-2.72c1.74-3.4,3.55-6.91,5.29-10.38q3.23-6.42,6.42-12.84l1.74-3.5q1.39-2.81,2.8-5.61a2.94,2.94,0,0,1,1.36-1.34l1.7-.81a3,3,0,0,1,3.1.35c.51.4,1,.8,1.54,1.19,1.16.89,2.36,1.81,3.51,2.84h0c4.56,4.06,9.18,8.22,13.63,12.24l5.64,5.08a2.94,2.94,0,0,1,.65,3.53c-1.42,2.77-2.85,5.52-4.29,8.28l-2,3.93c-2.35,4.52-5.1,9.87-7.69,15.24A54.59,54.59,0,0,1,429.46,410l-1.3.64-.19.08L424.91,412l-.61.25-.1,0-1.1.39-1.67.59a2.42,2.42,0,0,1-.36.1l-4.59,1-.17,0-1.44.24h-.07l-2,.28h-.11l-1.94.19a1.42,1.42,0,0,1-.3,0h-7.71l-1.94-.18-.17,0-.15,0-1.82-.27h-.09l-1.45-.25-.14,0-1-.21-.1,0-2.92-.7-.17,0-1.68-.53-1.79-.58-.07,0-1.22-.43-.22-.08-1.21-.53a2.55,2.55,0,0,1-.43-.23c-1.39-.89-2.85-1.77-4.26-2.63a102.77,102.77,0,0,1-9.52-6.28c-7.63-5.9-15.27-12-22.66-18q-5.33-4.27-10.67-8.55l.57,5.18c.16,1.4.31,2.81.47,4.22l9.56,87.21a.25.25,0,0,0,0,.08l.53,4.75c.9,8.08,1.82,16.43,2.65,24.66.73,7.29-2.15,12.24-8.8,15.12,0,1.38,0,2.76,0,4.13V521c0,3.55,0,7.11,0,10.66v2.82A2.94,2.94,0,0,1,341.14,537.37Zm-90.37-5.9h87.42c0-3.53,0-7.07,0-10.6v-.11c0-1.33,0-2.67,0-4a5.28,5.28,0,0,1,3.38-5.36c4.45-1.87,5.93-4.36,5.44-9.19-.82-8.2-1.75-16.53-2.64-24.59l-.39-3.5c-14.64-11.06-30.42-23.61-36.05-34.18l0-.06h0a2.92,2.92,0,0,1-.12-2.51,3,3,0,0,1-1.72-1.43h0l-.06-.12c-8.54-15.8-47.75-42.33-62.54-52.34-6.34-4.29-7-4.72-7.4-5.49a3.72,3.72,0,0,0-.35-.36c-1.31-1.32-5-4.51-8.89-7.76l0,0-3,9.82c.09.65.17,1.25.24,1.82.19,1.34.35,2.51.47,3.68q2.47,22.62,4.94,45.23L234,472.8c.07.63.17,1.26.27,1.93a2.93,2.93,0,0,1,2.46-2l2-.25c1-.12,2-.26,3-.43a5.51,5.51,0,0,0,2.08-.62,25.57,25.57,0,0,1,2.86-3.1l.67-.58.08-.06a.39.39,0,0,1,.1-.08.1.1,0,0,1,0,0l.6-.48.13-.1.1-.08.53-.38.15-.1.13-.09.51-.34.14-.09.14-.09.52-.31.13-.08.16-.09.53-.3.12-.06.15-.08.73-.37h0l.08,0c.26-.12.53-.25.8-.36l.18-.08.14-.05a4.4,4.4,0,0,1,.5-.21l.2-.07.18-.08.44-.16.21-.07.19-.07.44-.15.2-.06.21-.07.42-.13.2-.05.22-.07.4-.11.21,0,.22-.06.37-.09a2.94,2.94,0,0,1,.49-.08,4,4,0,0,1,.49-.15l.27-.06.26,0,.24-.06.33-.06.26,0,.25,0,.33-.06.25,0,.25-.05.35-.05.24,0,.23,0,.37,0,.23,0,.24,0,.38,0,.22,0,.23,0,.61-.07h.14l.15,0,.78-.08h.12l.78-.07h0q1.69-.15,3.42-.27l1-.08c.91-.07,1.82-.14,2.73-.23a2.94,2.94,0,0,1,2.67,1.14,3,3,0,0,1,2.33-1.68l3.35-.41a17,17,0,0,1,2.05-.14h.06a2.94,2.94,0,0,1,2.15.92,3,3,0,0,1,2.52.31h0a7.94,7.94,0,0,1,2.58,2.75,8.19,8.19,0,0,1,.77,1.78h0a3,3,0,0,1-1.95,3.69,2.83,2.83,0,0,1-1,.12,2.94,2.94,0,0,1,1.63,2.24,3,3,0,0,1,.06.59,2.95,2.95,0,0,1-5.74.94h0c0-.11-.06-.21-.09-.31a3.7,3.7,0,0,1-.07-.48h0v0a3,3,0,0,1,2.65-3.21,2.81,2.81,0,0,1,.41,0,3,3,0,0,1-1.53-1.78,2.6,2.6,0,0,0-.25-.57h0a2.13,2.13,0,0,0-.64-.73,2.81,2.81,0,0,1-.56-.46,2.47,2.47,0,0,1-.94.15h0a9.63,9.63,0,0,0-1.34.1h0l-3.41.42a2.93,2.93,0,0,1-2.69-1.14,3,3,0,0,1-2.25,1.67h-.19l-2.84.25h0l-1,.07c-1.07.08-2.14.16-3.2.26h-.1l-.74.07h-.12l-.73.08h-.13l-.14,0-.56.06h-.2l-.2,0-.37,0-.2,0-.22,0-.31,0-.23,0-.21,0-.32.05-.21,0-.21,0-.31.06-.22,0-.2,0-.29.06-.23,0-.21.05-.24.05-.41.06-.41.13-.3.07-.17,0-.19.06-.34.09-.16,0-.19.06-.33.1-.17.05-.17.06-.34.11-.16.05-.15.06-.37.14-.15.05-.14.06-.39.16-.14.06-.1,0-.62.28-.07,0-.56.28-.07,0-.11.07c-.15.07-.29.15-.43.23l-.09,0-.12.08-.38.23-.11.06L253,471c-.13.08-.26.16-.38.25l-.11.07-.09.07-.4.28-.11.08-.07.06-.44.35-.09.07,0,0-.06.06a18.3,18.3,0,0,0-2.71,2.84c-1.1,1.42-2.92,2.29-5.73,2.76-1,.16-2,.3-3.17.45l-2,.25h-.13a3,3,0,0,1-3-1.62,3,3,0,0,1-3.09,2.25,38.05,38.05,0,0,1-29.65-9.69c-8.19-7.21-16.39-14.68-24.31-21.91l-.9-.81a19.5,19.5,0,0,1-.49-29.27l6.21-6c9-8.8,18.4-17.9,27.67-26.79,1.85-1.78,3.82-3.38,5.92-5.07l2.38-1.94,4.26-13.81a3,3,0,0,1,2-2,2.94,2.94,0,0,1,2.72.55c10,8.25,12.78,10.92,13.65,12,.73.56,3.28,2.29,6,4.11,16.58,11.22,55.4,37.49,64.49,54.57a2.95,2.95,0,0,0,1.85,3.95c4.34,8.2,16.53,18.56,30,28.91l-8.83-80.47c-.15-1.41-.3-2.81-.46-4.21-.27-2.43-.54-4.85-.8-7.28-.09-.86-.14-1.7-.21-2.76,0-.5-.07-1.05-.11-1.68a2.95,2.95,0,0,1,4.64-2.62l1.82,1.26c1.21.83,2.26,1.55,3.3,2.38l11,8.82c7.36,5.92,15,12,22.57,17.9a95.31,95.31,0,0,0,9,5.91c1.37.83,2.79,1.69,4.18,2.58l.93.4,1.08.38,1.78.58,1.5.47,2.78.67.93.2,1.35.23,1.81.26.07,0,1.73.15h7.18l1.72-.17,3.24-.49,4.34-.95,1.52-.54,1.61-.59,2.94-1.17,1.11-.55a48.11,48.11,0,0,0,22-22.89c2.62-5.44,5.4-10.84,7.77-15.4l2-3.93,3.24-6.23-3.95-3.56c-4.46-4-9.06-8.17-13.61-12.22-.89-.8-1.85-1.54-2.86-2.31l-2,3.92-1.74,3.5q-3.21,6.44-6.43,12.86c-1.76,3.49-3.57,7-5.32,10.42l-1.4,2.72c-3,5.9-7.91,9.84-13.74,11.09s-11.82-.32-16.95-4.42l-9.59-7.64c-7.89-6.27-16-12.75-24-19.22A87.23,87.23,0,0,0,312.43,332l-7.74-.71h-.07a2.93,2.93,0,0,1-2.11-1.19l-2.2-3-1.53-.19,0,0a3,3,0,0,1-1.81.89,3,3,0,0,1-.82,1.85h0l0,.05c-1.5,1.56-3.1,3.22-4.76,4.83a11.76,11.76,0,0,1,5.47,1.14,12.47,12.47,0,0,1,6.6,7.47l-.72-6.66c0-.1,0-.21,0-.32a2.95,2.95,0,0,1,5.88-.31l3.75,34.43,2,18.49h0c.05.48.07.92.09,1.35l0,.49a3,3,0,0,1-5.89.35h0v0a1.21,1.21,0,0,1,0-.19,2.77,2.77,0,0,1-.45-.85h0l0-.06-.65-1.88c-.77-2.25-1.57-4.58-2.27-6.93l0,0h0a3,3,0,0,1,2-3.67h0l-.6-5.45-.33-3.08a2.87,2.87,0,0,1-1.19.61,2.94,2.94,0,0,1-3.58-2.13c-.91-3.59-1.66-6.79-2.31-9.79,0-.09,0-.17-.05-.26l0-.17a3,3,0,0,1,2.34-3.32,2.92,2.92,0,0,1,3.39,2l-.81-7.49a2.95,2.95,0,0,1-5.79-.53c-.06-.71-.11-1.24-.16-1.73a6.39,6.39,0,0,0-3.71-5,5.55,5.55,0,0,0-5.49.26,61.7,61.7,0,0,0-7.13,5.8l-1.16,1.05c.68.62,1.34,1.25,2,1.89a55.65,55.65,0,0,0,5.21,4.58c5.12,3.78,7.23,8.7,6.64,15.48-.07.81-.12,1.61-.17,2.42,0,.13,0,.25,0,.37a2.67,2.67,0,0,1,0,.4h0v0c0,.26,0,.52,0,.79s0,.61,0,.92c0,.13,0,.25,0,.37s0,.24,0,.36h0v0c0,.69-.05,1.38-.07,2.07v.28c0,.38,0,.75,0,1.12v.42a2.88,2.88,0,0,1-.16.93,2.93,2.93,0,0,1,.14.9v.88A2.94,2.94,0,0,1,291,385.3h0a3,3,0,0,1-2.93-2.95h0v-.88a2.75,2.75,0,0,1,.17-.95,2.65,2.65,0,0,1-.14-.94v-.46c0-.23,0-.46,0-.68V378c0-.05,0-.1,0-.15v-.28c0-.68,0-1.36.07-2a2.34,2.34,0,0,1,0-.38,2.41,2.41,0,0,1,0-.38c0-.31,0-.63,0-.94s0-.59,0-.88v0h0a2.34,2.34,0,0,1,0-.39,2.8,2.8,0,0,1,0-.41h0V372c.05-.82.11-1.64.18-2.45.41-4.72-.83-7.68-4.27-10.22a61.06,61.06,0,0,1-5.75-5c-.65-.63-1.31-1.25-2-1.86a21.08,21.08,0,0,1-1.59-1.7c-.24-.28-.5-.58-.8-.9a3,3,0,0,1,.28-4.23c1.14-1,2.26-2,3.34-2.94a67.31,67.31,0,0,1,7.83-6.34c.26-.17.52-.33.79-.48a3,3,0,0,1,1-5.67c1.46-1.42,2.88-2.88,4.22-4.28A120.27,120.27,0,0,1,265.92,319c-3.68-1.46-7.31-3.13-10.82-4.74l0,0,.38,3.45a2.95,2.95,0,0,1-1.34,5.53l-.26.43c-2.15,3.45-4.32,6.91-6.48,10.36l-1,1.53,10.91,12.69a3,3,0,0,1,.65,1.31,3,3,0,0,1,1.2.84h0c.23.28.47.55.71.83l1.32,1.54,10.29,12h0q7,8.18,14.11,16.32a2.95,2.95,0,1,1-4.45,3.86h0l-.14-.16q-7-8.09-14-16.17l-10.07-11.71-2.25-2.62a3,3,0,0,0-1.85-2.15h0l-2.49-2.9q-4.32-5-8.65-10.06C221,344.47,204.43,353.44,191,366.49c-6.9,6.74-13.94,13.56-20.75,20.15l-6.22,6c-.47.46-1,.84-1.38,1.18l-.35.28-.81.88c-.7.76-1.42,1.55-2.25,2.29a49.6,49.6,0,0,0-14.18,22.44l-.67,2.75c-.09.44-.18.92-.28,1.39s-.13.92-.2,1.38l-.27,1.88-.13,1.74q0,3.11,0,6.21c.05.56.09,1.13.13,1.69v.06l.47,3.24.15.75.33,1.56.24.93.24.95c3.42,12.29,11.86,20.73,20.49,28,4.63,3.92,9.16,8.07,13.53,12.09l3.9,3.57a65.26,65.26,0,0,0,49.14,17.47c1-.05,1.94-.08,2.77-.1a2.94,2.94,0,0,1,3,2.53s0,.09,0,.14c.08.8.15,1.61.22,2.42.12,1.4.24,2.72.41,4,.64,4.81,3.67,7.47,8.55,7.5.38,0,.76,0,1.19.05l.7,0a3,3,0,0,1,2.75,3.44C251.43,527.52,251.1,529.51,250.77,531.47Zm93-14.58Zm.37-.55ZM218.53,385c-1.62,1.32-3.16,2.6-4.55,3.94-9.25,8.87-18.6,18-27.64,26.75l-6.21,6a13.6,13.6,0,0,0,.36,20.68l.89.81c7.91,7.21,16.08,14.67,24.24,21.85h0a32.12,32.12,0,0,0,22.56,8.38v-.05L223.56,431q-2.48-22.62-4.94-45.23C218.6,385.55,218.57,385.3,218.53,385Zm72.4,86Zm-4.16-140.32h0ZM252.32,509a3,3,0,0,1-2.89-2.37,2.86,2.86,0,0,1-.06-.58,3,3,0,0,1,2.34-2.89l.13,0h0a3.35,3.35,0,0,1,.53-.07,3.7,3.7,0,0,1,.5-.19l.26-.07a2.13,2.13,0,0,1,.42-.1,3,3,0,0,1,.41-.18l.25-.09a2.13,2.13,0,0,1,.43-.13,2.88,2.88,0,0,1,.38-.22l.15-.07a3,3,0,0,1,1.07-.29A2.84,2.84,0,0,1,257,501l.17-.12a2.64,2.64,0,0,1,.35-.23,2.47,2.47,0,0,1,.28-.28l.14-.13.12.13a2.68,2.68,0,0,1,.52-.74l0,0,.15-.16.14-.14.12-.15h0l.11-.13.2-.24.12-.15.08-.11c.13-.18.27-.37.39-.56h0l0,0,.06-.09,0,0c.15-.23.3-.47.44-.72a.75.75,0,0,1,.07-.12,1.3,1.3,0,0,1,.08-.17c.1-.18.19-.36.28-.54l.08-.16c0-.06.05-.11.07-.17s.17-.38.26-.58a1.42,1.42,0,0,1,.08-.18c0-.05,0-.1.05-.15l.12-.29a1.43,1.43,0,0,1,.08-.22l.15-.43,0-.06c0-.14.09-.28.14-.43v0c.09-.27.19-.54.3-.86l.28-.79a3,3,0,0,1,3.75-1.81,3,3,0,0,1,1.14.72,3.14,3.14,0,0,1,1.35.14h0l2.6.9h0a3,3,0,1,1-1.92,5.58h0l-.06,0-2.34-.81c-.06.17-.13.35-.2.53s-.07.16-.1.23-.05.13-.08.19l-.33.78-.12.23-.1.24-.39.74-.09.17-.12.23c-.21.37-.41.71-.62,1a1,1,0,0,1-.08.11l0,.06c-.2.3-.4.59-.61.88-.06.07-.11.14-.17.2l-.13.18-.3.37-.17.19a1.29,1.29,0,0,1-.19.21l-.19.23-.16.17-.17.17a3,3,0,0,1-1,.64l.16.17-.25.23a3.1,3.1,0,0,1-.53.36,2.24,2.24,0,0,1-.45.42l0,0-.06.05h0l-.13.1a4.26,4.26,0,0,0-2.65,1.58l-.22.1a2.34,2.34,0,0,1-.63.21,2.49,2.49,0,0,1-.58.31l-.3.11-.06,0a3.39,3.39,0,0,1-.61.15,2.72,2.72,0,0,1-.58.24l-.33.1a3.59,3.59,0,0,1-.72.11,2.94,2.94,0,0,1-.67.23l-.11,0h-.06A3,3,0,0,1,252.32,509Zm24-10.23a2.95,2.95,0,0,1-.47-5.86,1.86,1.86,0,0,0,1.55-1.39h0a1.84,1.84,0,0,0-.67-2.2,3,3,0,0,1-.79-3.52l-.6.07a3,3,0,0,1-3.61,1.35l-1.24-.46h0a3,3,0,0,1-.38-5.36,2.38,2.38,0,0,1,.51-.37h0a6.76,6.76,0,0,1,2.66-.85l2.12-.24.35,0A2.93,2.93,0,0,1,279,482.5a2.9,2.9,0,0,1-.28,1.63,3,3,0,0,1,1.75.67,8,8,0,0,1-3.69,14h0A2.38,2.38,0,0,1,276.31,498.81Zm6.08-13.72a2.95,2.95,0,0,1-.3-5.88h0l2.48-.23h0a9.57,9.57,0,0,0,1.24-.19,2.95,2.95,0,1,1,1.31,5.75h0a14.44,14.44,0,0,1-2,.3l-2.4.23ZM313.34,422a3,3,0,0,1-2.73-1.83h0c-.08-.19-.15-.38-.22-.57a5.3,5.3,0,0,0-.26-.63c-4.78-5.63-9.67-11.33-14.39-16.84q-3.24-3.78-6.47-7.55h0a6.18,6.18,0,0,1-.82-1.28l0-.05a2.9,2.9,0,0,1-.32-1.67,3.1,3.1,0,0,1-.14-.92v-.24c0-.58,0-1.17,0-1.75a3,3,0,0,1,2.95-2.92h0a3,3,0,0,1,2.92,2.95v0l0,1.78v.35l6.58,7.69c4.67,5.44,9.49,11.07,14.22,16.63a7.59,7.59,0,0,1,1.27,2.37,3.12,3.12,0,0,0,.15.39h0a3,3,0,0,1-1.62,3.84A2.89,2.89,0,0,1,313.34,422Zm-38.61-90.66a2.87,2.87,0,0,1-1.07-.21l-1.9-.74a3,3,0,0,1-1.87-2.75,2.86,2.86,0,0,1,.2-1.07,2.94,2.94,0,0,1,3.82-1.67l1.9.74a3,3,0,0,1,1.87,2.75,2.89,2.89,0,0,1-.2,1.07A3,3,0,0,1,274.73,331.35Zm-10.85-4.26a3,3,0,0,1-1.08-.21l-1.73-.68-.24-.1a3,3,0,0,1,2.39-5.39l1.74.69a2.95,2.95,0,0,1-1.08,5.69Z"/><g class="cls-2"><path class="cls-1" d="M235,511.22a2.92,2.92,0,0,1-2.07-.85l0,0a3,3,0,1,1,2.09.87Z"/></g><path class="cls-1" d="M463.62,345.42c-3.83,0-7.68-1.64-11.25-4.94-3.34-3.1-6.65-6.21-9.82-9.25a16,16,0,0,1-.66-22.49c1.93-2.06,3.88-4.19,5.76-6.25l.81-.89a16.94,16.94,0,0,1,6.12-4.34l.67-.26A14.88,14.88,0,0,1,471,300.16c3.7,3.35,7.33,6.82,10.44,9.82,5.85,5.63,7.08,12.1,3.66,19.24a9.89,9.89,0,0,1-1,1.51,1.64,1.64,0,0,1-.21.25l-2.61,2.73c-1.92,2-3.9,4.09-5.88,6.12C471.75,343.55,467.7,345.42,463.62,345.42Zm-2.85-44a11,11,0,0,0-3.71.69l-.43.16a11.6,11.6,0,0,0-4.18,3l-.81.89c-1.89,2.07-3.85,4.21-5.81,6.3a10.61,10.61,0,0,0,.46,14.88c3.15,3,6.43,6.12,9.75,9.19,5.17,4.78,10.52,4.63,15.48-.46,2-2,3.93-4.08,5.85-6.08l2.49-2.6c.15-.21.3-.44.35-.52,2.38-5,1.6-9-2.55-13h0c-3.08-3-6.67-6.41-10.31-9.7A9.63,9.63,0,0,0,460.77,301.41Zm21.16,27.7h0Z"/><path class="cls-1" d="M433.59,339.37a8.21,8.21,0,0,1-7.88-5.19h0c-1.74-4.29-.07-8.53,4.37-11.05a2.69,2.69,0,0,1,3.14.34l10,8.94a2.7,2.7,0,0,1-.64,4.45l-1.7.81a2.05,2.05,0,0,1-.41.16l-3.74,1.09A11,11,0,0,1,433.59,339.37Zm-2.87-7.23c.91,2.24,3.19,2,4.46,1.59l1-.3-5-4.46a2.75,2.75,0,0,0-.54,3.17Z"/><path class="cls-1" d="M310.4,313.12a110.37,110.37,0,0,1-44.61-9.66,114.74,114.74,0,0,1-49.36-41.08s0,0,0,0h0a11.86,11.86,0,0,1-1.93-7.43c.25-3.79.5-7.57.74-11.27l.17-2.53-6.82,1.26a3.2,3.2,0,0,1-3.5-1.83c-3.23-7.19-5.51-15.4-7.15-25.82-.27-1.74-.41-3.46-.55-5.12l-.05-.63a3.21,3.21,0,0,1,.65-2.2l1-1.37.53-.69.3-4.91q.38-6,.73-12.06.52-9,1-18l.34-6.22a4,4,0,0,1,.14-.77,113.76,113.76,0,0,1,39.39-56.59c2.72-2.12,5.63-4,8.44-5.76,1.24-.79,2.52-1.6,3.74-2.42a3.25,3.25,0,0,1,2.06-.52L268,98.57l2.17-.1a3.42,3.42,0,0,1,.78.06l.49.12.31.06c22,1.4,41.92,2.65,61.94,3.87a1.54,1.54,0,0,0,.46,0c2.5-1.69,5-3.48,7.44-5.21l2.6-1.84a3.14,3.14,0,0,1,1.83-.59h.53a3.46,3.46,0,0,1,1.06.17,111.94,111.94,0,0,1,27.7,14.29,106,106,0,0,1,27.37,28.34c.13.2.33.43.53.68l.39.47a3.23,3.23,0,0,1,.56,2.89l-.22.74a3.27,3.27,0,0,1-.82,1.36l-8.53,8.44a3.23,3.23,0,0,1-1.15,1.46l-3.66,2.53,1.51,2.28,5.87,8.9a3.21,3.21,0,0,1,.44,1c.14.6.29,1.19.44,1.78a40.88,40.88,0,0,1,3,20.19,3.2,3.2,0,0,1-3.38,2.76l-1.86-.12h-.11a3,3,0,0,1-1.3.18L379,192.18l-1.57,22.94a21.74,21.74,0,0,1,8.72,14.68,2.8,2.8,0,0,1,0,.71l0,.38c0,.23,0,.45,0,.61,0,8.25-3.72,14.58-10.77,18.29a19.52,19.52,0,0,1-18.2.47l-.39,6.29-.16,2.51c-.61,9.86-6.84,22.76-14.19,29.38l-.15.13c-3.94,3.55-7.9,7.14-11.85,10.72l-5.58,5.06-8.88,7.9a3.21,3.21,0,0,1-2,.81C312.76,313.1,311.57,313.12,310.4,313.12Zm-88.68-54.33a108.46,108.46,0,0,0,46.64,38.83,103.77,103.77,0,0,0,44.21,9.09l8-7.12,5.56-5q5.94-5.38,11.89-10.76l.15-.13c6-5.43,11.56-16.89,12.07-25l.15-2.52q.22-3.61.46-7.23c.06-.92.15-1.81.25-2.76q.07-.67.15-1.41a3.19,3.19,0,0,1,4.7-2.49l.55.29c.41.21.79.42,1.2.68,4.9,3.23,9.7,3.53,14.68.91s7.37-6.74,7.36-12.64c0-.41,0-.78.06-1.1a15.53,15.53,0,0,0-7.3-10.94,3.2,3.2,0,0,1-1.55-3l1.71-24.86c0-.66.1-1.33.18-2.18l.08-1a3.18,3.18,0,0,1,3.4-2.92l17.25,1.2a3.06,3.06,0,0,1,1.28-.18H395a35.15,35.15,0,0,0-2.8-13.91,3.07,3.07,0,0,1-.22-.6l-.39-1.58L386,162.09l-3.22-4.89a3.19,3.19,0,0,1,.85-4.39c1.58-1.08,3.43-2.37,5.32-3.68a3.5,3.5,0,0,1,.55-.73l1.57-1.55a3.61,3.61,0,0,1-.42.16,3.19,3.19,0,0,1-4-2.14l-1-3.46a3.19,3.19,0,0,1-4.06-4.69h0c.51-.7,1-1.41,1.5-2.11l.58-.82a3.18,3.18,0,0,1,2.54-1.35l.83,0h.2a3.2,3.2,0,0,1,3.06,2.27l2.51,8.35a3.21,3.21,0,0,1-.18,2.29l4.52-4.47a99.36,99.36,0,0,0-25.43-26.23,105.61,105.61,0,0,0-24.94-13.07l-1.41,1c-2.51,1.79-5.1,3.63-7.7,5.39a7,7,0,0,1-4.3,1c-20-1.23-39.92-2.48-62-3.87a8.33,8.33,0,0,1-1.29-.22l-.66,0a5.12,5.12,0,0,1-.66.48q-2.54,1.49-5.09,3l-2.08,1.2a3.19,3.19,0,0,1-3.36-5.43l-2-.18c-1,.64-2,1.26-2.91,1.87-2.81,1.78-5.46,3.47-7.94,5.4a107.49,107.49,0,0,0-37.1,53.08l-.32,5.82q-.49,9-1,18-.34,6-.73,12.1l-.12,1.92.47-.09,1.84-.36a3.19,3.19,0,0,1,1.21,6.27h0l-1.74.33-1.72.34-1,.2-.77.15-.22.29c-.11.13-.21.27-.31.4.11,1.41.23,2.75.44,4.07a98.87,98.87,0,0,0,5.68,21.89l8.36-1.54a3.2,3.2,0,0,1,3.77,3.35l-.44,6.63c-.25,3.71-.5,7.49-.75,11.28a5.46,5.46,0,0,0,.85,3.42h0Zm67.89,31.42c-.61,0-1.23,0-1.87-.09-1.85-.17-3.76-.28-5.61-.38-1.29-.08-2.58-.15-3.86-.24a15.05,15.05,0,0,1-13.36-9.3c-1.75-3.94-3.47-7.95-5.14-11.83l-.93-2.16a17.67,17.67,0,0,1-.66-1.91c-.12-.36-.25-.79-.42-1.29a3.2,3.2,0,0,1,3.23-4.2l28.75,1.8,20,1.25a3.19,3.19,0,0,1,2.67,4.59c-.22.44-.4.81-.55,1.14-.32.69-.58,1.23-.91,1.8h0c-2.22,3.79-4.6,7.82-7.47,12.69C300.34,287.42,295.56,290.21,289.61,290.21Zm-24.12-24.72.15.36c1.66,3.86,3.37,7.86,5.11,11.75a8.67,8.67,0,0,0,8,5.53c1.25.09,2.51.16,3.76.23,1.91.11,3.88.22,5.84.4a9.26,9.26,0,0,0,9.68-4.94q3.23-5.44,6.42-10.9L289.34,267Zm26.39-45.73h-.29a3.2,3.2,0,0,1,0-6.39h.31l.32,0a3.19,3.19,0,0,1-.34,6.37Zm-.22,0Zm73.13-8.41h-.59c-1.83-.06-3.64-.22-5.39-.38l-2.47-.2-5.41-.33-6.38-.37-2.93-.18-34-2.11a3.2,3.2,0,0,1-3-3.47l.59-6.53a3.19,3.19,0,0,1,1.17-2.2,3.25,3.25,0,0,1,2.4-.69l1,.12c.67.07,1.29.14,1.94.25,2.71.44,5.41.9,8.12,1.35,6.43,1.07,13.08,2.19,19.63,3.14a6.85,6.85,0,0,1,4.77,2.54,5.06,5.06,0,0,1,.69,1.4H345l6.31.37,2.29.14c0-.83.09-1.67.14-2.5l0-.31a3.2,3.2,0,0,1,6.38.37v0l0,.59c0,.76-.09,1.52-.13,2.28,1.45.13,2.85.24,4.24.29h.68a3.18,3.18,0,0,1,3.12,3.18v.08A3.18,3.18,0,0,1,364.79,211.34Zm-79.34-5h-.24l-15.29-1-33.85-2.21-.2,0a3.19,3.19,0,0,1-3-2.86,6.09,6.09,0,0,1,1.29-4.87,6.83,6.83,0,0,1,5.2-2h0c10-.24,19.93-.69,28.37-1.1a5.66,5.66,0,0,1,4.58,1.54,5.52,5.52,0,0,1,1.14,4.58c0,.24-.06.48-.08.74l12.24.76a3.19,3.19,0,0,1-.19,6.38Zm-18.61-7.56H267v0Zm-45.49,3.51a3.43,3.43,0,0,1-.9-.13,3.2,3.2,0,0,1-2.29-3.27l1-15.22a3.2,3.2,0,1,1,6.38.4v0l-1,15.2A3.2,3.2,0,0,1,221.35,202.33Zm136.36-9.12h-.14a3.2,3.2,0,0,1-3-2.62,73.19,73.19,0,0,1-28.64-8.05l-.13-.08-.25-.12-.19-.1-.06,0a3.22,3.22,0,0,1-1.68-2.83,3.15,3.15,0,0,1,.38-1.5,3.2,3.2,0,0,1,4.32-1.31l.19.11.06,0,.1.06.22.1a66.65,66.65,0,0,0,26.5,7.37c5,.34,5.6,3.83,5.51,5.9v0h0A3.2,3.2,0,0,1,357.71,193.21Zm-46.18-6.78a4.52,4.52,0,0,1-.51,0l-.19,0a3.38,3.38,0,0,1-.95-.29,3.66,3.66,0,0,1-.73-.1c-.72-.18-1.3-.35-1.84-.53-2.34-.79-4.64-1.67-6.87-2.63-1.19-.51-2.35-1.05-3.5-1.61l-.24-.12h0a3.19,3.19,0,1,1,2.82-5.73h0l.22.11q1.58.76,3.21,1.47c2,.89,4.16,1.7,6.31,2.43l.08,0h0l.23.08c0-.63.09-1.25.13-1.88l.09-1.23c.15-2,.29-4.06.45-6.22a3.19,3.19,0,0,1,3.18-3,3.28,3.28,0,0,1,2,.66l.06.05h0l.8.59c.45.32.81.59,1.15.85a3.19,3.19,0,0,1-1.1,5.61l-.61,8.49a3.19,3.19,0,0,1-3.19,3h-1ZM286,173.89a3.18,3.18,0,0,1-2-.67h0l-.5-.39c-9.95-7.85-17.62-18.31-22.8-31.07a2.29,2.29,0,0,0-.44-.81l-.12-.08-.32,0-.41,0-7.15-.4a3.2,3.2,0,0,1,.37-6.38h0l7.11.4h0l.89.08a20.89,20.89,0,0,0,2.79.9h0a7.6,7.6,0,0,1,3.16,3.93h0a68.4,68.4,0,0,0,20.4,28.13l.88.69h0a3.19,3.19,0,0,1-2,5.72Zm66.82-8.59a3.19,3.19,0,0,1-.93-6.25h0l.19-.06a52.86,52.86,0,0,0,20.1-11.55,3.19,3.19,0,0,1,4.3,4.72,59.18,59.18,0,0,1-22.55,13l-.17,0h0A3.06,3.06,0,0,1,352.79,165.3ZM224.29,156h-.2a3.19,3.19,0,0,1-3-3.38h0a1.09,1.09,0,0,0,0-.18q.45-7.23.89-14.46a7.88,7.88,0,0,1,.44-2.27,5,5,0,0,1,1-1.68h0a4.7,4.7,0,0,1,2.16-1.32,3.19,3.19,0,0,1,2.75,5.67q-.44,7.26-.89,14.51V153h0A3.2,3.2,0,0,1,224.29,156Zm43.8-33h-.21l-.9-.06a3.19,3.19,0,0,1-3-3.18c0-.07,0-.14,0-.21a3.18,3.18,0,0,1,3.39-3l.9.06a3.19,3.19,0,0,1,3,3.18,1.48,1.48,0,0,1,0,.21A3.19,3.19,0,0,1,268.09,123Zm-22.27-1.54a2.75,2.75,0,0,1-.57,0l-.82-.17-1.12-.24a3.19,3.19,0,0,1,1.27-6.26l1.26.27c.22.05.39.09.54.11a3.2,3.2,0,0,1-.56,6.34Z"/><path class="cls-3" d="M374.14,216.72l-7.05-2.05c.05-1.3,0-2.6.16-3.89.2-1.89-.57-2.59-2.46-2.63-2.75-.06-5.49-.38-8.24-.59l-14.74-.88-34-2.11h0c.19-2.09.38-4.18.59-6.53,1.07.14,1.94.21,2.8.35,9.26,1.52,18.51,3.15,27.8,4.5,2.59.38,3.34,1.44,2.83,3.79l14.75.88c.36-5.72.64-11.44,1.12-17.14.18-2.08-.27-2.84-2.51-3a69.83,69.83,0,0,1-39.41-15.31c-.62-.49-1.26-.94-2.33-1.74-.33,4.6-.63,8.69-.93,12.84a7.68,7.68,0,0,1-1.33,0c-1-.23-1.91-.46-2.84-.77q-31.93-10.69-44.65-41.88a4,4,0,0,0-4.07-2.94q-15.81-.85-31.6-2c-2-.13-2.7.43-2.82,2.5-1.23,20.33-2.55,40.65-3.84,61-2-.1-4.08-.23-6.12-.3-6.13-.21-6.13-.2-6.23,6-2.16.41-4.33.83-6.49,1.26-.74,1-1.26,1.66-2,2.63.16,1.85.29,3.7.57,5.52,1.36,8.6,3.33,17,6.91,25l10.87-2c-.38,5.76-.78,11.82-1.19,17.91a8.64,8.64,0,0,0,1.39,5.42l0,0a111.28,111.28,0,0,0,48,40,106.22,106.22,0,0,0,46.76,9.33l8.86-7.89q8.71-7.91,17.46-15.81l.12-.1c6.67-6,12.59-18.25,13.15-27.21.2-3.24.39-6.49.6-9.73.09-1.28.25-2.56.4-4.07.68.37,1.11.57,1.5.83,5.78,3.81,11.88,4.26,17.94,1.07s9.07-8.53,9.07-15.46c0-.41,0-.82.07-1.23A18.76,18.76,0,0,0,374.14,216.72Zm-82.27-.15h0Zm-52.41-19.9c9.49-.23,19-.64,28.46-1.1,2-.1,2.65.56,2.39,2.5-.18,1.37-.13,2.78-.19,4.17l15.32.95-15.32-.95L236.07,200C235.81,197.48,237,196.73,239.46,196.67Zm68.76,71.1c-2.47,4.23-5,8.46-7.46,12.68-2.87,4.84-7.08,7-12.72,6.49-3.18-.29-6.37-.4-9.54-.63a11.85,11.85,0,0,1-10.67-7.41c-2.07-4.63-4.05-9.29-6.05-13.95-.31-.72-.51-1.5-1-2.95l48.78,3.05C308.92,266.36,308.62,267.09,308.22,267.77Z"/><path class="cls-4" d="M248.72,470.53a21,21,0,0,0-2.56,2.79c-.77,1-2.52,1.43-3.88,1.65-3.54.58-7.12.89-10.68,1.31,0,0,0,0,0,0h0c-.15-1-.33-2.07-.44-3.12q-4.79-43.81-9.56-87.63c-.19-1.76-.45-3.51-.79-6.07l8.63-7.2S236,427.92,248.72,470.53Z"/><g class="cls-2"><path class="cls-5" d="M248.72,470.53a21,21,0,0,0-2.56,2.79c-.77,1-2.52,1.43-3.88,1.65-3.54.58-7.12.89-10.68,1.31,0,0,0,0,0,0h0c-.15-1-.33-2.07-.44-3.12q-4.79-43.81-9.56-87.63c-.19-1.76-.45-3.51-.79-6.07l8.63-7.2S236,427.92,248.72,470.53Z"/></g><path class="cls-4" d="M350,501.91c-1-9.8-2.1-19.59-3.18-29.38-15.8-11.91-33-25.52-37.2-36-8-20.12-70.34-58.74-71-60s-13.3-11.68-13.3-11.68l-4.52,14.65,8.63-7.2s6.6,55.7,19.33,98.31c6.27-5.7,14.47-6.08,22.63-6.71,3.75-.28,7.49-.71,11.22-1.2,2.62-.33,5-.12,6.44,2.4s.68,4.57-.94,6.51c.05.23,0,.44.11.52,2,1.64,3.14,3.61,2.24,6.24s-3,3.39-5.59,3.61c-3.75.33-7.48.8-11.22,1.23a3.69,3.69,0,0,0-2.12.89l4.9,1.81c3.26,1.2,4.74,3.8,3.8,6.65s-3.83,4.17-7.22,3c-2.54-.84-5.06-1.74-7.68-2.65-.31.9-.53,1.51-.73,2.11a17.55,17.55,0,0,1-3.79,6.59c4.9,9.12,10.36,15.25,16.35,16.47,31,6.33,63.54,2.88,64,2.83,0-1.37,0-2.74,0-4.12a2.33,2.33,0,0,1,1.57-2.62C348.34,511.75,350.57,508.08,350,501.91Z"/><path class="cls-4" d="M341.14,534.42H247.29c.51-3.09,1-6.18,1.58-9.45-.82-.05-1.29-.09-1.75-.09-6.33,0-10.62-3.79-11.45-10.07-.29-2.17-.42-4.38-.65-6.56,5.28-.62,10.56-1.19,15.82-1.91a16,16,0,0,0,9.93-4.78c4.9,9.12,10.35,15.25,16.35,16.47,31,6.32,63.54,2.88,64,2.83C341.15,525.38,341.14,529.9,341.14,534.42Z"/><g class="cls-2"><path class="cls-5" d="M341.14,534.42H247.29c.51-3.09,1-6.18,1.58-9.45-.82-.05-1.29-.09-1.75-.09-6.33,0-10.62-3.79-11.45-10.07-.29-2.17-.42-4.38-.65-6.56,5.28-.62,10.56-1.19,15.82-1.91a16,16,0,0,0,9.93-4.78c4.9,9.12,10.35,15.25,16.35,16.47,31,6.32,63.54,2.88,64,2.83C341.15,525.38,341.14,529.9,341.14,534.42Z"/></g><path class="cls-4" d="M465.55,355.65c-2.09,4.07-4.22,8.13-6.33,12.19-2.63,5.08-5.24,10.17-7.72,15.32a51.32,51.32,0,0,1-23.38,24.25l-1.25.61c-1.21.49-2.44,1-3.66,1.45l-2.77,1-4.6,1-1.45.24-2,.28-1.93.19H403l-1.95-.18-2-.29-1.45-.25-1-.21-2.92-.71-1-.3-2.44-.8L389,409l-1.24-.54c-4.54-2.9-9.32-5.48-13.56-8.76C362.9,391,351.81,381.88,340.59,373c-1.42-1.14-3-2.12-5-3.53.14,1.93.19,3.14.32,4.34.4,3.83.84,7.65,1.25,11.48q4.56,41.49,9.1,83l.48,4.31c-15.81-11.91-33-25.52-37.2-36-8-20.12-70.34-58.74-71-60s-13.3-11.68-13.3-11.68l-4.52,14.64c-3.28,2.75-6.21,4.93-8.82,7.44q-17,16.32-33.87,32.8c-7.45,7.25-7.29,17.94.43,25,8.35,7.61,16.69,15.23,25.17,22.69a35.16,35.16,0,0,0,27.88,8.92h0s0,0,0,0l3.42,32c-.88,0-1.8.06-2.69.11q-29.46,1.59-51.28-18.24c-5.75-5.24-11.42-10.57-17.36-15.59-9.58-8.1-18-17-21.43-29.51-.07-.32-.16-.64-.24-1s-.17-.67-.26-1l-.21-1-.3-1.5c-.08-.48-.15-1-.22-1.44l-.28-2c-.05-.65-.1-1.3-.16-1.95q0-3.22,0-6.45l.15-1.94c.09-.67.19-1.33.28-2l.21-1.45c.11-.49.21-1,.31-1.49.07-.32.13-.64.2-1l.27-1c.08-.32.16-.64.23-1a52.2,52.2,0,0,1,15.05-23.83c1.08-1,2-2.1,3-3.15.57-.47,1.16-.91,1.69-1.41q13.48-13.08,27-26.17c15.14-14.76,33.44-23.56,53.76-28.58q13.25,15.42,26.5,30.82,10.8,12.53,21.64,25a6.35,6.35,0,0,0,.62,1Q302,404.89,312.4,417.09a9.24,9.24,0,0,1,1,2.22l1.27-.9q-1.62-13.8-3.23-27.61c0-.58-.05-1.15-.11-1.72q-2.88-26.46-5.76-52.92c-.28-2.6-.49-5.21-.73-7.81l7.82.71a89.62,89.62,0,0,1,49.51,20.12c11.12,9,22.37,17.9,33.57,26.84,9.18,7.33,20.84,4.79,26.23-5.71,2.24-4.37,4.5-8.73,6.7-13.12q3.63-7.24,7.24-14.49l3.72-7.47,1.7-.81c1.65,1.3,3.36,2.53,4.92,3.92Q456,347,465.55,355.65Z"/><path class="cls-6" d="M311.48,390.8c-1.35-4.11-2.87-8.17-4-12.34-2-7.16-3.89-14.34-5.46-21.6-.78-3.65-.63-7.49-1.06-11.22-.74-6.45-8.32-10.4-13.74-6.85-3.86,2.53-7.15,5.91-10.88,9.07.9,1,1.5,1.76,2.19,2.41A96.33,96.33,0,0,0,286,357c4.44,3.27,5.94,7.32,5.46,12.84-.25,2.89-.37,5.78-.43,8.68-.09,4.38,0,8.77-.13,13.14q-10.81-12.5-21.64-25Q256,351.23,242.75,335.8q4.31-6.85,8.59-13.73c.48-.76.91-1.55,1.36-2.33l9.42,3.7,0,0q12,4.73,24,9.39c.79.31,2.16.45,2.63,0,3.05-2.92,5.92-6,8.86-9.08l4.27.53,2.95,4.05c.23,2.6.44,5.21.72,7.81q2.86,26.46,5.76,52.92C311.43,389.65,311.45,390.23,311.48,390.8Z"/><path class="cls-3" d="M231.59,476.23s0,0,0,0h0Z"/><polygon class="cls-3" points="235 508.26 235.03 508.26 235.03 508.28 235 508.26"/><path class="cls-3" d="M290.42,478.29c-.91,2.62-3,3.39-5.59,3.61-3.75.33-7.49.8-11.22,1.23a3.62,3.62,0,0,0-2.12.9l4.9,1.8c3.25,1.21,4.74,3.81,3.79,6.65s-3.82,4.17-7.21,3c-2.54-.85-5.06-1.75-7.68-2.66-.1.3-.19.56-.28.8-.18.5-.32.9-.46,1.32-2.2,6.64-6.81,10.43-13.71,11.37-5.26.71-10.54,1.28-15.82,1.91-.28-2.7-.58-5.41-.87-8.12l-2.55-23.86c3.56-.42,7.14-.74,10.68-1.31,1.36-.23,3.12-.67,3.87-1.65,6.49-8.38,15.87-8.79,25.19-9.49,3.76-.29,7.5-.73,11.24-1.2,2.61-.34,5-.13,6.42,2.39s.7,4.57-.93,6.52c0,.22,0,.43.11.51C290.16,473.7,291.32,475.66,290.42,478.29Z"/><path class="cls-7" d="M302.37,358.52c-2.09-4.53-6.67-1.83-9.63.65a27.88,27.88,0,0,0-2.6,2.45A13.68,13.68,0,0,0,286,357a90.92,90.92,0,0,1-7.47-6.7c-.71-.64-1.3-1.4-2.2-2.4,3.14-2.66,6-5.47,9.09-7.8.58-.44,1.18-.87,1.79-1.27,5.42-3.55,13,.4,13.74,6.85.43,3.73.28,7.57,1.06,11.22C302.12,357.42,302.24,358,302.37,358.52Z"/><path class="cls-3" d="M283.86,216.06l-.22,0a4.35,4.35,0,0,1,.48.05Z"/><path class="cls-8" d="M397.92,190l-3.29-.21c0,.09,0,.17,0,.27l-18.57-1.29c-.11,1.32-.2,2.2-.25,3.08l-1.71,24.86-7-2.05c.05-1.3,0-2.6.16-3.89.2-1.89-.57-2.59-2.46-2.63-2.75-.06-5.49-.38-8.23-.6.36-5.71.64-11.43,1.12-17.13.18-2.08-.27-2.84-2.51-3a69.83,69.83,0,0,1-39.41-15.31c-.62-.49-1.26-.94-2.34-1.74-.32,4.6-.62,8.69-.92,12.84a7.68,7.68,0,0,1-1.33,0c-.95-.23-1.91-.46-2.84-.77q-31.93-10.69-44.64-41.89a4,4,0,0,0-4.08-2.93q-15.81-.85-31.6-2c-2-.14-2.7.42-2.83,2.49-1.21,20.33-2.54,40.66-3.83,61-2-.1-4.08-.23-6.12-.3-6.13-.21-6.13-.2-6.23,6L202.65,206c.37-6,.75-12.08,1.1-18.12q.7-12.1,1.35-24.22c7-22.37,19.91-40.63,38.31-55,3.78-3,8-5.37,12-8l12.55,1.13a4.28,4.28,0,0,1-.85.85c-5.13,3-10.36,5.89-15.39,9.07a92.71,92.71,0,0,0-7.76,6.13c1.34.27,1.8.42,2.26.45,9.69.66,19.37,1.37,29.06,1.91,2,.11,2.87.77,3.44,2.65A55.43,55.43,0,0,0,291,144.94c13.5,14.57,30.09,21.58,50.09,19.51,18.07-1.87,32.11-10.68,42.64-25.32.84-1.16,1.66-2.34,2.49-3.51l1,0,4.53,15.07c0,.15-.06.31-.08.46l-6.22,4.31,9.1,13.79c.17.7.34,1.4.52,2.1A37.78,37.78,0,0,1,397.92,190Z"/><path class="cls-8" d="M346.58,98.11,353.52,93c6.62,3.34,13.51,6.26,19.81,10.13a106.48,106.48,0,0,1,30.6,29c.56.79,1,1.66,1.55,2.49l-4.38,6.21c-.35-.45-.74-.88-1.05-1.35A103.59,103.59,0,0,0,373.49,112,109,109,0,0,0,346.58,98.11Z"/><path class="cls-7" d="M297.67,323.77c-2.93,3.05-5.81,6.16-8.86,9.08-.47.45-1.84.31-2.63,0-11.17-4.33-22.32-8.73-33.48-13.12l-1.14-10.35c5.15,2.3,10.22,4.78,15.45,6.86A122,122,0,0,0,297.67,323.77Z"/><g class="cls-2"><path class="cls-5" d="M297.67,323.77c-2.93,3.05-5.81,6.16-8.86,9.08-.47.45-1.84.31-2.63,0-11.17-4.33-22.32-8.73-33.48-13.12l-1.14-10.35c5.15,2.3,10.22,4.78,15.45,6.86A122,122,0,0,0,297.67,323.77Z"/></g><path class="cls-4" d="M283.86,216.06l-.22,0a4.35,4.35,0,0,1,.48.05Z"/><path class="cls-4" d="M283.86,216.06l-.22,0a4.35,4.35,0,0,1,.48.05Z"/><path class="cls-4" d="M283.86,216.06l-.22,0a4.35,4.35,0,0,1,.48.05Z"/><path class="cls-9" d="M260.79,262l48.78,3.05c-.65,1.31-.95,2.05-1.35,2.72-2.47,4.24-5,8.46-7.46,12.68A12.4,12.4,0,0,1,288,286.94c-3.17-.29-6.36-.4-9.54-.63a11.85,11.85,0,0,1-10.67-7.42c-2.07-4.62-4.05-9.28-6.05-13.94C261.47,264.22,261.27,263.45,260.79,262Z"/><path class="cls-8" d="M400.89,141.59l-9.18,9.08-4.53-15.07-1,0c-.83,1.17-1.65,2.35-2.49,3.51-10.53,14.64-24.57,23.45-42.64,25.32-20,2.07-36.59-4.94-50.09-19.51a55.37,55.37,0,0,1-12.3-22.11c-.57-1.88-1.46-2.54-3.44-2.65-9.69-.54-19.37-1.25-29.06-1.91-.46,0-.92-.18-2.26-.45a92.71,92.71,0,0,1,7.76-6.13c5-3.18,10.26-6,15.39-9.07a4.28,4.28,0,0,0,.85-.85l2.38-.11a10.19,10.19,0,0,0,1.2.24q31,1.95,62,3.87a4,4,0,0,0,2.32-.47c3.45-2.33,6.82-4.78,10.22-7.19h.54A109,109,0,0,1,373.49,112a103.59,103.59,0,0,1,26.56,27.51c.31.47.7.9,1.05,1.35Z"/><g class="cls-10"><path class="cls-6" d="M400.89,141.59l-9.18,9.08-4.53-15.07-1,0c-.83,1.17-1.65,2.35-2.49,3.51-10.53,14.64-24.57,23.45-42.64,25.32-20,2.07-36.59-4.94-50.09-19.51a55.37,55.37,0,0,1-12.3-22.11c-.57-1.88-1.46-2.54-3.44-2.65-9.69-.54-19.37-1.25-29.06-1.91-.46,0-.92-.18-2.26-.45a92.71,92.71,0,0,1,7.76-6.13c5-3.18,10.26-6,15.39-9.07a4.28,4.28,0,0,0,.85-.85l2.38-.11a10.19,10.19,0,0,0,1.2.24q31,1.95,62,3.87a4,4,0,0,0,2.32-.47c3.45-2.33,6.82-4.78,10.22-7.19h.54A109,109,0,0,1,373.49,112a103.59,103.59,0,0,1,26.56,27.51c.31.47.7.9,1.05,1.35Z"/></g><path class="cls-3" d="M229.93,206.39l46.2,2.9c-.83,4-1.6,7.77-2.37,11.5-.52,2.56-1,5.13-1.58,7.68a7.21,7.21,0,0,1-7.78,6q-12.6-.69-25.2-1.6c-3.66-.26-6.34-2.29-6.82-5.62C231.41,220.5,230.77,213.67,229.93,206.39Zm10,19.61c7.56.48,15,1,22.38,1.41,5.51.33,6-.31,4-5.58-.11-.3-.23-.61-.36-.91a13.82,13.82,0,0,0-15.43-7.73A13.25,13.25,0,0,0,239.92,226Z"/><path class="cls-3" d="M299.76,210.78l46.31,2.91c-1.78,7.18-3.33,14-5.22,20.76-.82,2.91-3.78,4.58-7,4.4q-12.86-.71-25.69-1.62c-3.35-.24-6.11-2.28-6.5-5.38C300.84,225,300.4,218.07,299.76,210.78Zm8,19.49c8.66.54,17.2,1.1,25.76,1.54.46,0,1.44-1.11,1.38-1.61a18.67,18.67,0,0,0-1.25-5.19,13.64,13.64,0,0,0-15.5-7.51A13.24,13.24,0,0,0,307.74,230.27Z"/><path class="cls-8" d="M307.79,204.57c.19-2.09.38-4.18.59-6.53,1.07.14,1.94.21,2.8.35,9.26,1.52,18.51,3.15,27.8,4.5,2.59.38,3.34,1.44,2.83,3.79Z"/><path class="cls-8" d="M236.07,200c-.26-2.53.9-3.28,3.39-3.34,9.49-.23,19-.64,28.46-1.1,2-.1,2.65.56,2.39,2.5-.18,1.37-.13,2.78-.19,4.17Z"/><path class="cls-11" d="M243.53,226.22a11.24,11.24,0,0,1,9-10.86,11.7,11.7,0,0,1,13.09,6.56c.11.25.22.51.31.77,1.65,4.47,1.27,5-3.4,4.73C256.23,227.05,250,226.63,243.53,226.22Z"/><path class="cls-11" d="M309,231.2a11.23,11.23,0,0,1,8.82-10.83A11.56,11.56,0,0,1,331,226.74a16.06,16.06,0,0,1,1.06,4.41c.05.42-.78,1.38-1.17,1.36C323.59,232.14,316.33,231.66,309,231.2Z"/><polygon class="cls-12" points="291.03 205.1 304.31 249.67 291.03 249.87 291.03 205.1"/><polygon class="cls-4" points="235 508.26 235.03 508.26 235.03 508.28 235 508.26"/><path class="cls-12" d="M265,493.66c-.18.5-.32.9-.46,1.32-2.2,6.64-6.81,10.43-13.71,11.37-5.26.71-10.54,1.28-15.82,1.91-.28-2.7-.58-5.41-.87-8.12h0A34.06,34.06,0,0,0,265,493.66Z"/><g class="cls-2"><path class="cls-5" d="M465.55,355.65c-2.09,4.07-4.22,8.13-6.33,12.19L436,342.7l3.72-7.47,1.7-.81c1.65,1.3,3.36,2.53,4.92,3.92Q456,347,465.55,355.65Z"/></g><g class="cls-2"><path class="cls-5" d="M291,378.48c-.09,4.38,0,8.77-.13,13.14q-10.81-12.5-21.64-25Q256,351.23,242.75,335.8q4.31-6.85,8.59-13.73c.48-.76.91-1.55,1.36-2.33l9.42,3.7,0,0-3.37,20.47Z"/></g><path class="cls-1" d="M311.59,329c-35.69,0-61-14.62-61.23-14.77a1.23,1.23,0,0,1,1.24-2.12c.27.15,26.62,15.37,63.41,14.38a1.22,1.22,0,0,1,1.26,1.2,1.24,1.24,0,0,1-1.2,1.26C313.9,329,312.74,329,311.59,329Z"/><path class="cls-1" d="M447.05,332.7a2.93,2.93,0,0,1-2-.78L401.57,292a129.95,129.95,0,1,1,11.69-13.25L457,318.9a3,3,0,0,1,.18,4.17l-8,8.67A2.92,2.92,0,0,1,447.05,332.7ZM401.47,285a2.93,2.93,0,0,1,2,.78l43.41,39.83,4-4.33-43.58-40a3,3,0,0,1-.3-4,122.33,122.33,0,0,0,27.18-77.37,123.72,123.72,0,1,0-34.79,86A2.94,2.94,0,0,1,401.47,285Zm-91.05,27a112.14,112.14,0,1,1,79.3-32.84A111.4,111.4,0,0,1,310.42,312Zm0-218.4A106.25,106.25,0,1,0,416.67,199.87,106.37,106.37,0,0,0,310.42,93.61Z"/><path class="cls-6" d="M451.61,324.77l-4.56,5-45.58-41.83A126.67,126.67,0,0,1,208.79,124.26l13.7,10.86A109.2,109.2,0,0,0,393.54,270.68h0Z"/><g class="cls-2"><path class="cls-5" d="M451.61,324.77l-4.56,5-45.58-41.83A126.67,126.67,0,0,1,208.79,124.26l13.7,10.86A109.2,109.2,0,0,0,393.54,270.68h0Z"/></g><path class="cls-6" d="M409.25,279.09A126.67,126.67,0,1,0,208.79,124.26l13.7,10.86A109.2,109.2,0,1,1,393.54,270.68h0l58.07,54.08,3.4-3.69Z"/><path class="cls-1" d="M484.29,375.81a2.47,2.47,0,0,1-1.65-.63L420,318.48a2.47,2.47,0,0,1-.17-3.47L438,294.89a2.46,2.46,0,0,1,1.7-.8,2.41,2.41,0,0,1,1.77.63l62.69,56.7a2.46,2.46,0,0,1,.17,3.47L486.11,375A2.42,2.42,0,0,1,484.29,375.81Zm-59.22-59.33,59.05,53.4L499,353.42,440,300Z"/><polygon class="cls-13" points="502.48 353.24 492.23 364.58 484.29 373.35 421.6 316.66 430.26 307.08 439.79 296.54 502.48 353.24"/><polygon class="cls-14" points="492.23 364.58 484.29 373.35 421.6 316.66 430.26 307.08 492.23 364.58"/><path class="cls-3" d="M482.36,328a7,7,0,0,1-1.25,1.8c-2.58,2.72-5,5.48-7.66,8.17-6,6.14-13,6.34-19.25.55q-4.9-4.53-9.73-9.16a13.38,13.38,0,0,1-.56-18.8c1.79-1.9,4.67-5,6.57-7.12a14.23,14.23,0,0,1,5.13-3.65,5.2,5.2,0,0,1,.55-.21,12.16,12.16,0,0,1,13,2.62c3.52,3.18,7,6.46,10.38,9.75,4.9,4.73,5.78,9.88,2.82,16.05Z"/><path class="cls-12" d="M439.67,335.23l-3.73,1.09c-3.54,1-6.52-.19-7.72-3.16s-.05-5.84,3.19-7.68l10,8.94Z"/><path class="cls-15" d="M314.71,418.42l-1.27.89a9.22,9.22,0,0,0-1-2.22q-10.43-12.24-20.9-24.42a7.83,7.83,0,0,1-.62-1.05c.15-7.27-.07-14.58.55-21.82a14.66,14.66,0,0,0-1.22-8l-.08-.15a27.88,27.88,0,0,1,2.6-2.45c3-2.48,7.54-5.18,9.63-.65.08.37.16.74.25,1.12,1.44,6.31,3.12,12.58,4.84,18.82,1.15,4.17,2.67,8.23,4,12.34q1.06,9.17,2.15,18.33Z"/><path class="cls-7" d="M290.14,361.62l.08.15-.25,0Z"/><path class="cls-7" d="M302.79,359.61l-.17,0c-.09-.38-.17-.75-.25-1.12A9.58,9.58,0,0,1,302.79,359.61Z"/><g class="cls-2"><path class="cls-5" d="M314.71,418.42l-1.27.89a9.22,9.22,0,0,0-1-2.22q-10.43-12.24-20.9-24.42a7.83,7.83,0,0,1-.62-1.05c.15-7.27-.07-14.58.55-21.82a14.66,14.66,0,0,0-1.22-8l-.08-.15A13.68,13.68,0,0,0,286,357a90.92,90.92,0,0,1-7.47-6.7c-.71-.64-1.3-1.4-2.2-2.4,3.14-2.66,6-5.47,9.09-7.8,0,0-4.12,7.91-.73,11.66,1.83,2,5.15,3.52,8.06,7.45,2.5,3.4,4.69,8.6,5.36,17.53,1.43,19.28,15.53,32.43,15.53,32.43Z"/></g><g class="cls-16"><path class="cls-1" d="M314.71,419.65a1.22,1.22,0,0,1-.92-.43l-72-82.61a1.23,1.23,0,0,1,1.85-1.61l69.39,79.66-9.4-86.18a1.23,1.23,0,0,1,2.44-.27l9.83,90.07a1.24,1.24,0,0,1-.73,1.26A1.25,1.25,0,0,1,314.71,419.65Z"/></g><path class="cls-6" d="M353.28,43.15a2.21,2.21,0,0,1,3.06-.6,31,31,0,0,0,9.9,4.19,8.17,8.17,0,0,1,.46-2.66c1.77-5,9.74-8.69,14.45-9,3.42-.22,4.72,1.31,5.2,2.26,1.37,2.73-.94,5.95-2.8,8.15a16.48,16.48,0,0,1-11.11,5.91,11.9,11.9,0,0,0,1.31,1.47,16.5,16.5,0,0,0,10.71,4.21c-.18-2.51,1-5,3.32-7.05,4.83-4.23,12.66-5.08,16.67-3.2a4.25,4.25,0,0,1,2.76,3.94c-.07,2.88-3.17,5.48-9.77,8.16a36.57,36.57,0,0,1-5.71,1.82c3.73,2.65,10.69,4.4,18.9,3.4a2.2,2.2,0,1,1,.53,4.37c-10.77,1.33-21-1.65-25-7-6.07.21-11.5-1.62-15.49-5.42a15.37,15.37,0,0,1-3.43-4.74,32.64,32.64,0,0,1-13.4-5.12,2.44,2.44,0,0,1-.6-.6A2.22,2.22,0,0,1,353.28,43.15Zm24.16-2.66c-3.29,1.3-6,3.37-6.59,5a4.14,4.14,0,0,0-.19,1.63,12.45,12.45,0,0,0,9.53-4.52,11.23,11.23,0,0,0,2.07-3.15A11.13,11.13,0,0,0,377.44,40.49Zm13.25,12.86c-1.63,1.43-1.91,2.64-1.83,3.48a30.66,30.66,0,0,0,6.92-2c4.91-2,6.42-3.44,6.87-4C401,50,394.6,49.92,390.69,53.35Z"/><path class="cls-6" d="M388.39,444.51a2.21,2.21,0,0,1,2.94-1,31.14,31.14,0,0,0,10.39,2.75,8.4,8.4,0,0,1,.07-2.7c1-5.24,8.42-10,13-10.95,3.37-.7,4.87.64,5.47,1.5l0,.05c1.68,2.51-.13,6-1.65,8.41A16.47,16.47,0,0,1,408.52,450a11.78,11.78,0,0,0,1.51,1.27,16.44,16.44,0,0,0,11.19,2.65c-.54-2.45.24-5.06,2.29-7.45,4.18-4.87,11.81-6.82,16.05-5.52a4.25,4.25,0,0,1,3.29,3.5c.34,2.87-2.37,5.88-8.51,9.47a36.06,36.06,0,0,1-5.41,2.6c4.07,2.1,11.22,2.85,19.2.69a2.21,2.21,0,0,1,1.15,4.26c-10.48,2.83-21,1.33-25.72-3.44-6,1.07-11.61,0-16.09-3.16a15.43,15.43,0,0,1-4.07-4.21,32.62,32.62,0,0,1-14-3.18,2.16,2.16,0,0,1-.86-.75A2.19,2.19,0,0,1,388.39,444.51Zm23.53-6.05c-3.07,1.75-5.46,4.18-5.8,5.93a4,4,0,0,0,0,1.64A12.46,12.46,0,0,0,415,440.2a11.08,11.08,0,0,0,1.6-3.41A11.06,11.06,0,0,0,411.92,438.46Zm14.94,10.85c-1.41,1.64-1.52,2.88-1.32,3.7a30.31,30.31,0,0,0,6.57-2.93c4.58-2.68,5.87-4.31,6.23-4.95C436.59,444.48,430.25,445.36,426.86,449.31Z"/><path class="cls-6" d="M162.46,518.57a2.21,2.21,0,0,1,3-.85,41,41,0,0,0,10.75,4.35c.87-2.34,2.78-4.92,5.76-7.79,6-5.83,9.61-4,10.87-2.91,2.51,2.12,2.52,6.45,0,10-2.13,3.07-5.9,5.38-11.32,5.57,2.62,1.6,8.22,2.19,12,2a2.21,2.21,0,1,1,.17,4.41c-2.45.09-14.84.26-17.55-6.06a5.63,5.63,0,0,1-.31-.9,43.88,43.88,0,0,1-12.56-4.91,2.16,2.16,0,0,1-.75-.69A2.21,2.21,0,0,1,162.46,518.57ZM190,514.73c-.22-.19-1.81-.31-4.95,2.72a22.36,22.36,0,0,0-4.24,5.17c4.15,0,7-1.55,8.45-3.71,1.25-1.81,1.22-3.51.84-4.06A.4.4,0,0,0,190,514.73Z"/><path class="cls-6" d="M93,341.66a2.21,2.21,0,0,1,3.12.11c3.27,3.49,8.74,7.78,12.17,8.05-4.57-4.5-5.9-9.49-5.15-13.72.82-4.71,4.11-8.05,7.65-7.79,1.78.13,5.93,1.43,6.15,10.63.11,4.74-.42,8.34-1.62,10.86A45.3,45.3,0,0,0,127.62,355a2.21,2.21,0,1,1-1.18,4.25,48.53,48.53,0,0,1-14-6,5.92,5.92,0,0,1-1.06.55c-7,2.85-16.64-7-18.5-8.94a1.42,1.42,0,0,1-.22-.28A2.2,2.2,0,0,1,93,341.66Zm19.53-2.61c-.11-4.52-1.33-6.29-2.07-6.34s-2.49,1.31-3,4.14c-.54,3.08.57,6.73,4.2,10.17A24.31,24.31,0,0,0,112.54,339.05Z"/><path class="cls-6" d="M129.94,144.47a2.2,2.2,0,0,1,3.11.11c3.27,3.49,8.75,7.78,12.18,8-4.58-4.51-5.9-9.49-5.16-13.73.82-4.7,4.11-8.05,7.66-7.78,1.77.13,5.93,1.43,6.14,10.63.12,4.73-.42,8.34-1.62,10.86a45.84,45.84,0,0,0,12.3,5.16,2.21,2.21,0,0,1-1.18,4.25,48.8,48.8,0,0,1-14-6,6,6,0,0,1-1.07.55c-7,2.85-16.63-6.95-18.5-8.94a3,3,0,0,1-.22-.28A2.21,2.21,0,0,1,129.94,144.47Zm19.53-2.61c-.11-4.52-1.33-6.29-2.07-6.34s-2.49,1.31-3,4.14c-.53,3.08.58,6.73,4.21,10.16A24.24,24.24,0,0,0,149.47,141.86Z"/><path class="cls-6" d="M468.09,219.41a2.2,2.2,0,0,1,3.66-2.46h0c3.09,4.62,6.73,7.29,9.65,8.42a28.19,28.19,0,0,1-1.21-3c-1.78-5.29-1.78-8.51,0-10.13a3.72,3.72,0,0,1,4.18-.45c3.19,1.42,6.72,6.52,6.68,11.54a7.16,7.16,0,0,1-2.11,5.38,11.67,11.67,0,0,0,6.87,3.43l.43,0a12.79,12.79,0,0,1-1.63-8.75c.36-2.29,1.13-5.4,3.67-6,.89-.23,2.65-.26,4.4,2.05,2.25,2.91,4.12,9.55,2,13.21a6.12,6.12,0,0,1-.91,1.23,23,23,0,0,0,6.52,3.1h0a2.21,2.21,0,1,1-1.16,4.26,25.14,25.14,0,0,1-9.47-5,12.12,12.12,0,0,1-4.29.31,16.06,16.06,0,0,1-10.86-6.12c-5.17.18-11.84-4.16-16.38-10.9Zm15.18-3.15a19,19,0,0,0,1.1,4.71,22.93,22.93,0,0,0,1.85,4.17,3.47,3.47,0,0,0,.43-1.85,10.11,10.11,0,0,0-3.38-7Zm17.61,14.2c1-1.81-.32-6.3-1.51-8.13a12.81,12.81,0,0,0-.4,1.77,8.78,8.78,0,0,0,1.63,6.74A2.31,2.31,0,0,0,500.88,230.46Z"/></g></svg>