<svg id="Layer_1" data-name="Layer 1" xmlns="http://www.w3.org/2000/svg" viewBox="0 0 600 600"><defs><style>.cls-1{fill:#fff;}.cls-2{fill:#90acf1;}.cls-3{opacity:0.5;}.cls-4{fill:#f8c469;}.cls-5{opacity:0.3;}.cls-6{fill:none;stroke:#424242;stroke-linecap:round;stroke-linejoin:round;stroke-width:11px;}.cls-7{fill:#c2dc8f;}.cls-8{fill:#aec341;}.cls-9{fill:#424242;}</style></defs><title>share picture</title><g id="share_image" data-name="share image"><path class="cls-1" d="M453.77,126V418.32a35.93,35.93,0,0,1-35.94,35.94H125.32a35.93,35.93,0,0,1-35.93-35.94V126a35.93,35.93,0,0,1,35.93-35.93H417.83A35.93,35.93,0,0,1,453.77,126Z"/><rect class="cls-2" x="116.96" y="125.78" width="309.24" height="227.03" rx="34.05"/><polygon class="cls-2" points="426.2 125.78 426.2 352.82 426.2 352.82 116.96 352.82 116.96 125.78 426.2 125.78 426.2 125.78"/><path class="cls-1" d="M408.18,219.61V320.07a13.47,13.47,0,0,1-13.53,13.3H203.82l156.42-161.7Z"/><g class="cls-3"><polygon class="cls-1" points="287.49 246.88 253.58 212.96 133.64 332.9 207.3 332.9 287.49 246.88"/></g><circle class="cls-4" cx="180.1" cy="167.99" r="23.72"/><g class="cls-5"><circle class="cls-1" cx="180.1" cy="167.99" r="23.72"/></g><rect class="cls-6" x="89.39" y="90.08" width="364.38" height="364.18" rx="35.93"/><path class="cls-7" d="M553.72,423.7a100,100,0,0,1-131.33,94.92c-2-.66-4-1.4-6-2.2A100,100,0,1,1,553.72,423.7Z"/><path class="cls-8" d="M540.6,473.23a100.07,100.07,0,0,1-118.21,45.39c-2-.66-4-1.4-6-2.2l-19.34-41.93,14.57-45.57,61.69-12.61h38.93Z"/><path class="cls-1" d="M512.24,416.31l-53.13-43.4v19.87s-76.26,11.71-62.06,81.71c0,0,12.73-45.27,62.06-40.85v26.07Z"/><path class="cls-9" d="M453.76,528.32a104.38,104.38,0,0,1-32.84-5.26c-2-.67-4.14-1.44-6.28-2.31a104.71,104.71,0,1,1,39.12,7.57Zm0-199.91A95.31,95.31,0,0,0,418.13,512.1c1.95.78,3.87,1.49,5.71,2.09a95.3,95.3,0,1,0,29.92-185.78Z"/></g></svg>