<svg id="Layer_1" data-name="Layer 1" xmlns="http://www.w3.org/2000/svg" viewBox="0 0 600 600"><defs><style>.cls-1{fill:#aec8f8;}.cls-2{fill:#424242;}.cls-3{fill:#90acf1;}.cls-4{fill:#fff;}.cls-5{opacity:0.1;}.cls-6{fill:#c2dc8f;}.cls-7{fill:#aec341;}.cls-8{fill:silver;}.cls-9{fill:#d2916e;}.cls-10{fill:#b47d64;}</style></defs><title>share video</title><path class="cls-1" d="M101.05,140.5l1.8,23.25a1.38,1.38,0,0,1-1.11,1.47l-28,5.58a1.39,1.39,0,0,0-.27,2.64l34.13,14.31a1.37,1.37,0,0,1,.85,1.26l.23,21.12a1.39,1.39,0,0,0,2.62.63l13.88-26.65a1.36,1.36,0,0,1,.89-.7L140,179.9a1.39,1.39,0,0,0,.56-2.4l-12.75-10.91a1.38,1.38,0,0,1-.24-1.85l9.86-14a1.39,1.39,0,0,0-1.43-2.16l-22.43,4.87a1.4,1.4,0,0,1-1.46-.6l-8.53-13.18A1.39,1.39,0,0,0,101.05,140.5Z"/><path class="cls-2" d="M141.79,180.35a2.75,2.75,0,0,1-1.43.89l-13.93,3.51L112.55,211.4a2.77,2.77,0,0,1-5.23-1.25L107.09,189,73,174.72a2.77,2.77,0,0,1,.53-5.28l28-5.58-1.8-23.25a2.77,2.77,0,0,1,5.09-1.72l8.53,13.18,22.44-4.87a2.78,2.78,0,0,1,2.85,4.31l-9.86,14,12.76,10.91a2.77,2.77,0,0,1,.9,2.74A2.65,2.65,0,0,1,141.79,180.35ZM124.32,183a2.78,2.78,0,0,1,1.44-.89l13.92-3.5-12.75-10.92a2.75,2.75,0,0,1-.47-3.7l9.86-14-22.44,4.85a2.78,2.78,0,0,1-2.91-1.2l-8.54-13.18-1.38.11,1.38-.11,1.8,23.25a2.77,2.77,0,0,1-2.22,2.93l-28,5.58,34.13,14.32a2.79,2.79,0,0,1,1.7,2.53l.23,21.12L124,183.47A3.15,3.15,0,0,1,124.32,183Z"/><path class="cls-1" d="M267.61,50.89l16.31,9.64a1.13,1.13,0,0,1,.46,1.43L275,83.17a1.13,1.13,0,0,0,1.63,1.41l25.44-16a1.12,1.12,0,0,1,1.24,0l14.15,9.69a1.13,1.13,0,0,0,1.64-1.45L307.89,55.16a1.1,1.1,0,0,1-.05-.92L312,43.34a1.13,1.13,0,0,0-1.33-1.5l-13.21,3.41a1.14,1.14,0,0,1-1.34-.71l-4.73-13.11a1.14,1.14,0,0,0-2.11-.05l-7.22,17.19a1.12,1.12,0,0,1-1.08.69l-12.75-.47A1.13,1.13,0,0,0,267.61,50.89Z"/><path class="cls-2" d="M318.54,79.93a2.62,2.62,0,0,1-1.88-.43l-14-9.57L277.46,85.84a2.61,2.61,0,0,1-3.78-3.27l9.21-20.92-16-9.48h0a2.61,2.61,0,0,1,1.42-4.86l12.51.46,7.13-17a2.61,2.61,0,0,1,4.86.13l4.62,12.8,12.89-3.32a2.61,2.61,0,0,1,3.1,3.46l-4.11,10.75,11.18,21.52a2.58,2.58,0,0,1-.59,3.16A2.53,2.53,0,0,1,318.54,79.93Zm-49-29.61,15.1,8.93a2.63,2.63,0,0,1,1.07,3.31l-8.88,20.15L301.32,67.3a2.6,2.6,0,0,1,2.87,0l13,8.9-10.6-20.4a2.62,2.62,0,0,1-.12-2.14l3.92-10.26-12.54,3.23A2.58,2.58,0,0,1,294.72,45L290.3,32.79l-6.87,16.36a2.63,2.63,0,0,1-2.51,1.59Zm13.59,11.49h0Z"/><path class="cls-3" d="M435.44,136.67l14.28.26a.84.84,0,0,1,.83.76l1.77,17.38a.85.85,0,0,0,1.59.32l10.72-20a.85.85,0,0,1,.82-.45l12.89,1.09a.85.85,0,0,0,.53-1.56l-15.44-10a.84.84,0,0,1-.37-.59l-1.33-8.69a.85.85,0,0,0-1.43-.49l-7.39,7.15a.86.86,0,0,1-1.15,0l-8-6.83a.85.85,0,0,0-1.4.75l1.66,14a.85.85,0,0,1-.45.85l-8.54,4.44A.85.85,0,0,0,435.44,136.67Z"/><path class="cls-2" d="M453.78,157a2.1,2.1,0,0,1-2.7-1.79l-1.73-17-13.93-.24a2.1,2.1,0,0,1-.93-4l8.29-4.31L441.15,116a2.09,2.09,0,0,1,1.1-2.1,2.06,2.06,0,0,1,2.35.26l7.7,6.59,7.13-6.89A2.1,2.1,0,0,1,463,115l1.3,8.52,15.29,9.92a2.09,2.09,0,0,1-1.32,3.84l-12.63-1.07L455,156A2.11,2.11,0,0,1,453.78,157ZM437,135.45l12.73.23a2.1,2.1,0,0,1,2.05,1.88l1.64,16.1,10.1-18.83a2.09,2.09,0,0,1,2-1.1l11.33,1-14.12-9.16a2.08,2.08,0,0,1-.93-1.44l-1.21-7.94-6.85,6.61a2.09,2.09,0,0,1-2.81.09l-7.22-6.18,1.54,13a2.08,2.08,0,0,1-1.11,2.1Zm-1.55,0Zm28.83-11.71Z"/><path class="cls-4" d="M463,265V434.71a35.63,35.63,0,0,1-35.63,35.63h-260a35.63,35.63,0,0,1-35.45-35.63V265Z"/><g class="cls-5"><path d="M236.73,274.3c-28.13,19.27-60.86,41.72-89.8,61.57V274.3Z"/></g><g class="cls-5"><path d="M447.92,274.3V277L179.15,461a32.4,32.4,0,0,1-32.22-32.39V388.3l182.19-114Z"/></g><g class="cls-5"><polygon points="447.92 333.21 447.92 350.29 304.84 461 269.27 461 447.92 333.21"/></g><g class="cls-5"><path d="M447.92,383.72v44.89A32.39,32.39,0,0,1,415.53,461H355.44C385.57,435.66,422.65,404.59,447.92,383.72Z"/></g><polygon class="cls-6" points="343.04 366.24 265.3 411.02 265.33 383.02 265.34 366.17 265.38 321.3 304.21 343.77 321.29 353.66 343.04 366.24"/><polygon class="cls-7" points="343.04 366.24 265.3 411.02 265.33 383.02 321.29 353.66 343.04 366.24"/><path class="cls-2" d="M265.3,414.09a3,3,0,0,1-1.54-.41,3.07,3.07,0,0,1-1.53-2.66l.08-89.72a3.08,3.08,0,0,1,4.61-2.66l77.66,44.94a3.07,3.07,0,0,1,0,5.32l-77.74,44.78A3,3,0,0,1,265.3,414.09Zm3.15-87.47-.08,79.09,68.53-39.47-17.15-9.92h0Z"/><path class="cls-2" d="M427.35,473.92h-260a39.29,39.29,0,0,1-39-39.21V265a3.58,3.58,0,0,1,3.58-3.58H463a3.59,3.59,0,0,1,3.59,3.58V434.71A39.26,39.26,0,0,1,427.35,473.92ZM135.45,268.54V434.71a32.11,32.11,0,0,0,31.88,32.05h260a32.08,32.08,0,0,0,32-32.05V268.54Z"/><rect class="cls-4" x="131.87" y="225.63" width="331.12" height="39.21"/><polygon class="cls-8" points="376.3 225.63 346.48 264.83 305.25 264.83 335.06 225.63 376.3 225.63"/><polygon class="cls-8" points="289.61 225.63 259.8 264.83 218.56 264.83 248.37 225.63 289.61 225.63"/><polygon class="cls-8" points="202.92 225.63 173.11 264.83 131.87 264.83 161.68 225.63 202.92 225.63"/><polygon class="cls-8" points="462.98 225.63 433.17 264.83 391.94 264.83 421.75 225.63 462.98 225.63"/><path class="cls-2" d="M463,268.42H131.87a3.58,3.58,0,0,1-3.58-3.59v-39.2a3.58,3.58,0,0,1,3.58-3.58H463a3.58,3.58,0,0,1,3.59,3.58v39.2A3.59,3.59,0,0,1,463,268.42Zm-327.53-7.17h324v-32H135.45Z"/><rect class="cls-4" x="296.59" y="-18.97" width="39.21" height="331.12" transform="translate(63.72 386.85) rotate(-68.45)"/><polygon class="cls-8" points="382.36 193.79 369.02 146.38 330.67 131.23 344 178.64 382.36 193.79"/><polygon class="cls-8" points="301.73 161.95 288.4 114.54 250.04 99.39 263.37 146.81 301.73 161.95"/><polygon class="cls-8" points="221.09 130.11 207.77 82.7 169.41 67.55 182.74 114.97 221.09 130.11"/><polygon class="cls-8" points="462.98 225.63 449.65 178.22 411.3 163.07 424.63 210.48 462.98 225.63"/><path class="cls-2" d="M463,229.21a3.5,3.5,0,0,1-1.31-.25l-308-121.61a3.57,3.57,0,0,1-2-4.65l14.4-36.46a3.58,3.58,0,0,1,4.65-2l308,121.61a3.59,3.59,0,0,1,2,4.65L466.32,227a3.61,3.61,0,0,1-1.91,2A3.69,3.69,0,0,1,463,229.21ZM159.66,102,449.9,216.61h0L461,221l11.77-29.8L171.43,72.2Z"/><path class="cls-9" d="M551.93,466.76a89,89,0,0,1-116.87,84.48c-1.81-.6-3.59-1.26-5.34-2a89,89,0,1,1,122.21-82.52Z"/><path class="cls-10" d="M540.26,510.84a89.08,89.08,0,0,1-105.2,40.4c-1.81-.6-3.59-1.26-5.34-2L412.51,512l13-40.56,54.91-11.21H515Z"/><path class="cls-4" d="M515,460.18l-47.28-38.62v17.69S399.88,449.67,412.51,512c0,0,11.33-40.29,55.23-36.36v23.21Z"/><path class="cls-2" d="M463,559.86a92.86,92.86,0,0,1-29.23-4.68c-1.8-.59-3.68-1.28-5.58-2A93.21,93.21,0,1,1,463,559.86ZM463,382a84.81,84.81,0,0,0-31.71,163.46c1.74.7,3.45,1.33,5.08,1.87A84.81,84.81,0,1,0,463,382Z"/></svg>