<svg id="Layer_1" data-name="Layer 1" xmlns="http://www.w3.org/2000/svg" viewBox="0 0 600 600"><defs><style>.cls-1{fill:#f8c469;}.cls-2{fill:#424242;}.cls-3{fill:#fff;}.cls-4{opacity:0.1;}.cls-5{fill:#d2906f;}.cls-6{fill:#b47f65;}.cls-7{fill:#aec341;}.cls-8{fill:#aec8f8;}.cls-9{opacity:0.5;}.cls-10{fill:#90acf1;}.cls-11{fill:#fefefe;}</style></defs><title>upload video</title><g id="upload_video" data-name="upload video"><path class="cls-1" d="M78.33,145.77l1.86,24a1.42,1.42,0,0,1-1.14,1.51L50.19,177a1.43,1.43,0,0,0-.27,2.72L85.11,194.5a1.41,1.41,0,0,1,.88,1.3l.24,21.78a1.43,1.43,0,0,0,2.7.65l14.31-27.48a1.41,1.41,0,0,1,.92-.73l14.36-3.62a1.44,1.44,0,0,0,.59-2.48L106,172.68a1.43,1.43,0,0,1-.24-1.91l10.16-14.47a1.43,1.43,0,0,0-1.47-2.22l-23.13,5a1.45,1.45,0,0,1-1.51-.63L81,144.88A1.43,1.43,0,0,0,78.33,145.77Z"/><path class="cls-2" d="M120.35,186.87a2.82,2.82,0,0,1-1.48.91l-14.36,3.62L90.2,218.88a2.86,2.86,0,0,1-5.4-1.28l-.24-21.78L49.37,181.06a2.85,2.85,0,0,1-1.74-2.93,2.81,2.81,0,0,1,2.28-2.51l28.86-5.76-1.86-24a2.86,2.86,0,0,1,5.25-1.77L91,157.7l23.14-5a2.86,2.86,0,0,1,2.94,4.44l-10.17,14.47L120,182.84a2.86,2.86,0,0,1,.93,2.83A2.91,2.91,0,0,1,120.35,186.87Zm-18,2.68a2.85,2.85,0,0,1,1.47-.92L118.18,185,105,173.76a2.84,2.84,0,0,1-.48-3.81l10.17-14.47-23.14,5a2.89,2.89,0,0,1-3-1.24l-8.8-13.59-1.43.11,1.42-.11,1.87,24a2.86,2.86,0,0,1-2.29,3l-28.86,5.75,35.19,14.77a2.87,2.87,0,0,1,1.76,2.6l.24,21.78L102,190.09A2.58,2.58,0,0,1,102.34,189.55Z"/><path class="cls-1" d="M250.1,53.36l16.82,9.94a1.16,1.16,0,0,1,.47,1.47l-9.63,21.88a1.16,1.16,0,0,0,1.69,1.45l26.23-16.52a1.17,1.17,0,0,1,1.28,0l14.59,10a1.16,1.16,0,0,0,1.69-1.49l-11.6-22.34a1.17,1.17,0,0,1-.06-1l4.3-11.25A1.16,1.16,0,0,0,294.5,44l-13.62,3.51a1.16,1.16,0,0,1-1.38-.73L274.62,33.3a1.16,1.16,0,0,0-2.17-.06L265,51a1.15,1.15,0,0,1-1.11.71l-13.15-.48A1.16,1.16,0,0,0,250.1,53.36Z"/><path class="cls-2" d="M302.62,83.31a2.61,2.61,0,0,1-1.93-.45L286.29,73l-26,16.4a2.7,2.7,0,0,1-3.9-3.37l9.5-21.57-16.54-9.78h0a2.68,2.68,0,0,1-1.21-3.08,2.65,2.65,0,0,1,2.68-1.93l12.9.47L271,32.65a2.7,2.7,0,0,1,5,.13L280.82,46l13.3-3.42a2.7,2.7,0,0,1,3.19,3.57l-4.24,11.09L304.6,79.4a2.66,2.66,0,0,1-.6,3.26A2.63,2.63,0,0,1,302.62,83.31ZM252.13,52.78,267.7,62a2.69,2.69,0,0,1,1.09,3.4l-9.15,20.78,25.22-15.89a2.7,2.7,0,0,1,3,.06l13.39,9.17-10.93-21a2.72,2.72,0,0,1-.13-2.2l4.05-10.58L281.27,49a2.67,2.67,0,0,1-3.21-1.69L273.5,34.7l-7.09,16.86a2.69,2.69,0,0,1-2.58,1.65Zm14,11.84h0Z"/><path class="cls-1" d="M423.18,141.82l14.72.26a.89.89,0,0,1,.86.79l1.82,17.93a.88.88,0,0,0,1.65.32l11-20.59a.86.86,0,0,1,.84-.46l13.29,1.13a.88.88,0,0,0,.55-1.61l-15.91-10.33a.87.87,0,0,1-.39-.6l-1.37-9a.88.88,0,0,0-1.48-.5l-7.62,7.37a.88.88,0,0,1-1.18,0l-8.23-7a.88.88,0,0,0-1.44.77l1.71,14.39a.87.87,0,0,1-.46.89l-8.8,4.57A.87.87,0,0,0,423.18,141.82Z"/><path class="cls-2" d="M442.09,162.78a2.19,2.19,0,0,1-1,.05,2.14,2.14,0,0,1-1.73-1.9l-1.79-17.57-14.36-.25a2.16,2.16,0,0,1-1-4.08l8.55-4.44-1.68-14.12a2.14,2.14,0,0,1,1.13-2.16,2.12,2.12,0,0,1,2.42.27l7.94,6.8,7.36-7.11a2.16,2.16,0,0,1,3.64,1.22l1.34,8.79,15.76,10.23a2.16,2.16,0,0,1-1.35,4l-13-1.1-10.92,20.36A2.15,2.15,0,0,1,442.09,162.78ZM424.8,140.57l13.12.23a2.16,2.16,0,0,1,2.11,1.94l1.69,16.61,10.43-19.43a2.15,2.15,0,0,1,2.08-1.13l11.68,1-14.56-9.44a2.16,2.16,0,0,1-1-1.49l-1.25-8.19-7.06,6.82a2.16,2.16,0,0,1-2.9.09l-7.44-6.37,1.59,13.36a2.18,2.18,0,0,1-1.15,2.17Zm-1.6,0Zm29.72-12.08Z"/><path class="cls-3" d="M451.58,274.12V449.18a36.74,36.74,0,0,1-36.74,36.74H146.67a36.74,36.74,0,0,1-36.55-36.74V274.12Z"/><g class="cls-4"><path d="M218.26,283.75c-29,19.88-62.77,43-92.61,63.5v-63.5Z"/></g><g class="cls-4"><path d="M436.05,283.75v2.76L158.88,476.28a33.4,33.4,0,0,1-33.23-33.39V401.32L313.53,283.75Z"/></g><g class="cls-4"><polygon points="436.05 344.51 436.05 362.12 288.5 476.28 251.81 476.28 436.05 344.51"/></g><g class="cls-4"><path d="M436.05,396.59v46.3a33.4,33.4,0,0,1-33.4,33.39h-62C371.75,450.16,410,418.11,436.05,396.59Z"/></g><polygon class="cls-5" points="327.89 378.57 247.72 424.75 247.75 395.87 247.76 378.49 247.81 332.23 287.85 355.4 305.45 365.59 327.89 378.57"/><polygon class="cls-6" points="327.89 378.57 247.72 424.75 247.75 395.87 305.45 365.59 327.89 378.57"/><path class="cls-2" d="M247.72,427.92a3.22,3.22,0,0,1-1.59-.43,3.17,3.17,0,0,1-1.58-2.74l.09-92.53a3.17,3.17,0,0,1,1.58-2.74,3.2,3.2,0,0,1,3.17,0l80.08,46.35a3.17,3.17,0,0,1,0,5.48L249.3,427.49A3.11,3.11,0,0,1,247.72,427.92ZM251,337.71l-.08,81.56,70.66-40.71-17.68-10.23h0Z"/><path class="cls-2" d="M414.84,489.61H146.67a40.52,40.52,0,0,1-40.25-40.43V274.12a3.7,3.7,0,0,1,3.7-3.7H451.58a3.7,3.7,0,0,1,3.7,3.7V449.18A40.48,40.48,0,0,1,414.84,489.61Zm-301-211.8V449.18a33.12,33.12,0,0,0,32.88,33.05H414.84a33.09,33.09,0,0,0,33.05-33.05V277.81Z"/><rect class="cls-3" x="110.12" y="233.56" width="341.46" height="40.43"/><polygon class="cls-7" points="362.18 233.56 331.44 273.99 288.91 273.99 319.66 233.56 362.18 233.56"/><polygon class="cls-7" points="272.79 233.56 242.04 273.99 199.52 273.99 230.26 233.56 272.79 233.56"/><polygon class="cls-7" points="183.39 233.56 152.64 273.99 110.12 273.99 140.86 233.56 183.39 233.56"/><polygon class="cls-7" points="451.58 233.56 420.84 273.99 378.31 273.99 409.06 233.56 451.58 233.56"/><path class="cls-2" d="M451.58,277.69H110.12a3.7,3.7,0,0,1-3.7-3.7V233.56a3.7,3.7,0,0,1,3.7-3.69H451.58a3.7,3.7,0,0,1,3.7,3.69V274A3.7,3.7,0,0,1,451.58,277.69ZM113.81,270.3H447.89v-33H113.81Z"/><rect class="cls-3" x="279.99" y="-18.68" width="40.43" height="341.46" transform="translate(48.52 375.43) rotate(-68.45)"/><polygon class="cls-7" points="368.43 200.73 354.69 151.83 315.13 136.21 328.88 185.11 368.43 200.73"/><polygon class="cls-7" points="285.28 167.89 271.54 119 231.98 103.38 245.73 152.27 285.28 167.89"/><polygon class="cls-7" points="202.13 135.06 188.39 86.16 148.83 70.54 162.58 119.44 202.13 135.06"/><polygon class="cls-7" points="451.58 233.56 437.84 184.66 398.28 169.05 412.03 217.94 451.58 233.56"/><path class="cls-2" d="M451.58,237.26a3.68,3.68,0,0,1-1.35-.26L132.63,111.58a3.67,3.67,0,0,1-2.08-4.79l14.85-37.6a3.69,3.69,0,0,1,4.79-2.08l317.6,125.41a3.7,3.7,0,0,1,2.08,4.79L455,234.92a3.7,3.7,0,0,1-2,2A3.76,3.76,0,0,1,451.58,237.26ZM138.78,106.07,438.09,224.26h0l11.41,4.51L461.64,198,150.91,75.34Z"/><path class="cls-8" d="M548.63,465.64a97.54,97.54,0,0,1-141,87.3c-1.44-.72-2.87-1.48-4.28-2.26a97.52,97.52,0,1,1,145.25-85Z"/><g class="cls-9"><polygon class="cls-10" points="420.82 438.35 365.7 504.08 374.51 529.11 402.16 531.24 434.49 518.45 433.15 514.49 456.73 486.37 454.56 480.32 451.58 448.71 453.63 428.63 442.82 425.79 432.98 437.39 420.82 438.35"/></g><polygon class="cls-10" points="499.84 518.7 499.8 518.75 466.92 560.42 428.13 561.27 394.44 545.63 375.61 525.79 369.14 518.7 402.23 479.18 402.67 478.66 411.82 482.43 411.82 510.1 478.97 510.1 499.84 518.7"/><path class="cls-11" d="M426.92,448.8a7,7,0,0,0,5-2.05l12.24-12.24v47.62a7,7,0,1,0,14,0V434.51l12.24,12.24a7,7,0,0,0,12-5,6.93,6.93,0,0,0-2.06-5l-24.2-24.21c-.12-.12-.25-.23-.38-.34l-.13-.12a6.37,6.37,0,0,0-.75-.53l-.16-.09a6.81,6.81,0,0,0-2.84-.93,5.32,5.32,0,0,0-.69,0h0a7,7,0,0,0-4.95,2.05L422,436.84a7,7,0,0,0,4.95,12Z"/><path class="cls-11" d="M501,482.25v33.14a5.25,5.25,0,0,1-1.16,3.31l0,0a5.29,5.29,0,0,1-4.09,1.93H406.53a5.29,5.29,0,0,1-5.29-5.29V482.25a5.29,5.29,0,0,1,10.58,0V510.1h78.61V482.25a5.29,5.29,0,0,1,10.57,0Z"/><path class="cls-2" d="M451.59,568.21a100.62,100.62,0,0,1-45.29-10.63q-2.26-1.12-4.46-2.36a101.65,101.65,0,1,1,49.75,13Zm0-195a93.43,93.43,0,0,0-45.75,174.9c1.34.75,2.72,1.48,4.11,2.18A93.51,93.51,0,0,0,529.48,518.2a93.43,93.43,0,0,0-77.89-145Z"/></g></svg>