<svg id="Layer_1" data-name="Layer 1" xmlns="http://www.w3.org/2000/svg" viewBox="0 0 408.66 458.21"><defs><style>.cls-1{fill:#434343;}.cls-2{fill:#c1c0c0;}.cls-3{fill:#fff;}.cls-4{fill:#747578;}.cls-5{opacity:0.3;}.cls-6{fill:#afc340;}.cls-7{fill:#c3dc8f;}.cls-8{fill:none;}.cls-9{fill:#b1c6e7;}.cls-10{fill:#96abd8;}.cls-11{opacity:0.1;}.cls-12{fill:#010101;}.cls-13{fill:#f8c46b;}</style></defs><title>down video face</title><path class="cls-1" d="M118.53,229.17a3.76,3.76,0,0,1-3.7-4.41l2.65-15L98.94,183.83a3.76,3.76,0,0,1,4.47-5.67l14.68,6,9.51-20.58a3.76,3.76,0,0,1,7,.6l2.61,9.69,24.78-5.1a3.76,3.76,0,0,1,3.32,6.43L147.19,192.1l17.47,10a3.76,3.76,0,0,1-1.87,7h-25l-16.39,18.78A3.77,3.77,0,0,1,118.53,229.17Zm-6-39.19,11.94,16.72a3.79,3.79,0,0,1,.64,2.83l-.57,3.25,8.63-9.9A3.74,3.74,0,0,1,136,201.6h12.62L139,196.09a3.75,3.75,0,0,1-1.87-2.83,3.8,3.8,0,0,1,1.17-3.18l12.12-11.31-15.15,3.12a3.77,3.77,0,0,1-4.39-2.7l-.84-3.12-6.68,14.45a3.75,3.75,0,0,1-4.82,1.9Z" transform="translate(-98.24 -66.48)"/><path class="cls-1" d="M120,192.7a3.89,3.89,0,0,1-1.58-.35,3.76,3.76,0,0,1-1.83-5l11-23.83a3.76,3.76,0,0,1,7,.6l3.54,13.1a3.76,3.76,0,1,1-7.26,2l-.84-3.12-6.68,14.45A3.75,3.75,0,0,1,120,192.7Z" transform="translate(-98.24 -66.48)"/><path class="cls-1" d="M118.53,229.17a3.76,3.76,0,0,1-3.7-4.41l2.65-15L98.94,183.83a3.76,3.76,0,0,1,4.47-5.67l14.68,6,9.51-20.58a3.76,3.76,0,0,1,7,.6l2.61,9.69,24.78-5.1a3.76,3.76,0,0,1,3.32,6.43L147.19,192.1l17.47,10a3.76,3.76,0,0,1-1.87,7h-25l-16.39,18.78A3.77,3.77,0,0,1,118.53,229.17Zm-6-39.19,11.94,16.72a3.79,3.79,0,0,1,.64,2.83l-.57,3.25,8.63-9.9A3.74,3.74,0,0,1,136,201.6h12.62L139,196.09a3.75,3.75,0,0,1-1.87-2.83,3.8,3.8,0,0,1,1.17-3.18l12.12-11.31-15.15,3.12a3.77,3.77,0,0,1-4.39-2.7l-.84-3.12-6.68,14.45a3.75,3.75,0,0,1-4.82,1.9Z" transform="translate(-98.24 -66.48)"/><path class="cls-1" d="M281.35,108.92a3.78,3.78,0,0,1-2.79-1.24l-9.11-10.1-13.53.22a3.76,3.76,0,0,1-2-6.94l6.81-4.26,3.78-17.17a3.75,3.75,0,0,1,7.19-.48L274.23,76l10.93-3.39a3.76,3.76,0,0,1,4.27,5.63l-2.29,3.55,10.44,7.68A3.76,3.76,0,0,1,295,96.27l-12-1,2,9.12a3.76,3.76,0,0,1-3.67,4.56ZM271.1,90a3.76,3.76,0,0,1,2.79,1.24l.79.87-.06-.29a3.74,3.74,0,0,1,4-4.54l3.76.32-2.53-1.86a3.76,3.76,0,0,1-1.53-3.15L273,84.27a3.76,3.76,0,0,1-3.91-1.09l-1.44,6.57a3.37,3.37,0,0,1-.1.34L271,90Z" transform="translate(-98.24 -66.48)"/><path class="cls-1" d="M282.06,86.51a3.69,3.69,0,0,1-2-.6,3.76,3.76,0,0,1-1.72-3.28L273,84.27a3.76,3.76,0,0,1-2.22-7.18l14.35-4.45a3.76,3.76,0,0,1,4.27,5.63l-4.21,6.52A3.77,3.77,0,0,1,282.06,86.51Z" transform="translate(-98.24 -66.48)"/><path class="cls-1" d="M281.35,108.92a3.78,3.78,0,0,1-2.79-1.24l-9.11-10.1-13.53.22a3.76,3.76,0,0,1-2-6.94l6.81-4.26,3.78-17.17a3.75,3.75,0,0,1,7.19-.48L274.23,76l10.93-3.39a3.76,3.76,0,0,1,4.27,5.63l-2.29,3.55,10.44,7.68A3.76,3.76,0,0,1,295,96.27l-12-1,2,9.12a3.76,3.76,0,0,1-3.67,4.56ZM271.1,90a3.76,3.76,0,0,1,2.79,1.24l.79.87-.06-.29a3.74,3.74,0,0,1,4-4.54l3.76.32-2.53-1.86a3.76,3.76,0,0,1-1.53-3.15L273,84.27a3.76,3.76,0,0,1-3.91-1.09l-1.44,6.57a3.37,3.37,0,0,1-.1.34L271,90Z" transform="translate(-98.24 -66.48)"/><path class="cls-1" d="M402.21,165.5a3.75,3.75,0,0,1-3.71-4.36l1.86-11.27-13.39,1a3.75,3.75,0,0,1-2.79-6.53l10.57-9.57,6.6-16.38a3.76,3.76,0,0,1,6.5-.84l7.27,9.76,11.82-5.23a3.76,3.76,0,0,1,4.63,5.55l-5.82,8.56,9.1,5.15a3.75,3.75,0,0,1-1.71,7l-17.25.65-10.62,14.93A3.73,3.73,0,0,1,402.21,165.5ZM404.84,142a3.77,3.77,0,0,1,3.71,4.33l2.29-3.22a3.76,3.76,0,0,1,2.92-1.58l5.86-.22-1.12-.63a3.8,3.8,0,0,1-1.81-2.42,3.74,3.74,0,0,1,.55-3l.73-1.07-2.55,1.12a3.75,3.75,0,0,1-4.53-1.19l-5.07-6.8-4.42,11a3.78,3.78,0,0,1-1,1.38l-3.13,2.82,7.25-.53Z" transform="translate(-98.24 -66.48)"/><path class="cls-1" d="M402.21,165.5a3.75,3.75,0,0,1-3.71-4.36l1.86-11.27-13.39,1a3.75,3.75,0,0,1-2.79-6.53l10.57-9.57,6.6-16.38a3.76,3.76,0,0,1,6.5-.84l7.27,9.76,11.82-5.23a3.76,3.76,0,0,1,4.63,5.55l-5.82,8.56,9.1,5.15a3.75,3.75,0,0,1-1.71,7l-17.25.65-10.62,14.93A3.73,3.73,0,0,1,402.21,165.5ZM404.84,142a3.77,3.77,0,0,1,3.71,4.33l2.29-3.22a3.76,3.76,0,0,1,2.92-1.58l5.86-.22-1.12-.63a3.8,3.8,0,0,1-1.81-2.42,3.74,3.74,0,0,1,.55-3l.73-1.07-2.55,1.12a3.75,3.75,0,0,1-4.53-1.19l-5.07-6.8-4.42,11a3.78,3.78,0,0,1-1,1.38l-3.13,2.82,7.25-.53Z" transform="translate(-98.24 -66.48)"/><polygon class="cls-2" points="84.69 39.77 84.63 39.94 104.95 85.15 137.59 97.55 117.17 52.11 84.69 39.77"/><polygon class="cls-3" points="117.22 52.42 137.64 97.86 170.29 110.25 149.86 64.82 117.22 52.42"/><polygon class="cls-2" points="149.82 64.51 170.24 109.95 202.88 122.35 182.46 76.91 149.82 64.51"/><polygon class="cls-3" points="182.23 77.01 202.65 122.45 235.29 134.85 214.87 89.41 182.23 77.01"/><polygon class="cls-2" points="215.11 89.31 235.53 134.75 268.18 147.15 247.76 101.71 215.11 89.31"/><polygon class="cls-3" points="247.52 101.81 267.94 147.25 300.59 159.65 280.17 114.21 247.52 101.81"/><polygon class="cls-2" points="280.4 114.11 300.82 159.55 334.65 172.39 314.22 126.95 280.4 114.11"/><polygon class="cls-4" points="84.69 39.77 84.63 39.94 104.95 85.15 137.59 97.55 117.17 52.11 84.69 39.77"/><polygon class="cls-4" points="149.82 64.51 170.24 109.95 202.88 122.35 182.46 76.91 149.82 64.51"/><polygon class="cls-4" points="215.11 89.31 235.53 134.75 268.18 147.15 247.76 101.71 215.11 89.31"/><polygon class="cls-4" points="280.4 114.11 300.82 159.55 334.65 172.39 314.22 126.95 280.4 114.11"/><polygon class="cls-3" points="313.99 127.06 334.41 172.5 346.92 139.57 313.99 127.06"/><polygon class="cls-3" points="84.39 40.04 71.95 72.81 104.72 85.25 84.39 40.04"/><path class="cls-1" d="M432.65,242.73a3.67,3.67,0,0,1-1.33-.24L168.85,142.8a3.77,3.77,0,0,1-2.09-2,3.74,3.74,0,0,1-.08-2.88L179.18,105a3.76,3.76,0,0,1,4.85-2.17l262.46,99.69a3.76,3.76,0,0,1,2.1,2,3.8,3.8,0,0,1,.08,2.87l-12.51,32.93A3.75,3.75,0,0,1,432.65,242.73ZM175,137.11l255.44,97,9.84-25.91-255.44-97Z" transform="translate(-98.24 -66.48)"/><path class="cls-3" d="M433,360v56.74a30.92,30.92,0,0,1-30.92,30.91H183.15a30.91,30.91,0,0,1-30.91-30.91V360Z" transform="translate(-98.24 -66.48)"/><path class="cls-3" d="M433,272.32V416.71a30.92,30.92,0,0,1-30.92,30.91H183.15a30.91,30.91,0,0,1-30.91-30.91V272.32Z" transform="translate(-98.24 -66.48)"/><g class="cls-5"><polygon class="cls-2" points="325.08 310.5 325.08 339.49 244.44 372.57 172.73 372.57 325.08 310.5"/><polygon class="cls-2" points="325.08 286.48 325.08 297.25 141.37 372.57 117.29 372.57 325.08 286.48"/><polygon class="cls-2" points="325.08 214.85 325.08 229.03 64.55 336.48 64.55 268.9 198.91 214.85 325.08 214.85"/><polygon class="cls-2" points="141.7 214.85 64.55 248.58 64.55 214.85 141.7 214.85"/></g><path class="cls-1" d="M402.08,451.38H183.15a34.71,34.71,0,0,1-34.67-34.67V272.32a3.75,3.75,0,0,1,3.75-3.75H433a3.75,3.75,0,0,1,3.76,3.75V416.71A34.71,34.71,0,0,1,402.08,451.38ZM156,276.08V416.71a27.18,27.18,0,0,0,27.16,27.15H402.08a27.18,27.18,0,0,0,27.16-27.15V276.08Z" transform="translate(-98.24 -66.48)"/><polygon class="cls-4" points="334.57 170.44 334.57 170.61 299.52 205.66 264.6 205.66 299.82 170.44 334.57 170.44"/><polygon class="cls-3" points="299.67 170.71 264.45 205.93 229.53 205.93 264.75 170.71 299.67 170.71"/><polygon class="cls-4" points="264.9 170.44 229.68 205.66 194.76 205.66 229.98 170.44 264.9 170.44"/><polygon class="cls-3" points="230.17 170.62 194.94 205.84 160.02 205.84 195.25 170.62 230.17 170.62"/><polygon class="cls-4" points="195.06 170.44 159.84 205.66 124.91 205.66 160.14 170.44 195.06 170.44"/><polygon class="cls-3" points="160.32 170.62 125.1 205.84 90.18 205.84 125.4 170.62 160.32 170.62"/><polygon class="cls-4" points="125.22 170.44 89.99 205.66 53.81 205.66 89.04 170.44 125.22 170.44"/><polygon class="cls-3" points="89.22 170.62 53.99 205.84 53.99 170.62 89.22 170.62"/><polygon class="cls-3" points="334.75 170.8 334.75 205.84 299.7 205.84 334.75 170.8"/><path class="cls-1" d="M433,276.08H152.24a3.76,3.76,0,0,1-3.76-3.76V237.1a3.76,3.76,0,0,1,3.76-3.76H433a3.75,3.75,0,0,1,3.75,3.76v35.22A3.75,3.75,0,0,1,433,276.08Zm-277-7.51H429.24V240.85H156Z" transform="translate(-98.24 -66.48)"/><polygon class="cls-6" points="232.08 293.49 202.07 310.82 172.05 328.15 172.05 303.18 216.35 284.41 232.08 293.49"/><polygon class="cls-7" points="216.35 284.41 172.05 303.18 172.05 258.84 202.07 276.16 216.35 284.41"/><line class="cls-8" x1="172.05" y1="303.18" x2="171.62" y2="303.37"/><path class="cls-1" d="M270.29,397.85a3.32,3.32,0,0,1-1.61-.43,3.24,3.24,0,0,1-1.61-2.79V325.32a3.23,3.23,0,0,1,1.61-2.79,3.2,3.2,0,0,1,3.22,0l60,34.65a3.22,3.22,0,0,1,0,5.58l-60,34.66A3.26,3.26,0,0,1,270.29,397.85Zm3.22-67v58.16L323.88,360Z" transform="translate(-98.24 -66.48)"/><path class="cls-9" d="M503.45,442.32a78.91,78.91,0,1,1-155.72-18.14c.15-.6.29-1.19.45-1.78a78.93,78.93,0,0,1,152.94.81c.34,1.4.66,2.81.93,4.24A79.25,79.25,0,0,1,503.45,442.32Z" transform="translate(-98.24 -66.48)"/><path class="cls-3" d="M447.13,443.79,428,462.93q-.18.18-.36.33l-.35.26,0,0a4.92,4.92,0,0,1-1.75.72h0a3.18,3.18,0,0,1-.43.06h0a3.62,3.62,0,0,1-.47,0h-.07l-.4,0H424l-.38-.06-.06,0a2.92,2.92,0,0,1-.4-.1h0a3.52,3.52,0,0,1-.42-.15h0l-.36-.17-.14-.08a2,2,0,0,1-.25-.14l-.13-.09-.28-.2-.07-.05-.33-.3,0,0L402,443.8a4.88,4.88,0,0,1,6.91-6.9l10.79,10.78V408a4.87,4.87,0,0,1,1.11-3.12l0,0a4.88,4.88,0,0,1,8.61,3.16v39.7l10.8-10.79a4.88,4.88,0,0,1,6.91,6.9Z" transform="translate(-98.24 -66.48)"/><path class="cls-3" d="M465.72,450.88v27a3.63,3.63,0,0,1-1,2.5l-.27.28a3.68,3.68,0,0,1-2.47.94H387.09a3.73,3.73,0,0,1-3.73-3.72V451a3.7,3.7,0,0,1,.54-1.92h0a3.72,3.72,0,0,1,6.9,1.93v23.09h67.47V450.88a3.72,3.72,0,0,1,7.44,0Z" transform="translate(-98.24 -66.48)"/><path class="cls-10" d="M390.81,474.12V451a3.72,3.72,0,0,0-6.9-1.93h0a3.73,3.73,0,0,0-.54,1.92v26.82a3.73,3.73,0,0,0,3.73,3.72h20.25l-24,24A76.07,76.07,0,0,1,357,476q-1.25-2.49-2.31-5.07l66-66.05a4.87,4.87,0,0,0-1.12,3.11v39.71L408.87,436.9a4.89,4.89,0,0,0-6.92,6.9l19.14,19.13,0,0,.33.3a.18.18,0,0,1,.07.05l.28.2.13.09a2,2,0,0,0,.25.14l.14.08.36.17h0a2.86,2.86,0,0,0,.41.15h0a2.92,2.92,0,0,0,.4.1l.06,0,.38.05.1,0h.47l-9.75,9.76Z" transform="translate(-98.24 -66.48)"/><path class="cls-1" d="M424.54,360a82.36,82.36,0,0,0-75.08,116.19q1.14,2.52,2.44,4.94a82.74,82.74,0,0,0,42.16,37.74,81.78,81.78,0,0,0,26,5.73h0l.39,0c1.34.06,2.68.1,4,.1a82.36,82.36,0,0,0,0-164.72Zm2.82,157.76c-.94,0-1.87,0-2.82,0a75,75,0,0,1-41.17-12.25A76.07,76.07,0,0,1,357,476q-1.25-2.49-2.31-5.07a75.44,75.44,0,1,1,72.64,46.82Z" transform="translate(-98.24 -66.48)"/><path class="cls-10" d="M420.11,524.57l.39,0-.06,0Z" transform="translate(-98.24 -66.48)"/><path class="cls-10" d="M464.47,480.61l-37.11,37.12c-.94,0-1.87,0-2.82,0a75,75,0,0,1-41.17-12.25A76.07,76.07,0,0,1,357,476L383.9,449.1a3.73,3.73,0,0,0-.54,1.92v26.82a3.73,3.73,0,0,0,3.73,3.72H462A3.64,3.64,0,0,0,464.47,480.61Z" transform="translate(-98.24 -66.48)"/><g class="cls-11"><path class="cls-12" d="M420.1,524.57l.4,0-.06,0Z" transform="translate(-98.24 -66.48)"/></g><g class="cls-11"><path class="cls-12" d="M464.47,480.61l-37.11,37.12c-.94,0-1.87,0-2.82,0a75,75,0,0,1-41.17-12.25A76.07,76.07,0,0,1,357,476L383.9,449.1a3.73,3.73,0,0,0-.54,1.92v26.82a3.73,3.73,0,0,0,3.73,3.72H462A3.64,3.64,0,0,0,464.47,480.61Z" transform="translate(-98.24 -66.48)"/></g><polygon class="cls-13" points="32.77 98.63 21.75 122.46 3.76 115.17 23.21 142.4 20.29 158.94 37.8 138.87 64.55 138.87 42.66 126.35 64.55 105.92 36.31 111.73 32.77 98.63"/><polyline class="cls-13" points="36.31 111.73 32.77 98.63 21.75 122.46"/><polygon class="cls-13" points="32.77 98.63 21.75 122.46 3.76 115.17 23.21 142.4 20.29 158.94 37.8 138.87 64.55 138.87 42.66 126.35 64.55 105.92 36.31 111.73 32.77 98.63"/><polygon class="cls-13" points="188.03 9.75 173.68 14.2 169.88 3.76 165.77 22.46 157.62 27.56 172.86 27.31 183.11 38.68 180.04 24.58 197.12 26.05 183.82 16.27 188.03 9.75"/><polyline class="cls-13" points="183.82 16.27 188.03 9.75 173.68 14.2"/><polygon class="cls-13" points="188.03 9.75 173.68 14.2 169.88 3.76 165.77 22.46 157.62 27.56 172.86 27.31 183.11 38.68 180.04 24.58 197.12 26.05 183.82 16.27 188.03 9.75"/><polygon class="cls-13" points="334.75 78.11 315.66 78.82 303.97 95.27 306.6 79.3 288.46 80.62 299.68 70.47 306.6 53.29 315.66 65.46 330.22 59.02 322.11 70.95 334.75 78.11"/><polygon class="cls-13" points="334.75 78.11 315.66 78.82 303.97 95.27 306.6 79.3 288.46 80.62 299.68 70.47 306.6 53.29 315.66 65.46 330.22 59.02 322.11 70.95 334.75 78.11"/></svg>