<svg id="Layer_1" data-name="Layer 1" xmlns="http://www.w3.org/2000/svg" viewBox="0 0 600 600"><defs><style>.cls-1,.cls-12,.cls-7{fill:none;stroke-linecap:round;stroke-linejoin:round;}.cls-1,.cls-12{stroke:#424242;}.cls-1{stroke-width:4px;}.cls-2{fill:#d0bbb7;}.cls-3{fill:#f8c469;}.cls-4{fill:#f8ded8;}.cls-5,.cls-6{fill:#fff;}.cls-5{opacity:0.35;}.cls-7{stroke:#fff;}.cls-12,.cls-7{stroke-width:2px;}.cls-8{fill:#b47d64;}.cls-9{fill:#d2916e;}.cls-10{fill:#d1ebfb;}.cls-11{fill:#5e5e5e;opacity:0.29;}.cls-13{fill:#926654;}.cls-14{fill:#c2dc8f;}.cls-15{fill:#aec341;}</style></defs><title>quet nha</title><g id="quét_nhà" data-name="quét nhà"><path class="cls-1" d="M171.93,120.2v-.06c2.44.72,3.1-1.65,3.28-3.08-.16,1.41-.81,3.87-3.29,3.14l-8.37,24.65-9.88,4.65-9.53,3.31s11.23,5.45,11.6,6.77S169,183.1,169,183.1l40.06-21-4-5.81-1.92-2.82c-.52.19-1.1.44-1.74.74a16.51,16.51,0,0,0,1-1.78l-11.24-2.55-1.26-22.47s2.3,1.93,9.9,4.77h0l.13,0,6.2,2a7.17,7.17,0,0,0,1.34.3,6.93,6.93,0,0,0,6.05-2.22c8.52-9.53,8.36-32.11,7.12-45.25l-.45-.53.65,0c2.67.17,4.51.43,4.51.43.1-.41.21-.83.3-1.23,4.86-20.14-4.21-25.8-29.27-31.34C170.74,48.79,169,68.78,169,68.78c-3.5-2.19-19.3,4.29-11.13,14.84,5.69,7.33,8.6,21.65,11,30C169.92,117.34,170.88,119.89,171.93,120.2Zm3.36-4.14a59.49,59.49,0,0,0,1.41-7v.08h0a61.91,61.91,0,0,1-1.41,7Z"/><path class="cls-1" d="M175.29,116.28c0,.09,0,.22,0,.36C175.28,116.49,175.28,116.37,175.29,116.28Z"/><path class="cls-1" d="M175.29,116.06v.06a61.91,61.91,0,0,0,1.41-7V109A59.49,59.49,0,0,1,175.29,116.06Z"/><path class="cls-1" d="M171.94,120.14v.06c2.48.73,3.13-1.73,3.29-3.14C175,118.49,174.38,120.86,171.94,120.14Z"/><path class="cls-2" d="M144.15,152.81s4.27,10.58,4.64,11.91S169,183.1,169,183.1l40.07-21-4-5.8-1.93-2.82c-.52.19-1.1.44-1.75.74-13.69,6.19-26.13-3.1-26.13-3.1L176.71,109h0a57.78,57.78,0,0,1-1.41,7s.07,5.09-3.36,4.08l-8.38,24.71-9.87,4.65Z"/><path class="cls-3" d="M157.88,83.62c5.69,7.33,8.6,21.65,11,30,1.05,3.69,2,6.23,3.05,6.55,3.42,1,3.36-4.09,3.36-4.09a59.44,59.44,0,0,0,1.4-7c1-8-1.4-8.58.47-15,1.55-5.34,5.45-5,9.24-2.45a24.39,24.39,0,0,1,5.21,5c4.65,6,6.81.1,10.41-6.12,1.77-3.08,7.52-4,12.84-4.09.95,0,1.88,0,2.79,0,.43,0,.86,0,1.27,0l1.13.05a.11.11,0,0,1,.08,0l.65,0c2.67.16,4.5.42,4.5.42.11-.42.22-.82.31-1.23,4.86-20.13-4.21-25.8-29.27-31.34C170.74,48.79,169,68.78,169,68.78,165.51,66.59,149.71,73.07,157.88,83.62Z"/><path class="cls-4" d="M176.69,109.08h0l-1.48,42.06s4.85,19,30.65,4.5c.4-.63-1.1-4.8-.82-5.4L190.88,146l-1-18.56s2.3,1.92,9.91,4.76h0c12,2.3,12.14-5.45,12.14-5.45l-.53-3,.74-3.38-.46-4.63,4.35-.27-1.13-29c-5.32.13-11.07,1-12.84,4.09-3.6,6.22-5.76,12.11-10.41,6.12a24.39,24.39,0,0,0-5.21-5c-3.79-2.59-7.69-2.89-9.24,2.45C175.29,100.5,177.73,101.08,176.69,109.08Z"/><path class="cls-2" d="M199.75,132.16l.13.05,6.19,2a7.13,7.13,0,0,0,7.39-1.93c8.52-9.52,8.36-32.1,7.12-45.25l-.45-.53a.11.11,0,0,0-.08,0l-1.13-.05c-.41,0-.84,0-1.27,0-.91,0-1.84,0-2.79,0l1.13,29-4.35.27.46,4.63-.74,3.38.53,3S211.73,134.46,199.75,132.16Z"/><path class="cls-5" d="M225.43,76.2s.68,7.17-5.83,6.45c-7.92-.87-14.53-2.34-17.44.94S198,78.05,190,75.37s-13.13-4.84-14.32-.73,1.54,8.11,1.54,8.11-11.09-8-12.67-2.34a16.36,16.36,0,0,0,.47,10.21s-8.38-8.55-5.77-13,7.58-7.21,11.49-5.19-.29-8,4.33-11.49,10.1-5.36,18.49-4.8c2.54.18,21.55,4.29,27.37,10.5A17,17,0,0,1,225.43,76.2Z"/><ellipse class="cls-6" cx="219.97" cy="66.96" rx="1.26" ry="4.35" transform="translate(26.49 191.2) rotate(-49.64)"/><path class="cls-7" d="M393.6,437.19s-9.45,11.44-18.79,5.29,6.19-6.51,9.31-2.18-2,15.71-17,14.19-3.13-8.5,4.1-5.16S371.71,462,359.08,464"/><path class="cls-7" d="M523.79,519.88s-11.78,9-19.49.92,7.5-4.95,9.56,0-5.53,14.85-19.75,10-1.13-9,5.15-4.1-2.37,12.4-15.14,11.59"/><path class="cls-7" d="M285.13,490.17s7.84,9.49,15.59,4.39-5.14-5.4-7.73-1.81,1.7,13,14.09,11.77,2.6-7-3.39-4.28-.41,10.47,10.07,12.2"/><path class="cls-7" d="M464.51,465.39s-13.84,17.46-15-1.91c-1-16.8,20.67,3.38-7.85,13.89"/><path class="cls-8" d="M247.59,501.31l-14.71,1.53c-7.45-54.3-8.67-79.13-8.7-89.44a31.5,31.5,0,0,0-3-13.39L194.8,344.17h-5.29l13.65-9.7,38.58,70.33Z"/><polygon class="cls-8" points="227.29 303.17 154.8 317.31 155.43 310.9 227.29 303.17"/><path class="cls-9" d="M277,498.26l-6.8.7-22.58,2.35-5.85-96.51-38.58-70.33-13.65,9.7-9,55.42a31.26,31.26,0,0,1-3.31,9.81l-46.55,87.45-7.21-2.41-17.62-5.87L146.91,398l7.89-80.72,72.49-14.14,4.86-.52L267,389.36a31.89,31.89,0,0,1,2.18,9.37Z"/><path class="cls-8" d="M155.43,310.9,146.91,398l-41.12,90.54L91.48,483.8l35.69-85.53a31,31,0,0,0,2.21-8.39l9.38-77.19Z"/><path class="cls-10" d="M239.55,192.73l-12.08,6.37,6.67,62.46L238.33,302l-6.18.67-80.88,8.69-5.92-106.58-6.57,7.36-5.39-1.92-20.82-7.44L105.35,200s7.78-34.45,24.66-42.36,21.32-9.52,21.32-9.52,5.1,13.28,15.56,14.35,22.8,3.22,30-4.3,4.42-12.07,4.42-12.07,20.64,5.36,31.77,20a119.06,119.06,0,0,1,13.28,22.25Z"/><polygon class="cls-10" points="151.27 311.34 138.76 312.69 134.62 313.14 134.62 252.63 133.39 210.2 138.78 212.12 145.1 198.33 151.27 311.34"/><polygon class="cls-11" points="151.27 311.34 138.76 312.69 134.62 313.14 134.62 252.63 133.39 210.2 138.78 212.12 145.1 198.33 151.27 311.34"/><path class="cls-12" d="M246.4,188.29A119.06,119.06,0,0,0,233.12,166c-11.13-14.63-31.77-20-31.77-20s2.81,4.56-4.42,12.07-19.59,5.36-30,4.3-15.56-14.35-15.56-14.35-4.42,1.61-21.32,9.52S105.35,200,105.35,200l7.22,2.81,20.82,7.44,1.23,42.43v60.51l4.14-.45,12.51-1.35,80.88-8.69,6.18-.67-4.19-40.42-6.67-62.46,12.08-6.37Z"/><path class="cls-13" d="M100.47,482.38a1.1,1.1,0,0,1-.47-.1,1.22,1.22,0,0,1-.65-1.59l4-9.46a1.22,1.22,0,1,1,2.24.95l-4,9.46A1.23,1.23,0,0,1,100.47,482.38Z"/><path class="cls-13" d="M108.54,463.45a1.18,1.18,0,0,1-.48-.1,1.21,1.21,0,0,1-.64-1.59l4.44-10.43a1.22,1.22,0,0,1,2.24,1l-4.44,10.42A1.23,1.23,0,0,1,108.54,463.45Z"/><path class="cls-13" d="M116,445.83a1.14,1.14,0,0,1-.47-.1,1.2,1.2,0,0,1-.64-1.59l3.55-8.35a1.22,1.22,0,0,1,2.24.95l-3.56,8.35A1.19,1.19,0,0,1,116,445.83Z"/><path class="cls-13" d="M123.46,428.44a1.18,1.18,0,0,1-.48-.1,1.2,1.2,0,0,1-.64-1.59l4.74-11.14a1.22,1.22,0,0,1,2.24.95l-4.75,11.14A1.2,1.2,0,0,1,123.46,428.44Z"/><path class="cls-13" d="M131.64,409.23a1.36,1.36,0,0,1-.48-.09,1.23,1.23,0,0,1-.64-1.6l3.53-8.28a1.22,1.22,0,0,1,2.24.95l-3.53,8.28A1.21,1.21,0,0,1,131.64,409.23Z"/><path class="cls-13" d="M137.28,392.73h-.15a1.22,1.22,0,0,1-1.06-1.36l1.71-13.57a1.22,1.22,0,1,1,2.42.3l-1.71,13.57A1.22,1.22,0,0,1,137.28,392.73Z"/><path class="cls-13" d="M140.28,368.92h-.15a1.22,1.22,0,0,1-1.06-1.36l1.21-9.54a1.21,1.21,0,1,1,2.41.3l-1.2,9.54A1.22,1.22,0,0,1,140.28,368.92Z"/><path class="cls-13" d="M142.91,348h-.15a1.22,1.22,0,0,1-1.06-1.36l1.25-9.86a1.21,1.21,0,1,1,2.41.3L144.12,347A1.22,1.22,0,0,1,142.91,348Z"/><path class="cls-13" d="M145.36,328.63h-.16a1.22,1.22,0,0,1-1-1.36l1.27-10.11a1.22,1.22,0,0,1,2.42.3l-1.28,10.12A1.22,1.22,0,0,1,145.36,328.63Z"/><path class="cls-13" d="M238.33,496.27a1.21,1.21,0,0,1-1.21-1.11l-.68-8.21a1.22,1.22,0,0,1,2.43-.2l.67,8.21a1.21,1.21,0,0,1-1.11,1.31Z"/><path class="cls-13" d="M237,479.75a1.21,1.21,0,0,1-1.21-1.12l-.71-8.56a1.23,1.23,0,0,1,1.11-1.31,1.21,1.21,0,0,1,1.32,1.11l.7,8.56a1.23,1.23,0,0,1-1.11,1.32Z"/><path class="cls-13" d="M235.44,461.14a1.21,1.21,0,0,1-1.21-1.11l-.77-9.31a1.21,1.21,0,1,1,2.42-.2l.77,9.31a1.21,1.21,0,0,1-1.11,1.31Z"/><path class="cls-13" d="M233.92,442.76a1.22,1.22,0,0,1-1.21-1.11L232,433a1.21,1.21,0,0,1,2.42-.2l.71,8.61a1.23,1.23,0,0,1-1.12,1.31Z"/><path class="cls-13" d="M232.29,422.87a1.21,1.21,0,0,1-1.21-1.12l-1-12.47a1.21,1.21,0,0,1,2.42-.2l1,12.48a1.22,1.22,0,0,1-1.11,1.31Z"/><path class="cls-13" d="M227.76,398.67a1.21,1.21,0,0,1-1.09-.69l-4.2-8.81a1.21,1.21,0,0,1,2.19-1.05l4.2,8.81a1.22,1.22,0,0,1-.57,1.62A1.24,1.24,0,0,1,227.76,398.67Z"/><path class="cls-13" d="M219.13,380.56a1.22,1.22,0,0,1-1.1-.7l-4-8.31a1.21,1.21,0,0,1,2.19-1.05l4,8.32a1.21,1.21,0,0,1-.57,1.62A1.23,1.23,0,0,1,219.13,380.56Z"/><path class="cls-13" d="M211.3,364.15a1.2,1.2,0,0,1-1.09-.7l-4.3-9a1.21,1.21,0,1,1,2.19-1.05l4.3,9a1.22,1.22,0,0,1-.57,1.62A1.24,1.24,0,0,1,211.3,364.15Z"/><path class="cls-12" d="M269.22,398.73a31.89,31.89,0,0,0-2.18-9.37l-34.89-86.71-4.86.52-71.86,7.73-16.67,1.79-9.38,77.19a31,31,0,0,1-2.21,8.39L91.48,483.8l14.31,4.77,17.62,5.87,7.21,2.41,46.55-87.45a31.26,31.26,0,0,0,3.31-9.81l9-55.42h5.29L221.15,400a31.5,31.5,0,0,1,3,13.39c0,10.31,1.25,35.14,8.7,89.44l14.71-1.53L270.17,499l6.8-.7Z"/><path class="cls-14" d="M135.76,525.86a5.35,5.35,0,0,0-1.38-.27,6.68,6.68,0,0,0-4,1.23l-9.05-8.12a14.42,14.42,0,0,1,3.18-1,7.71,7.71,0,0,1,1.42-.16Z"/><path class="cls-14" d="M142.69,548.86a57.7,57.7,0,0,1-8.91-.22c-11.45-1.14-56.88-26.73-56.88-26.73l1.73-3.28,0,0C80.25,519.54,129.15,547.07,142.69,548.86Z"/><path class="cls-15" d="M151.73,547.3a31.49,31.49,0,0,1-8,1.48l-1,.08h0c-13.54-1.79-62.44-29.32-64-30.21l0,0,1.51-2.84,4.3,1.72L110.88,528c3.78-5.44,7.62-8.06,10.47-9.32l9.05,8.12c-3.64,2.41-6.16,7.5-6.16,7.5s.05,2.21,13.75,8.4a73.58,73.58,0,0,0,10.44,4A9.91,9.91,0,0,0,151.73,547.3Z"/><path class="cls-4" d="M113.71,524.45a32.73,32.73,0,0,0-2.83,3.57L84.44,517.51c1-8,11.28-12.18,11.28-12.18l10.07-16.76L113,491s-13,14.7-12.47,22S113.71,524.45,113.71,524.45Z"/><path class="cls-2" d="M113.71,524.45a32.73,32.73,0,0,0-2.83,3.57L84.44,517.51c1-8,11.28-12.18,11.28-12.18l10.07-16.76L113,491s-13,14.7-12.47,22S113.71,524.45,113.71,524.45Z"/><path class="cls-4" d="M124.53,517.68a14.42,14.42,0,0,0-3.18,1,23,23,0,0,0-7.64,5.75S101,520.29,100.48,513,113,491,113,491l10.46,3.49s-7.73,11.64-6.22,16.29S124.53,517.68,124.53,517.68Z"/><path class="cls-4" d="M144,545.23c-1.65-.62-3.63-1.44-6-2.51-13.7-6.19-13.75-8.36-13.75-8.4s2.52-5.09,6.16-7.5a6.68,6.68,0,0,1,4-1.23s1.18.93,2.87,2.43c0,0-5.66.57-7.38,5.76C129.87,533.78,133.92,539.66,144,545.23Z"/><path class="cls-2" d="M144,545.23c-1.65-.62-3.63-1.44-6-2.51-13.7-6.19-13.75-8.36-13.75-8.4s2.52-5.09,6.16-7.5a6.68,6.68,0,0,1,4-1.23s1.18.93,2.87,2.43c0,0-5.66.57-7.38,5.76C129.87,533.78,133.92,539.66,144,545.23Z"/><path class="cls-4" d="M148.43,546.73a46.5,46.5,0,0,1-4.45-1.5c-10.06-5.57-14.11-11.45-14.11-11.45,1.72-5.19,7.38-5.76,7.38-5.76C142,532.23,150.64,541,148.43,546.73Z"/><path class="cls-14" d="M318.5,541.32c-28.09,7.29-76.76,5.38-76.76,5.38l.28-3.41s47.56.78,76-5.19Z"/><path class="cls-15" d="M318,538.1c-28.45,6-76,5.19-76,5.19l.32-3.77,2.85-.16,26.44-1.5c.11-2,.26-3.75.44-5.34h0c.05-.4.1-.78.14-1.16.14-1.13.3-2.16.48-3.1s.34-1.72.52-2.46l.07-.3.15-.55a12.62,12.62,0,0,1,.4-1.34c.13-.41.27-.8.4-1.16l13.35,2.62c-.1.29-.2.58-.29.9s-.16.52-.24.8l0,.14q-.13.48-.24,1c-.09.33-.16.67-.24,1l-.06.3c-.05.21-.08.43-.12.63-.08.45-.17.9-.24,1.34s-.11.72-.17,1.06c-.12.86-.23,1.66-.32,2.37,0,.24-.05.45-.07.67s-.07.64-.1.91,0,.31,0,.45c0,.33-.05.51-.05.51L316,535.78l1.67-.08Z"/><path class="cls-14" d="M289.92,521.59a2.59,2.59,0,0,0-1,.85h0a9,9,0,0,0-1.3,2.62l-13.35-2.62a11.62,11.62,0,0,1,1.75-3.22,3,3,0,0,1,1-.86Z"/><path class="cls-4" d="M313.52,535.89l-28.14,1.25s.86-11.31,3.5-14.7h0l1.56.32h0c-.19.46-4.72,11.87-2.41,12.56S313.52,535.89,313.52,535.89Z"/><path class="cls-2" d="M313.52,535.89l-28.14,1.25s.86-11.31,3.5-14.7h0l1.56.32h0c-.19.46-4.72,11.87-2.41,12.56S313.52,535.89,313.52,535.89Z"/><path class="cls-4" d="M316,535.78l-2.48.11s-23.11.14-25.48-.56,2.22-12.1,2.41-12.56h0C295.94,524,313.69,528.36,316,535.78Z"/><path class="cls-4" d="M272.07,532.52c-.18,1.59-.33,3.37-.44,5.34l-26.44,1.5c-1.67-13,4.44-16.21,4.44-16.21l-2-21.84,9.16-.95s2.56,20.5,1.24,27.19S272.07,532.52,272.07,532.52Z"/><path class="cls-2" d="M272.07,532.52c-.18,1.59-.33,3.37-.44,5.34l-26.44,1.5c-1.67-13,4.44-16.21,4.44-16.21l-2-21.84,9.16-.95s2.56,20.5,1.24,27.19S272.07,532.52,272.07,532.52Z"/><path class="cls-4" d="M276,519.22a9.64,9.64,0,0,0-.82,1.23,1.41,1.41,0,0,0-.17.32,16.05,16.05,0,0,0-.76,1.67c-.13.36-.27.73-.4,1.16a12.62,12.62,0,0,0-.4,1.34l-.15.55-.07.3c-.18.74-.36,1.56-.52,2.46s-.34,2-.48,3.1c-.06.37-.09.76-.14,1.16h0s-15.39,1.71-14.08-5-1.24-27.19-1.24-27.19l13.42-1.4s-1.65,12.11-.93,16.29S276,519.22,276,519.22Z"/><path class="cls-4" d="M272.07,532.51h0s-15.39,1.71-14.08-5-1.24-27.19-1.24-27.19Z"/><path class="cls-12" d="M148.43,546.73c2.21-5.75-6.46-14.5-11.18-18.71-1.69-1.5-2.87-2.43-2.87-2.43a5.35,5.35,0,0,1,1.38.27L126,517.52a7.71,7.71,0,0,0-1.42.16s-5.83-2.3-7.34-6.95,6.22-16.29,6.22-16.29L113,491l-7.16-2.38L95.72,505.33s-10.27,4.17-11.28,12.18l-4.3-1.72-1.51,2.84-1.73,3.28s45.43,25.59,56.88,26.73a57.7,57.7,0,0,0,8.91.22h0l1-.08a31.49,31.49,0,0,0,8-1.48,9.91,9.91,0,0,1-3.3-.57"/><path class="cls-12" d="M289.92,521.59,277,518.36a3,3,0,0,0-1,.86s-6,.22-6.74-4,.93-16.29.93-16.29l-13.42,1.4-9.16.95,2,21.84s-6.11,3.26-4.44,16.21l-2.85.16-.32,3.77-.28,3.41s48.67,1.91,76.76-5.38L318,538.1l-.36-2.4-1.67.08m0,0c-2.31-7.42-20.06-11.82-25.53-13h0m-15.31-2.27"/><path class="cls-8" d="M357,504.27a5.55,5.55,0,0,1-2.1.43,5.44,5.44,0,0,1-4.62-2.54L83.7,82.27a5.46,5.46,0,0,1-.08-5.72Z"/><path class="cls-11" d="M357,504.27a5.55,5.55,0,0,1-2.1.43,5.44,5.44,0,0,1-4.62-2.54L83.7,82.27a5.46,5.46,0,0,1-.08-5.72Z"/><path class="cls-8" d="M357.85,503.85a5.88,5.88,0,0,1-.83.42L83.62,76.55a5.47,5.47,0,0,1,9.32-.16L359.52,496.3A5.46,5.46,0,0,1,357.85,503.85Z"/><path class="cls-3" d="M383.33,546.94H345.42a11,11,0,0,1-11-12c.87-10.62.62-26.2-6.15-37.9-8.39-14.5,1.29-20.59,6.83-22.76,0,0-4.3,6.58-1.13,17.81s19.06,27.24,14.66,37.21S383.33,546.94,383.33,546.94Z"/><path class="cls-11" d="M383.33,546.94H345.42a11,11,0,0,1-11-12c.87-10.62.62-26.2-6.15-37.9-8.39-14.5,1.29-20.59,6.83-22.76,0,0-4.3,6.58-1.13,17.81s19.06,27.24,14.66,37.21S383.33,546.94,383.33,546.94Z"/><path class="cls-3" d="M436.82,546.94H383.33s-39.12-7.65-34.72-17.6-11.49-26-14.66-37.21,1.13-17.81,1.13-17.81a21.52,21.52,0,0,1,3.35-1s17.58-9.14,33.1,14.39c10.65,16.13,46.32,38,67.7,50.16A4.88,4.88,0,0,1,436.82,546.94Z"/><path class="cls-12" d="M439.23,537.83c-21.38-12.15-57.05-34-67.7-50.16-10.16-15.4-21.19-16.81-27.61-15.94L92.94,76.39a5.48,5.48,0,0,0-9.24,5.88l249.46,392.9c-5.51,2.73-12.39,9-4.91,21.91,6.77,11.7,7,27.28,6.15,37.9a11,11,0,0,0,11,12h91.4A4.88,4.88,0,0,0,439.23,537.83Z"/><path class="cls-4" d="M142,213.26l-10.84,19.31c-4.53,2.32-5.42,3.44-5.58,3.73l7.78-19.13-22.86-10c1.27-2.73,2.1-4.37,2.1-4.37Z"/><path class="cls-2" d="M142,213.26l-10.84,19.31c-4.53,2.32-5.42,3.44-5.58,3.73l7.78-19.13-22.86-10c1.27-2.73,2.1-4.37,2.1-4.37Z"/><path class="cls-4" d="M187.85,228.32s4.2,5.25-2.09,9.81c-5,3.62-14.52.13-18.15-1.44l9.65.68c9.65.69,7.45-9.83,7.45-9.83,5.86-1.54,4.19-14.91,4.12-15.42a14,14,0,0,1,2.18,4.64C193.8,226.57,187.85,228.32,187.85,228.32Z"/><path class="cls-2" d="M187.85,228.32s4.2,5.25-2.09,9.81c-5,3.62-14.52.13-18.15-1.44l9.65.68c9.65.69,7.45-9.83,7.45-9.83,8.94-4,4.19-14.91,4.12-15.42a14,14,0,0,1,2.18,4.64C193.8,226.57,187.85,228.32,187.85,228.32Z"/><path class="cls-4" d="M184.71,227.54s2.2,10.52-7.45,9.83l-9.65-.68c-.93-.4-1.47-.66-1.47-.66s-58.83,35.35-67.23,22.85c-6.77-10.09,6.23-40.36,11.55-51.73v0h0l22.86,10-7.78,19.13c.16-.29,1-1.41,5.58-3.73a168.12,168.12,0,0,1,16.8-7.06c21.71-8,13-6.65,21.71-14.35s11.69-1.78,11.69-1.78a6.79,6.79,0,0,1,7.5,2.72v0C188.9,212.63,190.57,226,184.71,227.54Z"/><path class="cls-4" d="M202.61,280.56s-5.34-.87-5-7.09,2.62-9.44,2.62-9.44-3.39-.86-2.64-4.1a6.68,6.68,0,0,1,1.64-3.13c-.1.28-1.51,4.11.84,5.88a4.19,4.19,0,0,0,1.69.73s-.55,1.35-1.13,3.23c-.94,3-2,7.27-1,9.59C201.11,280,202.61,280.56,202.61,280.56Z"/><path class="cls-2" d="M202.61,280.56s-5.34-.87-5-7.09,2.62-9.44,2.62-9.44-3.39-.86-2.64-4.1a6.68,6.68,0,0,1,1.64-3.13c-.1.28-1.51,4.11.84,5.88a4.19,4.19,0,0,0,1.69.73s-.55,1.35-1.13,3.23c-.94,3-2,7.27-1,9.59C201.11,280,202.61,280.56,202.61,280.56Z"/><path class="cls-4" d="M255.54,238.07c-1.85,4.12-13.49,16.14-20.81,23.48h0c-3.51,3.5-6,5.95-6,5.95S229,283.42,217,284.16s-14.41-3.6-14.41-3.6-1.5-.52-3-4.33c-.91-2.32.11-6.62,1-9.59.58-1.88,1.13-3.23,1.13-3.23a4.19,4.19,0,0,1-1.69-.73c-2.35-1.77-.94-5.6-.84-5.88h0c1.52-1.62,4.11-2.54,8.18-1.83,6.35,1.12,7.59,1.5,7.59,1.5l10.73-13.93,15.3-13.36-12.61-20.94-.62-9,4.25-2.25,8-4.24S258.27,232,255.54,238.07Z"/><polygon class="cls-4" points="241.07 229.17 225.77 242.53 227.84 239.84 232.93 233.23 229.78 227.29 229.49 223.14 228.46 208.23 241.07 229.17"/><path class="cls-2" d="M235.72,226.9a6.48,6.48,0,0,1-1.41,6.89l-8.54,8.74,2.07-2.69,5.09-6.61-3.15-5.94-.29-4.15-1-14.91Z"/><path class="cls-12" d="M188.83,212.12v0a6.79,6.79,0,0,0-7.5-2.72s-2.93-5.92-11.69,1.78,0,6.3-21.71,14.35a168.12,168.12,0,0,0-16.8,7.06L142,213.26l-29.4-10.5s-.83,1.64-2.1,4.37h0v0c-5.32,11.37-18.32,41.64-11.55,51.73,8.4,12.5,67.23-22.85,67.23-22.85s.54.26,1.47.66c3.63,1.57,13.11,5.06,18.15,1.44,6.29-4.56,2.09-9.81,2.09-9.81s6-1.75,3.16-11.56A14,14,0,0,0,188.83,212.12Z"/><path class="cls-12" d="M240.12,192.73l-8,4.24-4.25,2.25.62,9,1,14.91.29,4.15,3.15,5.94-5.09,6.61-2.07,2.69L215,256.46s-1.24-.38-7.59-1.5c-4.07-.71-6.66.21-8.18,1.83h0a6.68,6.68,0,0,0-1.64,3.13c-.75,3.24,2.64,4.1,2.64,4.1s-2.24,3.23-2.62,9.44,5,7.09,5,7.09,2.48,4.34,14.41,3.6,11.68-16.65,11.68-16.65,2.52-2.45,6-5.95h0c7.32-7.34,19-19.36,20.81-23.48C258.27,232,240.12,192.73,240.12,192.73Z"/><path class="cls-7" d="M391.55,520.22s20.89-7.75,2.83-14.81c-15.67-6.13-3.19,20.7,15.63-3.17"/><circle class="cls-6" cx="446.4" cy="527.23" r="3.53"/><path class="cls-6" d="M395.77,482.06a3.46,3.46,0,1,0,3.46,3.46A3.46,3.46,0,0,0,395.77,482.06Z"/><path class="cls-6" d="M328.64,528.34a4,4,0,1,0,4,4A4,4,0,0,0,328.64,528.34Z"/></g></svg>