<svg id="Layer_1" data-name="Layer 1" xmlns="http://www.w3.org/2000/svg" viewBox="0 0 600 600"><defs><style>.cls-1{fill:#aec8f8;}.cls-2{fill:#fff;}.cls-3{fill:#90acf1;}.cls-4{fill:none;stroke:#424242;stroke-linecap:round;stroke-linejoin:round;stroke-width:3px;}.cls-5{fill:#f8c469;}.cls-6{fill:#d2916e;}.cls-7{fill:#c2dc8f;}.cls-8{fill:#aec341;}.cls-9{fill:#424242;}.cls-10{opacity:0.2;}.cls-11{opacity:0.29;}.cls-12{fill:#5e5e5e;}.cls-13{fill:#b47d64;}</style></defs><title>tim comment</title><g id="lọc_comment" data-name="lọc comment"><path class="cls-1" d="M145,390V350.76c-4.42,0-8.69.06-13,0-9.57-.17-17-4.31-22.24-12.31a24.4,24.4,0,0,1-4-13.52q0-46.08,0-92.18a26,26,0,0,1,26-25.9c43.8-.06,330.13-.05,373.94,0a26.06,26.06,0,0,1,25.78,25.66q.11,46.19,0,92.38a26.08,26.08,0,0,1-26,25.86c-16.83.07-276.17,0-293,.06a7.5,7.5,0,0,0-3.62,1q-30.69,18.33-61.33,36.75C146.78,389,146.09,389.36,145,390Zm13.13-23.25c.9-.49,1.49-.79,2-1.13q22.52-13.5,45.05-27a7.09,7.09,0,0,1,3.42-.95c17.78-.06,278.09,0,295.87,0,8.32,0,13.87-5.53,13.87-13.82q0-45,0-89.95c0-8.47-5.48-14-13.92-14H132.91c-8.6,0-14.07,5.45-14.07,14q0,45,0,89.95c0,8.26,5.6,13.77,13.93,13.76q11.55,0,23.1,0h2.22Z"/><path class="cls-2" d="M158.09,366.77V337.66h-2.22q-11.55,0-23.1,0c-8.33,0-13.93-5.5-13.93-13.76q0-45,0-89.95c0-8.58,5.47-14,14.07-14H504.43c8.44,0,13.92,5.5,13.92,14q0,45,0,89.95c0,8.29-5.55,13.81-13.87,13.82-17.78,0-278.09,0-295.87,0a7.09,7.09,0,0,0-3.42.95q-22.56,13.44-45.05,27C159.58,366,159,366.28,158.09,366.77Z"/><circle class="cls-3" cx="278.43" cy="274.4" r="10.46"/><circle class="cls-3" cx="358.77" cy="274.4" r="10.46"/><circle class="cls-3" cx="318.6" cy="274.4" r="10.46"/><path class="cls-4" d="M531.43,232.5a26.06,26.06,0,0,0-25.78-25.66c-43.81-.05-330.14-.06-373.94,0a26,26,0,0,0-25.95,25.9q-.11,46.1,0,92.18a24.4,24.4,0,0,0,4,13.52c5.23,8,12.67,12.14,22.24,12.31,4.27.07,8.54,0,13,0V390l2.51-1.48q30.66-18.39,61.33-36.75a7.5,7.5,0,0,1,3.62-1c16.83-.06,276.17,0,293-.06a26.08,26.08,0,0,0,26-25.86Q531.54,278.69,531.43,232.5Z"/><path class="cls-5" d="M444.81,197.42q-22.6-13.56-45.23-27.1a5.43,5.43,0,0,0-2.67-.73c-12.41-.05-203.69,0-216.1,0a19.25,19.25,0,0,1-19.18-19.08q-.07-34.06,0-68.13a19.22,19.22,0,0,1,19-18.93c32.31,0,243.49,0,275.8,0a19.2,19.2,0,0,1,19.14,19.1q.07,34,0,68a17.92,17.92,0,0,1-3,10,19,19,0,0,1-16.41,9.08c-3.14,0-6.29,0-9.56,0v29ZM437,159.9h1.64c5.68,0,11.36,0,17,0,6.14,0,10.27-4.06,10.27-10.15q0-33.18,0-66.34c0-6.34-4-10.35-10.38-10.35-31.71,0-242.29,0-274,0-6.22,0-10.26,4-10.27,10.3V149.7c0,6.12,4.1,10.19,10.24,10.19,13.11,0,205.1,0,218.22,0a5.22,5.22,0,0,1,2.52.7q16.63,9.92,33.22,19.9c.42.25.85.47,1.51.84Z"/><path class="cls-2" d="M437,181.37V159.9h1.64c5.68,0,11.36,0,17,0,6.14,0,10.27-4.06,10.27-10.15q0-33.18,0-66.34c0-6.34-4-10.35-10.38-10.35-31.71,0-242.29,0-274,0-6.22,0-10.26,4-10.27,10.3V149.7c0,6.12,4.1,10.19,10.24,10.19,13.11,0,205.1,0,218.22,0a5.22,5.22,0,0,1,2.52.7q16.63,9.92,33.22,19.9C435.89,180.78,436.32,181,437,181.37Z"/><circle class="cls-6" cx="348.23" cy="113.24" r="7.72"/><circle class="cls-6" cx="288.97" cy="113.24" r="7.72"/><circle class="cls-6" cx="318.6" cy="113.24" r="7.72"/><path class="cls-4" d="M475.58,82.51a19.2,19.2,0,0,0-19.14-19.1c-32.31,0-243.49,0-275.8,0a19.22,19.22,0,0,0-19,18.93q-.07,34.07,0,68.13a19.24,19.24,0,0,0,19.18,19.07c12.41.06,203.69,0,216.1.05a5.43,5.43,0,0,1,2.67.73q22.64,13.52,45.23,27.1l1.85,1.1v-29c3.27,0,6.42,0,9.56,0a19,19,0,0,0,16.41-9.08,17.92,17.92,0,0,0,3-10Q475.62,116.51,475.58,82.51Z"/><path class="cls-7" d="M444.81,534.7q-22.6-13.56-45.23-27.1a5.43,5.43,0,0,0-2.67-.73c-12.41-.05-203.69,0-216.1-.05a19.24,19.24,0,0,1-19.18-19.07q-.07-34.06,0-68.14a19.22,19.22,0,0,1,19-18.92c32.31,0,243.49-.05,275.8,0a19.2,19.2,0,0,1,19.14,19.1q.07,34,0,68a17.92,17.92,0,0,1-3,10,19,19,0,0,1-16.41,9.08c-3.14.05-6.29,0-9.56,0v29ZM437,497.17h18.68c6.14,0,10.27-4.05,10.27-10.15q0-33.16,0-66.34c0-6.33-4-10.35-10.38-10.35h-274c-6.22,0-10.26,4.06-10.27,10.31V487c0,6.11,4.1,10.19,10.24,10.19,13.11,0,205.1,0,218.22,0a5.23,5.23,0,0,1,2.52.71q16.63,9.9,33.22,19.9c.42.25.85.47,1.51.83Z"/><path class="cls-2" d="M437,518.64V497.17h18.68c6.14,0,10.27-4.05,10.27-10.15q0-33.16,0-66.34c0-6.33-4-10.35-10.38-10.35h-274c-6.22,0-10.26,4.06-10.27,10.31V487c0,6.11,4.1,10.19,10.24,10.19,13.11,0,205.1,0,218.22,0a5.23,5.23,0,0,1,2.52.71q16.63,9.9,33.22,19.9C435.89,518.06,436.32,518.28,437,518.64Z"/><circle class="cls-8" cx="348.23" cy="450.51" r="7.72"/><circle class="cls-8" cx="288.97" cy="450.51" r="7.72"/><circle class="cls-8" cx="318.6" cy="450.51" r="7.72"/><path class="cls-4" d="M475.58,419.79a19.2,19.2,0,0,0-19.14-19.1c-32.31-.05-243.49,0-275.8,0a19.22,19.22,0,0,0-19,18.92q-.07,34.06,0,68.14a19.24,19.24,0,0,0,19.18,19.07c12.41.05,203.69,0,216.1.05a5.43,5.43,0,0,1,2.67.73q22.64,13.5,45.23,27.1l1.85,1.09v-29c3.27,0,6.42.05,9.56,0a19,19,0,0,0,16.41-9.07,17.92,17.92,0,0,0,3-10Q475.62,453.79,475.58,419.79Z"/><path class="cls-9" d="M170.56,296.67a137.08,137.08,0,1,0,40.14-96.94A136.19,136.19,0,0,0,170.56,296.67Zm7.21,0c0-71.62,58.26-129.89,129.87-129.89s129.88,58.27,129.88,129.89S379.26,426.54,307.64,426.54,177.77,368.27,177.77,296.67Zm-7.21,0a137.08,137.08,0,1,0,40.14-96.94A136.19,136.19,0,0,0,170.56,296.67Zm7.21,0c0-71.62,58.26-129.89,129.87-129.89s129.88,58.27,129.88,129.89S379.26,426.54,307.64,426.54,177.77,368.27,177.77,296.67Zm-50.47,148a3.63,3.63,0,0,0,1,2.6L138,457.86a3.61,3.61,0,0,0,2.67,1.17,3.68,3.68,0,0,0,2.44-.94l53.15-48.79a158.31,158.31,0,1,0-14.3-16.19l-53.47,49.06A3.69,3.69,0,0,0,127.3,444.67ZM136,445l53.27-48.89a3.59,3.59,0,0,0,.39-4.91,149.35,149.35,0,0,1-33.23-94.57c0-83.39,67.83-151.23,151.22-151.23s151.23,67.84,151.23,151.23S391,447.88,307.64,447.88A150,150,0,0,1,199,401.8a3.63,3.63,0,0,0-5-.16l-53.06,48.7Zm34.57-148.37a137.08,137.08,0,1,0,40.14-96.94A136.19,136.19,0,0,0,170.56,296.67Zm7.21,0c0-71.62,58.26-129.89,129.87-129.89s129.88,58.27,129.88,129.89S379.26,426.54,307.64,426.54,177.77,368.27,177.77,296.67Z"/><g class="cls-10"><path class="cls-2" d="M177.77,296.67c0,.3,0,.59,0,.89a130,130,0,0,0,129,129h.88a130.3,130.3,0,0,0,39.23-6.06A130,130,0,0,0,436.8,310.17v0a127.48,127.48,0,0,0,.72-13.48c0-71.62-58.26-129.89-129.88-129.89a129.69,129.69,0,0,0-73.3,22.73,130.47,130.47,0,0,0-49.86,65.92,130.41,130.41,0,0,0-6.71,41.24Z"/></g><g class="cls-10"><path class="cls-2" d="M189.22,257,345.35,415.71a125.36,125.36,0,0,0,64.17-46.88L237.16,193.64A125.5,125.5,0,0,0,189.22,257Z"/><path class="cls-2" d="M182.77,296.67c0,.29,0,.57,0,.85l124,124c.28,0,.57,0,.85,0a121.59,121.59,0,0,0,17.27-1.21L184,279.41A122.83,122.83,0,0,0,182.77,296.67Z"/><path class="cls-2" d="M294.65,172.47,431.83,309.63a123,123,0,0,0,.68-13,124.85,124.85,0,0,0-137.86-124.2Z"/></g><path class="cls-2" d="M135.06,449.35l5.57,6.08,55.72-51.13A154.83,154.83,0,0,0,431.87,204.24l-16.74,13.28A133.48,133.48,0,0,1,206.05,383.23h0Z"/><g class="cls-11"><path class="cls-12" d="M135.06,449.35l5.57,6.08,55.72-51.13A154.83,154.83,0,0,0,431.87,204.24l-16.74,13.28A133.48,133.48,0,0,1,206.05,383.23h0Z"/></g><path class="cls-2" d="M130.9,444.83l4.16,4.52,71-66.11h0A133.48,133.48,0,1,1,415.13,217.52l16.74-13.28a154.83,154.83,0,1,0-245,189.26Z"/><path class="cls-9" d="M92.88,510.75,70.65,486.16a3,3,0,0,1,.21-4.24l76.63-69.31a3,3,0,0,1,4.24.21L174,437.41a3,3,0,0,1-.22,4.24L97.13,511a3,3,0,0,1-4.25-.21Zm56.41-91.67L77.12,484.36l18.2,20.13,72.18-65.28Z"/><polygon class="cls-6" points="72.88 484.14 85.41 498.01 95.11 508.73 171.74 439.42 161.15 427.72 149.5 414.84 72.88 484.14"/><polygon class="cls-13" points="85.41 498.01 95.11 508.73 171.74 439.42 161.15 427.72 85.41 498.01"/><path class="cls-9" d="M91.59,511.91,69.36,487.33a4.74,4.74,0,0,1,.33-6.7l76.63-69.31a4.81,4.81,0,0,1,3.42-1.22,4.69,4.69,0,0,1,3.28,1.56l2.78,3.06,23.78-21.82a161.1,161.1,0,1,1,16.61,18.8l-23.56,21.63,2.63,2.91a4.74,4.74,0,0,1-.34,6.7L98.29,512.25a4.73,4.73,0,0,1-6.7-.34ZM197.46,408.06a156.6,156.6,0,1,0-14.15-16,1.74,1.74,0,0,1-.2,2.35l-26.25,24.09a1.73,1.73,0,0,1-1.26.45,1.75,1.75,0,0,1-1.21-.57L150.44,414a1.27,1.27,0,0,0-1.78-.09L72,483.21a1.25,1.25,0,0,0-.09,1.78l22.23,24.59a1.3,1.3,0,0,0,1.79.09l76.63-69.31a1.28,1.28,0,0,0,.41-.87,1.26,1.26,0,0,0-.32-.91l-3.8-4.19a1.75,1.75,0,0,1,.12-2.46L195.05,408a1.74,1.74,0,0,1,1.18-.46A1.78,1.78,0,0,1,197.46,408.06Z"/></g></svg>