<svg id="Layer_1" data-name="Layer 1" xmlns="http://www.w3.org/2000/svg" viewBox="0 0 600 600"><defs><style>.cls-1{fill:#c2dc8f;opacity:0.3;}.cls-2{fill:#424242;}.cls-3{fill:#f8ded8;}.cls-4{fill:#d0bbb7;}.cls-5{fill:#f8c469;}.cls-6{opacity:0.46;}.cls-7{fill:#d2916e;}.cls-8{opacity:0.89;}.cls-9{fill:#b47d64;}.cls-10{fill:#d0e9f9;}.cls-11{fill:#90acf1;}.cls-12{opacity:0.24;}.cls-13{fill:#221f1f;}.cls-14{fill:#fff;}</style></defs><title>cup</title><g id="nâng_cup" data-name="nâng cup"><polygon class="cls-1" points="255.32 279.92 262.53 287.63 77.72 321.58 75.52 193.73 253.84 244.2 248.19 254.44 263.56 269.85 255.32 279.92"/><polygon class="cls-1" points="273.59 285.6 262.53 287.63 255.32 279.92 263.56 269.85 248.19 254.44 253.84 244.2 262.04 246.52 273.29 249.7 273.36 257.9 273.36 257.9 273.43 266.62 273.54 279.86 273.59 285.6"/><polygon class="cls-1" points="305.41 311.81 305.41 535.8 174.3 516.15 277.03 302.31 277.08 302.28 298.79 305.18 305.41 311.81"/><polygon class="cls-1" points="277.05 302.27 277.08 302.28 277.03 302.31 277.05 302.27"/><polygon class="cls-1" points="305.41 306.06 305.41 311.81 298.79 305.18 305.41 306.06"/><polygon class="cls-1" points="313.56 209.65 293.46 234.18 266.92 224.15 260.99 234.89 163.59 63 301.3 33.81 313.56 209.65"/><polygon class="cls-1" points="315.48 282.11 307.67 283.29 284.83 286.74 273.43 266.62 270.48 261.42 262.04 246.52 257.24 238.05 263.25 227.14 290.21 237.33 310.63 212.41 312.96 245.92 315.24 278.59 315.48 282.11"/><polygon class="cls-1" points="499.98 161.91 349.46 255.34 315.86 242.64 313.56 209.65 427.77 70.26 499.98 161.91"/><polygon class="cls-1" points="347.09 258.82 315.24 278.59 307.67 283.29 288.7 295.06 277.08 302.28 277.03 302.31 276.53 302.62 262.53 287.63 255.32 279.92 263.56 269.85 270.48 261.42 273.36 257.9 273.36 257.9 290.21 237.33 310.63 212.41 312.96 245.92 347.09 258.82"/><polygon class="cls-1" points="525.21 326.12 427.81 434.56 305.41 311.81 305.41 306.06 298.79 305.18 288.7 295.06 307.67 283.29 315.48 282.11 315.24 278.59 347.09 258.82 525.21 326.12"/><polygon class="cls-1" points="298.79 305.18 305.41 306.06 305.41 311.81 298.79 305.18"/><polygon class="cls-1" points="315.24 278.59 315.48 282.11 307.67 283.29 288.7 295.06 273.54 279.86 263.56 269.85 248.19 254.44 253.84 244.2 257.24 238.05 263.25 227.14 290.21 237.33 312.96 245.92 347.09 258.82 315.24 278.59"/><path class="cls-2" d="M372.81,563.81H250.23a3.51,3.51,0,0,1-3.4-2.63l-6.28-24.51-20.79-81.08a3.49,3.49,0,0,1,1.27-3.65l7.65-5.85L224,431.59a3.51,3.51,0,0,1,1.31-3.94l5.57-3.94-3.4-10.87a.25.25,0,0,1,0-.07l-9.41-30c-.3,0-.62,0-.93-.05l-.23,0-.38-.05-.2,0h-.09l-.28-.06a14.2,14.2,0,0,1-2.61-.78l0,0-.28-.11-.3-.13-.32-.14-.65-.31-.94-.49c-.39-.22-.77-.44-1.16-.69l-.34-.2c-.5-.32-1-.66-1.52-1l-.39-.28-.39-.29-.84-.63-.38-.3,0,0-1.23-1c-.45-.37-.91-.78-1.42-1.23l-.54-.48c-.62-.56-1.24-1.15-1.86-1.74-.15-.16-.32-.32-.49-.48l-.1-.1-.61-.61-1.26-1.28-.15-.16c-.55-.57-1.11-1.16-1.58-1.67l-.53-.58-.53-.58-.36-.4-.27-.3-.46-.52-.79-.91,0,0-.11-.13a14.23,14.23,0,0,1-9.86-4.92l-11.06-12.81A14.28,14.28,0,0,1,174,327.05l.15-.14a14.39,14.39,0,0,1,6.66-3.22A14.28,14.28,0,0,1,184.86,308l.18-.16a14.19,14.19,0,0,1,8.36-3.43,14.31,14.31,0,0,1,4.74-13.2l.18-.15a14.34,14.34,0,0,1,13.38-2.87,14.22,14.22,0,0,1,4.49-7.23l.15-.13a14.31,14.31,0,0,1,8.91-3.47h.13a14.21,14.21,0,0,1,3,.25h.06a14.16,14.16,0,0,1,8,4.68L248,295.58a16.73,16.73,0,0,1,1.26-1.25,3.53,3.53,0,0,1,4-.41c1.34.75,5.43,3,20.67,19.53,6.91,7.48,12.86,14.38,12.92,14.45a3.51,3.51,0,0,1,.65,3.43l-12.16,35,9,19.22,1.18-.85a3.5,3.5,0,0,1,5.27,1.48l4,9.46a3.51,3.51,0,0,1,4.76,1.63L376,558.81a3.5,3.5,0,0,1-3.16,5Zm-119.87-7H367.28L295,404.15a3.54,3.54,0,0,1-2.63.35,3.49,3.49,0,0,1-2.33-2L286,393l-1,.75a3.51,3.51,0,0,1-2.93.55,3.48,3.48,0,0,1-2.29-1.91L268.37,368a3.48,3.48,0,0,1-.14-2.63l12-34.43c-2.12-2.42-6.53-7.44-11.44-12.75-9.05-9.8-14-14.41-16.71-16.58h0l-.15.21,0,.05h0c-.25.36-.47.7-.67,1a3.5,3.5,0,0,1-5.5.7l-.14-.16-.17-.19-14.19-16.46a7.22,7.22,0,0,0-4-2.36l-.07,0a6.8,6.8,0,0,0-1.43-.13h-.12a7.22,7.22,0,0,0-4.58,1.76l-.15.14a7.26,7.26,0,0,0-2.37,7,3.51,3.51,0,0,1-5.83,3.28,7.1,7.1,0,0,0-2.61-1.58,7.28,7.28,0,0,0-7.08,1.38l-.18.15a7.25,7.25,0,0,0-.75,10.22l.12.14a3.5,3.5,0,0,1-4.31,5.37,7.26,7.26,0,0,0-8.17.91l-.18.15a7.28,7.28,0,0,0-.74,10.23l1.82,2.1a3.5,3.5,0,0,1-4.07,5.49,7.37,7.37,0,0,0-1-.38l-.17,0a7.24,7.24,0,0,0-6.49,1.55l-.16.13a7.28,7.28,0,0,0-.76,10.25l11.06,12.82a7,7,0,0,0,1.8,1.5,7.18,7.18,0,0,0,4.15,1,3.53,3.53,0,0,1,2.91,1.24l.3.36.2.23h0l.08.09.53.62,0,.05c.26.31.5.58.74.85l.44.5.27.3.31.35.53.58.47.51c.5.53,1,1.09,1.54,1.63l0,0,0,0,1.21,1.24.58.58.09.08.45.44c.57.55,1.13,1.08,1.68,1.57l.51.46c.45.4.86.76,1.25,1.08s.72.6,1.08.88l.37.29.69.52.32.24,0,0,.31.23c.41.29.82.56,1.22.81l.29.18c.28.18.56.34.85.5l.69.36.43.21.05,0,.14.06.11.05.1,0,.1,0,.13.06a8.17,8.17,0,0,0,1.36.41h0l.15,0h.12l.11,0h0a2.69,2.69,0,0,0,.51,0,3.5,3.5,0,0,1,5.48,1.72l10.43,33.3a.25.25,0,0,1,0,.07l4.15,13.24A3.5,3.5,0,0,1,237,428l-5.55,3.94,4.64,14.41a3.5,3.5,0,0,1-1.21,3.85l-7.78,6,20.21,78.83ZM217.41,378.53l-.08.67.08-.67Zm.33-2.81-.07.56,0,0,.07-.53Zm-.11,0h0Zm.67,0h0Zm-15.22-10.57h0Zm0,0h0Zm0,0h0Zm0,0Zm42.33-61.8,0,0Zm6.37-1.29,0,0Zm0,0h0Zm.14-.19h0Zm3,26.1a3.46,3.46,0,0,1-2.43-1h0l-.05-.05-.12-.12,0-.05a2.61,2.61,0,0,1-.23-.25l-.15-.17c-.12-.1-.24-.2-.36-.32l-.19-.2,0,0-.2-.21a3.5,3.5,0,0,1,5.16-4.74l.13.14h0l.12.12a3.07,3.07,0,0,1,.29.34,3.38,3.38,0,0,1,.35.31l.2.19a3.5,3.5,0,0,1-2.43,6Z"/><path class="cls-3" d="M232,372.38s-13.95,13.19-35.2-11.24c-5.5-6.33-7.07-12.78-6.36-18.87l35.08-36.82,6.21-6.52,6.93,3.22,1.36.63,6.08,3.83a13.63,13.63,0,0,1,.94-3.36c-1.31,4.26-2.08,14.08,12.39,25.09,0,0-25,12.74-25.11,27.31S232,372.38,232,372.38Z"/><path class="cls-4" d="M302.8,560.31h-9.34l-18.79-8.5-5-16L240.2,441.7,235,425.1l-4.17-13.31h0l-10.43-33.3h0l0,0,0,0,0,0a2.61,2.61,0,0,1-.63.37,4.49,4.49,0,0,1-2.29.28h-.13l-.27,0-.19,0-.19,0a10.65,10.65,0,0,1-2-.6l-.25-.1-.26-.12-.27-.11-.55-.27c-.25-.12-.52-.26-.8-.42s-.67-.38-1-.59l-.31-.19c-.43-.28-.89-.58-1.37-.92l-.36-.26-.36-.27-.76-.57-.39-.3c-.38-.3-.76-.61-1.16-.95s-.88-.74-1.34-1.15l-.53-.48c-.57-.51-1.15-1.06-1.76-1.65l-.48-.47-.08-.07c-.13-.14-.27-.27-.41-.41l-.2-.2c-.41-.4-.83-.83-1.25-1.28a.23.23,0,0,1-.07-.07c-.52-.53-1-1.09-1.58-1.67-.19-.2-.37-.41-.56-.62s-.31-.33-.46-.5l-.35-.39-.71-.79c-.25-.29-.51-.58-.76-.88l-.6-.68-.09-.11-.51-.6h0c-3.07-3.62-6.49-7.95-10.29-13.13l5.73-6c2-17.44,22.6-31.92,22.6-31.92s6.9-2.74,12.48-4.9c3.66-1.42,6.76-2.6,7-2.6s3-.32,6.16-.7L248,301a10.29,10.29,0,0,0-.94,2.23h0a15.42,15.42,0,0,0-.65,4.73v.22c0,.21,0,.42,0,.65a1.21,1.21,0,0,0,0,.19c0,.34.07.68.12,1,0,.15,0,.31.07.46s0,.18.05.28.06.34.1.51l.06.26c.09.36.18.74.3,1.12a1.87,1.87,0,0,0,.07.22l.09.28.09.28c.07.18.13.37.21.56s.14.38.22.58l.12.28.13.3c.08.18.17.36.26.55v0h0a2,2,0,0,1,.13.25.41.41,0,0,0,.05.09c0,.08.08.16.11.23a1.62,1.62,0,0,1,.1.18l0,.1.13.24.05.09.14.25,0,.07,0,0s0,0,0,.06a.16.16,0,0,0,0,.07l.09.16c.18.31.38.62.58.93a.61.61,0,0,0,.07.1c.18.28.37.57.58.85l.07.11,0,0c0,.06.09.12.13.19a1.71,1.71,0,0,1,.11.14l.66.86.23.28,0,0c.08.1.16.21.25.31.27.33.56.65.85,1l.1.1.21.23,0,0,.28.29.06.07,0,0,.18.19.15.15.61.62.11.11.19.18h0l.11.11.07.07.17.16.26.24.11.1.37.34.13.12.25.23.4.34a.69.69,0,0,0,.13.11l.24.22,0,0,.05,0,.5.42,0,0c.28.22.55.45.84.67l.29.23.62.48h0l-.45.24-.1.05-.15.09-.23.12-.13.07-.22.12-.19.11-.8.45-.2.12-.78.46h0c-1,.61-2.23,1.36-3.54,2.23-.44.29-.9.59-1.36.91-1.11.77-2.27,1.61-3.44,2.51l-.29.23-.29.22,0,0-.87.7-.29.24c-.49.4-1,.82-1.46,1.25l-.57.51-.57.52-.18.16c-.69.66-1.38,1.34-2,2L241,342c-.18.19-.35.39-.52.58s-.17.19-.25.28c-.25.29-.51.58-.74.88q-.19.22-.36.45c-.44.54-.85,1.1-1.24,1.66-.14.2-.28.41-.41.62h0c-.07.1-.13.2-.19.3l-.11.17-.08.14c-.14.22-.27.44-.4.66l-.15.29-.09.16-.09.16,0,.08-.08.15c0,.05-.05.09-.07.14l-.13.27a.47.47,0,0,0-.05.1c0,.07-.07.15-.11.22l-.28.64h0c-.1.22-.18.44-.26.65a1.8,1.8,0,0,0-.08.21l-.06.18-.12.35-.05.15c0,.14-.09.29-.13.43s0,.17-.07.25a.29.29,0,0,0,0,.09,3,3,0,0,0-.08.32,2.3,2.3,0,0,0-.06.28c-.06.27-.11.54-.16.81v0a2,2,0,0,1,0,.24c0,.1,0,.2,0,.3v0h0l0,.27,0,.44c0,.22,0,.43,0,.64,0,2.5-.11,4.63-.23,6.45,0,.45-.06.89-.1,1.3,0,.21,0,.41-.05.61s0,.4-.06.59,0,.37,0,.55-.05.36-.07.53l-.06.51c0,.16,0,.32-.07.48l7.43,20.79,9.49,26.59,5.53,15.48L294.05,535.8l8.76,24.51Z"/><polygon class="cls-4" points="304.61 565.36 304.61 565.36 304.61 565.36 304.61 565.36"/><path class="cls-4" d="M302.8,560.31h-9.34l-18.79-8.5h0l-5-16L240.2,441.7,235,425.1l-4.17-13.31h0l-10.43-33.3h0l0,0h0a2.36,2.36,0,0,1-.65.39l-.57-3.16-1.3-7.22,15.83-1.88h0l7.43,20.79,9.49,26.59,5.52,15.48L294.05,535.8Z"/><path class="cls-5" d="M414.87,291.15a27.07,27.07,0,0,0-6.45-10.43l-21.59-22,18.68-18.37,3.88,4,6.34-6.23,2.64,2.69,7.69-7.55L325.39,130.85l-7.68,7.55,2.64,2.69L314,147.32l3.88,4-18.68,18.37-21.59-22A27.24,27.24,0,0,0,267.31,141c-5.6-2-13.23-2.51-20.1,4.23-14.08,13.85-27.6,46.27-19.66,65.62A155.63,155.63,0,0,0,236,228.33c1.06,1.86,2.06,3.53,3,5l-.3.62h0a55.69,55.69,0,0,0,3.43,53.7l-66.41,65.28-18.94-19.27a15.78,15.78,0,0,0-22.32-.19L132.88,335l-5-5.09-7.37,7.24,95.76,97.41,7.36-7.24-5-5.08,1.55-1.52a15.78,15.78,0,0,0,.19-22.32l-18.94-19.27,66.4-65.28a55.72,55.72,0,0,0,54.27,4.06c2,1.27,4.29,2.71,7,4.23a159.06,159.06,0,0,0,15.28,7.57c19.21,8.27,51.85-4.69,65.94-18.54C417.16,304.42,416.74,296.78,414.87,291.15Zm-172.09-76c-3.07-6.4-5.12-16.44-.05-30.28,7.2-19.68,14.48-26,20.32-26.26a8.5,8.5,0,0,1,6.46,2.6l18.8,19.13L250,218q-1.66,1.64-3.16,3.38A28.78,28.78,0,0,1,242.78,215.17ZM370.61,315c-11.1,3.84-19.7,3.22-25.95,1.2a29.39,29.39,0,0,1-10.5-5.92c1.17-1,2.32-2,3.43-3.1l38.33-37.68,18.8,19.12a8.54,8.54,0,0,1,2.5,6.51C396.82,300.94,390.41,308.12,370.61,315Z"/><g class="cls-6"><polygon class="cls-7" points="299.22 169.64 288.31 180.36 284.87 176.86 293.6 163.92 299.22 169.64"/></g><path class="cls-5" d="M288.31,180.36l-41.49,41.06q1.5-1.74,3.16-3.38Z"/><g class="cls-6"><path class="cls-7" d="M246.82,221.42s-5.66,6.75-7.85,11.91c-.92-1.47-1.92-3.14-3-5l6.79-13.16A28.78,28.78,0,0,0,246.82,221.42Z"/></g><path class="cls-5" d="M238.67,234l.3-.62C238.87,233.55,238.77,233.76,238.67,234Z"/><path class="cls-7" d="M337.59,307.16c-1.11,1.09-2.26,2.12-3.43,3.1,5.27-5.18,41.76-40.78,41.76-40.78Z"/><g class="cls-8"><path class="cls-7" d="M344.66,316.18l-15.58,6c-2.68-1.52-5-3-7-4.23a37.92,37.92,0,0,0,12.05-7.65A29.39,29.39,0,0,0,344.66,316.18Z"/></g><g class="cls-8"><polygon class="cls-7" points="398.56 270.69 385.66 279.39 375.92 269.48 386.83 258.76 398.56 270.69"/></g><rect class="cls-9" x="103.79" y="377.07" width="136.6" height="10.33" transform="translate(324.03 -8.44) rotate(45.49)"/><rect class="cls-7" x="360.43" y="124.69" width="8.89" height="136.05" transform="translate(-30.43 311.07) rotate(-44.51)"/><g class="cls-6"><path class="cls-7" d="M223.64,427.32l-7.36,7.24-47.88-48.7,193.3-190,43.81,44.56-29.59,29.09s-35.78,34.9-41.76,40.78a32,32,0,0,1-12.05,7.65,55.72,55.72,0,0,1-54.27-4.06l-66.4,65.28,18.94,19.27a15.78,15.78,0,0,1-.19,22.32l-1.55,1.52Z"/></g><path class="cls-2" d="M216.28,436.31h0a1.75,1.75,0,0,1-1.24-.52l-95.76-97.41a1.76,1.76,0,0,1,0-2.48l7.37-7.24a1.75,1.75,0,0,1,2.47,0l3.78,3.84.29-.29a17.56,17.56,0,0,1,24.8.21l17.71,18,64.16-63.06a57.47,57.47,0,0,1-2.9-54c-.83-1.35-1.67-2.78-2.5-4.25a155.6,155.6,0,0,1-8.54-17.64c-3.78-9.2-3.23-22,1.53-36.09,4.2-12.41,11.13-24.16,18.53-31.43,7.63-7.51,16.12-6.67,21.9-4.64a29,29,0,0,1,11,7.06l20.36,20.71,16.18-15.91-2.65-2.7a1.73,1.73,0,0,1,0-2.47l5.09-5-1.42-1.44a1.75,1.75,0,0,1,0-2.48l7.69-7.55a1.71,1.71,0,0,1,1.24-.5,1.73,1.73,0,0,1,1.23.52L427.3,232a1.74,1.74,0,0,1,0,2.47l-7.68,7.56a1.77,1.77,0,0,1-1.23.5h0a1.75,1.75,0,0,1-1.24-.52l-1.41-1.44-5.09,5a1.77,1.77,0,0,1-1.23.5h0a1.74,1.74,0,0,1-1.23-.52l-2.65-2.7L389.3,258.78l20.36,20.71a29,29,0,0,1,6.87,11.1c1.93,5.82,2.63,14.32-5,21.83-7.4,7.27-19.26,14-31.74,18-14.15,4.53-27,4.85-36.12.92a158.42,158.42,0,0,1-15.44-7.66c-2.15-1.21-4.24-2.48-6.25-3.76a57.48,57.48,0,0,1-53.9-3.82l-64.16,63.07,17.72,18a17.56,17.56,0,0,1-.21,24.8l-.3.29,3.77,3.83a1.76,1.76,0,0,1,0,2.48l-7.36,7.24A1.77,1.77,0,0,1,216.28,436.31ZM123,337.17l93.3,94.91,4.87-4.78-3.77-3.84a1.74,1.74,0,0,1,0-2.47l1.54-1.52a14,14,0,0,0,.17-19.84l-18.94-19.27a1.74,1.74,0,0,1,0-2.48l66.4-65.28a1.75,1.75,0,0,1,2.2-.21,54.13,54.13,0,0,0,52.56,3.93,1.77,1.77,0,0,1,1.7.12c2.19,1.43,4.5,2.83,6.87,4.17a152.78,152.78,0,0,0,15.11,7.49c19,8.2,51.14-5.51,64-18.18,5.1-5,6.49-11.14,4.14-18.22a25.35,25.35,0,0,0-6-9.75l-21.59-22a1.69,1.69,0,0,1-.5-1.24,1.73,1.73,0,0,1,.52-1.23l18.68-18.36a1.71,1.71,0,0,1,1.24-.51,1.8,1.8,0,0,1,1.24.53l2.65,2.7,5.09-5a1.75,1.75,0,0,1,2.48,0l1.41,1.44,5.19-5.1-98.21-99.89-5.18,5.09,1.41,1.44a1.75,1.75,0,0,1,0,2.48l-5.09,5,2.66,2.7a1.75,1.75,0,0,1,0,2.47l-18.68,18.37a1.76,1.76,0,0,1-2.48,0l-21.59-22a25.49,25.49,0,0,0-9.65-6.2c-7-2.47-13.19-1.19-18.29,3.82-12.88,12.67-27.14,44.53-19.27,63.7a151.14,151.14,0,0,0,8.35,17.24c1,1.73,2,3.39,2.93,4.94a1.75,1.75,0,0,1,.09,1.69l-.28.6,0,.05a54.25,54.25,0,0,0,3.34,52,1.74,1.74,0,0,1-.25,2.19l-66.4,65.28a1.75,1.75,0,0,1-2.48,0L155.5,334.9a14,14,0,0,0-19.84-.17l-1.55,1.52a1.75,1.75,0,0,1-2.47,0l-3.78-3.83Zm232.18-17.63a35.54,35.54,0,0,1-11.06-1.7A31.2,31.2,0,0,1,333,311.57a1.74,1.74,0,0,1,0-2.65c1.16-1,2.28-2,3.33-3l38.32-37.68a1.75,1.75,0,0,1,2.48,0L396,287.37a10.24,10.24,0,0,1,3,7.85c-.54,8-9.88,15.21-27.77,21.41A49,49,0,0,1,355.18,319.54Zm-18.3-9.31a28.32,28.32,0,0,0,8.32,4.28c7.35,2.38,15.71,2,24.84-1.19,21.55-7.47,25.18-14.69,25.43-18.33h0a6.73,6.73,0,0,0-2-5.16L375.9,272,338.82,308.4C338.2,309,337.55,309.63,336.88,310.23Zm-90.06-87.06h0a1.76,1.76,0,0,1-1.32-.61,30.24,30.24,0,0,1-4.29-6.64h0c-3-6.3-5.5-16.91-.11-31.63,6.5-17.78,13.86-27,21.87-27.41a10.25,10.25,0,0,1,7.8,3.13l18.8,19.12a1.75,1.75,0,0,1,0,2.48l-38.33,37.67c-1,1-2.07,2.13-3.07,3.28A1.74,1.74,0,0,1,246.82,223.17Zm16.63-62.8h-.31c-3.65.19-10.93,3.7-18.76,25.12-5,13.57-2.76,23.22,0,28.92h0a27.23,27.23,0,0,0,2.54,4.29c.61-.66,1.23-1.3,1.86-1.91l37.08-36.45-17.58-17.88A6.77,6.77,0,0,0,263.45,160.37Z"/><path class="cls-3" d="M302.81,560.31h0l-8.75-24.51L256.11,429.53l-5.52-15.48-9.49-26.59-7.43-20.79h0c0-.15.05-.31.07-.47l.06-.51c0-.17,0-.35.07-.53s0-.36,0-.55,0-.39.06-.59,0-.4.05-.61c0-.41.07-.85.1-1.3.12-1.82.21-4,.23-6.45,0-.21,0-.42,0-.64l0-.44,0-.28v0c0-.1,0-.2,0-.3a2.51,2.51,0,0,0,0-.27c0-.27.1-.54.16-.81a2.3,2.3,0,0,1,.06-.28,3,3,0,0,1,.08-.32.29.29,0,0,1,0-.09c0-.08,0-.16.07-.25s.08-.29.13-.43l.05-.15a2.25,2.25,0,0,1,.08-.24.49.49,0,0,1,0-.11l.06-.18a1.8,1.8,0,0,1,.08-.21c.08-.21.16-.43.26-.65h0l.28-.64c0-.07.07-.15.11-.22a.47.47,0,0,1,.05-.1l.13-.27c0-.05,0-.09.07-.14l.12-.23c.06-.11.11-.21.18-.32l.15-.29c.13-.22.26-.44.4-.66l.08-.14.11-.17c.06-.1.12-.2.19-.3h0c.13-.21.27-.42.41-.62.39-.56.8-1.12,1.24-1.66q.17-.22.36-.45c.23-.3.49-.59.74-.88.08-.09.16-.19.25-.28s.34-.39.52-.58l.26-.27c.65-.7,1.34-1.38,2-2l.18-.16.57-.52.57-.51c.48-.43,1-.85,1.46-1.25l.29-.24.87-.7,0,0,.29-.22.29-.23.32-.24c1.06-.82,2.11-1.58,3.12-2.27.46-.32.92-.63,1.36-.91.94-.63,1.84-1.2,2.64-1.69l.9-.54h0l.78-.46.2-.12.8-.45.19-.11.22-.12.13-.07.23-.12.15-.09.1-.05.45-.24h0l-.62-.48-.58-.45-.55-.45,0,0-.5-.42-.05,0,0,0-.24-.22a.69.69,0,0,1-.13-.11,1.54,1.54,0,0,1-.19-.17l-.21-.17-.25-.23-.13-.12-.37-.34-.11-.1-.26-.24-.17-.16-.07-.07-.11-.11h0l-.19-.18-.05-.05-.06-.06-.61-.62-.15-.15-.18-.19h0l0,0-.06-.07-.28-.29,0,0-.21-.23-.1-.1c-.29-.34-.58-.66-.85-1-.09-.1-.17-.21-.25-.31l0,0-.23-.28-.66-.86a1.71,1.71,0,0,0-.11-.14c0-.07-.09-.13-.13-.19l-.06-.08,0,0c-.21-.28-.4-.57-.58-.85a.61.61,0,0,1-.07-.1c-.2-.31-.4-.62-.58-.93l-.09-.16a.16.16,0,0,1,0-.07l0-.08,0-.07L249,317l-.05-.09-.13-.24,0-.1a1.62,1.62,0,0,0-.1-.18c0-.07-.08-.15-.11-.23a.41.41,0,0,1-.05-.09,2,2,0,0,0-.13-.25h0v0c-.09-.19-.18-.37-.26-.55s-.08-.2-.13-.3l-.12-.28c-.08-.2-.15-.39-.22-.58s-.14-.38-.21-.56l-.09-.28-.09-.28a1.87,1.87,0,0,1-.07-.22c-.12-.38-.21-.76-.3-1.12l-.06-.26c0-.17-.07-.35-.1-.51s0-.19-.05-.28,0-.31-.07-.46c0-.35-.09-.69-.12-1a1.21,1.21,0,0,1,0-.19c0-.23,0-.44,0-.65V308a15.42,15.42,0,0,1,.65-4.73h0a16.33,16.33,0,0,1,1.06-2.09q.42-.69.84-1.29l0-.05.22-.3a.76.76,0,0,1,.11-.14,1.84,1.84,0,0,1,.17-.22l.14-.19.21-.25h0a16.1,16.1,0,0,1,1.64-1.72c4,2.22,12.48,10.92,19.8,18.85,6.95,7.52,12.84,14.36,12.84,14.36l-12.62,36.34,11.38,24.33,6.26,13.39,16.23,34.67,56.78,121.39Z"/><path class="cls-3" d="M246.92,316.19l-.17.14a10.4,10.4,0,0,1-2.06,1.4,10.76,10.76,0,0,1-12.91-2.29,2.2,2.2,0,0,1-.2-.23l-14.22-16.47a10.77,10.77,0,0,1,1.12-15.18l.16-.14a10.71,10.71,0,0,1,6.8-2.61h0a10.33,10.33,0,0,1,2.29.2h0a10.73,10.73,0,0,1,6.07,3.53L248,301A10.76,10.76,0,0,1,246.92,316.19Z"/><path class="cls-3" d="M217.37,345.29l-.17.14a10.77,10.77,0,0,1-14.82-.72c-.12-.13-.24-.26-.35-.4l-16-18.54a10.75,10.75,0,0,1,1.12-15.17l.16-.15a10.77,10.77,0,0,1,9.12-2.4,10.65,10.65,0,0,1,6.06,3.52l16,18.54A10.77,10.77,0,0,1,217.37,345.29Z"/><path class="cls-4" d="M231.78,315.44a2.2,2.2,0,0,1-.2-.23l-14.22-16.47a10.77,10.77,0,0,1,1.12-15.18l.16-.14a10.71,10.71,0,0,1,6.8-2.61h0a10.33,10.33,0,0,1,2.29.2c-.21,0-7.83,1.18-3.41,14a147.18,147.18,0,0,0,6.86,17,6,6,0,0,1,.58,3.34Z"/><path class="cls-3" d="M233.35,331.62l-.17.15A10.75,10.75,0,0,1,218,330.65L199.31,309a10.75,10.75,0,0,1,1.12-15.17l.17-.14a10.77,10.77,0,0,1,15.17,1.11l18.7,21.67A10.75,10.75,0,0,1,233.35,331.62Z"/><path class="cls-4" d="M218,330.65,199.31,309a10.75,10.75,0,0,1,1.12-15.17l.17-.14a10.71,10.71,0,0,1,10.49-2s-8.67,1.43-8.23,8.09,10.44,20.5,10.44,20.5S217.25,326.14,218,330.65Z"/><path class="cls-4" d="M202.38,344.71c-.12-.13-.24-.26-.35-.4l-16-18.54a10.75,10.75,0,0,1,1.12-15.17l.16-.15a10.77,10.77,0,0,1,9.12-2.4h0s-10.63,5.29-5,13.95C196.91,330.38,200,338.53,202.38,344.71Z"/><path class="cls-3" d="M201.56,358.67l-.16.14a10.75,10.75,0,0,1-15.18-1.11l-11.06-12.82a10.77,10.77,0,0,1,1.12-15.18l.16-.14a10.74,10.74,0,0,1,9.8-2.26h0a10.66,10.66,0,0,1,5.37,3.36l11.06,12.82A10.77,10.77,0,0,1,201.56,358.67Z"/><path class="cls-4" d="M188.88,359.93a10.82,10.82,0,0,1-2.66-2.23l-11.06-12.82a10.77,10.77,0,0,1,1.12-15.18l.16-.14a10.74,10.74,0,0,1,9.8-2.26h0c-.22.07-10.93,3.64-7.31,11.64C181.59,344.83,186.47,354.76,188.88,359.93Z"/><path class="cls-2" d="M194.36,363.18a12.55,12.55,0,0,1-9.47-4.34L173.83,346a12.54,12.54,0,0,1,1.3-17.65l.16-.14a12.57,12.57,0,0,1,8.17-3A12.53,12.53,0,0,1,186,309.27l.18-.15a12.44,12.44,0,0,1,9.5-3,12.54,12.54,0,0,1,3.61-13.68l.17-.15a12.58,12.58,0,0,1,12.2-2.36,11.93,11.93,0,0,1,1.39.57,12.52,12.52,0,0,1,4.28-8.3l.17-.14a12.51,12.51,0,0,1,7.82-3h.1a12.8,12.8,0,0,1,2.63.22h0a12.33,12.33,0,0,1,7,4.1l14.22,16.48a12.52,12.52,0,0,1-1.3,17.64l-.18.16a13,13,0,0,1-2.37,1.61,12.5,12.5,0,0,1-7,1.36,12.56,12.56,0,0,1-4,12.31l-.16.14a12.54,12.54,0,0,1-11.57,2.58,12.49,12.49,0,0,1-4.25,10.94l-.17.15A12.44,12.44,0,0,1,207,349.39,12.45,12.45,0,0,1,202.7,360l-.16.14A12.48,12.48,0,0,1,194.36,363.18Zm-10.89-34.49a9,9,0,0,0-5.89,2.19l-.16.14a9,9,0,0,0-.94,12.71l11.06,12.82a9.11,9.11,0,0,0,2.24,1.87,9,9,0,0,0,10.47-.93l.16-.14a9,9,0,0,0,2.45-10.27,1.75,1.75,0,0,1,.49-2,1.73,1.73,0,0,1,2.05-.14,9,9,0,0,0,10.66-.83l.18-.15a9,9,0,0,0,2.22-10.72A1.75,1.75,0,0,1,221,331a9,9,0,0,0,11-.59l.16-.14a9,9,0,0,0,2-11.28,1.75,1.75,0,0,1,2.18-2.49,9,9,0,0,0,7.55-.35A9.31,9.31,0,0,0,245.6,315l.19-.16a9,9,0,0,0,.92-12.69h0l-14.22-16.48a8.87,8.87,0,0,0-5-2.94h-.05a8.63,8.63,0,0,0-1.84-.17h-.1a9,9,0,0,0-5.68,2.19l-.16.14a9,9,0,0,0-2.93,8.71,1.75,1.75,0,0,1-2.91,1.65,8.84,8.84,0,0,0-3.26-2,9.06,9.06,0,0,0-8.79,1.71l-.18.15a9,9,0,0,0-.92,12.7l.11.13a1.75,1.75,0,0,1-2.15,2.69,9,9,0,0,0-10.14,1.12l-.18.15a9,9,0,0,0-.92,12.7l1.81,2.1a1.75,1.75,0,0,1-2,2.75,7.64,7.64,0,0,0-1.31-.47l-.1,0A9.08,9.08,0,0,0,183.47,328.69Z"/><polygon class="cls-10" points="294.11 404.08 261.09 430.21 233.48 452.06 232.78 447.37 227.35 430.51 254.72 411.13 287.53 387.55 293.29 401.11 294.11 404.08"/><polygon class="cls-11" points="372.81 560.31 302.81 560.31 302.8 560.31 250.23 560.31 243.94 535.79 223.16 454.72 232.77 447.37 240.2 441.7 256.11 429.53 256.12 429.53 259.89 426.64 289.18 404.25 293.29 401.11 296.36 398.76 305.41 417.88 372.81 560.31"/><g class="cls-12"><polygon class="cls-13" points="309.42 560.31 250.23 560.31 243.94 535.79 223.16 454.72 232.77 447.37 227.35 430.51 235 425.1 250.59 414.05 250.59 414.05 254.73 411.13 259.89 426.64 261.09 430.21 300.31 535.79 309.42 560.31"/></g><path class="cls-5" d="M97.7,213l2.45,18.32a1.08,1.08,0,0,1-.81,1.21l-21.9,5.65a1.1,1.1,0,0,0-.09,2.1L105,250.15a1.08,1.08,0,0,1,.73,1l1.11,16.7a1.1,1.1,0,0,0,2.1.38l9.81-21.7a1.11,1.11,0,0,1,.68-.59l10.87-3.39a1.1,1.1,0,0,0,.34-1.93L120,232.52a1.11,1.11,0,0,1-.27-1.46L127,219.52a1.1,1.1,0,0,0-1.22-1.64l-17.54,4.84a1.1,1.1,0,0,1-1.18-.41l-7.34-10.06A1.1,1.1,0,0,0,97.7,213Z"/><path class="cls-2" d="M131.7,242.79a2.17,2.17,0,0,1-1.1.77l-10.87,3.38-9.81,21.7a2.19,2.19,0,0,1-4.19-.76l-1.11-16.7L77,241.35a2.19,2.19,0,0,1,.19-4.19l21.89-5.65-2.44-18.32a2.2,2.2,0,0,1,3.95-1.59l7.33,10.06,17.54-4.83a2.19,2.19,0,0,1,2.45,3.27l-7.18,11.54,10.57,8.07a2.17,2.17,0,0,1,.83,2.13A2.09,2.09,0,0,1,131.7,242.79ZM118,245.62a2.19,2.19,0,0,1,1.09-.77L130,241.46l-10.57-8.07a2.18,2.18,0,0,1-.53-2.91L126,219l-17.54,4.83a2.22,2.22,0,0,1-2.36-.83l-7.33-10-1.1.14,1.09-.14,2.45,18.32a2.2,2.2,0,0,1-1.63,2.42l-21.9,5.64,27.64,9.83a2.22,2.22,0,0,1,1.46,1.92l1.11,16.71,9.81-21.7A2.26,2.26,0,0,1,118,245.62Z"/><path class="cls-5" d="M327.3,67.93l12.23,6.35a.82.82,0,0,1,.39,1L334,91.08a.81.81,0,0,0,1.24,1l17.83-12.66a.82.82,0,0,1,.9,0l10.67,6.47a.82.82,0,0,0,1.13-1.12l-9-15.28a.81.81,0,0,1-.08-.66l2.59-8.09a.82.82,0,0,0-1-1l-9.46,3a.82.82,0,0,1-1-.46l-4-9.32a.82.82,0,0,0-1.53,0l-4.56,12.78a.8.8,0,0,1-.76.54l-9.27.17A.82.82,0,0,0,327.3,67.93Z"/><path class="cls-2" d="M365.45,87a1.84,1.84,0,0,1-1.38-.24l-10.52-6.38L335.86,92.92a1.91,1.91,0,0,1-2.26,0A1.87,1.87,0,0,1,333,90.7l5.85-15.57-12-6.24h0a1.9,1.9,0,0,1,.84-3.59l9.1-.16,4.49-12.61A1.87,1.87,0,0,1,343,51.27a1.9,1.9,0,0,1,1.8,1.15l3.87,9.11,9.23-2.93A1.9,1.9,0,0,1,360.25,61l-2.55,8,9,15.18A1.91,1.91,0,0,1,365.45,87ZM328.7,67.44,340,73.32a1.9,1.9,0,0,1,.91,2.36l-5.63,15,17.13-12.18a1.89,1.89,0,0,1,2.09-.07l9.79,5.93L355.79,70a1.89,1.89,0,0,1-.18-1.54l2.44-7.61-9,2.85a1.87,1.87,0,0,1-2.32-1.07L343,53.88,338.71,66A1.9,1.9,0,0,1,337,67.29ZM339,75.24h0Z"/><path class="cls-5" d="M331.15,379.94l12.58-.47a.74.74,0,0,1,.77.63l2.4,15.21a.75.75,0,0,0,1.42.2l8.45-18.1a.75.75,0,0,1,.7-.43l11.4.33a.75.75,0,0,0,.39-1.4l-14.07-8.06a.7.7,0,0,1-.36-.49l-1.59-7.59a.76.76,0,0,0-1.29-.36l-6.15,6.65a.76.76,0,0,1-1,.09l-7.35-5.62a.74.74,0,0,0-1.19.72l2.14,12.2a.76.76,0,0,1-.36.78l-7.29,4.32A.75.75,0,0,0,331.15,379.94Z"/><path class="cls-2" d="M348.28,396.92a1.82,1.82,0,0,1-.9.1,1.86,1.86,0,0,1-1.56-1.54l-2.36-14.91-12.27.46a1.81,1.81,0,0,1-1.84-1.32,1.83,1.83,0,0,1,.83-2.11l7.09-4.19-2.1-12a1.84,1.84,0,0,1,2.94-1.78l7.1,5.42,5.94-6.41a1.84,1.84,0,0,1,3.16.87l1.56,7.44,13.93,8a1.85,1.85,0,0,1-1,3.45l-11.16-.33L349.31,396A1.81,1.81,0,0,1,348.28,396.92Zm-15.8-18.13,11.21-.42a1.86,1.86,0,0,1,1.89,1.55L347.81,394l8-17.06a1.84,1.84,0,0,1,1.72-1.07l10,.29-12.88-7.36a1.89,1.89,0,0,1-.89-1.23l-1.45-6.93-5.7,6.16a1.85,1.85,0,0,1-2.47.21l-6.65-5.08,2,11.32a1.86,1.86,0,0,1-.88,1.91Zm-1.37,0Zm24.79-11.71Z"/><path class="cls-14" d="M303.76,115.89a2.16,2.16,0,0,1-2.35-3.14c9.35-17.42,23.12-31.57,23.71-32.16a2.16,2.16,0,0,1,3.08,3c-.14.14-13.93,14.32-23,31.19A2.15,2.15,0,0,1,303.76,115.89Z"/><path class="cls-14" d="M343.4,112.26a2.16,2.16,0,0,1-2.43-3c5.5-12.28,9.5-17.55,9.67-17.77a2.16,2.16,0,1,1,3.42,2.63c-.06.08-3.91,5.2-9.14,16.9A2.18,2.18,0,0,1,343.4,112.26Z"/><path class="cls-14" d="M163.94,265.37a2.21,2.21,0,0,1-3,.44c-14.78-10.8-36.06-10.31-36.28-10.31a2.19,2.19,0,0,1-.13-4.38c.93,0,23-.56,39,11.15a2.18,2.18,0,0,1,.47,3.06Z"/><path class="cls-14" d="M198.07,254.65a2.18,2.18,0,0,1-.25.28,2.15,2.15,0,0,1-3-.13c-19.63-21.34-49.85-27.81-50.16-27.87a2.16,2.16,0,0,1,.88-4.23c1.29.27,31.87,6.79,52.46,29.18A2.16,2.16,0,0,1,198.07,254.65Z"/><path class="cls-2" d="M282.64,327.51a1.72,1.72,0,0,1-1.23-.5L252,298a16.42,16.42,0,0,0-2.38,3.73,1.75,1.75,0,0,1-3.18-1.47,18.19,18.19,0,0,1,4.43-6.09,1.75,1.75,0,0,1,2.34.1l30.66,30.23a1.74,1.74,0,0,1,0,2.47A1.72,1.72,0,0,1,282.64,327.51Z"/><path class="cls-2" d="M259.16,329.85a1.77,1.77,0,0,1-1.09-.37c-10.16-8-11.66-13.77-11.72-14a1.75,1.75,0,0,1,3.39-.85c0,.13,1.52,5,10.5,12.1a1.75,1.75,0,0,1-1.08,3.13Z"/><path class="cls-2" d="M235.67,319.9a1.74,1.74,0,0,1-1.33-.61l-20.68-24.18a1.75,1.75,0,0,1,2.66-2.28L237,317a1.76,1.76,0,0,1-.19,2.47A1.72,1.72,0,0,1,235.67,319.9Z"/><path class="cls-2" d="M220,334.23a1.74,1.74,0,0,1-1.32-.6L198,310.14a1.75,1.75,0,1,1,2.63-2.31l20.72,23.49a1.75,1.75,0,0,1-.15,2.47A1.79,1.79,0,0,1,220,334.23Z"/><path class="cls-2" d="M204.48,348.16a1.75,1.75,0,0,1-1.31-.58L186.54,329a1.75,1.75,0,0,1,2.61-2.33l16.63,18.53a1.74,1.74,0,0,1-.13,2.47A1.77,1.77,0,0,1,204.48,348.16Z"/></g></svg>