<svg id="Layer_1" data-name="Layer 1" xmlns="http://www.w3.org/2000/svg" viewBox="0 0 600 600"><defs><style>.cls-1{fill:#f8c469;}.cls-2{fill:#424242;}.cls-3{fill:#b47d64;}.cls-4{fill:#c2dc8f;}.cls-5{fill:#aec341;}.cls-6{fill:#f8ded8;}.cls-7{fill:#d0bbb7;}.cls-8{fill:#d2916e;}.cls-9{opacity:0.29;}.cls-10{fill:#5e5e5e;}.cls-11{fill:#fff;}.cls-12{fill:#d1ebfb;}</style></defs><title>ong gia</title><g id="ông_gia" data-name="ông gia"><rect class="cls-1" x="127.37" y="363.04" width="5.24" height="190.53"/><path class="cls-2" d="M132.61,555.26H126a1.69,1.69,0,0,1-1.69-1.69V363a1.7,1.7,0,0,1,1.69-1.7h6.6a1.7,1.7,0,0,1,1.69,1.7V553.57A1.69,1.69,0,0,1,132.61,555.26Zm-4.9-3.39h3.21V364.73h-3.21Z"/><path class="cls-3" d="M89,314.81v25.78h0a5.48,5.48,0,0,0,11,0h0V314.81Z"/><path class="cls-3" d="M124,368.56V308.71h0c.06-6.9,2.49-12.45,5.48-12.45s5.41,5.55,5.48,12.45h0v59.85Z"/><path class="cls-2" d="M94.5,347.65a7.21,7.21,0,0,1-7.16-6.85,1.49,1.49,0,0,1,0-.21V314.81a1.69,1.69,0,0,1,1.7-1.69h11a1.68,1.68,0,0,1,1.69,1.69v25.78a1.48,1.48,0,0,1,0,.21A7.22,7.22,0,0,1,94.5,347.65Zm-3.79-7.21a.41.41,0,0,1,0,.11,3.79,3.79,0,0,0,7.57,0,.41.41,0,0,1,0-.11V316.5H90.71Z"/><path class="cls-2" d="M135,370.25H124a1.69,1.69,0,0,1-1.69-1.69V311.15a.91.91,0,0,1,0-.17c.1-6.72,2.58-13.47,7.17-13.47s7.07,6.75,7.17,13.47c0,0,0,.11,0,.17v57.41A1.69,1.69,0,0,1,135,370.25Zm-9.27-3.38h7.58V311.3a.53.53,0,0,0,0-.13c-.06-6.27-2.28-10.28-3.78-10.28s-3.73,4-3.79,10.28v55.7Z"/><polygon class="cls-4" points="342.69 555.83 250.19 555.22 250.51 551.31 342.11 551.76 342.69 555.83"/><path class="cls-5" d="M342.11,551.76l-91.6-.45.23-2.89,2,0,3-.06,33.86-.65a.59.59,0,0,0,0-.15,4.5,4.5,0,0,0-.08-.46,2.09,2.09,0,0,1,0-.28c-.07-.55-.19-1.27-.35-2.13-.06-.26-.1-.55-.16-.83a57,57,0,0,0-2.91-10.48l15.81-4.15c.2.41.38.86.57,1.35a14,14,0,0,1,.58,1.59c.08.21.16.43.22.64a3.42,3.42,0,0,1,.11.35c.27.88.58,1.87.82,2.93s.57,2.34.81,3.68c.09.46.18.89.26,1.37v0q.51,2.83.93,6.38l31.84-.2,3.45,0Z"/><path class="cls-4" d="M283,529.37a2.93,2.93,0,0,1,1.3.94h0a10.73,10.73,0,0,1,1.75,3l15.82-4.16a14,14,0,0,0-2.34-3.73,3.58,3.58,0,0,0-1.25-1Z"/><path class="cls-6" d="M255.75,548.32l33.86-.64s-1.89-13.5-5.31-17.37h0c-.11,0-.78.2-1.84.5h0c.25.54,6.56,13.88,3.84,14.89S255.75,548.32,255.75,548.32Z"/><path class="cls-7" d="M255.75,548.32l33.86-.64s-1.89-13.5-5.31-17.37h0c-.11,0-.78.2-1.84.5h0c.25.54,6.56,13.88,3.84,14.89S255.75,548.32,255.75,548.32Z"/><path class="cls-6" d="M252.77,548.37l3,0s27.74-1.59,30.53-2.61-3.59-14.35-3.84-14.89c0,0,0,0,0,0C275.94,532.67,255,539.3,252.77,548.37Z"/><path class="cls-6" d="M305.23,541.12q.51,2.85.94,6.37l31.83-.2c1-15.68-6.55-19.12-6.55-19.12l.78-26.37-11.07-.44s-1.5,24.8.59,32.72S305.23,541.12,305.23,541.12Z"/><path class="cls-7" d="M305.23,541.12q.51,2.85.94,6.37l31.83-.2c1-15.68-6.55-19.12-6.55-19.12l.78-26.37-11.07-.44s-1.5,24.8.59,32.72S305.23,541.12,305.23,541.12Z"/><path class="cls-6" d="M299.53,525.46a11.77,11.77,0,0,1,1.08,1.41c.08.12.16.24.23.37a21.18,21.18,0,0,1,1,2c.19.42.38.86.57,1.36a15.73,15.73,0,0,1,.58,1.57c.08.22.15.43.22.66l.11.35c.28.87.56,1.85.82,2.92s.55,2.34.8,3.68c.1.44.17.9.26,1.38h0s18.6.89,16.52-7-.59-32.72-.59-32.72L305,500.71s2.91,14.4,2.37,19.47S299.53,525.46,299.53,525.46Z"/><path class="cls-6" d="M305.23,541.11h0s18.6.89,16.52-7-.59-32.72-.59-32.72Z"/><path class="cls-2" d="M342.69,557.09h0l-92.51-.6a1.26,1.26,0,0,1-.93-.41,1.3,1.3,0,0,1-.33-1l.56-6.79a1.26,1.26,0,0,1,1.24-1.17l1.11,0c3.29-8.85,21.63-15,29.92-17.44a1.12,1.12,0,0,1,0-.32,1.27,1.27,0,0,1,.88-1.21l15.3-4.87a1.3,1.3,0,0,1,.78,0,4,4,0,0,1,1.33.86c1.49-.15,5.71-.87,6.06-4.1.51-4.82-2.32-18.95-2.35-19.09a1.25,1.25,0,0,1,.28-1.08,1.27,1.27,0,0,1,1-.44l27.27,1.09a1.27,1.27,0,0,1,1.22,1.31l-.76,25.62c2,1.34,7.06,6,6.6,18.55l2.09,0h0a1.29,1.29,0,0,1,1.26,1.09l1.24,8.57a1.3,1.3,0,0,1-.3,1A1.25,1.25,0,0,1,342.69,557.09ZM251.56,554l89.67.58-.88-6-2.33,0h0a1.28,1.28,0,0,1-1.26-1.14.89.89,0,0,1,0-.23c.94-14.46-5.76-17.85-5.83-17.88a1.29,1.29,0,0,1-.73-1.19l.75-25.11-24.42-1c.74,3.93,2.52,14,2.07,18.28-.65,6.12-8.68,6.4-9,6.41a1.21,1.21,0,0,1-1-.4,4.2,4.2,0,0,0-.48-.44l-12.64,4a1.31,1.31,0,0,1,0,.83,1.26,1.26,0,0,1-1,.83c-.08,0-.61.15-1.6.43l-.15.06C270,535.68,255.85,541.9,254,548.52a1.26,1.26,0,0,1-1.23,1.13l-.89,0Z"/><polygon class="cls-4" points="396.03 556.84 298.5 555.86 298.86 551.74 395.43 552.55 396.03 556.84"/><path class="cls-5" d="M395.43,552.55l-96.57-.81.25-3,2.15,0,3.15,0L340.1,548a.81.81,0,0,0,0-.16c0-.11,0-.27-.07-.48a.91.91,0,0,1,0-.3c-.08-.57-.2-1.33-.37-2.24-.06-.28-.1-.58-.17-.87a60.27,60.27,0,0,0-3-11.07l16.68-4.31a14.07,14.07,0,0,1,.59,1.43,13,13,0,0,1,.61,1.67,6,6,0,0,1,.23.68,3.68,3.68,0,0,1,.11.37c.29.93.61,2,.86,3.09s.59,2.47.84,3.89c.09.48.19.93.27,1.44v0c.35,2,.67,4.24,1,6.72l33.57-.09,3.63,0Z"/><path class="cls-4" d="M333.17,528.73a3.11,3.11,0,0,1,1.37,1h0a11.55,11.55,0,0,1,1.84,3.21l16.69-4.32a14.51,14.51,0,0,0-2.46-3.94,3.69,3.69,0,0,0-1.31-1Z"/><path class="cls-6" d="M304.4,548.6l35.7-.55s-2-14.24-5.54-18.33h0l-1.94.52v0c.26.57,6.86,14.65,4,15.7S304.4,548.6,304.4,548.6Z"/><path class="cls-7" d="M304.4,548.6l35.7-.55s-2-14.24-5.54-18.33h0l-1.94.52v0c.26.57,6.86,14.65,4,15.7S304.4,548.6,304.4,548.6Z"/><path class="cls-6" d="M301.25,548.65l3.15,0S333.65,547,336.59,546s-3.73-15.13-4-15.7c0,0,0,0,0,0C325.74,532.18,303.61,539.09,301.25,548.65Z"/><path class="cls-6" d="M356.59,541.2q.53,3,1,6.72l33.57-.1c1.14-16.52-6.84-20.18-6.84-20.18l.92-27.8-11.67-.5s-1.67,26.14.5,34.5S356.59,541.2,356.59,541.2Z"/><path class="cls-7" d="M356.59,541.2q.53,3,1,6.72l33.57-.1c1.14-16.52-6.84-20.18-6.84-20.18l.92-27.8-11.67-.5s-1.67,26.14.5,34.5S356.59,541.2,356.59,541.2Z"/><path class="cls-6" d="M350.63,524.67a11.56,11.56,0,0,1,1.14,1.49,3.68,3.68,0,0,1,.24.39,20,20,0,0,1,1.08,2.06c.2.44.39.91.6,1.43s.41,1.06.61,1.66c.07.23.15.46.22.7l.12.36c.28.93.58,2,.84,3.09s.58,2.46.84,3.88c.1.46.18.95.27,1.45v0s19.61,1,17.44-7.36-.5-34.5-.5-34.5l-17.08-.75s3,15.19,2.42,20.54S350.63,524.67,350.63,524.67Z"/><path class="cls-6" d="M356.59,541.18v0s19.61,1,17.44-7.36-.5-34.5-.5-34.5Z"/><path class="cls-2" d="M396,558.11h0l-97.53-1a1.3,1.3,0,0,1-.93-.42,1.25,1.25,0,0,1-.32-1l.61-7.16a1.27,1.27,0,0,1,1.24-1.17l1.22,0c3.45-9.33,22.93-15.82,31.65-18.29a1.23,1.23,0,0,1-.06-.39,1.28,1.28,0,0,1,.89-1.21l16.15-5.07a1.3,1.3,0,0,1,.78,0,4.45,4.45,0,0,1,1.4.92c1.55-.15,6.1-.89,6.48-4.37.57-5.09-2.37-20-2.4-20.15a1.27,1.27,0,0,1,1.3-1.52l28.76,1.26a1.26,1.26,0,0,1,1.21,1.31l-.9,27c2.06,1.39,7.44,6.31,6.89,19.62l2.28,0h0a1.27,1.27,0,0,1,1.26,1.09l1.28,9a1.26,1.26,0,0,1-1.26,1.45Zm-96.15-3.51,94.69,1-.92-6.48-2.52,0h0a1.28,1.28,0,0,1-1.27-1.16v-.21c1.06-15.3-6-18.91-6.12-18.94a1.28,1.28,0,0,1-.72-1.19l.88-26.54L358,499.93c.76,4.08,2.63,14.85,2.13,19.34-.7,6.39-9.11,6.66-9.47,6.67a1.35,1.35,0,0,1-1-.4,4.55,4.55,0,0,0-.54-.51l-13.44,4.23a1.27,1.27,0,0,1-.94,1.71c-.08,0-.64.16-1.71.46l-.16.05h0c-13.46,3.79-28.46,10.32-30.38,17.32a1.28,1.28,0,0,1-1.24,1.13h-1Z"/><path class="cls-3" d="M324.44,316.47l-35.75,72.8a53.5,53.5,0,0,0-2.3,30c6.13,28.87,12.11,30.72,10.05,85.84,0,0,33.88,4.24,40.59-2.89l.29-35.73s-3.53-42.29-4.37-45.23,25.59-63.77,26-75.51-15.65-53-15.65-53Z"/><path class="cls-2" d="M316.38,508.08a176.35,176.35,0,0,1-20.15-1.29,1.69,1.69,0,0,1-1.48-1.78c2.45-41-.93-52.48-5.22-67-1.5-5.09-3.2-10.86-4.79-18.38a54.94,54.94,0,0,1,2.37-30.95l.06-.14,35.75-72.81a2,2,0,0,1,.2-.3L342,291.73a1.69,1.69,0,0,1,2.9.44c.66,1.7,16.19,41.68,15.76,53.64-.26,7.23-9.61,31.36-17.12,50.74-4.28,11-8.7,22.45-8.9,24.46.92,4.2,3.93,40,4.27,44.14a.76.76,0,0,1,0,.15l-.19,36.93a1.66,1.66,0,0,1-.46,1.15C334.77,507.08,325.41,508.08,316.38,508.08Zm-18.16-4.47c9.89,1.1,31.52,2.42,37.12-2.13l.18-36.12c-1.32-15.83-3.62-41.61-4.2-43.63-.43-1.51.84-5.21,9.05-26.4,7-18.14,16.66-43,16.89-49.64.35-9.54-10.92-40.14-14.47-49.53l-16.91,21.22L290.25,390a51.67,51.67,0,0,0-2.2,29c1.57,7.39,3.18,12.85,4.73,18.13C297.1,451.7,300.53,463.31,298.22,503.61Z"/><path class="cls-8" d="M426.94,233.93s25.15,54.76-17.64,116l-35.11,44.81s18.47,52.18,18.63,105c0,0-31.46,12.17-51.6,5,0,0,15.43-20.36-18-100.38a39.57,39.57,0,0,1-1.48-26.56c7.84-26.33,19.74-57.81,16.24-79.45l69.22-72.12Z"/><path class="cls-2" d="M356.25,508.68a47,47,0,0,1-15.59-2.35,1.69,1.69,0,0,1-.78-2.62c.13-.19,14.19-21.12-18.22-98.7a41.42,41.42,0,0,1-1.55-27.71c1.31-4.37,2.69-8.79,4.16-13.47,7-22.3,14.9-47.56,12-65.22a1.7,1.7,0,0,1,.45-1.44L406,225.05a1.68,1.68,0,0,1,1.84-.41l19.74,7.71a1.74,1.74,0,0,1,.92.87c.26.58,6.44,14.24,7.38,35.67.87,19.74-2.8,50-25.17,82l-.06.08L376.12,395c2.76,7.33,20.8,57.23,18.4,104.75a1.71,1.71,0,0,1-1.08,1.49C392.43,501.67,374,508.68,356.25,508.68Zm-12.57-4.94c17.29,4.9,42.17-3.34,47.51-5.24,2.19-50.09-18.36-102.59-18.57-103.12a1.7,1.7,0,0,1,.24-1.67l35.08-44.77c21.76-31.18,25.36-60.57,24.54-79.74-.78-18.33-5.63-31.08-6.82-33.95l-18-7-67.86,70.7c2.62,18.35-4.95,42.53-12.28,65.93-1.46,4.67-2.84,9.08-4.14,13.43a38,38,0,0,0,1.42,25.43C353,471.27,346.71,496.89,343.68,503.74Z"/><path class="cls-3" d="M384.59,493.18a1.72,1.72,0,0,1-1.39-1.52c-.5-5.72-1.15-11.33-1.94-16.67a1.69,1.69,0,0,1,3.35-.5c.8,5.41,1.46,11.09,2,16.87A1.71,1.71,0,0,1,385,493.2,2.2,2.2,0,0,1,384.59,493.18Z"/><path class="cls-3" d="M378.77,454.19a1.71,1.71,0,0,1-1.32-1.35c-1-5.54-2.22-10.79-3.67-16.07a1.69,1.69,0,0,1,3.26-.9c1.48,5.37,2.7,10.72,3.74,16.35a1.69,1.69,0,0,1-1.35,2A1.82,1.82,0,0,1,378.77,454.19Z"/><path class="cls-3" d="M368.2,423.83a1.7,1.7,0,0,1-1.31-1.35c-1-5.54-2.23-10.79-3.68-16.07a1.7,1.7,0,0,1,3.27-.9c1.48,5.37,2.7,10.72,3.74,16.35a1.7,1.7,0,0,1-1.36,2A1.83,1.83,0,0,1,368.2,423.83Z"/><path class="cls-3" d="M364.43,391.05a2,2,0,0,1-.52-.16,1.71,1.71,0,0,1-.74-2.28,148.34,148.34,0,0,1,10.3-16.76,1.69,1.69,0,0,1,2.78,1.92,147.61,147.61,0,0,0-10.06,16.37A1.69,1.69,0,0,1,364.43,391.05Z"/><path class="cls-3" d="M385.31,359.78a1.72,1.72,0,0,1-.82-.21,1.69,1.69,0,0,1-.67-2.3c2.83-5.15,6-10.75,9.7-17.12a1.69,1.69,0,0,1,2.93,1.7c-3.68,6.34-6.84,11.92-9.66,17A1.7,1.7,0,0,1,385.31,359.78Z"/><path class="cls-3" d="M405.23,329.23a1.7,1.7,0,0,1-1.45-2.57q2-3.39,4.11-6.84a76.18,76.18,0,0,0,4.4-8.5,1.69,1.69,0,1,1,3.1,1.36,78.13,78.13,0,0,1-4.6,8.89q-2.07,3.44-4.1,6.83A1.71,1.71,0,0,1,405.23,329.23Z"/><path class="cls-3" d="M419.47,290.56h-.11a1.7,1.7,0,0,1-1.59-1.8,71.64,71.64,0,0,0-.79-15.95,1.7,1.7,0,0,1,3.35-.53,75.28,75.28,0,0,1,.82,16.69A1.69,1.69,0,0,1,419.47,290.56Z"/><path class="cls-3" d="M413.83,256.62a1.7,1.7,0,0,1-1.58-1.08,97.41,97.41,0,0,0-8.17-16.34,1.69,1.69,0,0,1,2.87-1.8,101.46,101.46,0,0,1,8.46,16.91,1.7,1.7,0,0,1-1,2.2A1.93,1.93,0,0,1,413.83,256.62Z"/><path class="cls-6" d="M180.68,309.82c-1.64,2.44-3.16,4.49-3.16,4.49s-32.84-8.47-40.58.27c-4.9,5.54-35.07,6.18-43.39,8.05-2.2.5-3.44-.14-4-1.47-1.69-3.67,1.52-12.72,2.71-17.85.51-2.24,2.61-4.53,5.22-6.61a36.78,36.78,0,0,1,22.94-7.83h28s35.28,12,36.35,13.1C185.38,302.59,182.9,306.56,180.68,309.82Z"/><g class="cls-9"><path class="cls-10" d="M180.68,309.82c-1.64,2.44-3.16,4.49-3.16,4.49s-32.84-8.47-40.58.27c-4.9,5.54-35.07,6.18-43.39,8.05-2.2.5-3.44-.14-4-1.47,0,0,32.24-8.8,47.44-15.32C152,299.39,180,309.59,180.68,309.82Z"/></g><path class="cls-2" d="M92.17,324.49A4.35,4.35,0,0,1,88,321.86c-1.58-3.42.12-9.66,1.62-15.17.37-1.37.72-2.67,1-3.76.55-2.4,2.45-4.88,5.81-7.55a38.55,38.55,0,0,1,24-8.2h28a1.65,1.65,0,0,1,.54.09c35.66,12.15,36.68,13.17,37,13.51,1.23,1.23,1,2.9-3.88,10-1.64,2.43-3.14,4.45-3.2,4.54a1.7,1.7,0,0,1-1.78.63c-8.86-2.28-33.11-6.78-38.89-.24-3.53,4-15.88,5.47-31.66,7-5.43.53-10.12,1-12.63,1.55A7.69,7.69,0,0,1,92.17,324.49Zm28.2-33.92A35.18,35.18,0,0,0,98.48,298c-3.36,2.68-4.37,4.56-4.63,5.66s-.62,2.48-1,3.89C91.7,311.78,90,318.14,91,320.45c.16.35.42.91,2.14.53a131,131,0,0,1,13-1.62c10.56-1,26.53-2.6,29.45-5.9,7.62-8.6,34.6-2.67,41.15-1.07.59-.82,1.5-2.1,2.45-3.51a45.15,45.15,0,0,0,3.63-5.95c-4.42-1.87-22.91-8.32-34.77-12.36Zm63.39,12.76Zm-.2-.16h0Z"/><path class="cls-6" d="M258.67,183.4c0,5.41-26.71,34.91-26.89,35.61s-22.69-16.41-22.69-16.41l2.62-10.47L199.25,192c-.76,5.83-7.52,13.06-15.82,16.61h0a23.89,23.89,0,0,1-13,1.91c-13.09-2.09-17.51-20.44-20.33-29s-10-15.19-10-18.9c-.11-5.35,2.47-19.88,3.35-24.69.18-1,.29-1.57.29-1.57l1.19-8.4L160.58,124s4-1.18,18,2,10.58,7.07,11,8.73,6.1,7,6.28,7.85-5.91,6.83-1.54,8.58,2.76.15,8.87,1.2S206,167.51,206,167.51c5.93,2.45,15.69-1.85,15.69-1.85s7.52-7,12.41-7,17.46,7.34,18.38,8.56S258.67,178,258.67,183.4Z"/><path class="cls-11" d="M207.39,173.47a22,22,0,0,1-5.38,2s5.13-18.56-3.87-19.82-7.12,14.45-14,12,0-19.29-8.8-20c-5-.42-16.8,1.62-26.06,3.45-3.25.65-6.19,1.27-8.4,1.74l-4.16.92c-3.89-7.26-4.55-16.93,0-24.72s19.37-12.15,34.51-15c20-3.79,24.86,8.74,24.86,8.74,20-1.44,14.14,20.61,15.19,29.78S207.39,173.47,207.39,173.47Z"/><g class="cls-9"><path class="cls-10" d="M183.4,208.57a23.89,23.89,0,0,1-13,1.91c-13.09-2.09-17.51-20.44-20.33-29s-10-15.19-10-18.9a72,72,0,0,1,.9-9.75c2.21-.47,5.15-1.09,8.4-1.74-.06.33-1.73,9.43,1,16.08S158.14,194,158.14,194l6-2.21s-.73,11.93,4.13,14.14S175.28,210.89,183.4,208.57Z"/></g><path class="cls-2" d="M231.86,220.72c-1.17,0-4.24-1.92-23.8-16.77a1.7,1.7,0,0,1-.62-1.76l2.11-8.4-8.92-.13c-1.66,6.15-8.45,13-16.53,16.45l-.09,0a25.49,25.49,0,0,1-13.88,2c-12.88-2.06-17.85-18-20.82-27.48-.3-1-.58-1.86-.84-2.67-1.41-4.26-3.94-8-6.18-11.31s-3.93-5.81-4-8.07c0-.26,0-.55,0-.84v-.24c0-.26,0-.55,0-.86v-.26c0-.26,0-.52.06-.8l0-.25c0-.34,0-.68.09-1l0-.28c.09-.92.2-1.94.34-3.05l-1.79.4a1.69,1.69,0,0,1-1.87-.85c-4.53-8.47-4.52-18.58,0-26.37,4.06-7,15.39-12,35.66-15.84,17.46-3.31,24.3,5.44,26.18,8.66,4.79-.15,8.53,1,11.16,3.57,5.18,5,4.9,13.87,4.67,21a50.54,50.54,0,0,0,0,6.72c.53,4.71-.42,10-1.54,14.21a32.85,32.85,0,0,0,9.24-2.32c1.5-1.35,8.27-7.24,13.32-7.29h.07c5.59,0,18.47,7.62,19.68,9.23h0c.94,1.25,6.58,11.21,6.58,17.25,0,4-9,15.3-23.58,32.27-1.65,1.93-3.22,3.75-3.52,4.17a1.78,1.78,0,0,1-.93.78A1.4,1.4,0,0,1,231.86,220.72Zm1.56-1.27Zm0,0Zm0,0Zm0,0Zm0,0h0Zm0,0Zm0,0Zm-1.65-.41h0ZM211,201.93c8.26,6.26,17.25,12.91,20.31,14.92.59-.7,1.49-1.75,2.9-3.38C249.29,195.89,257,185.77,257,183.4c0-4.74-4.84-13.75-5.87-15.18-1.23-1.19-12.76-7.91-17-7.91h0c-3.46,0-9.32,4.77-11.28,6.59a1.82,1.82,0,0,1-.47.31c-.29.13-7.18,3.12-13.21,2.71a1.71,1.71,0,0,1-1.27-.73,1.68,1.68,0,0,1-.23-1.46c1.24-4.09,2.6-10,2-15a53.18,53.18,0,0,1-.06-7.22c.2-6.48.46-14.55-3.64-18.48-2.13-2.05-5.31-2.89-9.69-2.58a1.7,1.7,0,0,1-1.7-1.07c-.18-.45-4.72-11.16-23-7.69-19,3.61-29.89,8.26-33.37,14.22-3.71,6.34-3.88,14.81-.55,21.92l2.89-.63a1.68,1.68,0,0,1,2,1.88c-.28,2-.49,3.81-.64,5.33l0,.26q0,.51-.09,1v.23q0,.39-.06.75v.25q0,.4,0,.78v.13c0,.32,0,.56,0,.77,0,1.26,1.66,3.68,3.39,6.24,2.24,3.32,5,7.44,6.58,12.16.27.82.56,1.73.86,2.71,2.74,8.76,7.32,23.42,18.13,25.15a22.24,22.24,0,0,0,12.07-1.8l.08,0c7.58-3.26,14.06-9.94,14.75-15.24a1.69,1.69,0,0,1,1.68-1.47h0l12.47.18a1.69,1.69,0,0,1,1.32.66,1.72,1.72,0,0,1,.3,1.44Zm40.07-33.75h0Z"/><path class="cls-6" d="M423.43,220.68c-6.49.34-21.49-6.54-23.65-13.71a13.59,13.59,0,0,0-4.53-6.33c-3.83-3.27-9-5.72-12.27-8.94-5.08-5,3-3.64-11.55-33.35-4.15-8.45-4.15-12-2-12.85,5.38-2,24.26,13.53,24.26,13.53l5.22,7.64s4.65,17.21,15.73,19.64S429.92,220.34,423.43,220.68Z"/><g class="cls-9"><path class="cls-10" d="M395.25,200.64c-3.83-3.27-9-5.72-12.27-8.94-5.08-5,3-3.64-11.55-33.35-4.15-8.45-4.15-12-2-12.85C369.44,145.5,394.94,181.76,395.25,200.64Z"/></g><path class="cls-2" d="M423,222.39c-7.58,0-22.47-7.2-24.8-14.93a11.8,11.8,0,0,0-4-5.53,53.59,53.59,0,0,0-5.61-4,43.77,43.77,0,0,1-6.75-5c-2.28-2.23-2.44-3.61-2.55-6.06-.14-3.33-.4-9.54-9.34-27.74-3.17-6.46-4.2-10.61-3.23-13a3.69,3.69,0,0,1,2.17-2.14c5.86-2.22,21.33,10,25.94,13.8a1.52,1.52,0,0,1,.32.35l5.22,7.65a1.67,1.67,0,0,1,.23.51c.05.16,4.52,16.25,14.46,18.43,9.49,2.08,13.87,20.81,13.1,30.32-.49,5.93-2.76,7.3-4.58,7.39ZM370.69,147a1.81,1.81,0,0,0-.65.1c-.1,0-.16.06-.22.22-.2.51-.58,2.76,3.12,10.29,9.25,18.85,9.54,25.51,9.69,29.1.08,1.92.1,2.38,1.53,3.79a40.79,40.79,0,0,0,6.23,4.61,57.26,57.26,0,0,1,5.95,4.25,15.27,15.27,0,0,1,5.07,7.14c1.86,6.18,15.89,12.84,21.94,12.5.27,0,1.12-1.06,1.38-4.28.76-9.27-3.72-25.27-10.45-26.74-11.26-2.48-16.22-18.17-16.91-20.57l-4.93-7.22C384.33,153.53,374.23,147,370.69,147Z"/><path class="cls-12" d="M429.67,229s-31.43,60.28-70.59,81.33c-11.75,6.31-24.19,9.09-36.68,5.66,0,0,6.38-43.3-20.17-49.79s-38.89-9.95-38.89-9.95,3.31,73.54-28.55,71.43c-10.66-.71-23.32-2.2-35.45-3.86-24.12-3.3-46.13-7.3-46.13-7.3s-.74-27.61-7.37-30.27c0,0,65.58,6.91,72.49-1.59s-18.58-75.4-8-91.33c0,0,21.5,31.68,16.74-21.44-.37-4.06-8.15-7.7-8.15-7.7s57.78-30.89,83.8-47.61,56.82-33.19,66.9-21,21.77,63.72,33.46,66.38c0,0-6.17,8-14.21,12.73h0c-4.65,2.74-9.92,4.4-15,2.79l-23.32-40-38.8,28.94.58.14c.52.12,1.36.31,2.49.59l.91.22C333.61,171.84,406.44,191.9,429.67,229Z"/><path class="cls-2" d="M236.12,329.4c-.48,0-1,0-1.45,0-9.48-.64-21.45-1.94-35.56-3.87-23.88-3.27-46-7.27-46.2-7.31a1.69,1.69,0,0,1-1.39-1.62c-.3-11-2.45-27.2-6.31-28.75a1.69,1.69,0,0,1,.81-3.25c25,2.63,66.39,4.7,71-1,2.54-3.11-1-19.79-4.22-34.5C208,227,202.62,201.88,209,192.37a1.69,1.69,0,0,1,1.4-.75h0a1.71,1.71,0,0,1,1.4.74c2.8,4.12,8,9.5,10.66,8.52,1.26-.45,5.23-3.87,3-28.85-.19-2.13-4.31-5-7.18-6.33a1.7,1.7,0,0,1-.08-3c.58-.3,58-31,83.68-47.53C340.26,90.47,362.23,83.92,371,94.52c4.39,5.32,8.88,17.27,13.63,29.92,5.78,15.39,13,34.55,18.9,35.89a1.7,1.7,0,0,1,1,2.69c-.26.33-6.43,8.24-14.61,13.1l-.09.06c-5.95,3.51-11.46,4.5-16.36,2.95a1.71,1.71,0,0,1-.95-.76L350.08,140,315.7,165.64l.46.12h0C337.26,171,407.87,191,431.1,228.08a1.68,1.68,0,0,1,.07,1.68c-1.29,2.48-32.12,61-71.29,82-13.24,7.12-26,9.08-37.92,5.8a1.68,1.68,0,0,1-1.23-1.87c.06-.42,5.84-41.86-18.91-47.9-20-4.9-32.06-8.1-36.71-9.36.22,10.18.07,50.18-15.23,65.16A19.11,19.11,0,0,1,236.12,329.4Zm-81.26-14.32c5.14.91,24.27,4.25,44.71,7.05,14,1.92,25.92,3.21,35.33,3.84a15.68,15.68,0,0,0,12.6-4.76c16.16-15.8,14.17-64.41,14.15-64.9a1.69,1.69,0,0,1,2.15-1.71c.12,0,12.62,3.52,38.83,9.94,25.15,6.14,22.55,42.15,21.64,50.16,10.65,2.51,22.08.53,34-5.89,35.72-19.19,65.41-72.34,69.43-79.75-23.73-36.41-97.66-56.36-112.35-60l-.9-.22c-1.13-.28-2-.47-2.47-.59l-.59-.14a1.69,1.69,0,0,1-.63-3l38.8-28.95a1.76,1.76,0,0,1,1.35-.3,1.69,1.69,0,0,1,1.13.81l23,39.41c3.78,1,8.12.05,12.92-2.76l.09-.06A54.75,54.75,0,0,0,400.4,162.6c-6.72-4.36-12.69-20.25-19-37-4.44-11.83-9-24.07-13.07-29-7.24-8.77-29-1.59-64.69,21.32-22.54,14.48-69.37,39.84-81.17,46.2,2.59,1.62,6,4.34,6.29,7.53,1.81,20.16.15,30.44-5.23,32.35-4.74,1.7-10.11-4-12.91-7.51-3.55,10,1.4,33,5.45,51.8,4.53,21.06,6.93,33.18,3.54,37.35C213.2,293.64,167,290,150,288.35,153.74,295.34,154.64,309.6,154.86,315.08Z"/><g class="cls-9"><path class="cls-10" d="M359.08,310.31c-11.75,6.31-24.19,9.09-36.68,5.66,0,0,6.38-43.3-20.17-49.79s-38.89-9.95-38.89-9.95,3.31,73.54-28.55,71.43c-10.66-.71-23.32-2.2-35.45-3.86h0s12.2,1.58,39-1S254.06,244,254.06,244L304,249.7C370.62,260.75,359.08,310.31,359.08,310.31Z"/></g><g class="cls-9"><path class="cls-10" d="M388.91,174.71h0c-4.65,2.74-9.92,4.4-15,2.79l-23.32-40-38.8,28.94-10.44.43s42.78-37.35,50.6-38.66S388.91,174.71,388.91,174.71Z"/></g><path class="cls-11" d="M104.66,95.38a1.84,1.84,0,0,1,1-2.38,26,26,0,0,0,7.53-4.85,6.68,6.68,0,0,1-1.62-1.56c-2.63-3.58-1.4-10.78.6-14.16,1.46-2.46,3.13-2.63,4-2.52,2.52.34,3.66,3.45,4.29,5.75a13.69,13.69,0,0,1-1.15,10.42,9.33,9.33,0,0,0,1.63-.21,13.7,13.7,0,0,0,7.92-5.39,7.15,7.15,0,0,1-3.29-5.59c-.64-5.31,2.45-11.1,5.63-13a3.57,3.57,0,0,1,4-.06c1.95,1.41,2.27,4.76,1,10.56a31,31,0,0,1-1.44,4.78c3.58-1.32,8.06-5.28,11.22-11.4a1.83,1.83,0,0,1,3.26,1.68c-4.15,8-11,13.64-16.57,13.87a17.41,17.41,0,0,1-11,8.11,12.78,12.78,0,0,1-4.87.14,27.29,27.29,0,0,1-9.82,6.81,1.87,1.87,0,0,1-.69.13A1.83,1.83,0,0,1,104.66,95.38Zm9.52-17.86c-.65,2.87-.5,5.71.38,6.9a3.48,3.48,0,0,0,1,.9A10.34,10.34,0,0,0,117,76.64a9.21,9.21,0,0,0-1.19-2.91A9.26,9.26,0,0,0,114.18,77.52Zm15.07-3.08c.22,1.79.92,2.55,1.53,2.9a25.77,25.77,0,0,0,1.9-5.69c.93-4.32.65-6,.46-6.61C131.75,65.75,128.73,70.14,129.25,74.44Z"/><path class="cls-11" d="M490.61,347.88a1.84,1.84,0,0,1,.67-2.51,25.79,25.79,0,0,0,6.77-5.86,6.69,6.69,0,0,1-1.82-1.32c-3.12-3.17-2.92-10.47-1.41-14.1,1.1-2.64,2.73-3,3.6-3.06h.05c2.51,0,4.06,2.91,5,5.08a13.73,13.73,0,0,1,.34,10.48,9.59,9.59,0,0,0,1.58-.44,13.71,13.71,0,0,0,7.08-6.46,7.12,7.12,0,0,1-4.05-5.07c-1.39-5.16.86-11.33,3.74-13.63a3.53,3.53,0,0,1,4-.62c2.13,1.11,2.93,4.38,2.52,10.3a29.49,29.49,0,0,1-.75,4.94c3.36-1.81,7.23-6.38,9.49-12.88a1.84,1.84,0,0,1,3.47,1.2c-3,8.55-8.94,15.06-14.44,16.08a17.41,17.41,0,0,1-9.74,9.59,12.74,12.74,0,0,1-4.8.82,27.33,27.33,0,0,1-8.76,8.14,1.91,1.91,0,0,1-.92.24A1.82,1.82,0,0,1,490.61,347.88Zm6.89-19c-.24,2.94.31,5.73,1.35,6.78a3.21,3.21,0,0,0,1.15.74,10.35,10.35,0,0,0,.12-8.78,9,9,0,0,0-1.6-2.7A9.26,9.26,0,0,0,497.5,328.84ZM512,323.67c.47,1.74,1.27,2.39,1.93,2.64a26.06,26.06,0,0,0,1.07-5.9c.3-4.4-.22-6.06-.48-6.6C513.22,314.7,510.85,319.48,512,323.67Z"/><path class="cls-11" d="M446.12,446.34a1.84,1.84,0,0,1,.82-2.47,33.83,33.83,0,0,0,8.05-5.35,18.65,18.65,0,0,1-2.66-7.62c-1.18-6.89,1.78-8.48,3.11-8.84,2.63-.73,5.61,1.29,6.92,4.7,1.11,2.91.92,6.59-1.49,10.41,2.33-1.05,5.37-4.63,7.05-7.31A1.83,1.83,0,1,1,471,431.8c-1.08,1.74-6.79,10.34-12.41,9.24a4.73,4.73,0,0,1-.76-.21,36.77,36.77,0,0,1-9.28,6.33,1.87,1.87,0,0,1-.83.19A1.82,1.82,0,0,1,446.12,446.34Zm10.29-20.74c-.24.06-1.07,1.1-.46,4.68a18.08,18.08,0,0,0,1.57,5.35c2-2.86,2.19-5.51,1.41-7.56-.66-1.71-1.84-2.48-2.4-2.49Z"/><path class="cls-11" d="M227.86,483a1.82,1.82,0,0,1,1.53-2.09c3.94-.61,9.46-2.36,11.26-4.59-5.25,1-9.3-.4-11.87-2.9-2.85-2.78-3.6-6.61-1.76-8.93.93-1.16,3.77-3.4,10.21.77,3.3,2.14,5.53,4.2,6.7,6.21a37.88,37.88,0,0,0,9.33-6,1.83,1.83,0,1,1,2.37,2.8A40.85,40.85,0,0,1,244.91,475a5.58,5.58,0,0,1-.12,1c-1.32,6.14-12.59,8.18-14.84,8.53l-.29,0A1.83,1.83,0,0,1,227.86,483Zm7.37-14.66c-3.16-2-4.95-2-5.34-1.56s-.26,2.33,1.45,4c1.87,1.82,4.9,2.77,9,1.88A20.41,20.41,0,0,0,235.23,468.34Z"/><path class="cls-11" d="M72.21,258a1.84,1.84,0,0,1,1.53-2.1c3.94-.61,9.47-2.36,11.26-4.59-5.25,1-9.29-.4-11.86-2.9-2.85-2.77-3.61-6.61-1.76-8.92.92-1.16,3.77-3.41,10.2.76,3.31,2.15,5.53,4.21,6.71,6.22a38.11,38.11,0,0,0,9.32-6,1.84,1.84,0,1,1,2.37,2.81A40.49,40.49,0,0,1,89.27,250a6.71,6.71,0,0,1-.13,1c-1.31,6.15-12.59,8.19-14.84,8.53a1.42,1.42,0,0,1-.29,0A1.83,1.83,0,0,1,72.21,258Zm7.37-14.67c-3.16-2-5-2-5.33-1.55s-.27,2.33,1.45,4,4.9,2.77,9,1.88A20,20,0,0,0,79.58,243.34Z"/><path class="cls-11" d="M373.58,65a1.84,1.84,0,0,1,0-3.68h0a18.12,18.12,0,0,0,10.32-2.67,24,24,0,0,1-2.63-.59c-4.48-1.26-6.7-2.77-7-4.76A3.09,3.09,0,0,1,376,50.25c2.48-1.53,7.64-1.56,11.08.82a6,6,0,0,1,2.71,4,9.73,9.73,0,0,0,5.58-3.11l.22-.28a10.72,10.72,0,0,1-6.78-3c-1.4-1.32-3.18-3.31-2.43-5.36.27-.72,1.07-2,3.48-2.06,3.06-.18,8.5,1.65,10,4.82a5.48,5.48,0,0,1,.41,1.2,19.2,19.2,0,0,0,5.2-3h0a1.84,1.84,0,1,1,2.38,2.8,20.89,20.89,0,0,1-7.9,4.15,10.22,10.22,0,0,1-1.8,3.1,13.47,13.47,0,0,1-9.32,4.6c-2.3,3.64-8.42,6.19-15.19,6.15Zm5-11.93a15.69,15.69,0,0,0,3.75,1.46,19,19,0,0,0,3.74.68A3,3,0,0,0,385,54.09a7.77,7.77,0,0,0-4.33-1.23A7.9,7.9,0,0,0,378.55,53.11Zm18-5.44c-.75-1.56-4.49-2.74-6.3-2.78a10,10,0,0,0,1,1.1,7.34,7.34,0,0,0,5.4,2A1.35,1.35,0,0,0,396.58,47.67Z"/><path class="cls-11" d="M470.48,217.29a1.51,1.51,0,0,1-.41-.06c-.15,0-15.22-3.78-30.22-3.25h-.06a1.7,1.7,0,0,1-.06-3.39A126,126,0,0,1,470.9,214a1.7,1.7,0,0,1-.42,3.34Z"/><path class="cls-11" d="M456.43,239.08a1.72,1.72,0,0,1-.94-.28c-.08-.06-4.29-2.79-13.71-6.26a1.69,1.69,0,1,1,1.17-3.18c9.9,3.65,14.24,6.49,14.42,6.61a1.7,1.7,0,0,1-.94,3.11Z"/><path class="cls-11" d="M423.38,175.6A1.69,1.69,0,0,1,422,173c7.45-12,5.83-28.37,5.81-28.54a1.69,1.69,0,0,1,3.37-.36c.07.72,1.77,17.67-6.31,30.69A1.68,1.68,0,0,1,423.38,175.6Z"/><path class="cls-11" d="M441.19,190.68a1.69,1.69,0,0,1-1.23-2.85c15.52-16.62,18.79-40.65,18.82-40.89a1.69,1.69,0,0,1,3.36.44c-.13,1-3.42,25.33-19.71,42.77A1.71,1.71,0,0,1,441.19,190.68Z"/></g></svg>