<svg id="Layer_1" data-name="Layer 1" xmlns="http://www.w3.org/2000/svg" viewBox="0 0 600 600"><defs><style>.cls-1{fill:#c2dc8f;}.cls-2{fill:#424242;}.cls-3{fill:#d0bbb7;}.cls-4{fill:#f8c469;}.cls-5{fill:#f8ded8;}.cls-6{opacity:0.35;}.cls-7{fill:#fff;}.cls-8{fill:#90acf1;}.cls-9{fill:#d1ebfb;}.cls-10{fill:silver;}.cls-11{fill:#d2916e;}.cls-12{fill:#b47d64;}.cls-13{opacity:0.54;}</style></defs><title>read</title><g id="đọc_sách" data-name="đọc sách"><path class="cls-1" d="M400.69,504.54c35.14-33.52,81.19-52.74,121.6-79.67,13.82-9.21,27.75-20.36,32.83-36.16,7.92-24.58-8.15-50-24.84-69.75s-36-40.9-35.7-66.72c.23-22.57,15.8-43,15.57-65.52-.26-24.51-18.92-44.8-38.37-59.73A276.56,276.56,0,0,0,296.43,70.46c-6.8.21-13.85.74-19.85,4-5.05,2.71-9,7.13-12.37,11.73a103.4,103.4,0,0,0-18.95,45.28c-1,6.24-1.4,12.68-3.85,18.51-3,7.24-9,12.88-15.24,17.61C206.08,182.71,181.4,190.4,156.88,196c-14.39,3.29-29.22,6.06-42,13.42S91.46,230,91.72,244.71c.38,20.6,20.85,36.38,22.24,56.93,2,29.36-34.18,47.74-40.38,76.5C69,399.41,82.7,421.21,101,433s40.3,15.92,61.66,20.11Q222.94,465,282.44,480.51"/><path class="cls-2" d="M451.67,479.27a3.5,3.5,0,0,1-1.28-.24,3.43,3.43,0,0,1-1.87-1.85l-19.29-45.75a3.49,3.49,0,0,1-.23-.84l-4.6-31.83a3.42,3.42,0,0,1,1.67-3.45l18.51-10.7a3.43,3.43,0,0,1,3.66.15,87.83,87.83,0,0,1,15.53,14.69c10.28,12.28,15.85,25.73,16.13,38.9.37,17.06-5.54,26.6-10.57,31.6a27.11,27.11,0,0,1-11.34,6.9L453,479A3.33,3.33,0,0,1,451.67,479.27Zm-16-50.09,17.78,42.17,2-.88a3.16,3.16,0,0,1,.59-.2c.77-.18,17.53-4.54,17-31.77-.51-24.06-20.93-42-27-46.83l-14.54,8.4Z"/><path class="cls-2" d="M378.23,397.93a4.11,4.11,0,0,1-1.94,0l-80.41-21.26a4.07,4.07,0,0,1-2.74-5.43l7.08-17.88a4.46,4.46,0,0,1,.71-1.17,3.89,3.89,0,0,1,.09-.47,4.06,4.06,0,0,1,2.19-2.72l16.34-7.84,16-34.88a133,133,0,0,1-10.83,7.85l-.05,0-.46.27-5.49,3.31-4.64,2.8a16.38,16.38,0,0,1-3.07,1.45,16.75,16.75,0,0,1-15.41-2c-20.89-14.81-29.4-56.32-32.44-77.15-2.19.72-3.51,1.22-3.53,1.23a4.07,4.07,0,0,1-5.06-1.94c-.37-.72-.74-1.45-1.09-2.16-7.36-14.8-9.19-26.34-5.75-36.27,5.15-14.87,21.92-25.31,47.3-37.33,16-7.54,29.8-8.88,41.13-4a36.2,36.2,0,0,1,17.48,16.78c6.4-1.61,15.93.08,22.22,4.5,8.08,5.67,10.06,14.65,5.42,24.64-5.51,11.87-6.14,31.33-6.64,47-.12,3.57-.23,6.91-.39,9.89-.3,5.92-.76,10.13-2,12.91l1.6,41.58,17.71,3.86,18.22,2a4.07,4.07,0,0,1,2.1,7.21c-7,5.58-7.58,1.06-9.13,3.25-1.17,5.49-15.7,40.1-21.62,59.22A4,4,0,0,1,378.23,397.93Zm-75.85-28,72.21,19.09c5.1-16.52,12.21-40,12.76-43,.07-1.45.53-3.75,12-13.55l-8.88-1a3.07,3.07,0,0,1-.42-.07l-19.6-4.28a4.08,4.08,0,0,1-2.59-1.83l-2.31-42.73a7.61,7.61,0,0,1-3.1-.47c-2.65-1-4.75-3.49-6.06-7.2a3.59,3.59,0,0,1-.22-1,.83.83,0,0,1-.07-.13,114.92,114.92,0,0,1-5.46-12.11,4.09,4.09,0,0,1-.32-.93,4.43,4.43,0,0,1,.22-2.55,4.06,4.06,0,0,1,7.55.18,104.42,104.42,0,0,0,5.2,11.58c.06.12.11.23.16.35a4.52,4.52,0,0,1,.27,1,1.09,1.09,0,0,1,0,.26,4.11,4.11,0,0,1,.28.6,7.2,7.2,0,0,0,1,2c.34-1.13.8-3.69,1.09-9.47h0c.16-2.92.26-6.21.38-9.72.53-16.37,1.19-36.75,7.4-50.12,2.85-6.15,2.16-10.77-2.12-14.12-5.93-4.66-15.61-4.74-17.39-3.3a4,4,0,0,1-6.7-1.67c0-.1-3.83-11.26-14.88-16-9.07-3.89-20.62-2.58-34.33,3.91-23.47,11.11-38.88,20.45-43.1,32.64-2.6,7.5-1.07,16.71,4.82,28.9,1.29-.44,2.89-.95,4.72-1.49l1.35-.37a4.06,4.06,0,0,1,4.56,5.8h0c3.91,28.75,13.63,63,29.44,74.16a8.63,8.63,0,0,0,8,1,8.36,8.36,0,0,0,1.65-.78l4.6-2.78,5.59-3.37.19-.11.06,0c11.34-7.49,14.68-11.6,14.71-11.64a4.11,4.11,0,0,1,4.21-1.42,4.06,4.06,0,0,1,3,3.24l-14.26,45.36a4.07,4.07,0,0,1-2.25,4.34l-14.55,7a4.06,4.06,0,0,1-4.69,5.29h0Zm93.07-23.37c0,.15,7.5-11.26,7.43-10.95C402.93,335.45,395.44,346.87,395.45,346.59Zm-75.47-39h0Z"/><path class="cls-2" d="M360.92,276.83a4,4,0,0,1-4.76-2.7c-.11-.34-.19-.6-.25-.81s0-.12,0-.19a4.06,4.06,0,0,1,7.87-2l.15.5a4.06,4.06,0,0,1-2.63,5.09A2.14,2.14,0,0,1,360.92,276.83Z"/><path class="cls-2" d="M360.66,275.91a4.06,4.06,0,0,1-4.51-2.1,115.29,115.29,0,0,1-5.61-12.5,4.28,4.28,0,0,1,0-3.09,4.06,4.06,0,0,1,7.55.18,104.42,104.42,0,0,0,5.2,11.58c.06.12.11.23.16.35a4.52,4.52,0,0,1,.27,1,4.06,4.06,0,0,1-2.77,4.47Z"/><path class="cls-2" d="M366.9,282.43a7.64,7.64,0,0,1-4.4-.28c-2.65-1-4.75-3.49-6.06-7.2a4.06,4.06,0,0,1,7.64-2.74,6.37,6.37,0,0,0,1.15,2.13l.19-.1a4.06,4.06,0,0,1,5.76,2l0,.11a4,4,0,0,1-1.78,5.05A9.66,9.66,0,0,1,366.9,282.43Z"/><path class="cls-3" d="M409.4,329.54s1.57,7.24,1.46,9.76S377.32,394,377.32,394l-80.41-21.26,4.79-12,2.31-5.84c1,.13,2.14.34,3.42.6,27.08,5.51,45.58-16.25,45.58-16.25l1.3-79.35v0a108.18,108.18,0,0,0,5.4,12s2,9.15,7.7,6l2.36,45.07L391,327.5Z"/><path class="cls-4" d="M377.65,206.57c-7.2,15.46-6.55,42.32-7.41,58.35-.37,7-1,12-2.78,13-5.73,3.21-7.7-5.94-7.7-5.94a108.18,108.18,0,0,1-5.4-12.05c-5.13-13.9-1-15.94-7-26.7-5-8.95-11.83-6.8-17.57-.61a43.89,43.89,0,0,0-7.27,11.13c-5.88,12.64-12.17,3-21.16-6.7-4.45-4.79-15.11-4-24.7-2.07-1.72.36-3.37.75-5,1.15-.78.19-1.54.39-2.27.61s-1.35.37-2,.55a.23.23,0,0,0-.15.05c-.4.1-.79.21-1.16.32-4.7,1.39-7.89,2.6-7.89,2.6-.37-.7-.72-1.38-1.05-2.07-17-34.09-3-48,39.63-68.16,43.53-20.58,54.81,14.54,54.81,14.54C357,179.17,388,184.31,377.65,206.57Z"/><path class="cls-5" d="M354.36,259.9v0L353,339.28s.87,36.89-51.34,21.38l2.37-8.58,18.6-9.1,18.4-44.42s-6.09,3.95-18.56,12.16h0c-20.54,9-24-4.8-24-4.8l-.29-5.65-2.7-5.76L294.43,286l-7.9,1.3L276.68,235c9.59-2,20.25-2.72,24.7,2.07,9,9.67,15.28,19.34,21.16,6.7a43.89,43.89,0,0,1,7.27-11.13c5.74-6.19,12.6-8.34,17.57.61C353.36,244,349.23,246,354.36,259.9Z"/><path class="cls-3" d="M322.5,310.72l-.22.14c-1.4.85-6.61,4-10.26,6.19a12.9,12.9,0,0,1-2.29,1.08A12.72,12.72,0,0,1,298,316.62c-19.17-13.58-28.13-54.1-31.29-78.18l.59-1.13a.23.23,0,0,1,.15-.05c.64-.18,1.3-.37,2-.55s1.49-.42,2.27-.61c1.62-.4,3.27-.79,5-1.15l9.85,52.37,7.9-1.3,1.08,8.49,2.7,5.76.29,5.65S302,319.74,322.5,310.72Z"/><g class="cls-6"><path class="cls-7" d="M253.54,220.94s1.72,13.13,13.1,9.18c13.84-4.81,25.08-10.15,31.63-5.46S303.45,213,316.63,205s21.55-14.05,25.37-7.19.56,15.18.56,15.18,16.61-18.85,21.74-9.38a30,30,0,0,1,3.35,18.48s11.51-18.75,5-25.71-16.53-9.83-22.71-4.6-2.75-14.41-12.48-18.82-20.3-5.47-35.09-1c-4.48,1.35-36.88,16.52-44.76,30A31.22,31.22,0,0,0,253.54,220.94Z"/></g><ellipse class="cls-7" cx="259.54" cy="202.14" rx="7.99" ry="2.32" transform="translate(-57.74 289.07) rotate(-53.24)"/><path class="cls-8" d="M456.87,473.6s20.27-4.49,19.62-35.17c-.65-30.3-30.2-50.86-30.2-50.86l-18.51,10.7,4.6,31.83,19.29,45.75Z"/><path class="cls-9" d="M447.94,409.68s24.21,10.26,19,41.1c-3.93,23.09-15.24,25.07-15.24,25.07L439.47,434Z"/><path class="cls-2" d="M294.25,529.67c-12.36,0-19.7-4.17-21.54-5.35L167.26,484.78a9.76,9.76,0,0,1-6.12-7.27c-10.67-56-2.76-149.63-.08-177a9.67,9.67,0,0,1,5.21-7.65l1.65-9.44a3.41,3.41,0,0,1,3.93-2.78c.09,0,1.72.29,4.57.81l1.76-8.6a3.42,3.42,0,0,1,4-2.68,402.29,402.29,0,0,1,48,12.78c30,10.14,49.23,21.55,57.42,34,11.83-11.69,38.14-21.38,78.36-28.85,32.82-6.09,63.37-8.43,63.67-8.45a3.41,3.41,0,0,1,3.64,2.9l1.33,8.88c4.59-.31,7.29-.45,7.32-.45a3.42,3.42,0,0,1,3.58,3.07l1.49,14.56a15.35,15.35,0,0,1,7.69,13.58l-3.76,171.28a15.24,15.24,0,0,1-12.94,14.75l-134.5,20.73A60.47,60.47,0,0,1,294.25,529.67ZM174.06,288l-1.39,8a3.44,3.44,0,0,1-2.6,2.74,2.85,2.85,0,0,0-2.2,2.49c-2.66,27.13-10.51,119.94,0,175.05a2.87,2.87,0,0,0,1.81,2.15l105.82,39.67a3.6,3.6,0,0,1,.82.44c.07,0,9.16,6.31,26.08,3.69l134.51-20.73a8.4,8.4,0,0,0,7.14-8.14L447.79,322a8.48,8.48,0,0,0-5.32-8,3.41,3.41,0,0,1-2.13-2.82L439,298c-1.75.1-4.17.26-7.12.46a3.4,3.4,0,0,1-3.61-2.91l-1.32-8.82c-8.59.76-33.48,3.22-59.82,8.11-42.27,7.84-69,18.24-77.4,30.05a3.41,3.41,0,0,1-5.93-.62c-5.26-12.2-24.54-24.23-55.77-34.81a401.28,401.28,0,0,0-43.82-11.89l-1.75,8.55a3.41,3.41,0,0,1-4,2.68Z"/><path class="cls-7" d="M434.94,317.3l-5.1-34.25s-131.25,9.89-145.07,43.72"/><path class="cls-10" d="M444.31,316.45,442,294.39s-130.69,6.71-156.64,31"/><path class="cls-7" d="M174.62,307.3l6.91-33.77s99.14,18.72,106.68,53.35"/><path class="cls-10" d="M167.64,304.85,171.29,284s98.28,16.46,116.67,41.4"/><path class="cls-11" d="M451.21,320.62l-3.76,172.52a11.89,11.89,0,0,1-10,11.53l-134.5,20.89V321l135.37-12.52A11.89,11.89,0,0,1,451.21,320.62Z"/><path class="cls-12" d="M302.91,321V525.56c-18.75,2.92-28.63-4.34-28.63-4.34V321.82h0a51.21,51.21,0,0,0,27.7-.55Z"/><path class="cls-11" d="M274.28,321.82v199.4l-105.82-40a6.28,6.28,0,0,1-4-4.74c-10.63-56.19-2.62-150.74,0-177.3a6.26,6.26,0,0,1,7.64-5.53Z"/><g class="cls-13"><path class="cls-12" d="M249.69,479.2c-4.91-5.19-12.07-7.56-19.05-9s-14.21-2.29-20.73-5.2c-12.56-5.59-20.86-18.56-23.2-32.11-.58-3.31-.86-6.76-2.33-9.78s-4.54-5.61-7.89-5.26a78.64,78.64,0,0,0-1.73,49.4,18.32,18.32,0,0,0,2.3,5.33,17.91,17.91,0,0,0,5.75,4.78c9,5.35,19.13,8.59,29.14,11.79l9.16,2.93c7.59,2.42,15.19,4.85,22.81,7.16C257.29,503.26,255.86,485.73,249.69,479.2Z"/></g><g class="cls-13"><path class="cls-12" d="M366.76,504.21c7.13-1.16,14.39-1.34,21.56-2.22a185.77,185.77,0,0,0,28.57-6.34c4.59-1.32,9.35-2.79,12.83-6.07l.11-.09A6.66,6.66,0,0,0,424,478.18l-14.77,2.69c-10,1.81-20,3.64-30.12,4-5.86.2-11.72-.1-17.59-.14a193.71,193.71,0,0,0-30.33,2.2c-3.37.51-6.83,1.16-9.65,3.07s-4.85,5.4-4,8.71c2.06,8.15,10.7,12.14,18.09,11.7C346.23,509.74,356.29,505.84,366.76,504.21Z"/></g><path class="cls-2" d="M156.24,414.81c-7.6,0-13.19-3-14-7.85-.41-2.63.66-5.18,3-7.36-3.23-2.18-5.07-5.13-5.05-8.4a9.58,9.58,0,0,1,3.69-7.28c-3.41-2.57-5.18-5.8-4.82-9.15a9,9,0,0,1,3.72-6.17,8.41,8.41,0,0,1-2.42-6.65c.68-6.31,9.19-10.2,19.78-9.06a28.18,28.18,0,0,1,12,3.93c3.85,2.5,5.77,5.74,5.4,9.14a7.9,7.9,0,0,1-2.31,4.7,13.7,13.7,0,0,1,2,2.16,8.78,8.78,0,0,1,1.88,6.29,9,9,0,0,1-3.87,6.28,9.08,9.08,0,0,1,2.31,6,9.18,9.18,0,0,1-2.56,6.17,7.26,7.26,0,0,1,2,3.95c.93,5.9-5.72,11.33-15.8,12.92A33.37,33.37,0,0,1,156.24,414.81Zm.3-55.28c-5.88,0-9.24,2.08-9.35,3.15-.07.63,1,2.1,3.67,3.42a3.42,3.42,0,0,1-.54,6.34c-2.91.86-4.33,2.2-4.43,3.07-.12,1.12,1.77,3.46,6.36,5.15a3.42,3.42,0,0,1-.09,6.45c-3.5,1.17-5.1,2.95-5.1,4.12,0,1.4,2.22,3.47,6.36,4.55a3.42,3.42,0,0,1,.43,6.47c-3.72,1.53-4.82,3.29-4.81,3.65.23.86,4.43,2.81,11.19,1.75s10.16-4.2,10.11-5.1c0-.11-.59-.84-2.49-1.42a3.42,3.42,0,0,1-.49-6.36c2.07-1,3.41-2.34,3.42-3.44s-1.36-2.49-3.46-3.51a3.41,3.41,0,0,1,.53-6.36c3-.87,4.44-2.21,4.54-3.1a2.29,2.29,0,0,0-.57-1.44,11.36,11.36,0,0,0-4.42-3.15,3.42,3.42,0,0,1,.26-6.35c2.2-.76,3.07-1.73,3.12-2.19h0c0-.43-.54-1.5-2.33-2.65a21.47,21.47,0,0,0-9-2.88A27.09,27.09,0,0,0,156.54,359.53Z"/><path class="cls-5" d="M171.19,360.32c2.05,1.56,3.18,3.41,3,5.27-.23,2.2-2.29,4-5.38,5.06a14.62,14.62,0,0,1,5.77,4.22,5.39,5.39,0,0,1,1.22,3.86c-.29,2.71-3,4.85-7,6h0a11.32,11.32,0,0,1,4.16,3.19,5.59,5.59,0,0,1,1.24,3.42c0,2.61-2.09,4.94-5.36,6.51a8.4,8.4,0,0,1,4,2.31,3.67,3.67,0,0,1,.89,1.85c.59,3.76-5.21,7.79-13,9s-14.5-.85-15.09-4.6c-.43-2.68,2.41-5.5,6.88-7.34-5.27-1.38-8.93-4.4-8.91-7.88,0-3.13,3-5.86,7.43-7.34-5.42-2-8.95-5.34-8.58-8.73.29-2.68,2.94-4.81,6.85-6-3.62-1.8-5.83-4.31-5.55-6.85.2-1.91,1.78-3.51,4.22-4.6a23.72,23.72,0,0,1,11.8-1.42A23.38,23.38,0,0,1,171.19,360.32Z"/><path class="cls-3" d="M168.79,370.65a14.53,14.53,0,0,1,5.77,4.22c-18,0-23.87-4.74-23.87-4.74C156.64,371.88,168.79,370.65,168.79,370.65Z"/><path class="cls-3" d="M168.8,384.74a11.32,11.32,0,0,1,4.16,3.19c-13.73.45-18.78-3.59-18.78-3.59C164.2,386.64,168.8,384.74,168.8,384.74Z"/><path class="cls-3" d="M168.84,397.86a8.4,8.4,0,0,1,4,2.31c-13.62,2.49-18.76-.5-18.76-.5C161.08,400.91,168.84,397.86,168.84,397.86Z"/><path class="cls-2" d="M439,488.9a41.07,41.07,0,0,1-6.21-.5c-12.24-1.93-20.66-8.61-19.57-15.54a8.54,8.54,0,0,1,3.07-5.23,10.53,10.53,0,0,1-.24-15.89c-3.24-2.08-5.18-4.86-5.53-8.05a10.41,10.41,0,0,1,2.25-7.41,17.06,17.06,0,0,1,3.32-3.31,9.51,9.51,0,0,1-3.49-6.25c-.43-4,1.89-7.85,6.53-10.85a35.22,35.22,0,0,1,15.06-4.93c13.11-1.41,23.63,3.23,24.44,10.81.34,3.07-1,6.05-3.66,8.62,3.12,2.07,5,4.81,5.34,7.94.46,4.29-2.09,8.45-6.89,11.66,3.46,2.54,5.41,5.84,5.43,9.45,0,4.23-2.62,8-7.19,10.72,3.42,2.76,5.06,6.08,4.53,9.47C455.25,485.32,448.26,488.9,439,488.9Zm-.34-71.36a34.92,34.92,0,0,0-3.74.2,28.74,28.74,0,0,0-12.07,3.87c-2.26,1.46-3.58,3.14-3.45,4.37h0c.14,1.28,2,2.72,4.68,3.67a3.39,3.39,0,0,1,2.28,3.08,3.44,3.44,0,0,1-2,3.27,15.74,15.74,0,0,0-6.11,4.36,3.75,3.75,0,0,0-.92,2.57c.2,1.85,2.78,3.75,6.57,4.86a3.42,3.42,0,0,1,.54,6.36c-3.17,1.52-5.05,3.55-5,5.43s1.87,3.85,5,5.34a3.42,3.42,0,0,1-.49,6.35c-2.53.77-3.79,1.88-3.91,2.65-.29,1.9,4.75,6.28,13.88,7.71s15.28-1.19,15.58-3.09c.19-1.17-1.81-3.73-6.81-5.79a3.42,3.42,0,0,1,.43-6.47c5.29-1.38,9-4.19,9-6.84,0-2.33-2.86-4.79-7.26-6.26a3.42,3.42,0,0,1-.1-6.45c6.12-2.25,9.09-5.57,8.86-7.7-.2-1.84-2.66-3.68-6.42-4.8a3.42,3.42,0,0,1-.55-6.34c3.86-1.92,5.44-4.1,5.3-5.42C451.55,420.25,446.35,417.54,438.62,417.54Z"/><path class="cls-5" d="M419.81,419.54c-2.65,2-4.11,4.41-3.85,6.81.31,2.84,3,5.14,7,6.54a18.83,18.83,0,0,0-7.45,5.44,7,7,0,0,0-1.58,5c.38,3.49,3.87,6.26,9,7.76h0a14.58,14.58,0,0,0-5.37,4.11,7.15,7.15,0,0,0-1.6,4.42c0,3.37,2.7,6.38,6.92,8.4a10.85,10.85,0,0,0-5.14,3,4.8,4.8,0,0,0-1.15,2.39c-.76,4.86,6.73,10.06,16.72,11.63s18.73-1.09,19.49-5.94c.55-3.46-3.12-7.1-8.89-9.48,6.81-1.78,11.53-5.67,11.51-10.17,0-4-3.86-7.56-9.6-9.48,7-2.57,11.55-6.89,11.08-11.27-.38-3.46-3.79-6.21-8.84-7.72,4.67-2.32,7.52-5.57,7.17-8.84-.27-2.47-2.31-4.53-5.46-5.94-3.83-1.72-9.29-2.47-15.23-1.83S423.18,417,419.81,419.54Z"/><path class="cls-3" d="M422.91,432.88a18.87,18.87,0,0,0-7.45,5.45c23.26,0,30.83-6.11,30.83-6.11C438.61,434.46,422.91,432.88,422.91,432.88Z"/><path class="cls-3" d="M422.9,451.08a14.58,14.58,0,0,0-5.37,4.11c17.73.58,24.25-4.63,24.25-4.63C428.84,453.53,422.9,451.08,422.9,451.08Z"/><path class="cls-3" d="M422.85,468a10.85,10.85,0,0,0-5.14,3c17.58,3.22,24.22-.64,24.22-.64C432.87,472,422.85,468,422.85,468Z"/><path class="cls-7" d="M372.57,146.81a14.93,14.93,0,0,1-11.5-4.87,17.73,17.73,0,0,1-4.14-13.23c.44-3.89,3.5-11.35,9.83-14.84,3.27-1.79,8.72-3.17,16.2.46,6.11,3,9.35,9,9.38,17.55a42.21,42.21,0,0,1-1.74,11.72,1.5,1.5,0,0,1-2.85-.92c.07-.22,6.16-19.7-6.1-25.65-5.07-2.47-9.6-2.65-13.44-.53-5.54,3-8,9.77-8.31,12.55a14.66,14.66,0,0,0,3.4,10.9,11.87,11.87,0,0,0,9.27,3.86,9.71,9.71,0,0,0,9.19-5.69c1.76-3.65,1.52-8-.58-10.66-3-3.73-6.76-3.33-9.3-1.72s-4.42,5-2.89,8.07a1.5,1.5,0,0,1-2.69,1.33c-2.31-4.71.25-9.56,4-11.92a9.73,9.73,0,0,1,13.25,2.37c2.79,3.49,3.18,9.18.94,13.83A12.71,12.71,0,0,1,372.57,146.81Z"/><path class="cls-7" d="M458.56,400a1.62,1.62,0,0,1-.89-3c.23-.14,16.65-11.26,11-23.17-2.36-4.95-5.67-7.83-9.86-8.55-6-1.05-12,2.57-13.91,4.49a14.21,14.21,0,0,0-4,10.31,11.5,11.5,0,0,0,4.68,8.52,9.39,9.39,0,0,0,10.37,1.25c3.47-1.67,6-5.2,6-8.39,0-4.58-3.07-6.55-5.95-6.86s-6.27,1.06-7,4.3c-.51,2.31,1.8,5,4.21,5.95a1.61,1.61,0,1,1-1.13,3c-3.71-1.4-7.14-5.48-6.23-9.65,1.12-5.09,6.13-7.28,10.48-6.81a9.67,9.67,0,0,1,8.82,10.06c0,4.43-3.21,9.07-7.82,11.29a12.6,12.6,0,0,1-13.76-1.63,14.76,14.76,0,0,1-5.89-10.86,17.57,17.57,0,0,1,5-12.77c2.74-2.72,9.7-6.6,16.73-5.38,3.62.63,8.69,2.93,12.22,10.33,6.89,14.46-11.32,26.73-12.1,27.25A1.6,1.6,0,0,1,458.56,400Z"/><path class="cls-7" d="M204.75,236.89a13,13,0,0,1-1.75-.12,15.66,15.66,0,0,1-10.36-6.54c-1.93-2.86-4.14-9.62-1.87-15.58,1.17-3.08,4-7.14,11.15-9,13.86-3.58,21.49,14.42,21.81,15.19a1.61,1.61,0,1,1-3,1.24h0c-.07-.17-6.88-16.2-18-13.32-4.63,1.2-7.64,3.55-8.95,7-1.9,5,.21,10.68,1.53,12.65a12.32,12.32,0,0,0,8.13,5.14,10,10,0,0,0,8-2.58,8.09,8.09,0,0,0,2.77-8.58c-.84-3.23-3.42-6-6.11-6.48a5.49,5.49,0,0,0-6.74,3.87c-.75,2.41-.15,5.44,2.44,6.56a3.18,3.18,0,0,0,2,.1,1.61,1.61,0,1,1,.77,3.12,6.34,6.34,0,0,1-4.06-.27c-4.33-1.87-5.42-6.68-4.25-10.46a8.73,8.73,0,0,1,10.43-6.08c3.91.76,7.45,4.38,8.62,8.82a11.32,11.32,0,0,1-3.8,11.85A13.48,13.48,0,0,1,204.75,236.89Z"/><path class="cls-7" d="M411,221.76a1.16,1.16,0,0,1,1.48-.71,16.45,16.45,0,0,0,5.6.8,4.28,4.28,0,0,1-.13-1.42c.22-2.8,3.79-5.72,6.14-6.51,1.72-.57,2.58,0,2.95.45,1.07,1.2.32,3.16-.33,4.52a8.64,8.64,0,0,1-4.85,4.5,6.8,6.8,0,0,0,.86.58,8.74,8.74,0,0,0,6,.7,4.51,4.51,0,0,1,.75-4c1.88-2.8,5.75-4.28,8.05-3.86a2.23,2.23,0,0,1,1.93,1.63c.35,1.47-.88,3.21-3.87,5.47a19.82,19.82,0,0,1-2.67,1.69c2.26.85,6,.8,10.08-.81a1.16,1.16,0,0,1,.86,2.15c-5.31,2.12-10.89,2-13.65-.23a11,11,0,0,1-8.61-.67,8.12,8.12,0,0,1-2.38-1.95,17.16,17.16,0,0,1-7.51-.81,1.3,1.3,0,0,1-.38-.22A1.18,1.18,0,0,1,411,221.76ZM423,217.17c-1.5,1.1-2.59,2.52-2.67,3.45a2.21,2.21,0,0,0,.12.86,6.54,6.54,0,0,0,4.24-3.59,5.58,5.58,0,0,0,.63-1.88A5.93,5.93,0,0,0,423,217.17Zm8.47,4.76a2.16,2.16,0,0,0-.46,2,16,16,0,0,0,3.25-1.94c2.23-1.68,2.81-2.61,3-3C436.21,218.81,433,219.66,431.42,221.93Z"/><path class="cls-7" d="M103.28,413.25a1.16,1.16,0,0,1,1.41-.83,21.66,21.66,0,0,0,6.06.77,11.87,11.87,0,0,1,1.88-4.74c2.29-3.78,4.36-3.32,5.14-2.94,1.56.74,2.15,2.94,1.36,5.11a7.23,7.23,0,0,1-5,4.35c1.55.46,4.48,0,6.39-.58a1.16,1.16,0,0,1,.68,2.22c-1.24.38-7.52,2.13-9.75-.72a3.62,3.62,0,0,1-.27-.41,23.47,23.47,0,0,1-7-.82,1.06,1.06,0,0,1-.48-.25A1.16,1.16,0,0,1,103.28,413.25Zm13.49-5.65c-.14-.07-1,.09-2.16,2a11.64,11.64,0,0,0-1.46,3.2,5.1,5.1,0,0,0,3.8-3,2.2,2.2,0,0,0-.12-2.18Z"/><path class="cls-7" d="M492.71,358.51a1.15,1.15,0,0,1,1.6-.37c2.13,1.34,5.49,2.79,7.27,2.46a8.15,8.15,0,0,1-4.47-6.29c-.21-2.5,1-4.65,2.85-5,.92-.17,3.21-.06,4.56,4.59a13,13,0,0,1,.63,5.74,24.47,24.47,0,0,0,7,1,1.16,1.16,0,1,1,0,2.32,25.77,25.77,0,0,1-7.92-1.19,3.19,3.19,0,0,1-.47.42c-3.16,2.39-9.39-1.3-10.61-2.06l-.15-.12A1.14,1.14,0,0,1,492.71,358.51Zm9.58-4c-.66-2.28-1.52-3-1.9-2.95s-1.09,1-1,2.51,1.2,3.35,3.51,4.61A12.78,12.78,0,0,0,502.29,354.55Z"/><path class="cls-7" d="M122.4,260.05a1.16,1.16,0,0,1,1.53-1.74h0a11.4,11.4,0,0,0,6,3,14.71,14.71,0,0,1-1-1.37c-1.62-2.45-2.05-4.09-1.36-5.15a2,2,0,0,1,2.07-.79,7.17,7.17,0,0,1,4.94,5,3.75,3.75,0,0,1-.35,3,6.13,6.13,0,0,0,4,.82l.22,0a6.74,6.74,0,0,1-2-4.23c-.12-1.21-.14-2.9,1.06-3.56a2.18,2.18,0,0,1,2.52.45c1.53,1.18,3.37,4.3,2.8,6.45a3.46,3.46,0,0,1-.3.75,12.37,12.37,0,0,0,3.73.7h0a1.16,1.16,0,0,1,0,2.32,13.2,13.2,0,0,1-5.49-1.29,6.31,6.31,0,0,1-2.14.74,8.49,8.49,0,0,1-6.35-1.66c-2.61.79-6.58-.52-9.8-3.34Zm7.3-3.64a10.39,10.39,0,0,0,1.19,2.25,12,12,0,0,0,1.51,1.87,1.9,1.9,0,0,0,0-1,4.94,4.94,0,0,0-1.56-2.37A5.15,5.15,0,0,0,129.7,256.41Zm10.87,4.86c.28-1.06-1-3.17-1.87-3.93a7.08,7.08,0,0,0,0,1,4.63,4.63,0,0,0,1.74,3.21A1.36,1.36,0,0,0,140.57,261.27Z"/></g></svg>