<svg id="Layer_1" data-name="Layer 1" xmlns="http://www.w3.org/2000/svg" viewBox="0 0 407.44 466.38"><defs><style>.cls-1{fill:#c2dc8f;}.cls-2{fill:#424242;}.cls-3{fill:#b47d64;}.cls-4{fill:#d2916e;}.cls-5{fill:#b27e5c;}.cls-6{fill:#d0bbb7;}.cls-7{fill:#f8c469;}.cls-8{fill:#f8ded8;}.cls-9{opacity:0.35;}.cls-10{fill:#fff;}.cls-11{fill:#d1ebfb;}.cls-12{opacity:0.29;}.cls-13{fill:#5e5e5e;}</style></defs><title>THINKING</title><path class="cls-1" d="M399.82,529.65c15.49,4.74,30.11-13.52,32.59-29.53s-2.45-32.25-2-48.45c.89-31.61,21.9-58.93,44.37-81.19,11.91-11.79,24.89-23.44,31.12-39,11.21-28-2.4-59.09-14.62-86.65-20.16-45.5-38-93.85-73.18-129.06A171.73,171.73,0,0,0,312.3,66.52c-8.23-.7-16.77-.76-24.43,2.3-8.13,3.24-14.54,9.68-20,16.49a136,136,0,0,0-21.39,37.32c-3.16,8.36-5.61,17.23-11.16,24.24-7.4,9.35-19.22,13.95-30.71,17.14s-23.51,5.5-33.64,11.79-18.14,17.91-16,29.64c1,5.17,3.76,9.79,6.5,14.28L178,246.67c3.54,5.77,7.18,11.91,7.29,18.68.24,14-13.94,23.35-26.15,30.31-14.19,8.08-28.26,16.93-39.15,29.1s-18.4,28.2-17.19,44.49c1.34,18,13,33.78,26.52,45.75s29.34,21.18,43,33c23.74,20.6,40.44,50.85,46.84,81.62Z" transform="translate(-102.63 -66.13)"/><path class="cls-2" d="M346.89,532.51H259.51a2.86,2.86,0,0,1-2.86-2.84l-.5-90.87a2.87,2.87,0,0,1,.85-2.05,2.92,2.92,0,0,1,2.06-.82l28.59.58a2.4,2.4,0,0,1,.6-.06l62.89,1.28a2.87,2.87,0,0,1,2.8,3l-4.2,89.07A2.86,2.86,0,0,1,346.89,532.51Zm-84.55-5.71h81.82l3.93-83.42-59.35-1.21a4.07,4.07,0,0,1-.6.06l-26.26-.53Z" transform="translate(-102.63 -66.13)"/><polygon class="cls-3" points="204.13 373.63 199.92 463.53 156.87 463.53 156.37 372.66 185.58 373.26 204.13 373.63"/><polygon class="cls-4" points="248.45 374.46 244.25 463.53 195.48 463.53 185.58 373.26 185.56 373.25 185.56 373.18 248.45 374.46"/><path class="cls-5" d="M334.87,525.13h0a1.42,1.42,0,0,1-1.41-1.44l.18-16.77a1.43,1.43,0,0,1,1.43-1.41h0a1.43,1.43,0,0,1,1.41,1.44l-.18,16.77A1.43,1.43,0,0,1,334.87,525.13Z" transform="translate(-102.63 -66.13)"/><path class="cls-5" d="M335.23,492.85h0a1.43,1.43,0,0,1-1.41-1.44L334,475.3a1.49,1.49,0,0,1,1.45-1.41,1.42,1.42,0,0,1,1.41,1.44l-.18,16.11A1.42,1.42,0,0,1,335.23,492.85Z" transform="translate(-102.63 -66.13)"/><path class="cls-5" d="M335.56,462.44h0a1.42,1.42,0,0,1-1.41-1.44l.1-9.32a1.45,1.45,0,0,1,1.44-1.41,1.43,1.43,0,0,1,1.41,1.44L337,461A1.42,1.42,0,0,1,335.56,462.44Z" transform="translate(-102.63 -66.13)"/><path class="cls-2" d="M320.37,325.33H290.13a2.85,2.85,0,0,1-2.74-2.05l-8.8-29.64a2.86,2.86,0,0,1,.55-2.65l2.62-3.1a2.92,2.92,0,0,1,.68-.59,2.79,2.79,0,0,1,1.06-1.15l12.11-7.38,3.16-19.88c-1.95.72-4.54,1.55-7.91,2.44h0a2.57,2.57,0,0,1-.38.08c-.72.17-2.32.52-4,.89l-3.41.75a10.41,10.41,0,0,1-2.23.26,11,11,0,0,1-9.2-4.52c-9.71-13.37-6.43-40.35-4-53.86l-2.13,0a2.83,2.83,0,0,1-2.94-2.43c-.08-.53-.15-1.05-.22-1.56-1.45-10.65-.17-18.14,4-23.56,6.28-8.1,18.75-11,36.84-13.15,11.4-1.32,20.21.75,26.18,6.14a23.62,23.62,0,0,1,7.27,13.83,19.51,19.51,0,0,1,12.66,7.46c3.85,5.24,3.19,11.25-1.8,16.5-5.8,6.09-10.39,18.36-13.75,27.31-.81,2.16-1.56,4.17-2.27,6-1.39,3.51-2.54,6-3.85,7.47L334,276.55,345.6,289.2a2.85,2.85,0,0,1,.56,2.95l-7.1,18.45a2.64,2.64,0,0,1-.18.38c-2.33,4.13-4.95,8.9-5.28,9.74-.49,1.25-1.23,3.1-12.87,4.58Zm-28.11-5.71h27.92a48.23,48.23,0,0,0,8.44-1.73c1.1-2.28,4.07-7.55,5.19-9.54l6.39-16.6-10.93-11.9a2.78,2.78,0,0,1-.68-1.29l-6.46-28.09a5.13,5.13,0,0,1-1.75-.94c-1.47-1.2-2.27-3.22-2.31-5.83a3.08,3.08,0,0,1,.07-.68V243a77.91,77.91,0,0,1-.83-8.55,2.89,2.89,0,0,1,0-.72,3.18,3.18,0,0,1,.71-1.61,2.86,2.86,0,0,1,5,1.82,65.24,65.24,0,0,0,.78,8.14l0,.26a3.38,3.38,0,0,1-.06.78s0,.06,0,.09a2.72,2.72,0,0,1,0,.42,5.7,5.7,0,0,0,.08.84,38,38,0,0,0,2.32-5.08h0c.7-1.75,1.44-3.73,2.23-5.85,3.73-9.94,8.36-22.31,15-29.25,2.88-3,3.44-5.86,1.7-8.64-2.5-4-8.37-6.13-9.8-5.69a2.81,2.81,0,0,1-2.76-.16,2.85,2.85,0,0,1-1.3-2.46c0-.07,0-7.6-5.72-12.71-4.7-4.21-12-5.77-21.64-4.66-16.62,1.94-27.93,4.45-33,11-3.08,4-4.05,9.81-3,18.31.85,0,1.87,0,3,.07.39,0,.65,0,.91.06a2.86,2.86,0,0,1,1.79,4.83c-3.54,18.35-4.67,41.18,2.64,51.25a5.49,5.49,0,0,0,4.49,2.18,6.1,6.1,0,0,0,1.13-.14l3.38-.74,4.13-.91.13,0,.07,0c8.42-2.22,11.3-4,11.32-4a2.91,2.91,0,0,1,3.12,0,2.85,2.85,0,0,1,1.27,2.83L301,281a2.83,2.83,0,0,1-1.34,2l-11.14,6.79a2.85,2.85,0,0,1-3.94,3.6l-.12.14Zm36.71-1.9Zm-40-61.79h0Zm0,0Z" transform="translate(-102.63 -66.13)"/><path class="cls-2" d="M320.93,246h-.06a2.86,2.86,0,0,1-2.8-2.9c0-.24,0-.42,0-.57a2.86,2.86,0,0,1,5.71.18,1.09,1.09,0,0,1,0,.18v.32A2.86,2.86,0,0,1,320.93,246Z" transform="translate(-102.63 -66.13)"/><path class="cls-2" d="M321,245.4h-.06a2.87,2.87,0,0,1-2.77-2.43,76.62,76.62,0,0,1-.84-8.84,3,3,0,0,1,.72-2,2.86,2.86,0,0,1,5,1.82,65.24,65.24,0,0,0,.78,8.14l0,.26a3.38,3.38,0,0,1-.06.78A2.86,2.86,0,0,1,321,245.4Z" transform="translate(-102.63 -66.13)"/><path class="cls-2" d="M323.73,250.7a5.16,5.16,0,0,1-3.35-1.17c-1.47-1.2-2.27-3.22-2.31-5.83a2.86,2.86,0,0,1,2.81-2.9h.05a2.85,2.85,0,0,1,2.85,2.8,4.38,4.38,0,0,0,.18,1.28,2.86,2.86,0,0,1,3.33,2.66v.07a2.85,2.85,0,0,1-2.33,3A6.9,6.9,0,0,1,323.73,250.7Z" transform="translate(-102.63 -66.13)"/><path class="cls-6" d="M336.4,309.58s-1.14,12.94-1.73,14.46-14.3-1.57-14.3-1.57H290.12l-8.8-29.64,2.63-3.1c.58.29,1.23.65,2,1.08,15.45,9,30.92-6.92,30.92-6.92l3.31-49.9h0a70.44,70.44,0,0,0,.81,8.49s-.69,6,3.48,5.23l6.93,30.22,12.13,13.21Z" transform="translate(-102.63 -66.13)"/><path class="cls-7" d="M345.45,206.22c-7.61,8-12.77,24.56-16.62,34.19-1.68,4.23-3.12,7.12-4.39,7.37-4.17.77-3.48-5.23-3.48-5.23a70.76,70.76,0,0,1-.81-8.5c-.26-9.57,2.69-10,1.26-17.79-1.19-6.51-5.84-6.62-10.63-4a28.48,28.48,0,0,0-6.76,5.3c-6.22,6.52-8.07-.69-11.57-8.48-1.73-3.85-8.41-5.59-14.69-6.38-1.12-.14-2.22-.24-3.29-.33-.52,0-1-.08-1.52-.1l-1.33-.07h-.1l-.78,0c-3.17-.12-5.37,0-5.37,0-.08-.51-.16-1-.21-1.49-3.32-24.38,8.08-30,38.37-33.52,30.91-3.59,30.55,20.24,30.55,20.24C338.48,185.18,356.38,194.73,345.45,206.22Z" transform="translate(-102.63 -66.13)"/><path class="cls-8" d="M320.15,234.05h0L316.83,284s-6.76,29.17-35.5,8.87l4.94-5.87,11.86-7.66,4.29-25.18s-3,2-12.29,4.45h0c-14.44,1.26-13.69-7.91-13.69-7.91l1-3.52-.47-4.09,1.1-5.42-5.11-.84,4.82-34.1c6.28.79,13,2.53,14.69,6.38,3.5,7.79,5.35,15,11.57,8.48a28.48,28.48,0,0,1,6.76-5.3c4.79-2.61,9.44-2.5,10.63,4C322.84,224.08,319.89,224.48,320.15,234.05Z" transform="translate(-102.63 -66.13)"/><path class="cls-6" d="M290.12,258.57l-.16,0-7.56,1.67a9.16,9.16,0,0,1-1.63.19,8.22,8.22,0,0,1-6.88-3.36c-8.92-12.28-6-39-3-54.34l.6-.57h.1l1.33.07c.49,0,1,.06,1.52.1,1.07.09,2.17.19,3.29.33l-4.82,34.1,5.11.84-1.1,5.42.47,4.09-1,3.52S275.68,259.83,290.12,258.57Z" transform="translate(-102.63 -66.13)"/><g class="cls-9"><path class="cls-10" d="M266.49,189.33s-1.66,8.39,6.12,8.32c9.47-.07,17.46-1,20.5,3.21s5.58-6.05,15.32-8.26,16.1-4.14,17,.86-2.8,9.4-2.8,9.4,14.07-8.1,15.25-1.24a19.41,19.41,0,0,1-1.78,12s10.93-9.1,8.39-14.7-8.09-9.44-12.95-7.53,1.3-9.39-3.75-14.1-11.29-7.55-21.27-7.89c-3-.1-26,2.48-33.62,9.12A20.21,20.21,0,0,0,266.49,189.33Z" transform="translate(-102.63 -66.13)"/></g><ellipse class="cls-10" cx="274.06" cy="179.06" rx="5.17" ry="1.5" transform="translate(-155.85 120.88) rotate(-34.55)"/><path class="cls-8" d="M296.57,361.23" transform="translate(-102.63 -66.13)"/><path class="cls-11" d="M359.14,455.27H274.75c-5.56-21.42,1.51-96.44,1.51-96.44l-11.66,3-10.27,2.69V329.46l27-42.48,11.36-5.65c8.66,13.6,44.47-2.86,44.47-2.86s15.63,10.61,19.66,16.85C377.89,328,344.32,423.45,359.14,455.27Z" transform="translate(-102.63 -66.13)"/><path class="cls-11" d="M274.75,455.27H252.82c0-26.83,11.78-93.43,11.78-93.43l11.66-3S269.19,433.85,274.75,455.27Z" transform="translate(-102.63 -66.13)"/><g class="cls-12"><path class="cls-13" d="M314.21,377.11s-22.27-1.92-24.09-1.18a156.27,156.27,0,0,1-15.49,3.24,128.56,128.56,0,0,0,0-19.92l-10.06,2.59s-11.78,66.6-11.78,93.43h21.93c-3.18-12.23-2.23-41.94-.84-65.18,9.11,3.61,26.33,9,35.25,2.16C321.65,382.75,314.21,377.11,314.21,377.11Z" transform="translate(-102.63 -66.13)"/></g><path class="cls-2" d="M359.13,456.69H252.82a1.43,1.43,0,0,1-1.43-1.42c0-23.81,9.38-79.65,11.43-91.48l-8.13,2.12a1.41,1.41,0,0,1-1.78-1.4l.48-35.18a1.42,1.42,0,0,1,.22-.74l26.5-42.37a1.32,1.32,0,0,1,.58-.52L292,280.05a1.44,1.44,0,0,1,1.84.51c6.56,10.29,33,1,42.68-3.39a1.44,1.44,0,0,1,1.39.12c.65.44,15.92,10.84,20.06,17.26h0c11.59,18,7.15,53.68,2.86,88.22-3.67,29.58-7.14,57.52-.44,71.89a1.43,1.43,0,0,1-1.3,2Zm-84.23-2.85H357c-5.89-15.54-2.51-42.72,1.05-71.42,4.23-34,8.6-69.23-2.43-86.33h0c-3.37-5.22-15.63-13.92-18.61-16-5.26,2.32-35.21,14.8-44.77,3l-9.91,4.92-26.08,41.7-.45,32.91,8.45-2.22a1.41,1.41,0,0,1,1.33.34,1.39,1.39,0,0,1,.44,1.29c-.12.65-11.36,64.26-11.75,91.75H274.9Z" transform="translate(-102.63 -66.13)"/><path class="cls-2" d="M304.9,395.67c-8.87,0-24.15-3-54.78-21a2.41,2.41,0,0,1-.7-.29l-5.15-3.2q-3.5-2.13-7.29-4.53a2.85,2.85,0,0,1,1-5.22l15.82-2.82a2.77,2.77,0,0,1,2.33.62,2.85,2.85,0,0,1,1,1.61l6.75-1.77a2.94,2.94,0,0,1,1.53,0l2.18.66,1.37.41,6.84,2.07a2.66,2.66,0,0,1,.6.26c4,1.29,7.35,2.42,9.89,3.36,1.31.48,2.6,1,3.93,1.66.94-1.88,2.57-4.82,5.44-9.57l2.23-3.63a3.79,3.79,0,0,1,.5-.65,2.86,2.86,0,0,1,3.35-.51l23.77,12.52a2.85,2.85,0,0,1,1.29,3.65l-.05.13-.06.17-.08.21a2.81,2.81,0,0,1-.13.33h0c-.09.24-.17.44-.26.66s-.16.4-.24.61l-.87,2.08c-.22.48-.41.91-.61,1.37l-.25.56a.87.87,0,0,1-.07.17h0l-.69,1.49c-.91,2-1.88,3.9-2.87,5.68-4.56,8.3-8.8,12.48-12.95,12.78C306.82,395.64,305.9,395.67,304.9,395.67Zm-53-26.45a2.36,2.36,0,0,1,.59.24c33.06,19.44,47.07,21,54.75,20.42,1.42-.1,4.46-2.74,8.37-9.83.91-1.65,1.83-3.48,2.67-5.31l.66-1.42a.3.3,0,0,1,0-.1l.26-.61.63-1.41.69-1.66-19.15-10.09-.65,1.07s-.08.14-.16.26c-5.4,8.93-6,10.84-6.09,11.13a2.81,2.81,0,0,1-4.07,2.08l-2.32-1.14c-1.3-.63-2.55-1.17-3.82-1.64-2.61-1-6.09-2.14-10.33-3.49a3.14,3.14,0,0,1-.53-.23l-6.14-1.85-1.39-.42-1.38-.42-9.48,2.5a2.87,2.87,0,0,1-2.47-.5,2.83,2.83,0,0,1-1.1-2l-5.17.92.93.58Zm50.88-12-.07.1A.61.61,0,0,0,302.8,357.24Z" transform="translate(-102.63 -66.13)"/><g class="cls-12"><polygon class="cls-13" points="248.45 262.88 230.89 316.11 188.41 288.08 228.53 306.11 248.45 262.88"/></g><path class="cls-8" d="M324.18,368.21l-.12.3c0,.09-.08.22-.14.37s0,.05,0,.08,0,.1-.05.14l-.26.65c-.16.37-.33.82-.54,1.34l-.56,1.31c-.27.59-.56,1.26-.87,2v0l-.7,1.52c-.8,1.74-1.75,3.64-2.77,5.49-3.13,5.68-7,11.05-10.67,11.31-7.8.55-24.33-.19-68.95-28.48l13.77-2.45,2.05-.37v3.11l10.26-2.7,2.56.77c4.15,1.26,12.47,3.83,18.14,5.92a43.42,43.42,0,0,1,4.09,1.76l2.33,1.14c.24-1.65,3.9-7.89,6.38-12,.09-.15.17-.27.24-.4.28-.44.52-.84.75-1.22l1.22-2a.79.79,0,0,1,.1-.14Z" transform="translate(-102.63 -66.13)"/><g class="cls-12"><path class="cls-13" d="M324.18,368.2s-1,2.76-3.28,7.73l-23-16.66L296,362.14l0-.06c2.2-3.51,4.38-6.39,4.38-6.39Z" transform="translate(-102.63 -66.13)"/></g><polygon class="cls-11" points="248.45 262.88 228.53 306.11 188.41 288.08 221.5 240.71 241.17 256.89 248.45 262.88"/><g class="cls-12"><path class="cls-13" d="M275,365l-24,7-12.42-7.71,15.82-2.82v3.11l10.26-2.7S273.38,364.48,275,365Z" transform="translate(-102.63 -66.13)"/></g><path class="cls-2" d="M241.49,367.38a17.68,17.68,0,0,1-15.18-8.66,3,3,0,0,1-.16-.37C219,339.06,235.29,294.82,237,290.3c.39-2.79,3-21.54,4.95-28.42.93-3.4,2.57-5.74,4.87-6.95a7.26,7.26,0,0,1,3.7-.84c.18-.14.36-.28.55-.41a12.44,12.44,0,0,1,5.09-2,9.34,9.34,0,0,1,1.23-1.11,2,2,0,0,1,.24-.16,11.32,11.32,0,0,1,4.64-1.88,9.09,9.09,0,0,1,1.9-1.06,16.7,16.7,0,0,1,4.08-1.1,7.25,7.25,0,0,1,7.9,4.52,21.76,21.76,0,0,1,1.05,7.19l4.35.33a2.85,2.85,0,0,1,1.48,5.14,10.5,10.5,0,0,1-4.71,1.81c-1.77.32-2.37.43-3.14,3.55-1.72,7-13.51,19.94-18.06,24.72l-2.58,36.87a2.77,2.77,0,0,1,1.38.31,2.84,2.84,0,0,1,1.57,2.54l.11,28.7a2.92,2.92,0,0,1-2,2.78,11.67,11.67,0,0,1-1.63.51c-2,.48-5.06,1.07-9.15,1.76A20.35,20.35,0,0,1,241.49,367.38Zm-10.07-11.24a12,12,0,0,0,12.42,5.33c3.52-.6,6.22-1.1,8-1.51l-.08-21.35a2.79,2.79,0,0,1-1.87-.32,2.82,2.82,0,0,1-1.47-2.69l3-43.4a2.82,2.82,0,0,1,.83-1.82c7.58-7.88,16.22-18.37,17.31-22.82a12.28,12.28,0,0,1,2.31-5.09,2.89,2.89,0,0,1-.55-2c0-.06.06-.6.08-1.42a18.11,18.11,0,0,0-.68-6.16,1.52,1.52,0,0,0-1.67-.85,12.31,12.31,0,0,0-2.7.7,2.77,2.77,0,0,0-.89.51,2.87,2.87,0,0,1-2,.89h0a5.74,5.74,0,0,0-2.72,1,.91.91,0,0,1-.16.11,3.94,3.94,0,0,0-.69.74,2.82,2.82,0,0,1-2.28,1.25,7.25,7.25,0,0,0-3.35,1.12,3.93,3.93,0,0,0-.72.62,2.88,2.88,0,0,1-3.09.83c-1.19-.31-2.39,1-3.1,3.6-1.92,6.92-4.81,27.8-4.84,28a2.24,2.24,0,0,1-.16.63C242.27,292.49,225,338.09,231.42,356.14Z" transform="translate(-102.63 -66.13)"/><path class="cls-8" d="M281.11,260.46c-3.45,2.55-6.88.3-8.71,7.78-1.77,7.22-17.07,23.13-18,24.11l-.06,0-3,43.4,3.33-2.44.11,28v.7a1.94,1.94,0,0,1-.33.07l-10.09,2.16a14.85,14.85,0,0,1-15.5-6.93c-7.09-19.12,11-66.33,11-66.33s2.92-21.19,4.91-28.38,6.78-5.54,6.78-5.54a6.38,6.38,0,0,1,1.24-1.09,10.09,10.09,0,0,1,4.91-1.63,6.55,6.55,0,0,1,1.48-1.53h0a8.38,8.38,0,0,1,4.34-1.59l0,0a5.24,5.24,0,0,1,1.79-1.14,14.35,14.35,0,0,1,3.42-.91,4.37,4.37,0,0,1,4.78,2.7,21,21,0,0,1,.85,7.18c0,1-.09,1.69-.09,1.69l1.22.05Z" transform="translate(-102.63 -66.13)"/><path class="cls-6" d="M281.11,260.46c-3.45,2.55-6.88.3-8.71,7.78-1.77,7.22-17.07,23.13-18,24.11l-.06,0-3,43.4,3.33-2.44.11,28.69-8.51,1.9-1.14-9.33a78.91,78.91,0,0,1,.31-21.38l6.35-42-1.35-7.43,0,0,.14-.26c.52-.92,1.87-4.15-.05-10.14-2.33-7.2,1.59-6.63,1.59-6.63s-.91,4.06,1.57,4.49,2.38,0,2.38,0l1,1.53c4.16,2.11,4.9-2.53,4.9-2.53l.31.07a4.61,4.61,0,0,0,3.74-.88l.56-.44c3.72,3,7.78-11.33,7.78-11.33h0c.13.92.39,2.18,1.84,2.36Z" transform="translate(-102.63 -66.13)"/><path class="cls-2" d="M263.91,362a1.07,1.07,0,0,1-.26-2.1l10.7-2.72a1.07,1.07,0,1,1,.53,2.07L264.18,362A1.24,1.24,0,0,1,263.91,362Z" transform="translate(-102.63 -66.13)"/><path class="cls-2" d="M298.11,531.08a1.43,1.43,0,0,1-1.41-1.27l-8-72.89a1.43,1.43,0,0,1,2.84-.32l8,72.9a1.42,1.42,0,0,1-1.26,1.57Z" transform="translate(-102.63 -66.13)"/></svg>