<svg id="Layer_1" data-name="Layer 1" xmlns="http://www.w3.org/2000/svg" viewBox="0 0 600 600"><defs><style>.cls-1,.cls-11{fill:#c2dc8f;}.cls-1{opacity:0.3;}.cls-2{fill:#f8c469;}.cls-3{fill:#424242;}.cls-10,.cls-4{fill:#fff;}.cls-5{fill:#aec341;}.cls-6{fill:#f8ded8;}.cls-7{fill:#d0bbb7;}.cls-8{fill:#d2916e;}.cls-10,.cls-9{opacity:0.5;}.cls-12{fill:#d0e9f9;}.cls-13{fill:#90acf1;}.cls-14{opacity:0.24;}.cls-15{fill:#221f1f;}</style></defs><title>huy chuong</title><g id="cầm_huy_chương" data-name="cầm huy chương"><polygon class="cls-1" points="350.53 265.31 354.86 272.4 207.14 269.21 225.74 170.39 355.07 237.57 349.09 244.56 358.48 258.87 350.53 265.31"/><polygon class="cls-1" points="384.05 297.83 348.49 470.33 250.64 434.39 363.7 286.01 363.75 285.99 380 291.67 384.05 297.83"/><polygon class="cls-1" points="406.54 220.45 387.17 236.15 368.32 224.21 362.05 231.54 314.32 83.69 425.02 83.08 406.54 220.45"/><polygon class="cls-1" points="557.7 213.27 426.94 261.33 403.07 246.22 406.54 220.45 516.63 131.22 557.7 213.27"/><polygon class="cls-1" points="551.06 343.75 458.83 411.8 384.05 297.83 384.96 293.4 380 291.67 373.84 282.28 390.31 276.23 396.52 276.56 396.89 273.81 424.56 263.64 551.06 343.75"/><path class="cls-2" d="M239.76,188.79l-1,14.5a.86.86,0,0,1-.82.8l-17.76.87a.87.87,0,0,0-.41,1.61l19.73,12a.89.89,0,0,1,.41.86l-1.8,13a.87.87,0,0,0,1.56.63l11-15.16a.87.87,0,0,1,.61-.35l8.91-.88a.87.87,0,0,0,.57-1.43l-6.86-7.89a.86.86,0,0,1,0-1.17l7.37-7.74a.87.87,0,0,0-.69-1.46l-14.27.94a.88.88,0,0,1-.85-.51l-4.05-8.9A.86.86,0,0,0,239.76,188.79Z"/><path class="cls-3" d="M261.22,217.1a1.75,1.75,0,0,1-1,.42l-8.91.88-11,15.15a1.73,1.73,0,0,1-3.11-1.25l1.79-13-19.72-11.95a1.73,1.73,0,0,1,.81-3.21l17.76-.87,1-14.5a1.73,1.73,0,0,1,3.3-.59l4.05,8.91,14.28-.94a1.73,1.73,0,0,1,1.36,2.91l-7.36,7.75,6.86,7.89a1.73,1.73,0,0,1-.17,2.44Zm-11,0a1.81,1.81,0,0,1,1-.42l8.91-.88-6.87-7.9a1.72,1.72,0,0,1,.06-2.32l7.36-7.74-14.27.93a1.73,1.73,0,0,1-1.69-1l-4.05-8.91-.87-.06.86.06-1,14.5A1.74,1.74,0,0,1,238,205l-17.76.87,19.73,12a1.73,1.73,0,0,1,.81,1.71l-1.79,13,11-15.15A1.84,1.84,0,0,1,250.21,217.1Z"/><path class="cls-2" d="M439.62,113.48l8.41,6.83a.65.65,0,0,1,.14.85l-7.07,11.21a.65.65,0,0,0,.8.94l15.75-6.93a.63.63,0,0,1,.69.12l7.19,6.68a.64.64,0,0,0,1.05-.68L462,119.29a.63.63,0,0,1,0-.52l3.28-5.82a.65.65,0,0,0-.63-1l-7.76.82a.65.65,0,0,1-.7-.52l-1.57-7.81a.65.65,0,0,0-1.19-.21L448,113.39a.65.65,0,0,1-.67.3l-7.18-1.34A.64.64,0,0,0,439.62,113.48Z"/><path class="cls-3" d="M466,134.2a1.43,1.43,0,0,1-1-.4l-7.1-6.59-15.61,6.87a1.49,1.49,0,0,1-1.87-2.16l7-11.06-8.28-6.72h0a1.5,1.5,0,0,1,1.22-2.63l7,1.32,5.47-9a1.45,1.45,0,0,1,1.53-.69,1.48,1.48,0,0,1,1.21,1.17l1.53,7.63,7.58-.79a1.49,1.49,0,0,1,1.4.67,1.47,1.47,0,0,1,.05,1.55l-3.23,5.74,4.52,13.11a1.49,1.49,0,0,1-1.41,2Zm-25.2-20.87,7.79,6.32a1.51,1.51,0,0,1,.32,2l-6.72,10.65,15.13-6.65a1.47,1.47,0,0,1,1.62.27l6.6,6.12-4.28-12.43a1.49,1.49,0,0,1,.11-1.22l3.08-5.47-7.36.77a1.48,1.48,0,0,1-1.62-1.19l-1.47-7.3-5.27,8.67a1.48,1.48,0,0,1-1.55.69ZM447.5,121Z"/><path class="cls-4" d="M413.88,146.68a1.71,1.71,0,0,1-1.32-2.79,126.07,126.07,0,0,1,23.37-21,1.7,1.7,0,1,1,1.9,2.81c-.13.09-13,8.82-22.66,20.37A1.71,1.71,0,0,1,413.88,146.68Z"/><path class="cls-4" d="M445,150.18a1.68,1.68,0,0,1-1-.32,1.7,1.7,0,0,1-.39-2.37c6.18-8.58,10.1-12,10.26-12.15a1.7,1.7,0,1,1,2.23,2.57c-.07.05-3.84,3.38-9.73,11.56A1.71,1.71,0,0,1,445,150.18Z"/><path class="cls-4" d="M282.47,239.6a1.72,1.72,0,0,1-2.41-.14c-9.67-10.66-26.14-13.66-26.31-13.69a1.73,1.73,0,0,1,.6-3.4c.72.13,17.79,3.22,28.26,14.77a1.73,1.73,0,0,1-.12,2.44Z"/><path class="cls-4" d="M310.46,236.77l-.24.18a1.7,1.7,0,0,1-2.33-.59c-11.73-19.55-34-29.33-34.2-29.43a1.7,1.7,0,0,1,1.34-3.12c1,.42,23.47,10.3,35.77,30.81A1.69,1.69,0,0,1,310.46,236.77Z"/><path class="cls-5" d="M349.72,215s-29.87,27.28-38.77,58.3C302.5,302.68,255.28,410,288.41,464.4a7.65,7.65,0,0,0,12.39.92c18-21.4,73.54-65.48,78-162.11,5.44-117.93,7.44-95.95,7.44-95.95Z"/><path class="cls-3" d="M294.92,471.27l-.83,0a10.7,10.7,0,0,1-8.43-5.17c-12.47-20.46-15.3-50.52-8.43-89.33,5.7-32.17,16.86-64.15,24.25-85.31,2.83-8.11,5.06-14.51,6.37-19.07,9-31.53,38.45-58.65,39.7-59.79a3.16,3.16,0,0,1,1.51-.77l33.47-7.05a3.35,3.35,0,0,1,3.16-2.33c1.27,0,3.39.53,3.76,4.55a3.22,3.22,0,0,1-1.52,3c-.94,6.59-2.87,27.48-5.91,93.36-3.9,84.54-46.61,129.72-69.55,154-3.64,3.86-6.78,7.18-9.2,10.06A11,11,0,0,1,294.92,471.27Zm56.35-253.36C347,222,321.88,246.82,314,274.14c-1.35,4.73-3.62,11.21-6.48,19.41-7.32,21-18.38,52.66-24,84.31-6.59,37.23-4,65.78,7.58,84.86a4.35,4.35,0,0,0,3.43,2.1,4.4,4.4,0,0,0,3.75-1.57c2.54-3,5.74-6.41,9.45-10.33,22.37-23.66,64-67.71,67.79-149.86,1.74-37.57,3.3-64.85,4.65-81.08.35-4.22.69-7.69,1-10.37Z"/><polygon class="cls-5" points="422.93 188.23 398.17 198.22 422.44 197.6 422.93 188.23"/><path class="cls-3" d="M424.39,208.35l-.28,0-34.06-3a3.22,3.22,0,0,1-1-6.17l32.6-13.94a3.21,3.21,0,0,1,4.48,2.68l1.46,16.9a3.23,3.23,0,0,1-3.21,3.5Zm-21-8.28,17.43,1.51-.75-8.64Z"/><path class="cls-3" d="M43.14,402.52a5.14,5.14,0,0,1,2.72-4.13L277.11,276.64a5.13,5.13,0,0,1,7,2.27l13-7.53a5.12,5.12,0,0,1,7.45,2.9l.64,2,27.39-14.58,16.51-51.59a5.12,5.12,0,0,1,3.79-3.44c.13,0,13.15-2.87,27.79-5.55,32.31-5.91,39.09-5,41.32-4.69a5.12,5.12,0,0,1,4.31,4c0,.14.23,1.09.39,2.58l25.14-5.49a20.65,20.65,0,0,1,13.51,1.6l.08,0a19.87,19.87,0,0,1,3.71,2.32h0l.16.13a20.82,20.82,0,0,1,7.37,11.87l.06.29a20.88,20.88,0,0,1-1.1,12.4,20.93,20.93,0,0,1,13.13,15.1l.07.33A20.7,20.7,0,0,1,486,257.32a21.36,21.36,0,0,1-3.22,3.9,20.74,20.74,0,0,1,6.76,11.35l.07.33a20.88,20.88,0,0,1-9.08,22,20.83,20.83,0,0,1,4.95,9.61l.07.3a20.87,20.87,0,0,1-15.94,24.81l-24.18,5.28a21.15,21.15,0,0,1-6.73.36,20.76,20.76,0,0,1-9.12-3.27l-.25,0-.07,0-1.74.36-1,.21-.57.11-.78.15-1.13.22-1.12.21-3.32.57-.32.05-2.59.39-1.25.18-.21,0-1,.13c-1.25.16-2.48.29-3.71.4l-1.05.09c-1,.09-1.89.15-2.74.19s-1.55.08-2.32.09h-2.29l-.71,0h-.71c-.9,0-1.81-.08-2.67-.15l-.57-.05c-.67-.06-1.32-.13-2-.23l-1.52-.24-1-.21-.5-.11-.48-.12-.42-.11-.07,0a22.06,22.06,0,0,1-3.73-1.37l-.37-.18-.06,0-.06,0-.27-.14-.48-.27-.29-.18a13.18,13.18,0,0,1-1.13-.77l-37.37,26.86-.08.06-13.53,9.72,3,9.5a5.11,5.11,0,0,1-1.92,5.75l-18.19,12.86,3.81,13.56a5.13,5.13,0,0,1-1.73,5.38l-95.5,76.54-28.88,23.15a5.13,5.13,0,0,1-6.28.1L45.17,407A5.13,5.13,0,0,1,43.14,402.52Zm174.11,80.91L310.1,409l-3.87-13.78a5.11,5.11,0,0,1,2-5.57l18.09-12.77-3-9.48a5.12,5.12,0,0,1,1.88-5.72l16.47-11.84.09-.06L383.13,320a5.11,5.11,0,0,1,7.92,2.8,3.14,3.14,0,0,0,.6.45h0l.14.09.16.08.2.11.06,0a12.56,12.56,0,0,0,2,.71l.2,0,.15,0,.15,0,.18,0,.22.05h.07c.22.05.44.1.69.14s.74.13,1.11.18,1,.13,1.44.17l.5,0c.69.06,1.41.1,2.13.12h3.17l2-.08c.75,0,1.53-.1,2.41-.17l1-.09c1.08-.1,2.21-.22,3.34-.36l.92-.12.17,0,1.2-.17c.81-.11,1.64-.24,2.5-.38h.14c1.08-.17,2.19-.37,3.23-.56l1-.18,1.13-.22.67-.13.58-.11,1-.2,1.61-.34.11,0,1.16-.25.17,0h0l.45-.1.66-.15a5.15,5.15,0,0,1,4.49,1.09,10.51,10.51,0,0,0,9.15,2.3l24.19-5.27A10.64,10.64,0,0,0,475.55,307l-.07-.3a10.62,10.62,0,0,0-6.22-7.51l-.24-.09a10,10,0,0,0-1.54-.48,5.12,5.12,0,0,1,.06-10l4-.87a10.62,10.62,0,0,0,8.12-12.61l-.07-.33a10.64,10.64,0,0,0-8.76-8.23,5.12,5.12,0,0,1-.33-10.06l.26-.06a10.61,10.61,0,0,0,8.11-12.61l-.07-.34a10.67,10.67,0,0,0-7.08-7.82,10.38,10.38,0,0,0-4.44-.45,5.13,5.13,0,0,1-3.93-9,10.64,10.64,0,0,0,3.41-10.3l-.07-.29a10.46,10.46,0,0,0-3.8-6.08l-.14-.11a9.54,9.54,0,0,0-1.8-1.1l-.08,0a10.45,10.45,0,0,0-6.81-.78l-31,6.77-.36.08-.31.06a5.15,5.15,0,0,1-4.29-1.4,5.09,5.09,0,0,1-1.52-4.24c.06-.58.1-1.18.12-1.81h0v-.48c-5.05.17-14.9,1.21-34.1,4.71-10.39,1.9-20,3.89-24.57,4.86l-16.24,50.76a5.17,5.17,0,0,1-2.47,3l-34.68,18.45a5.1,5.1,0,0,1-4.35.22,5.16,5.16,0,0,1-2.95-3.21l-.56-1.81L283.59,291a5.12,5.12,0,0,1-7.27-2.41L57.79,403.69l133.68,100.4ZM389.58,326.84l-.49.85.49-.85Zm2.05-3.59-.39.67V324l.42-.72Zm.14.09h0Zm-.74-.58h0Zm27.07,1h0Zm0,0h0Zm0,0h0Zm0,0h0Zm4.75-109.42h0Zm-6.27-7.07v0Zm0,0h0Zm0-.34v0ZM388.23,231.3a5.12,5.12,0,0,1,4.44-5.71l.4-.05a5.34,5.34,0,0,1,.69,0,4.42,4.42,0,0,1,.63-.14l.25,0h0l.26,0a5.12,5.12,0,0,1,1.88,10.07l-.42.07h-.08l-.4.07a5.62,5.62,0,0,1-.7.05l-.32.08-.49.09h-.11l-.24,0-.1,0h0a5.11,5.11,0,0,1-5.7-4.46Z"/><path class="cls-6" d="M377.88,306.8s4.73,27.68,51,17.77c12-2.56,19.49-8.73,24-16.47l-8.68-73.86-1.54-13.07-10.93-2.32-2.14-.46-10.47-.87a20.33,20.33,0,0,0,1.84-4.75c-2.2,6.13-9.92,18.29-36.51,18.46,0,0,18,36.84,5.37,54S377.88,306.8,377.88,306.8Z"/><path class="cls-7" d="M130.09,464.4,141,472.61l29.43,6.55,19.93-14.32,117.08-84.15,20.66-14.84L344.68,354h0l41.44-29.78h0a.11.11,0,0,0,0,.05s0,0,0,0a.06.06,0,0,0,0,0,3.52,3.52,0,0,0,.4,1,6.75,6.75,0,0,0,2.44,2.35l.16.09a2.91,2.91,0,0,0,.35.2,1.46,1.46,0,0,0,.25.13l.25.13a16.55,16.55,0,0,0,2.86,1.05l.39.1.4.1.41.09.87.18q.63.12,1.32.21c.54.08,1.11.15,1.71.2l.53.05c.75.06,1.55.1,2.4.13h3.43l2.18-.09c.83,0,1.68-.1,2.58-.18l1-.09c1.12-.1,2.28-.23,3.51-.38l1-.12.15,0,.85-.12.4-.06c.84-.11,1.71-.25,2.59-.39l.14,0c1.07-.17,2.18-.36,3.31-.57l1.21-.23,1-.19.74-.14,1.53-.31,1.67-.35,1.29-.28.2,0,1.12-.26h0c6.78-1.54,14.58-3.6,23.56-6.32l-1.42-12c13-22.16,1.6-57.17,1.6-57.17s-5.65-9.26-10.28-16.7c-3-4.87-5.63-9-5.89-9.15s-3.24-3-6.58-6.23l-9.92-9.53a14.89,14.89,0,0,1-.85,3.44h0a22,22,0,0,1-3.39,6.1c-.06.09-.13.17-.19.25-.2.24-.4.49-.61.73-.06.07-.12.15-.19.22-.33.36-.67.73-1,1.1-.15.16-.32.32-.49.48l-.3.27-.57.51-.3.25c-.41.36-.86.7-1.32,1l-.29.2-.34.25-.36.24-.73.48-.77.47-.39.23-.41.23c-.26.15-.52.28-.79.42l-.05,0h0l-.37.19-.13.07-.34.16-.28.13-.14.07-.37.17-.13.06-.38.16-.11.05h0l-.09.05-.11,0-.25.1c-.48.21-1,.4-1.49.59l-.16.06-1.42.48-.2.06h0l-.33.1-.25.07-1.53.43-.51.13h-.05l-.57.14c-.6.15-1.22.28-1.86.41l-.21,0-.44.08h-.07l-.59.11-.12,0h0l-.37.06-.31,0c-.41.06-.83.13-1.26.18l-.23,0-.37,0h0l-.23,0-.15,0-.34,0-.51.06-.21,0-.74.07-.25,0-.5,0-.76.06h-.25l-.48,0h-.13l-1,0h0c-.52,0-1,.05-1.57.06h-.54l-1.14,0h0l0,0h0c0,.08.14.31.32.67l.06.14a2.56,2.56,0,0,0,.11.24l.16.34c0,.06.05.13.08.2l.16.34c0,.09.08.19.13.29l.53,1.23c0,.1.09.21.13.31.17.39.34.8.51,1.22l0,0c.66,1.61,1.41,3.54,2.19,5.71.25.73.52,1.49.78,2.26.62,1.87,1.24,3.87,1.81,6l.15.53c0,.16.09.33.13.5a.06.06,0,0,1,0,0c.14.52.27,1.05.41,1.58,0,.18.08.36.13.54.22.9.42,1.82.61,2.75.08.36.15.72.22,1.1l.21,1.11a2.21,2.21,0,0,0,.06.34c.23,1.38.44,2.77.59,4.16l.06.55c0,.38.08.76.1,1.14,0,.18,0,.36,0,.54,0,.56.08,1.13.1,1.68,0,.29,0,.56,0,.84,0,1,0,2,0,3l-.06,1.09v0c0,.17,0,.34,0,.51l0,.29a2,2,0,0,1,0,.25c0,.37-.07.75-.12,1.11,0,.17-.05.32-.07.48a2.34,2.34,0,0,1,0,.26,2,2,0,0,1,0,.26s0,.09,0,.13,0,.17,0,.25,0,.15,0,.23-.05.29-.08.43l0,.16c0,.12-.05.24-.07.35-.08.34-.15.67-.23,1v0c-.08.33-.17.66-.27,1l-.09.31c0,.09,0,.18-.08.27s-.11.34-.17.51,0,.15-.08.21c-.07.22-.15.43-.23.63s-.09.23-.14.35a.56.56,0,0,1,0,.12c-.06.15-.12.29-.19.44l-.17.39c-.17.37-.35.73-.54,1.09l0,0a3.07,3.07,0,0,1-.17.31c-.07.13-.14.26-.22.39s0,0,0,0h0l-.2.34-.35.55c-.17.26-.36.51-.54.76-2.16,2.94-3.94,5.51-5.4,7.74-.36.55-.7,1.09-1,1.61l-.47.76c-.15.25-.31.49-.45.73s-.28.48-.42.7l-.39.68-.37.65-.34.61L354,316.49l-34.46,22.75-20,13.24L161.85,443.42l-31.76,21Z"/><polygon class="cls-7" points="123.55 468.71 123.55 468.72 123.56 468.72 123.55 468.71"/><path class="cls-7" d="M130.09,464.4,141,472.61l29.43,6.56h0l19.93-14.32,117.08-84.15,20.66-14.84L344.68,354h0l41.44-29.78h0a.13.13,0,0,0,0,.05v0h0a3.31,3.31,0,0,0,.42,1l3.44-3.19,7.85-7.3L381,298.69h0L354,316.49l-34.45,22.75-20,13.25L161.86,443.42Z"/><path class="cls-6" d="M130.09,464.4h0l31.77-21,137.68-90.93,20-13.25L354,316.49,381,298.7h0l.34-.61.37-.65.39-.68c.14-.22.28-.46.42-.7s.3-.48.45-.73l.47-.76c.33-.52.67-1.06,1-1.61,1.46-2.23,3.24-4.8,5.4-7.74.18-.25.37-.5.54-.76l.35-.55.21-.35s0,0,0,0,.15-.26.22-.39l.19-.34c.19-.36.37-.72.54-1.09l.17-.39c.07-.15.13-.29.19-.44a.56.56,0,0,0,0-.12c.05-.12.1-.23.14-.35s.16-.41.23-.63c0-.06.05-.14.08-.21a3.58,3.58,0,0,0,.11-.35l.06-.16c0-.09.05-.18.08-.27l.09-.31c.1-.32.19-.65.27-1v0c.08-.33.15-.66.23-1,0-.11.05-.23.07-.35l0-.16c0-.14,0-.29.08-.43s0-.15,0-.23l.06-.38c0-.17.06-.34.08-.52s0-.31.07-.48c.05-.36.08-.74.12-1.11a2,2,0,0,0,0-.25l0-.29c0-.17,0-.34,0-.51v0l.06-1.09c0-1,0-2,0-3,0-.28,0-.55,0-.84,0-.55-.06-1.12-.1-1.68,0-.18,0-.36,0-.54,0-.38-.06-.76-.1-1.14l-.06-.55c-.15-1.39-.36-2.78-.59-4.16l-.06-.34-.21-1.11c-.07-.38-.14-.74-.22-1.1-.19-.93-.39-1.85-.61-2.75-.05-.18-.09-.36-.13-.54-.14-.53-.27-1.06-.41-1.58a.06.06,0,0,0,0,0c0-.17-.09-.34-.13-.5l-.15-.53-.15-.56c-.53-1.89-1.09-3.7-1.66-5.4-.26-.78-.52-1.53-.78-2.26-.56-1.57-1.11-3-1.62-4.3-.19-.49-.38-1-.57-1.41l0,0c-.17-.43-.34-.84-.51-1.22,0-.1-.08-.21-.13-.31l-.53-1.23c-.05-.1-.09-.2-.13-.29l-.16-.34c0-.07-.05-.14-.08-.2l-.16-.34a2.56,2.56,0,0,1-.11-.24l-.06-.14c-.17-.37-.28-.6-.32-.67h0a.08.08,0,0,1,0,0l1.14,0c.36,0,.72,0,1.07,0l1,0h0l1,0h.13l.48,0h.25l.37,0,.39,0,.5,0,.25,0,.74-.07.21,0,.51-.06.34,0,.15,0,.23,0h0l.37,0,.11,0,.12,0c.43-.05.85-.12,1.26-.18l.31,0,.36-.06h.06l.12,0,.59-.11h.07l.44-.08.21,0c.64-.13,1.26-.26,1.86-.41l.57-.14h.05l.51-.13,1.53-.43.25-.07.33-.1.13-.05.09,0,1.42-.48a.52.52,0,0,1,.16-.06c.51-.19,1-.38,1.49-.59l.25-.1.11,0,.13-.06.11-.05.38-.16.13-.06.37-.17.14-.07.28-.13.34-.16.13-.07.37-.19h0l.05,0c.27-.14.53-.27.79-.42l.41-.23.39-.23.77-.47.73-.48.36-.24.34-.25.29-.2c.46-.35.91-.69,1.32-1l.3-.25.57-.51.3-.27.49-.48c.37-.37.71-.74,1-1.1.07-.07.13-.15.19-.22.21-.24.41-.49.61-.73.06-.08.13-.16.19-.25a22,22,0,0,0,3.39-6.1h0a22.94,22.94,0,0,0,.6-3.38q.12-1.19.15-2.25V207c0-.19,0-.37,0-.54s0-.18,0-.27v-.41c0-.11,0-.23,0-.35s0-.32,0-.47h0a22.7,22.7,0,0,0-.4-3.45c-6.61-.9-24.18,1.81-39.71,4.65C366.87,208.88,354,211.7,354,211.7l-17.15,53.58-34.68,18.45-19.08,10.16-49.42,26.29-173,92.06Z"/><polygon class="cls-5" points="406.9 360.55 385.11 233.78 420.64 222.1 447.22 360.55 406.9 360.55"/><path class="cls-3" d="M447.22,363.77H406.9a3.21,3.21,0,0,1-3.17-2.67L381.94,234.33a3.22,3.22,0,0,1,2.17-3.61L419.64,219a3.22,3.22,0,0,1,2.64.29,3.27,3.27,0,0,1,1.53,2.17l26.57,138.44a3.16,3.16,0,0,1-.68,2.66A3.22,3.22,0,0,1,447.22,363.77Zm-37.61-6.44h33.71l-25.15-131L388.76,236Z"/><path class="cls-3" d="M427.19,500.72A67.91,67.91,0,0,1,398,371.52a9.17,9.17,0,0,1-1.19-4.54v-7.53a9.28,9.28,0,0,1,9.27-9.27h42.3a9.27,9.27,0,0,1,9.26,9.27V367a9.17,9.17,0,0,1-1.19,4.54,67.91,67.91,0,0,1-29.22,129.2ZM425.41,483H426a6.45,6.45,0,0,1,6,4.61,55.1,55.1,0,0,0,50-50,6.46,6.46,0,0,1-4.61-6v-.8l0-.42,0-.39c0-.12,0-.24,0-.36v-.06c0-.14,0-.28,0-.42l0-.35a6.74,6.74,0,0,1,0-1.19,6.2,6.2,0,0,1-.26-1.15l0-.26c0-.16,0-.32,0-.47s-.05-.29-.08-.43l-.05-.36c0-.14,0-.29,0-.43a3,3,0,0,1-.09-.43l-.05-.26a6.62,6.62,0,0,1-.11-1.17v0a6.66,6.66,0,0,1-.36-1.12l-.06-.22c0-.15-.06-.3-.08-.44s-.1-.32-.14-.48l-.08-.31a2.59,2.59,0,0,1-.09-.4c-.05-.13-.09-.27-.13-.41l-.09-.3-.12-.5c-.06-.15-.12-.31-.17-.48l0-.11a4.94,4.94,0,0,1-.13-.52,5.42,5.42,0,0,1-.22-.56l-.18-.53a3.38,3.38,0,0,1-.11-.34l-.12-.29-.18-.5c-.05-.11-.08-.22-.12-.33l-.13-.3c-.05-.15-.11-.29-.17-.44l-.06-.14c0-.09-.07-.19-.11-.28l-.09-.22q-.22-.53-.45-1l0-.06c-.2-.44-.4-.88-.61-1.31l0,0,0-.08h0c-.1-.2-.2-.41-.31-.62l-.3-.58-.09-.19-.13-.22c-.14-.28-.3-.56-.45-.84h0l-.13-.25-.12-.21c-.18-.32-.37-.63-.56-.95l-.24-.43c-.1-.14-.2-.28-.29-.43l-.27-.44-.18-.29a3.88,3.88,0,0,1-.23-.33l-.31-.46-.18-.29a3.15,3.15,0,0,1-.22-.29l-.34-.48-.19-.28a3.15,3.15,0,0,1-.22-.29l-.35-.46-.21-.29-.22-.27-.37-.47c-.08-.09-.15-.19-.22-.28a2.43,2.43,0,0,1-.2-.25l-.42-.5-.22-.27-.19-.21-.5-.57-.05,0-.17-.21a1.59,1.59,0,0,1-.13-.13c-.28-.31-.57-.62-.86-.92a.69.69,0,0,1-.11-.13l-.18-.17-.63-.64-.14-.14-.19-.19-.62-.58-.15-.15-.19-.17-.62-.57-.17-.16-.18-.15-.67-.58-.16-.14-.15-.12-.77-.63-.14-.12-.1-.07c-.33-.26-.65-.51-1-.76l0,0c-.71-.53-1.44-1.05-2.18-1.54L455,391l-.12-.08-1-.64-.17-.11-.16-.1h0l-.93-.57-.19-.11-.12-.07c-.41-.24-.83-.47-1.25-.7h0l-.1-.06c-.38-.2-.76-.4-1.15-.59l-.18-.1-.23-.11-.88-.42-.23-.12-.21-.09-.33-.15-.64-.28h0l-.2-.09-.12-.05-1.29-.53-.16-.06-.23-.08-.95-.36-.25-.09-.24-.08-.93-.31-.24-.09-.21-.06-1.35-.41h0l-.12,0-1.28-.34-.2,0-.25-.06-1-.23a6.45,6.45,0,0,1-5.06-6.29,6.05,6.05,0,0,1,.16-1.39,6.46,6.46,0,0,1,1.13-2.48H412.56v1.43a6.45,6.45,0,0,1-4.23,6.05A55.21,55.21,0,0,0,372.39,428a6.44,6.44,0,0,1,4.61,6l0,.62c0,.1,0,.2,0,.29s0,.17,0,.25c0,.24,0,.47,0,.71a2.26,2.26,0,0,1,0,.26,1.94,1.94,0,0,1,0,.24l.06.67c0,.09,0,.18,0,.27a2.13,2.13,0,0,1,0,.25l.06.57s0,.06,0,.08a2.45,2.45,0,0,1,0,.27c0,.1,0,.19,0,.28s.05.42.08.63l0,.27c0,.1,0,.2.05.3l0,.16.06.43a2.91,2.91,0,0,1,0,.31c0,.11.05.23.07.35l.12.66c0,.17.05.33.07.49s.08.3.11.46l.1.48c0,.12.05.24.07.36s0,.2.08.31l.12.5c0,.11.05.23.07.34l.09.31.13.51c0,.1.05.21.07.31s.07.21.1.32l.14.49c0,.1.05.21.08.32s.08.22.11.33l.14.46c0,.11.07.23.1.34s.09.25.13.37l.13.38c.05.16.1.32.14.48s.14.33.2.5l.05.12c.06.18.12.37.17.55s.16.34.23.52l.13.33c.05.13.1.25.14.38s.12.25.17.37l.16.38c.06.12.1.24.15.36l.15.31.19.42.14.33.16.32.19.4.15.32.18.34.19.37c.06.11.11.23.16.34a3.79,3.79,0,0,1,.2.34l.18.34c.08.15.16.3.23.46s.19.29.27.44l.06.11a4.59,4.59,0,0,1,.26.49c.11.15.21.3.31.46l.2.33.2.34.21.32.24.37c.07.1.13.2.19.3l.19.27.28.42c.06.09.12.17.17.26a2.48,2.48,0,0,1,.19.26l.3.42a2.2,2.2,0,0,1,.17.25l.2.25.31.43c.06.07.11.15.17.23l.2.25.33.42c.06.07.11.15.17.23l.21.24c.22.28.45.55.68.82l.18.22.15.17c.11.14.23.27.34.39l.09.1.16.2.14.14c.61.68,1.25,1.35,1.88,2h0l.05.05.11.11.8.77.13.13.17.15.69.63.16.15.19.16h0c.2.19.41.37.62.55l0,0,.2.18.17.13.74.6.18.15.12.1c.34.27.69.53,1,.79l.13.1.2.15c.25.17.49.35.73.53l.22.16.27.17.61.42a2.27,2.27,0,0,1,.25.18l.27.16.6.38.27.18a2.26,2.26,0,0,1,.26.16l.57.34h0l0,0h0l.27.17.27.15.64.36.1.05.4.25.44.21.1.05.59.31.26.14.33.15.61.3.29.15.32.14.61.27.3.15.31.12.63.26.33.15.28.1.58.23.34.14.29.1.9.31.3.12.32.09c.3.1.61.21.93.3l.15,0,.24.07.92.27.12,0,.17.05h0l.91.24.18,0,.23.06.81.19.23.05.25,0,.76.16.27.06.27,0,.7.13.35.07.36.05.39.06.4.07.42,0,.33.05a5.4,5.4,0,0,1,.58.09l.57,0,.32,0,.43,0,.41,0,.44,0,.39,0h.38l.45,0,.39,0Z"/><rect class="cls-8" x="406.12" y="368.21" width="42.13" height="9.2"/><path class="cls-2" d="M427.19,376.18v-4.81a61.45,61.45,0,1,0,0,122.9v-4.8a56.65,56.65,0,1,1,0-113.29Z"/><g class="cls-9"><path class="cls-8" d="M427.19,376.18v-4.81a61.45,61.45,0,1,0,0,122.9v-4.8a56.65,56.65,0,1,1,0-113.29Z"/></g><path class="cls-2" d="M488.64,432.82a61.45,61.45,0,0,1-61.45,61.45v-4.8a56.65,56.65,0,0,0,0-113.29v-4.81A61.45,61.45,0,0,1,488.64,432.82Z"/><path class="cls-10" d="M488.64,432.82a61.45,61.45,0,0,1-61.45,61.45v-4.8a56.65,56.65,0,0,0,0-113.29v-4.81A61.45,61.45,0,0,1,488.64,432.82Z"/><path class="cls-2" d="M483.83,432.82a56.64,56.64,0,0,1-56.64,56.65,57.79,57.79,0,0,1-9.37-.77,55.78,55.78,0,0,1-5.79-1.29h0a54.86,54.86,0,0,1-5.92-2,56.75,56.75,0,0,1-35.51-50h0c0-.87-.06-1.73-.06-2.61a56.64,56.64,0,0,1,56.65-56.64c1.61,0,3.21.06,4.78.2a56.26,56.26,0,0,1,26.66,9.32,56.83,56.83,0,0,1,17,17.75,55.91,55.91,0,0,1,3.31,6.33,54.17,54.17,0,0,1,2,5.06A56.55,56.55,0,0,1,483.83,432.82Z"/><g class="cls-9"><path class="cls-8" d="M474.71,404.21l-67.84,80h0a55.34,55.34,0,0,1-20.56-14.4l71.82-82.91A55.51,55.51,0,0,1,474.71,404.21Z"/></g><g class="cls-9"><path class="cls-8" d="M479.86,415.33l-61.57,72.08a55.67,55.67,0,0,1-5.65-1.25l65.3-75.77Q479,412.81,479.86,415.33Z"/></g><g class="cls-9"><path class="cls-8" d="M432.1,377.8l-59.89,57.62c0-.84-.06-1.69-.06-2.54a55.28,55.28,0,0,1,55.28-55.28C429,377.6,430.56,377.67,432.1,377.8Z"/></g><path class="cls-2" d="M448.34,356.62H406a2.83,2.83,0,0,0-2.83,2.83V367A2.83,2.83,0,0,0,406,369.8h42.3a2.82,2.82,0,0,0,2.82-2.82v-7.53A2.83,2.83,0,0,0,448.34,356.62Zm-.34,8.61a2,2,0,0,1-2,2H408.35a2,2,0,0,1-2-2v-4a2,2,0,0,1,2-2H446a2,2,0,0,1,2,2Z"/><polygon class="cls-10" points="402.08 417.37 410.75 425.29 422.2 416.55 421.5 438.96 406.97 439.13 406.97 449.6 445.93 449.43 445.93 439.29 433.82 439.29 433.82 404.14 424.19 398.7 402.08 417.37"/><path class="cls-10" d="M390.25,421.7a3.62,3.62,0,0,1-.3,3c-.2.3,0,.5.16.73a4.25,4.25,0,0,1,.68,3.88.73.73,0,0,0,.24.84,4.72,4.72,0,0,1,1.24,4.74.93.93,0,0,0,.39,1.06,5,5,0,0,1,1.81,4,1.48,1.48,0,0,0,.7,1.35,6,6,0,0,1,2.31,3.69,1.08,1.08,0,0,0,.68.94,6.44,6.44,0,0,1,4.06,5.42c.06.5.31.63.76.69a6.9,6.9,0,0,1,6,4.85c.2.57.55.66,1.06.68a7.77,7.77,0,0,1,7.47,9.55,1.34,1.34,0,0,0,.93,1.67,56,56,0,0,0,8.36,2.66c1.3.28,2.57-.48,3.83-.83,1.68-.48,3.32-1.13,5-1.73a1.48,1.48,0,0,0,1.15-1.93,7.55,7.55,0,0,1,1.33-6.19,7.89,7.89,0,0,1,5.87-3.18,1.47,1.47,0,0,0,1.53-1,6.54,6.54,0,0,1,5.69-4.41,1,1,0,0,0,1-1,6,6,0,0,1,3.61-5,1.85,1.85,0,0,0,1.18-1.53,5.36,5.36,0,0,1,2.38-3.48,1.09,1.09,0,0,0,.55-1.17,3.9,3.9,0,0,1,1.28-3.47c.77-.7,1.19-1.37.69-2.42a3.15,3.15,0,0,1-.07-1.16,8.23,8.23,0,0,1,1.58-2.94c.61-.91-.47-2.08.1-3.12,0-.06,0-.16.07-.22a4,4,0,0,0,.43-3.45,3.21,3.21,0,0,1,2.27-3.52,3.47,3.47,0,0,1,4.13,1.52c.1.17.23.31.34.47a3.62,3.62,0,0,1-.3,3c-.24.36.08.55.25.8a4,4,0,0,1,.18,4.61,1.5,1.5,0,0,0,0,1.53,4.5,4.5,0,0,1-.68,4.93,1,1,0,0,0-.18,1.15,5.25,5.25,0,0,1-1.1,6,1.1,1.1,0,0,0-.32,1.09,5.85,5.85,0,0,1-2.65,6.16,1.55,1.55,0,0,0-.8,1.4,6.29,6.29,0,0,1-4.72,5.86c-.77.19-1.14.43-1.17,1.37a7,7,0,0,1-6.31,6.59c-.72.06-.88.35-1.05.94a7.68,7.68,0,0,1-13.17,3.47,1.89,1.89,0,0,0-2.55-.5c-1.6.79-3.29,1.42-5.09,2.18a15,15,0,0,0,3.21.73c.41.1.85.11,1.26.2s1.36-.23,1.13.93-.67,1.37-1.67,1.21a47,47,0,0,1-7-1.63,2.18,2.18,0,0,0-1.36,0,58.44,58.44,0,0,1-7,1.64c-.83.14-1.6.11-1.78-1-.11-.63-.1-1.07.8-1.16,1.56-.15,3.11-.49,5-.81-2.25-1-4.18-1.82-6.13-2.62a1.14,1.14,0,0,0-1.35.43A8,8,0,0,1,406,472.14c-1.33-1.19-2.72-2.33-3.27-4.14a4.24,4.24,0,0,1-.25-.89c0-.59-.33-.8-.9-.83a7,7,0,0,1-6.39-6.95c0-.54-.2-.72-.71-.85a6.45,6.45,0,0,1-5.27-6.16,1.46,1.46,0,0,0-.64-1.19,5.85,5.85,0,0,1-2.74-6.12,1.64,1.64,0,0,0-.48-1.45,4.88,4.88,0,0,1-1-5.5,1.51,1.51,0,0,0-.26-1.67,4.37,4.37,0,0,1-.48-4.81,1.25,1.25,0,0,0-.07-1.29,4.12,4.12,0,0,1,.1-4.6,1.29,1.29,0,0,0,.21-1.19c-.66-2.36-.1-3.85,1.74-4.68C387.23,419.06,388.94,419.75,390.25,421.7Z"/><polygon class="cls-11" points="447.22 360.55 459.34 193.22 422.93 188.23 406.9 360.55 447.22 360.55"/><path class="cls-3" d="M447.22,363.77H406.9a3.21,3.21,0,0,1-2.38-1,3.25,3.25,0,0,1-.83-2.47l16-172.32a3.22,3.22,0,0,1,3.65-2.89l36.41,5a3.22,3.22,0,0,1,2.77,3.42L450.43,360.78A3.21,3.21,0,0,1,447.22,363.77Zm-36.79-6.44h33.79L455.91,196l-30.08-4.12Z"/><path class="cls-6" d="M409.82,228l.07.31a16,16,0,0,0,1.18,3.44,15.73,15.73,0,0,0,17.1,8.67l.45-.09,31.08-6.77a15.74,15.74,0,0,0,12-18.73l-.07-.31a15.61,15.61,0,0,0-5.66-9v0a16.26,16.26,0,0,0-2.86-1.78h0a15.64,15.64,0,0,0-10.19-1.2l-31.08,6.77A15.75,15.75,0,0,0,409.82,228Z"/><path class="cls-6" d="M418.82,288l.07.31a15.72,15.72,0,0,0,18,12.17c.25,0,.51-.09.76-.15l35-7.62a15.74,15.74,0,0,0,12-18.73l-.07-.31a15.73,15.73,0,0,0-18.73-12l-35,7.63A15.73,15.73,0,0,0,418.82,288Z"/><path class="cls-7" d="M428.17,240.46l.45-.09,31.08-6.77a15.74,15.74,0,0,0,12-18.73l-.07-.31a15.61,15.61,0,0,0-5.66-9v0a16.26,16.26,0,0,0-2.86-1.78c.22.22,8.12,8.26-8.33,19.39a214.61,214.61,0,0,1-23,13.9,8.76,8.76,0,0,0-3.62,3.39Z"/><path class="cls-6" d="M412.13,258l.07.32a15.74,15.74,0,0,0,18.73,12l40.88-8.92a15.73,15.73,0,0,0,12-18.72l-.07-.31a15.73,15.73,0,0,0-18.72-12l-40.88,8.92A15.73,15.73,0,0,0,412.13,258Z"/><path class="cls-7" d="M430.93,270.34l40.88-8.92a15.73,15.73,0,0,0,12-18.72l-.07-.31a15.72,15.72,0,0,0-10.48-11.61s8.88,9.29,2.52,16.69-30.21,14.81-30.21,14.81S435.78,265.73,430.93,270.34Z"/><path class="cls-7" d="M436.85,300.49c.25,0,.51-.09.76-.15l35-7.62a15.74,15.74,0,0,0,12-18.73l-.07-.31A15.71,15.71,0,0,0,476,262.85h0s7.78,15.53-6.42,20.7C455.83,288.55,445.11,295.4,436.85,300.49Z"/><path class="cls-6" d="M425.55,317.54l.07.31a15.72,15.72,0,0,0,18.72,12l24.19-5.28a15.73,15.73,0,0,0,12-18.72l-.06-.32A15.73,15.73,0,0,0,471,294.32h0a15.67,15.67,0,0,0-9.23-.78l-24.19,5.27A15.74,15.74,0,0,0,425.55,317.54Z"/><path class="cls-7" d="M439.27,330.15a15.84,15.84,0,0,0,5.07-.27l24.19-5.28a15.73,15.73,0,0,0,12-18.72l-.06-.32A15.73,15.73,0,0,0,471,294.32h0c.19.29,9.58,13.87-1.67,20C461.06,318.9,446.63,326.23,439.27,330.15Z"/><path class="cls-3" d="M423.11,318.39l-.06-.3a18.3,18.3,0,0,1,4.29-16.17,18.18,18.18,0,0,1-10.95-13l-.08-.33A18.34,18.34,0,0,1,421,272a18.28,18.28,0,0,1-11.26-13.18l-.07-.3a18.36,18.36,0,0,1,6.12-17.92,18.21,18.21,0,0,1-8.35-11.71l-.08-.33a18.32,18.32,0,0,1,14-21.78L452.39,200a18.15,18.15,0,0,1,11.85,1.4l.06,0a18.51,18.51,0,0,1,3.26,2h0l.12.1A18.23,18.23,0,0,1,474.16,214l.07.31A18.31,18.31,0,0,1,472,227.79a17.57,17.57,0,0,1,2.13.56,18.36,18.36,0,0,1,12.18,13.47l.07.33a18.29,18.29,0,0,1-7.79,19.16,18.17,18.17,0,0,1,8.5,11.8l.08.34a18.33,18.33,0,0,1-11,20.85A18.33,18.33,0,0,1,483,305l.07.3a18.33,18.33,0,0,1-14,21.77l-24.19,5.28a18.3,18.3,0,0,1-21.78-14Zm47-21.65-.13-.06a12.81,12.81,0,0,0-2-.6,2.56,2.56,0,0,1,0-5l4-.87a13.18,13.18,0,0,0,10.07-15.65l-.07-.34a13.1,13.1,0,0,0-7.16-9.06,13,13,0,0,0-3.72-1.15,2.56,2.56,0,0,1-.15-5l.25-.06a13.19,13.19,0,0,0,10.07-15.65l-.08-.34a13.23,13.23,0,0,0-8.78-9.72,13.05,13.05,0,0,0-5.53-.56,2.56,2.56,0,0,1-2-4.48,13.16,13.16,0,0,0,4.23-12.76l-.06-.31a13.16,13.16,0,0,0-4.73-7.54l-.12-.1a13,13,0,0,0-2.29-1.41l-.07,0a13,13,0,0,0-8.47-1l-31.09,6.78h0a13.18,13.18,0,0,0-10.07,15.65l.08.34a12.88,12.88,0,0,0,1,2.88,13.14,13.14,0,0,0,8.52,7.05,2.56,2.56,0,0,1,.36,4.82,13.2,13.2,0,0,0-7.62,14.9l.06.31a13.17,13.17,0,0,0,12.35,10.36,2.56,2.56,0,0,1,1.08,4.83,13.19,13.19,0,0,0-6.82,14.49l.08.33a13.12,13.12,0,0,0,11.74,10.32,2.56,2.56,0,0,1,1.08,4.75A13.19,13.19,0,0,0,428.05,317l.07.3a13.16,13.16,0,0,0,11.43,10.29,13,13,0,0,0,4.25-.23L468,322.1a13.2,13.2,0,0,0,10.06-15.69l-.06-.3a13.22,13.22,0,0,0-5-7.73A13,13,0,0,0,470.14,296.74Z"/><polygon class="cls-12" points="277.46 289.37 293.12 348.92 306.21 398.7 311.16 393.84 332.31 378.9 317.32 332.19 299.67 275.81 281.02 286.61 277.46 289.37"/><polygon class="cls-13" points="48.24 402.92 130.09 464.4 130.09 464.4 191.57 510.57 220.45 487.43 315.95 410.89 311.16 393.84 307.46 380.69 299.54 352.49 299.54 352.48 297.65 345.79 283.07 293.89 281.02 286.61 279.5 281.17 252.13 295.58 48.24 402.92"/><g class="cls-14"><polygon class="cls-15" points="122.36 458.59 191.57 510.57 220.45 487.43 315.95 410.89 311.16 393.84 332.31 378.9 328.12 365.85 319.59 339.24 319.58 339.24 317.32 332.19 297.65 345.79 293.12 348.92 154.54 437.93 122.36 458.59"/></g><path class="cls-3" d="M358.11,209.91a2.53,2.53,0,0,0,1.88.49l59.84-8.07a23.81,23.81,0,0,1-.49,6.45,2.56,2.56,0,1,0,5,1.07,26.71,26.71,0,0,0,.17-11,2.57,2.57,0,0,0-2.83-1.93l-62.38,8.42a2.57,2.57,0,0,0-2.2,2.88A2.53,2.53,0,0,0,358.11,209.91Z"/><path class="cls-3" d="M383.52,233.27a2.56,2.56,0,0,0,1.59.51c18.9-.43,25.73-5.85,26-6.08a2.56,2.56,0,0,0-3.22-4c-.16.12-6.2,4.56-22.91,4.94a2.56,2.56,0,0,0-1.47,4.61Z"/><path class="cls-3" d="M419.71,242.26a2.58,2.58,0,0,0,2.1.45l45.42-10.11a2.56,2.56,0,1,0-1.12-5l-45.42,10.1a2.56,2.56,0,0,0-1,4.55Z"/><path class="cls-3" d="M425.41,272.74a2.6,2.6,0,0,0,2.06.46l44.86-9.27a2.56,2.56,0,1,0-1-5l-44.86,9.26a2.56,2.56,0,0,0-1,4.56Z"/><path class="cls-3" d="M431.37,302.7a2.54,2.54,0,0,0,2,.46l35.73-7.07a2.56,2.56,0,0,0-1-5l-35.72,7.07a2.56,2.56,0,0,0-1,4.56Z"/></g></svg>