<svg id="Layer_1" data-name="Layer 1" xmlns="http://www.w3.org/2000/svg" viewBox="0 0 600 600"><defs><style>.cls-1{fill:#c2dc8f;}.cls-2{fill:#aec341;}.cls-3{fill:#f8ded8;}.cls-4{fill:#d0bbb7;}.cls-14,.cls-18,.cls-5,.cls-8{fill:none;stroke-linecap:round;}.cls-14,.cls-5{stroke:#424242;}.cls-14,.cls-18,.cls-5{stroke-linejoin:round;}.cls-5{stroke-width:3px;}.cls-6{fill:#b47d64;}.cls-7{fill:#d2916e;}.cls-8{stroke:#b27e5c;stroke-miterlimit:10;}.cls-18,.cls-8{stroke-width:2px;}.cls-9{fill:#5e5e5e;opacity:0.29;}.cls-10{fill:#f8c469;}.cls-11,.cls-12,.cls-15{fill:#fff;}.cls-11{opacity:0.35;}.cls-12{opacity:0.1;}.cls-13{fill:#d1ebfb;}.cls-14{stroke-width:4px;opacity:0.43;}.cls-16{fill:#aec8f8;}.cls-17{fill:#90acf1;}.cls-18{stroke:#fff;}</style></defs><title>tim danh ba</title><g id="find_something" data-name="find something"><polygon class="cls-1" points="414.03 549.54 370.51 549.25 370.67 547.41 413.76 547.63 414.03 549.54"/><path class="cls-2" d="M413.76,547.62l-43.09-.2.11-1.36,1,0,1.4,0,15.93-.31a.31.31,0,0,1,0-.07s0-.12,0-.22a.27.27,0,0,1,0-.13c0-.25-.09-.59-.17-1,0-.12-.05-.26-.08-.39a26.31,26.31,0,0,0-1.36-4.93l7.43-2a5.61,5.61,0,0,1,.27.64,6.35,6.35,0,0,1,.28.74c0,.1.07.2.1.31a1.42,1.42,0,0,1,0,.16c.13.41.27.88.39,1.38s.26,1.1.38,1.73l.12.64h0c.16.89.3,1.89.44,3l15-.09,1.62,0Z"/><path class="cls-1" d="M385.94,537.09a1.33,1.33,0,0,1,.61.45h0a5.16,5.16,0,0,1,.83,1.42l7.44-2a6.47,6.47,0,0,0-1.1-1.75,1.77,1.77,0,0,0-.59-.46Z"/><path class="cls-3" d="M373.13,546l15.93-.3s-.89-6.35-2.5-8.17h0l-.86.23h0c.12.25,3.08,6.52,1.81,7S373.13,546,373.13,546Z"/><path class="cls-4" d="M373.13,546l15.93-.3s-.89-6.35-2.5-8.17h0l-.86.23h0c.12.25,3.08,6.52,1.81,7S373.13,546,373.13,546Z"/><path class="cls-3" d="M371.73,546l1.4,0s13.05-.75,14.37-1.23-1.69-6.75-1.81-7h0C382.63,538.65,372.77,541.77,371.73,546Z"/><path class="cls-3" d="M396.41,542.62c.16.89.31,1.89.44,3l15-.1c.48-7.37-3.09-9-3.09-9l.37-12.4-5.21-.21s-.7,11.66.28,15.39S396.41,542.62,396.41,542.62Z"/><path class="cls-4" d="M396.41,542.62c.16.89.31,1.89.44,3l15-.1c.48-7.37-3.09-9-3.09-9l.37-12.4-5.21-.21s-.7,11.66.28,15.39S396.41,542.62,396.41,542.62Z"/><path class="cls-3" d="M393.73,535.26a5.73,5.73,0,0,1,.51.66l.1.17a8.41,8.41,0,0,1,.49.92c.09.2.18.4.27.64s.18.47.27.74c0,.1.07.2.1.31l0,.16c.13.41.27.87.39,1.38s.26,1.1.38,1.73c0,.2.08.42.12.64h0s8.75.42,7.77-3.31-.28-15.39-.28-15.39l-7.62-.31s1.37,6.77,1.11,9.16S393.73,535.26,393.73,535.26Z"/><path class="cls-3" d="M396.41,542.61h0s8.75.42,7.77-3.31-.28-15.39-.28-15.39Z"/><path class="cls-5" d="M371.74,546l-1,0-.11,1.36-.16,1.83,43.52.29-.27-1.92-.31-2.11-1.62,0m0,0c.48-7.37-3.09-9-3.09-9l.37-12.4-5.21-.21-7.62-.31s1.37,6.77,1.11,9.16-3.66,2.49-3.66,2.49a1.77,1.77,0,0,0-.59-.46l-7.2,2.29a1.33,1.33,0,0,1,.61.45l-.86.23h0c-3,.87-12.9,4-13.94,8.25m22.52-10.09-7.69,1.6"/><polygon class="cls-1" points="453.62 552.26 407.51 551.8 407.68 549.85 453.33 550.24 453.62 552.26"/><path class="cls-2" d="M453.33,550.23l-45.65-.38.12-1.44,1,0,1.48,0,16.88-.27a.23.23,0,0,0,0-.07c0-.06,0-.13,0-.23a.32.32,0,0,1,0-.14c0-.27-.09-.63-.18-1.06,0-.13,0-.27-.07-.41a28.49,28.49,0,0,0-1.43-5.23l7.88-2a7.13,7.13,0,0,1,.28.67,7.25,7.25,0,0,1,.29.79c0,.11.08.22.11.33a1.09,1.09,0,0,1,.05.17c.14.44.29.93.41,1.46s.27,1.17.39,1.84c.05.22.09.44.13.68h0q.25,1.41.45,3.18l15.87,0H453Z"/><path class="cls-1" d="M423.9,539a1.63,1.63,0,0,1,.65.47h0a5.48,5.48,0,0,1,.87,1.52l7.89-2a6.8,6.8,0,0,0-1.17-1.86,1.68,1.68,0,0,0-.62-.49Z"/><path class="cls-3" d="M410.3,548.37l16.88-.26s-.93-6.73-2.62-8.67h0l-.92.25h0c.12.27,3.25,6.92,1.89,7.42S410.3,548.37,410.3,548.37Z"/><path class="cls-4" d="M410.3,548.37l16.88-.26s-.93-6.73-2.62-8.67h0l-.92.25h0c.12.27,3.25,6.92,1.89,7.42S410.3,548.37,410.3,548.37Z"/><path class="cls-3" d="M408.81,548.39l1.49,0s13.83-.74,15.22-1.25-1.77-7.15-1.89-7.42h0C420.39,540.61,409.93,543.87,408.81,548.39Z"/><path class="cls-3" d="M435,544.87c.17,1,.32,2,.46,3.18l15.86,0c.54-7.81-3.23-9.54-3.23-9.54l.44-13.14-5.52-.24s-.79,12.36.23,16.31S435,544.87,435,544.87Z"/><path class="cls-4" d="M435,544.87c.17,1,.32,2,.46,3.18l15.86,0c.54-7.81-3.23-9.54-3.23-9.54l.44-13.14-5.52-.24s-.79,12.36.23,16.31S435,544.87,435,544.87Z"/><path class="cls-3" d="M432.15,537.06a4.64,4.64,0,0,1,.54.7l.12.18c.16.27.33.6.51,1l.28.68c.1.24.2.49.29.78,0,.11.07.22.1.33l.06.17c.13.44.27.93.4,1.46s.27,1.17.39,1.84c.05.21.09.44.13.68h0s9.27.47,8.24-3.48-.23-16.31-.23-16.31l-8.08-.35s1.43,7.18,1.15,9.71S432.15,537.06,432.15,537.06Z"/><path class="cls-3" d="M435,544.86h0s9.27.47,8.24-3.48-.23-16.31-.23-16.31Z"/><path class="cls-5" d="M451.29,548c.54-7.81-3.23-9.54-3.23-9.54l.44-13.14-5.52-.24-8.08-.35s1.43,7.18,1.15,9.71-3.9,2.62-3.9,2.62a1.68,1.68,0,0,0-.62-.49L423.9,539a1.63,1.63,0,0,1,.65.47l-.92.25h0c-3.22.91-13.68,4.17-14.8,8.69m0,0-1,0-.12,1.44-.17,1.95,46.11.46-.29-2L453,548h-1.72m-18.58-10.22"/><path class="cls-6" d="M385.37,315.49v91.35l8.06,120.25s14.61,3.6,20.56-1.16l11-209.41Z"/><path class="cls-7" d="M409.57,316.06l11,105.47,11.73,109.23s12.46,3.13,18.33-3.2L461.7,317.41Z"/><line class="cls-8" x1="445.76" y1="514.73" x2="445.6" y2="524.87"/><line class="cls-8" x1="446.13" y1="492.78" x2="445.93" y2="504.6"/><line class="cls-8" x1="446.51" y1="469.64" x2="446.3" y2="482.18"/><line class="cls-8" x1="446.84" y1="449.23" x2="446.68" y2="459.28"/><line class="cls-8" x1="447.25" y1="424.56" x2="447.05" y2="436.65"/><line class="cls-8" x1="447.65" y1="400.29" x2="447.46" y2="411.92"/><line class="cls-8" x1="448.11" y1="372.35" x2="447.88" y2="386.25"/><line class="cls-8" x1="448.54" y1="346.13" x2="448.32" y2="359.48"/><line class="cls-8" x1="448.86" y1="326.55" x2="448.73" y2="334.28"/><path class="cls-5" d="M409.57,316.06v.06l-24.2-.63v91.35l8.06,120.25s14.61,3.6,20.56-1.16l5.83-111.42.74,7,11.73,109.23s12.46,3.13,18.33-3.2L461.7,317.41Z"/><polygon class="cls-3" points="418.06 144.41 417.23 144.3 409.92 143.4 414.13 123.37 417.33 122.08 418.06 144.41"/><polygon class="cls-9" points="418.06 144.41 417.23 144.3 409.92 143.4 414.13 123.37 417.33 122.08 418.06 144.41"/><path class="cls-10" d="M434.14,68.58c5.23,10.06,5.55,30.69,3.86,37.12a9.85,9.85,0,0,1-3.45,5A25.42,25.42,0,0,1,424,115.36c-2,.38-3.77-3.81-5-7.61-.72-2.2-1.25-4.26-1.55-5.23-.83-2.64-2.52-15.25-11.27-11.81-7.74,3.05-1.71,9.38-3.21,14a4.37,4.37,0,0,1-1,1.68c-2.17,2.29-6.38-.52-8.38-3.69s-3.36-5.38-5.44-7c-3.74-3-8.21,1.32-11.16,4l-.88.79c-2.43,2.16-8.24-10.23-8.24-10.23-4.26-9.79-6.62-19.32,15.8-34.93,13.32-9.28,24.5-4.49,26.6-2.11a2.09,2.09,0,0,0,2.58.36A10.69,10.69,0,0,1,425,56.05,62.62,62.62,0,0,1,434.14,68.58Z"/><path class="cls-11" d="M402.89,61.28c-5.39-.87-16.64-.62-27.13,12.61a17,17,0,0,0-2.88,16.24,11,11,0,0,0,.69,1.59s2.59-10.29,10.1-11.34a16.61,16.61,0,0,1,12.77,4s5.19-15.16,14-10.71S418.37,95.54,424,93s9.93-2.51,7.07-13.17-11.18-21.23-17.63-17.39c-3.83,2.29-5.69,1.73-6.57.9A7.66,7.66,0,0,0,402.89,61.28Z"/><path class="cls-3" d="M438.91,147l-20.85-2.58-.73-22.33-3.2,1.29-7.24,6.11a12.3,12.3,0,0,1-5.72,2.74c-3.16.55-5.85-.32-9.09-3.52a25,25,0,0,1-5-7.22L377,99.65c3-2.71,7.42-7,11.17-4,2.07,1.65,3.46,3.89,5.43,7s6.21,6,8.38,3.69a4.52,4.52,0,0,0,1-1.68c1.5-4.57-4.53-10.9,3.22-14,8.74-3.44,10.43,9.18,11.25,11.81.31,1,.84,3,1.55,5.23,1.24,3.8,3,8,5,7.62s7.1-1.77,10.56-4.62Z"/><path class="cls-4" d="M405.76,97.92s3.9-3.68,5.69.23,2.61,9-.43,8.09-3.31-1.61-1.68-3.11c1-.91-1.55-3.37-2.4-2.22C405.75,102.51,404,99.08,405.76,97.92Z"/><path class="cls-5" d="M377,99.65l10.1,21.83a25,25,0,0,0,5,7.22c3.24,3.2,5.93,4.07,9.09,3.52a12.3,12.3,0,0,0,5.72-2.74l7.24-6.11-4.21,20,7.31.9.83.11L438.91,147l-4.36-36.24a9.89,9.89,0,0,0,3.45-5c1.69-6.43,1.37-27.06-3.86-37.12A62.62,62.62,0,0,0,425,56.05a10.69,10.69,0,0,0-12.2-2.52,2.09,2.09,0,0,1-2.58-.36c-2.1-2.38-13.28-7.17-26.6,2.11-22.42,15.61-20.06,25.14-15.8,34.93,0,0,5.81,12.39,8.24,10.23l.88-.79"/><path class="cls-6" d="M312.49,186.65a3.06,3.06,0,0,1-3.42-2.37l-5.5-24.81,2.84-.44Z"/><path class="cls-9" d="M312.49,186.65a3.06,3.06,0,0,1-3.42-2.37l-5.5-24.81,2.84-.44Z"/><path class="cls-6" d="M312.74,186.62a1.07,1.07,0,0,1-.25,0L306.41,159l3.25-.48,5.41,24.4A3.07,3.07,0,0,1,312.74,186.62Z"/><path class="cls-7" d="M323.88,125.12c-3.42-16.77-15.68-28.43-27.37-26.05a15.55,15.55,0,0,0-3.16,1c-8,3.54-12.91,13.74-12.69,25.69a43.59,43.59,0,0,0,.88,8,42.11,42.11,0,0,0,5.52,14l.2.29c4.81,7.42,11.63,12,18.56,12.06a15.61,15.61,0,0,0,3-.28l.12,0C320.59,157.42,327.3,141.9,323.88,125.12Zm-14.24,31.79c-.31.09-.63.16-.94.23-10.7,2.18-21.9-8.49-25-23.82-2.81-13.76,1.84-26.6,10.54-30.67a13.54,13.54,0,0,1,3.15-1c10.7-2.18,21.9,8.48,25,23.82C325.43,140.31,319.74,154.11,309.64,156.91Z"/><path class="cls-6" d="M309.64,156.91c8.7-4.07,13.35-16.9,10.55-30.67-3.13-15.34-14.33-26-25-23.82-.31.07-.63.14-.94.23a13.54,13.54,0,0,1,3.15-1c10.7-2.18,21.9,8.48,25,23.82C325.43,140.31,319.74,154.11,309.64,156.91Z"/><path class="cls-6" d="M309.64,156.91c8.7-4.07,13.35-16.9,10.55-30.67-3.13-15.34-14.33-26-25-23.82-.31.07-.63.14-.94.23a13.54,13.54,0,0,1,3.15-1c10.7-2.18,21.9,8.48,25,23.82C325.43,140.31,319.74,154.11,309.64,156.91Z"/><path class="cls-6" d="M305.82,160.11c-8.5,1.2-23.72-2.5-28.59-22.32-.13-.53-.24-1-.36-1.57l4-6.81c.15,1.43.36,2.89.66,4.35C284.66,149.06,295.12,160.1,305.82,160.11Z"/><path class="cls-9" d="M305.82,160.11c-8.5,1.2-23.72-2.5-28.59-22.32-.13-.53-.24-1-.36-1.57l4-6.81c.15,1.43.36,2.89.66,4.35C284.66,149.06,295.12,160.1,305.82,160.11Z"/><path class="cls-6" d="M280.88,129.41l-4,6.81C271.35,110.81,287.43,102,287.43,102l5.92-1.9C284.58,104,279.49,115.93,280.88,129.41Z"/><path class="cls-7" d="M323.88,125.12c-3.42-16.77-15.68-28.43-27.37-26.05a15.55,15.55,0,0,0-3.16,1l-.72.34a14.88,14.88,0,0,0-1.4.8c-.45.29-.89.6-1.32.94a17.8,17.8,0,0,0-1.84,1.65c-4.8,4.91-7.58,12.94-7.41,22,0,.33,0,.65,0,1,0,.51.05,1,.09,1.54,0,.37.06.73.1,1.11q.11,1.07.27,2.16c.05.37.11.73.18,1.1s.13.73.21,1.09.19,1,.31,1.42.23.93.36,1.4.18.69.29,1,.14.47.22.71c.33,1.06.71,2.1,1.11,3.1.21.51.42,1,.63,1.48.33.73.67,1.43,1,2.12.14.28.28.55.44.83s.23.42.36.63a34,34,0,0,0,3.39,4.9l.48.56a31.3,31.3,0,0,0,2.34,2.4c.24.22.47.43.71.62s.51.44.77.64.38.3.58.44a21.63,21.63,0,0,0,4.22,2.51c.2.09.41.18.63.26s.39.16.59.24.45.16.67.22l.37.12c.24.08.48.14.71.2a12.47,12.47,0,0,0,1.7.34c.35.06.71.1,1.06.13l.65,0,.65,0a15.61,15.61,0,0,0,3-.28l.12,0C320.59,157.42,327.3,141.9,323.88,125.12Zm-14.24,31.79c-.31.09-.63.16-.94.23-10.7,2.18-21.9-8.49-25-23.82-2.81-13.76,1.84-26.6,10.54-30.67a13.54,13.54,0,0,1,3.15-1c10.7-2.18,21.9,8.48,25,23.82C325.43,140.31,319.74,154.11,309.64,156.91Z"/><path class="cls-12" d="M309.64,156.91c-.31.09-.63.16-.94.23-10.7,2.18-21.9-8.49-25-23.82-2.81-13.76,1.84-26.6,10.54-30.67a13.54,13.54,0,0,1,3.15-1c10.7-2.18,21.9,8.48,25,23.82C325.43,140.31,319.74,154.11,309.64,156.91Z"/><path class="cls-6" d="M305.82,160.11c-8.5,1.2-23.72-2.5-28.59-22.32-.13-.53-.24-1-.36-1.57l4-6.81c.15,1.43.36,2.89.66,4.35C284.66,149.06,295.12,160.1,305.82,160.11Z"/><path class="cls-9" d="M305.82,160.11c-8.5,1.2-23.72-2.5-28.59-22.32-.13-.53-.24-1-.36-1.57l4-6.81c.15,1.43.36,2.89.66,4.35C284.66,149.06,295.12,160.1,305.82,160.11Z"/><path class="cls-6" d="M280.88,129.41l-4,6.81C271.35,110.81,287.43,102,287.43,102l5.92-1.9C284.58,104,279.49,115.93,280.88,129.41Z"/><path class="cls-5" d="M323.88,125.12c-3.42-16.77-15.68-28.43-27.37-26.05a15.55,15.55,0,0,0-3.16,1l-5.92,1.9s-16.08,8.82-10.56,34.23c.12.52.23,1,.36,1.57,4.5,18.3,17.82,22.86,26.53,22.5l5.31,24a3.06,3.06,0,0,0,3.42,2.37l.25,0a3.07,3.07,0,0,0,2.33-3.67l-5.18-23.38C321,156.53,327.2,141.42,323.88,125.12Zm-37.7-19.05"/><path class="cls-3" d="M309,194.35a5.94,5.94,0,0,1-4-.18c-4.51-1.61-3.29-5.62-3.29-5.62s-5.83-6-3.26-13.46a6.68,6.68,0,0,1,2.41-3.37c-.11.38-2.83,10,3.76,15.77C304.65,187.49,302.41,193.42,309,194.35Z"/><polygon class="cls-3" points="393.87 198.39 385.37 222.76 364.08 211.96 372.91 189.96 393.87 198.39"/><polygon class="cls-9" points="393.87 198.39 385.37 222.76 364.08 211.96 372.91 189.96 393.87 198.39"/><path class="cls-3" d="M385.37,222.76l-3.12,9c-.54,1.56-4.23,9.81-5.84,11.32s-3.87,3.37-8.91,3.1c-9-.48-42.95-39.44-50.51-47.5-4.85-5.17-6.2-4.75-8-4.29-6.62-.93-4.38-6.86-4.38-6.86-6.59-5.78-3.87-15.39-3.76-15.77h0c3.82-2.77,9.94-.58,9.94-.58s2.95-4.16,6.53-.15c2.9,3.27,1.73,10.54,2.71,15.34.39,1.8,16.31,12.45,25.78,17.14,12.77,6.32,15.46,15.38,15.46,15.38l2.77-6.89Z"/><path class="cls-9" d="M309,194.35a5.94,5.94,0,0,1-4-.18c-4.51-1.61-3.29-5.62-3.29-5.62s-5.83-6-3.26-13.46a6.68,6.68,0,0,1,2.41-3.37c-.11.38-2.83,10,3.76,15.77C304.65,187.49,302.41,193.42,309,194.35Z"/><path class="cls-5" d="M372.91,190l-8.83,22-2.77,6.89s-2.69-9.06-15.46-15.38c-9.47-4.69-25.39-15.34-25.78-17.14-1-4.8.19-12.07-2.71-15.34-3.58-4-6.53.15-6.53.15s-6.12-2.19-9.94.58h0a6.63,6.63,0,0,0-2.41,3.37c-2.57,7.47,3.26,13.46,3.26,13.46s-1.22,4,3.29,5.62a5.94,5.94,0,0,0,4,.18c1.76-.46,3.11-.88,8,4.29,7.56,8.06,41.49,47,50.51,47.5,5,.27,7.17-1.48,8.91-3.1s5.3-9.76,5.84-11.32l3.12-9,8.5-24.37Z"/><polygon class="cls-13" points="401.98 199.72 396.14 318.31 373.64 317.73 385.88 215.66 394.75 218.25 401.98 199.72"/><polygon class="cls-9" points="401.98 199.72 396.14 318.31 373.64 317.73 385.88 215.66 394.75 218.25 401.98 199.72"/><path class="cls-13" d="M396.14,318.31,402,199.72l-7.23,18.53-8.87-2.58-26.82-9,20.65-42.9a47.28,47.28,0,0,1,25.51-23.58l2.87-1.11s30.42,9.92,30.09-7.65l12.45,6.86h0a24.35,24.35,0,0,1,9.88,18.62c1.58,39.83,5.5,163.26,5.5,163.26Z"/><path class="cls-5" d="M460.51,156.86a24.35,24.35,0,0,0-9.88-18.62h0l-12.45-6.86c.33,17.57-30.09,7.65-30.09,7.65l-2.87,1.11a47.28,47.28,0,0,0-25.51,23.58l-20.65,42.9,26.82,9L373.64,317.73l22.5.58L466,320.12S462.09,196.69,460.51,156.86Z"/><path class="cls-10" d="M256.62,139.3,116.69,200.55l-43.85,19.2-11.17-66.1a14.69,14.69,0,0,1,8.61-15.91L226.33,69.58a14.68,14.68,0,0,1,20.36,11Z"/><path class="cls-7" d="M105.4,193.46a12.75,12.75,0,0,1-1.84.13,36.45,36.45,0,0,1,13.17-5.24,13.45,13.45,0,0,1-2.19,1.75,17.92,17.92,0,0,1-4.55,2.22,34.73,34.73,0,0,1-3.46,1A10.66,10.66,0,0,1,105.4,193.46Z"/><path class="cls-7" d="M249.72,165.31,93.66,233.46a14.69,14.69,0,0,1-20.37-11l-.45-2.69L81.37,216a20.3,20.3,0,0,0,9.76-9h0a36.28,36.28,0,0,1,5.74-7.89,5.81,5.81,0,0,1,.49-.5,17,17,0,0,0,10.89,2.3,16.69,16.69,0,0,0,3.28-.8c5.47-1.93,9.67-6.55,12-12.41h.64a36,36,0,0,1,6,.6l4,.74A20.32,20.32,0,0,0,146,187.7l110.59-48.4,1.71,10.1A14.71,14.71,0,0,1,249.72,165.31Z"/><path class="cls-14" d="M127.53,153.21c2.37-3.49,5.34-7.33,9.55-7.56a17,17,0,0,0,3-.11,7,7,0,0,0,2.33-1.19,38.28,38.28,0,0,0,9.05-8.82c.46-.64,1.07-1.37,1.86-1.29.63.07,1.08.64,1.65.92,1.9.93,3.56-1.49,5.17-2.86a11.94,11.94,0,0,1,4.58-2l19-5.37c2.84-.81,5.75-1.65,8.13-3.4s4-4.13,6.64-5.09a19.33,19.33,0,0,1,4.49-.74c4.84-.58,9.34-2.76,13.73-4.9.2-2.52,3.51-3.24,6-3.28"/><path class="cls-14" d="M134.77,169.69l20.31-11.41a13,13,0,0,0,4.74-3.74,5.27,5.27,0,0,1,1-1.3,3.79,3.79,0,0,1,1.64-.61,81.65,81.65,0,0,0,17.24-5.7"/><path class="cls-14" d="M193.19,141.45l11.12-6.13a8.27,8.27,0,0,1,2.67-1.09c1.36-.2,2.73.3,4.11.37,4.87.26,8.35-4.47,12.62-6.83a27.8,27.8,0,0,1,6.91-2.36l7.65-1.89"/><path class="cls-15" d="M125.18,168.52a27.15,27.15,0,0,0-10.44-15.78,17.93,17.93,0,0,0-12.67-3.26,18.8,18.8,0,0,0-3.39.82c-11,3.88-17.06,18.35-13.47,32.26a27.15,27.15,0,0,0,10.43,15.78c.41.28.82.54,1.23.79a17.69,17.69,0,0,0,11.43,2.46,17,17,0,0,0,3.4-.82c5.72-2,10.1-6.88,12.48-13A31.67,31.67,0,0,0,125.18,168.52Zm-1.64,19.2c-2.34,5.86-6.54,10.48-12,12.41a16.69,16.69,0,0,1-3.28.8,17,17,0,0,1-10.89-2.3c-.46-.26-.93-.56-1.38-.87a26.43,26.43,0,0,1-10.19-15.4C82.3,168.8,88.15,154.71,98.85,151a15.22,15.22,0,0,1,3.28-.79,17.34,17.34,0,0,1,12.27,3.15,26.46,26.46,0,0,1,10.19,15.42A30.87,30.87,0,0,1,123.54,187.72Z"/><path class="cls-10" d="M123.54,187.72c-2.34,5.86-6.54,10.48-12,12.41a16.69,16.69,0,0,1-3.28.8,17,17,0,0,1-10.89-2.3,36,36,0,0,1,6.2-5,12.75,12.75,0,0,0,1.84-.13,10.66,10.66,0,0,0,1.13-.19,34.73,34.73,0,0,0,3.46-1,17.92,17.92,0,0,0,4.55-2.22,13.45,13.45,0,0,0,2.19-1.75A36.63,36.63,0,0,1,123.54,187.72Z"/><path class="cls-15" d="M118.74,184.74a5.53,5.53,0,0,1-.85,2.18,10.47,10.47,0,0,1-1.16,1.43,13.45,13.45,0,0,1-2.19,1.75,17.92,17.92,0,0,1-4.55,2.22,34.73,34.73,0,0,1-3.46,1,10.66,10.66,0,0,1-1.13.19,12.75,12.75,0,0,1-1.84.13,11,11,0,0,1-2-.18,5.7,5.7,0,0,1-2.84-1.28,4.14,4.14,0,0,1-1.31-3.36,11.64,11.64,0,0,1,.83-3.68,11.25,11.25,0,0,1,2.2-3.81,8.24,8.24,0,0,1,3.51-2.43c.68-.23,4.27-1.44,5.41-1.64l.24,0a7.31,7.31,0,0,1,4.55,1,12,12,0,0,1,3.56,3.22A4.34,4.34,0,0,1,118.74,184.74Z"/><path class="cls-15" d="M102.71,159.91a5.42,5.42,0,0,0-1,.25c-3.49,1.21-5.45,6-4.29,10.68,1.08,4.32,4.31,7,7.58,6.59a4.89,4.89,0,0,0,1-.24c3.52-1.22,5.43-6,4.26-10.74-1.07-4.27-4.31-7-7.57-6.54Z"/><path class="cls-1" d="M276.31,248.44,136.38,309.69l-43.85,19.2-11.17-66.1A14.69,14.69,0,0,1,90,246.88L246,178.72a14.7,14.7,0,0,1,20.37,11Z"/><path class="cls-2" d="M125.09,302.6a12.65,12.65,0,0,1-1.84.13,36.7,36.7,0,0,1,13.17-5.24,13.45,13.45,0,0,1-2.19,1.75,17.92,17.92,0,0,1-4.55,2.22,34.73,34.73,0,0,1-3.46,1A10.66,10.66,0,0,1,125.09,302.6Z"/><path class="cls-2" d="M269.41,274.45,113.35,342.6a14.68,14.68,0,0,1-20.36-11l-.46-2.7,8.53-3.74a20.3,20.3,0,0,0,9.76-9h0a36.28,36.28,0,0,1,5.74-7.89,5.81,5.81,0,0,1,.49-.5,17,17,0,0,0,10.89,2.3,16.69,16.69,0,0,0,3.28-.8c5.47-1.93,9.67-6.55,12-12.41h.65a35.86,35.86,0,0,1,6,.6l4,.74a20.39,20.39,0,0,0,11.87-1.36l110.59-48.41,1.71,10.1A14.71,14.71,0,0,1,269.41,274.45Z"/><path class="cls-14" d="M147.22,262.35c2.37-3.49,5.34-7.33,9.55-7.56a16.93,16.93,0,0,0,3-.11,7,7,0,0,0,2.34-1.19,38.43,38.43,0,0,0,9-8.82c.47-.64,1.07-1.37,1.86-1.29.63.07,1.08.64,1.65.92,1.9.93,3.56-1.49,5.17-2.86a11.94,11.94,0,0,1,4.58-2l19-5.37c2.84-.81,5.75-1.65,8.13-3.4s4-4.13,6.65-5.09a19.16,19.16,0,0,1,4.48-.74c4.85-.58,9.34-2.76,13.73-4.9.2-2.52,3.52-3.24,6-3.28"/><path class="cls-14" d="M154.46,278.83l20.31-11.41a13,13,0,0,0,4.74-3.74,5.52,5.52,0,0,1,1-1.3,3.79,3.79,0,0,1,1.65-.61,81.75,81.75,0,0,0,17.23-5.7"/><path class="cls-14" d="M212.88,250.59,224,244.46a8,8,0,0,1,2.66-1.08c1.36-.21,2.73.29,4.11.36,4.87.26,8.35-4.47,12.62-6.83a27.8,27.8,0,0,1,6.91-2.36l7.66-1.89"/><path class="cls-15" d="M144.87,277.66a27.15,27.15,0,0,0-10.44-15.78,17.19,17.19,0,0,0-16.06-2.43c-11,3.87-17.05,18.34-13.47,32.26a27.16,27.16,0,0,0,10.43,15.77c.41.28.82.54,1.23.79A17.72,17.72,0,0,0,128,310.73a17.35,17.35,0,0,0,3.4-.82c5.71-2,10.09-6.87,12.48-13A31.74,31.74,0,0,0,144.87,277.66Zm-1.64,19.2c-2.34,5.86-6.54,10.48-12,12.41a16.69,16.69,0,0,1-3.28.8,17,17,0,0,1-10.89-2.3c-.46-.26-.93-.56-1.38-.87a26.43,26.43,0,0,1-10.19-15.4c-3.49-13.56,2.36-27.65,13.06-31.41a15.83,15.83,0,0,1,3.28-.79,17.3,17.3,0,0,1,12.27,3.16,26.41,26.41,0,0,1,10.19,15.41A30.87,30.87,0,0,1,143.23,296.86Z"/><path class="cls-1" d="M143.23,296.86c-2.34,5.86-6.54,10.48-12,12.41a16.69,16.69,0,0,1-3.28.8,17,17,0,0,1-10.89-2.3,36,36,0,0,1,6.2-5,12.65,12.65,0,0,0,1.84-.13,10.66,10.66,0,0,0,1.13-.19,34.73,34.73,0,0,0,3.46-1,17.92,17.92,0,0,0,4.55-2.22,13.45,13.45,0,0,0,2.19-1.75A36.71,36.71,0,0,1,143.23,296.86Z"/><path class="cls-15" d="M138.43,293.88a5.38,5.38,0,0,1-.85,2.18,9.77,9.77,0,0,1-1.16,1.43,13.45,13.45,0,0,1-2.19,1.75,17.92,17.92,0,0,1-4.55,2.22,34.73,34.73,0,0,1-3.46,1,10.66,10.66,0,0,1-1.13.19,12.65,12.65,0,0,1-1.84.13,10.83,10.83,0,0,1-2-.18,5.69,5.69,0,0,1-2.85-1.28,4.16,4.16,0,0,1-1.31-3.35,11.91,11.91,0,0,1,.83-3.69,11.27,11.27,0,0,1,2.2-3.8,8.16,8.16,0,0,1,3.51-2.43c.69-.24,4.27-1.45,5.42-1.65l.23,0a7.31,7.31,0,0,1,4.55,1,12,12,0,0,1,3.56,3.22A4.3,4.3,0,0,1,138.43,293.88Z"/><path class="cls-15" d="M122.41,269.05a5.52,5.52,0,0,0-1,.25c-3.49,1.21-5.45,6-4.28,10.68,1.08,4.32,4.3,7,7.57,6.59a4.89,4.89,0,0,0,1-.24c3.52-1.22,5.43-6,4.26-10.74-1.06-4.27-4.3-7-7.56-6.54Z"/><path class="cls-16" d="M294.23,359.88,154.29,421.14l-43.85,19.19L99.27,374.24a14.69,14.69,0,0,1,8.61-15.91l156.05-68.17a14.7,14.7,0,0,1,20.37,11Z"/><path class="cls-17" d="M143,414.05a12.65,12.65,0,0,1-1.84.13,36.59,36.59,0,0,1,13.17-5.24,13,13,0,0,1-2.19,1.75,17.86,17.86,0,0,1-4.54,2.22c-1.15.35-2.3.71-3.46.95A11.29,11.29,0,0,1,143,414.05Z"/><path class="cls-17" d="M287.33,385.9,131.27,454.05a14.7,14.7,0,0,1-20.37-11l-.46-2.7L119,436.6a20.35,20.35,0,0,0,9.76-9h0a36.92,36.92,0,0,1,5.74-7.9c.16-.17.32-.34.49-.5a16.94,16.94,0,0,0,10.9,2.3,15.89,15.89,0,0,0,3.27-.79c5.47-1.93,9.67-6.55,12-12.41h.65a35.76,35.76,0,0,1,6,.6l4,.74a20.37,20.37,0,0,0,11.86-1.37l110.6-48.41,1.7,10.1A14.71,14.71,0,0,1,287.33,385.9Z"/><path class="cls-14" d="M165.13,373.8c2.37-3.49,5.34-7.33,9.56-7.56a17,17,0,0,0,3-.12,6.84,6.84,0,0,0,2.33-1.18,38.43,38.43,0,0,0,9-8.82c.47-.64,1.07-1.37,1.86-1.29.63.07,1.08.64,1.65.92,1.9.93,3.56-1.49,5.18-2.86a11.83,11.83,0,0,1,4.57-2l19-5.38c2.85-.8,5.76-1.64,8.13-3.39s4-4.13,6.65-5.1a19.68,19.68,0,0,1,4.48-.73c4.85-.59,9.34-2.76,13.73-4.9.2-2.52,3.52-3.24,6.05-3.28"/><path class="cls-14" d="M172.37,390.28l20.31-11.41a13,13,0,0,0,4.74-3.74,5.58,5.58,0,0,1,1-1.3,4,4,0,0,1,1.65-.62,81.72,81.72,0,0,0,17.23-5.69"/><path class="cls-14" d="M230.79,362l11.13-6.14a8.19,8.19,0,0,1,2.66-1.08c1.36-.2,2.73.29,4.11.37,4.88.26,8.35-4.47,12.63-6.83a27.59,27.59,0,0,1,6.9-2.36l7.66-1.89"/><path class="cls-15" d="M162.78,389.11a27.12,27.12,0,0,0-10.44-15.78,17.92,17.92,0,0,0-12.67-3.26,18.18,18.18,0,0,0-3.39.82c-11,3.88-17,18.35-13.46,32.26a27.15,27.15,0,0,0,10.43,15.78c.4.27.81.53,1.22.78a17.67,17.67,0,0,0,11.44,2.47,18.09,18.09,0,0,0,3.4-.82c5.71-2,10.09-6.88,12.48-13A31.75,31.75,0,0,0,162.78,389.11Zm-1.64,19.2c-2.34,5.86-6.54,10.48-12,12.41a15.89,15.89,0,0,1-3.27.79,16.94,16.94,0,0,1-10.9-2.3c-.46-.26-.93-.55-1.38-.86a26.44,26.44,0,0,1-10.18-15.41c-3.5-13.56,2.36-27.65,13.06-31.41a15.87,15.87,0,0,1,3.27-.78A17.31,17.31,0,0,1,152,373.9a26.47,26.47,0,0,1,10.18,15.41A30.83,30.83,0,0,1,161.14,408.31Z"/><path class="cls-16" d="M161.14,408.31c-2.34,5.86-6.54,10.48-12,12.41a15.89,15.89,0,0,1-3.27.79,16.94,16.94,0,0,1-10.9-2.3,35.46,35.46,0,0,1,6.2-5,12.65,12.65,0,0,0,1.84-.13,11.29,11.29,0,0,0,1.14-.19c1.16-.24,2.31-.6,3.46-.95a17.86,17.86,0,0,0,4.54-2.22,13,13,0,0,0,2.19-1.75A36,36,0,0,1,161.14,408.31Z"/><path class="cls-15" d="M156.34,405.33a5.15,5.15,0,0,1-.85,2.17,9.25,9.25,0,0,1-1.16,1.44,13,13,0,0,1-2.19,1.75,17.86,17.86,0,0,1-4.54,2.22c-1.15.35-2.3.71-3.46.95a11.29,11.29,0,0,1-1.14.19,12.65,12.65,0,0,1-1.84.13,10.83,10.83,0,0,1-2-.18,5.73,5.73,0,0,1-2.85-1.28,4.13,4.13,0,0,1-1.3-3.36,13.67,13.67,0,0,1,3-7.49,8.24,8.24,0,0,1,3.51-2.43c.69-.23,4.28-1.44,5.42-1.64l.23,0a7.38,7.38,0,0,1,4.55,1,12.11,12.11,0,0,1,3.56,3.21A4.34,4.34,0,0,1,156.34,405.33Z"/><path class="cls-15" d="M140.32,380.5a5.38,5.38,0,0,0-1,.24c-3.5,1.21-5.46,6-4.29,10.69,1.08,4.32,4.3,7,7.58,6.59a5.52,5.52,0,0,0,1-.25c3.52-1.22,5.43-6,4.26-10.73-1.06-4.28-4.3-7-7.56-6.54Z"/><path class="cls-10" d="M309.53,443.32l-127,55.17-.58.25-16.58,7.2-3.48,1.51L144,515.21l-.56.24-17.77,7.71L119,483.63a14.67,14.67,0,0,1,8.6-15.91l156.05-68.17a14.69,14.69,0,0,1,20.37,11Z"/><path class="cls-14" d="M184.82,483.19c2.37-3.49,5.35-7.33,9.56-7.56a17,17,0,0,0,3-.11,7.05,7.05,0,0,0,2.33-1.19,38.43,38.43,0,0,0,9-8.82c.47-.64,1.08-1.37,1.86-1.29s1.08.64,1.65.92c1.9.93,3.57-1.49,5.18-2.86a11.87,11.87,0,0,1,4.58-2l19-5.38c2.84-.8,5.75-1.64,8.13-3.39s4-4.13,6.64-5.1a19.87,19.87,0,0,1,4.48-.73c4.85-.59,9.34-2.76,13.73-4.9.2-2.52,3.52-3.24,6.05-3.28"/><path class="cls-15" d="M172,482.72A17.29,17.29,0,0,0,156,480.28c-11,3.88-17.06,18.35-13.47,32.26a27.36,27.36,0,0,0,.91,2.91l.56-.24a29.88,29.88,0,0,1-.89-2.87c-3.49-13.57,2.36-27.66,13.06-31.42a15.8,15.8,0,0,1,3.28-.78,17.29,17.29,0,0,1,12.27,3.15,26.49,26.49,0,0,1,10.19,15.41v0l.58-.25A27.12,27.12,0,0,0,172,482.72Z"/><path class="cls-15" d="M165.32,505.94l-3.48,1.51c-3.12.15-6.11-2.51-7.14-6.64-1.16-4.67.79-9.47,4.29-10.68a4.58,4.58,0,0,1,1-.24c3.26-.44,6.5,2.27,7.56,6.54C168.49,500.13,167.51,503.91,165.32,505.94Z"/><path class="cls-5" d="M72.84,219.75l.45,2.69a14.69,14.69,0,0,0,20.37,11l156.06-68.15a14.71,14.71,0,0,0,8.61-15.91l-1.71-10.1-9.93-58.7a14.68,14.68,0,0,0-20.36-11l-156,68.16a14.69,14.69,0,0,0-8.61,15.91l11.17,66.1"/><path class="cls-5" d="M92.53,328.89l.46,2.7a14.68,14.68,0,0,0,20.36,11l156.06-68.15A14.71,14.71,0,0,0,278,258.54l-1.71-10.1-9.92-58.7a14.7,14.7,0,0,0-20.37-11L90,246.88a14.69,14.69,0,0,0-8.61,15.91l11.17,66.1"/><path class="cls-5" d="M110.44,440.33l.46,2.7a14.7,14.7,0,0,0,20.37,11L287.33,385.9a14.71,14.71,0,0,0,8.6-15.92l-1.7-10.1-9.93-58.7a14.7,14.7,0,0,0-20.37-11l-156,68.17a14.69,14.69,0,0,0-8.61,15.91l11.17,66.09"/><path class="cls-5" d="M304,410.57a14.69,14.69,0,0,0-20.37-11l-156,68.17a14.67,14.67,0,0,0-8.6,15.91l6.68,39.53,17.77-7.71.56-.24,17.86-7.76,3.48-1.51,16.58-7.2.58-.25,127-55.17Z"/><path class="cls-18" d="M308.42,64.92s-9.69,8.62-17.81,2.92,6.27-4.84,8.79-1.09-3.2,12.64-16.89,10.31-2.19-7.16,4.21-3.9-.6,10.31-12.45,11.08"/><path class="cls-18" d="M327.15,454.25s-13-2.37-13.48-12.1,7.82,2,6.37,6.19-12.16,5.08-18.84-7,4.39-6,5.77.94-8.67,5.72-16.69-3"/><path class="cls-18" d="M313.29,277.12s15.13,10.42,10.34-4.32c-4.16-12.8-14.07,6.53,9.74,8.89"/><path class="cls-18" d="M517.3,81.14s-10.91,15.48-14-.15c-2.67-13.56,19.43.82-5.77,12"/><path class="cls-18" d="M516.05,278.06s9.25-4,6.56-10.48-5.39,2.79-3,5.26,11,1,12.32-8.17-5.27-3.05-4.15,1.73,8.48,2.05,11.9-5.2"/><polyline class="cls-5" points="385.88 215.66 394.75 218.25 401.54 200.85"/><line class="cls-5" x1="419.82" y1="414.51" x2="409.6" y2="318.66"/></g></svg>