<svg id="Layer_1" data-name="Layer 1" xmlns="http://www.w3.org/2000/svg" viewBox="0 0 600 600"><defs><style>.cls-1{fill:#90acf1;}.cls-2{fill:#c5cde7;}.cls-3{fill:#fff;}.cls-4{fill:#424242;}.cls-5{fill:#aec341;}.cls-6{fill:#c2dc8f;}.cls-7{fill:#d2916e;}.cls-8{fill:#f8c469;}.cls-9{opacity:0.2;}.cls-10{opacity:0.29;}.cls-11{fill:#5e5e5e;}.cls-12{fill:#b47d64;}</style></defs><title>loc nhom</title><g id="lọc_group" data-name="lọc group"><circle class="cls-1" cx="402.18" cy="206.08" r="152.55"/><circle class="cls-2" cx="402.18" cy="206.08" r="138.65"/><path class="cls-3" d="M358,257.14c-1.28-18.7,14.11-43.74,43.31-44.66a44.34,44.34,0,0,1,46.15,44.66Z"/><path class="cls-3" d="M376.81,180.51a25.67,25.67,0,1,1,25.6,25.75A25.62,25.62,0,0,1,376.81,180.51Z"/><path class="cls-3" d="M349.82,257.21H297.4c-1.49-13,7.26-27.41,20-33.22,12.95-5.9,31.43-3.54,39.43,5.13C351.63,237.64,349.84,247.09,349.82,257.21Z"/><path class="cls-3" d="M507,257.36H455.14c-.11-10-1.59-19.63-7-28.18,7-7.69,23.78-11.54,37.68-5.76C499.22,229,508.42,243.59,507,257.36Z"/><path class="cls-3" d="M332.82,211.71a19.66,19.66,0,1,1,19.72-19.44A19.62,19.62,0,0,1,332.82,211.71Z"/><path class="cls-3" d="M471.24,215a19.67,19.67,0,1,1,19.64-19.5A19.6,19.6,0,0,1,471.24,215Z"/><path class="cls-4" d="M402.18,361.89c-85.91,0-155.81-69.9-155.81-155.81s69.9-155.8,155.81-155.8S558,120.17,558,206.08,488.09,361.89,402.18,361.89Zm0-305.11c-82.33,0-149.31,67-149.31,149.3s67,149.31,149.31,149.31,149.3-67,149.3-149.31S484.5,56.78,402.18,56.78Z"/><circle class="cls-5" cx="297.23" cy="254.47" r="152.55"/><circle class="cls-6" cx="297.23" cy="254.47" r="138.65"/><path class="cls-3" d="M253.05,305.52c-1.29-18.69,14.1-43.73,43.31-44.65a44.35,44.35,0,0,1,46.15,44.65Z"/><path class="cls-3" d="M271.86,228.89a25.68,25.68,0,1,1,25.6,25.76A25.64,25.64,0,0,1,271.86,228.89Z"/><path class="cls-3" d="M244.88,305.6H192.45c-1.48-13,7.27-27.41,20-33.22,12.95-5.9,31.43-3.54,39.43,5.13C246.69,286,244.89,295.48,244.88,305.6Z"/><path class="cls-3" d="M402,305.75H350.19c-.1-10-1.58-19.63-7-28.18,7-7.69,23.79-11.54,37.68-5.76C394.28,277.38,403.48,292,402,305.75Z"/><path class="cls-3" d="M227.88,260.1a19.66,19.66,0,1,1,19.72-19.44A19.63,19.63,0,0,1,227.88,260.1Z"/><path class="cls-3" d="M366.3,263.38a19.66,19.66,0,1,1,19.63-19.49A19.58,19.58,0,0,1,366.3,263.38Z"/><path class="cls-4" d="M297.23,410.28c-85.91,0-155.8-69.9-155.8-155.81s69.89-155.8,155.8-155.8S453,168.56,453,254.47,383.14,410.28,297.23,410.28Zm0-305.11c-82.32,0-149.3,67-149.3,149.3s67,149.3,149.3,149.3,149.3-67,149.3-149.3S379.56,105.17,297.23,105.17Z"/><circle class="cls-7" cx="198.51" cy="313.64" r="152.55"/><circle class="cls-8" cx="198.51" cy="313.64" r="138.65"/><path class="cls-3" d="M154.33,364.7C153,346,168.43,321,197.64,320a44.35,44.35,0,0,1,46.15,44.66Z"/><path class="cls-3" d="M173.15,288.07a25.67,25.67,0,1,1,25.59,25.75A25.62,25.62,0,0,1,173.15,288.07Z"/><path class="cls-3" d="M146.16,364.77H93.73c-1.48-13,7.27-27.41,20-33.22,13-5.9,31.43-3.54,39.43,5.13C148,345.2,146.18,354.65,146.16,364.77Z"/><path class="cls-3" d="M303.31,364.92H251.47c-.1-10-1.58-19.63-7-28.18,6.95-7.69,23.78-11.54,37.67-5.76C295.56,336.55,304.76,351.15,303.31,364.92Z"/><path class="cls-3" d="M129.16,319.27a19.66,19.66,0,1,1,19.72-19.43A19.63,19.63,0,0,1,129.16,319.27Z"/><path class="cls-3" d="M267.58,322.56a19.67,19.67,0,1,1,19.64-19.5A19.59,19.59,0,0,1,267.58,322.56Z"/><path class="cls-4" d="M198.51,469.45c-85.91,0-155.8-69.89-155.8-155.81s69.89-155.8,155.8-155.8,155.81,69.89,155.81,155.8S284.42,469.45,198.51,469.45Zm0-305.11c-82.32,0-149.3,67-149.3,149.3S116.19,463,198.51,463s149.31-67,149.31-149.31S280.84,164.34,198.51,164.34Z"/><path class="cls-4" d="M409.07,242.67a133.8,133.8,0,1,0,39.19,94.62A132.88,132.88,0,0,0,409.07,242.67ZM314.46,464.05c-69.9,0-126.77-56.88-126.77-126.76A126.92,126.92,0,0,1,314.46,210.51c69.9,0,126.76,56.88,126.76,126.78A126.91,126.91,0,0,1,314.46,464.05Zm94.61-221.38a133.8,133.8,0,1,0,39.19,94.62A132.88,132.88,0,0,0,409.07,242.67ZM314.46,464.05c-69.9,0-126.77-56.88-126.77-126.76A126.92,126.92,0,0,1,314.46,210.51c69.9,0,126.76,56.88,126.76,126.78A126.91,126.91,0,0,1,314.46,464.05ZM489.34,479.3l-52.18-47.89a155.55,155.55,0,1,0-14,15.81l51.88,47.61a3.51,3.51,0,0,0,2.38.92,3.47,3.47,0,0,0,2.6-1.14l9.49-10.33a3.52,3.52,0,0,0-.21-5Zm-12.08,8-51.8-47.53a3.53,3.53,0,0,0-4.91.15,146.41,146.41,0,0,1-106.09,45c-81.39,0-147.61-66.21-147.61-147.58s66.22-147.61,147.61-147.61,147.6,66.21,147.6,147.61a145.83,145.83,0,0,1-32.43,92.3,3.51,3.51,0,0,0,.37,4.8l52,47.71Zm-68.19-244.6a133.8,133.8,0,1,0,39.19,94.62A132.88,132.88,0,0,0,409.07,242.67ZM314.46,464.05c-69.9,0-126.77-56.88-126.77-126.76A126.92,126.92,0,0,1,314.46,210.51c69.9,0,126.76,56.88,126.76,126.78A126.91,126.91,0,0,1,314.46,464.05Z"/><g class="cls-9"><path class="cls-3" d="M441.22,337.29c0,.29,0,.57,0,.86A126.87,126.87,0,0,1,315.32,464c-.28,0-.57,0-.86,0a127.83,127.83,0,0,1-38.29-5.92,126.85,126.85,0,0,1-87.78-107.67v0a123.92,123.92,0,0,1-.7-13.15A126.92,126.92,0,0,1,314.46,210.51,126.51,126.51,0,0,1,386,232.69,127.41,127.41,0,0,1,434.67,297a127.34,127.34,0,0,1,6.55,40.26Z"/></g><g class="cls-9"><path class="cls-3" d="M430,298.58,277.65,453.48A122.37,122.37,0,0,1,215,407.71l168.23-171A122.43,122.43,0,0,1,430,298.58Z"/><path class="cls-3" d="M436.33,337.29c0,.27,0,.55,0,.83l-121,121h-.83A120,120,0,0,1,297.61,458L435.16,320.44A120,120,0,0,1,436.33,337.29Z"/><path class="cls-3" d="M327.14,216.06,193.25,349.94a120.09,120.09,0,0,1-.67-12.65,122,122,0,0,1,121.88-121.9A120.8,120.8,0,0,1,327.14,216.06Z"/></g><path class="cls-3" d="M482.91,486.3l-5.44,5.94-54.39-49.9A151.13,151.13,0,0,1,193.2,247.07l16.35,13A130.28,130.28,0,0,0,413.62,421.77h0Z"/><g class="cls-10"><path class="cls-11" d="M482.91,486.3l-5.44,5.94-54.39-49.9A151.13,151.13,0,0,1,193.2,247.07l16.35,13A130.28,130.28,0,0,0,413.62,421.77h0Z"/></g><path class="cls-3" d="M432.37,431.8A151.13,151.13,0,1,0,193.2,247.07l16.35,13A130.28,130.28,0,1,1,413.62,421.77h0l69.28,64.52,4-4.41Z"/><path class="cls-4" d="M521.9,547.2a2.92,2.92,0,0,1-2-.76l-74.79-67.65a2.91,2.91,0,0,1-1-2,3,3,0,0,1,.75-2.12l21.71-24a2.9,2.9,0,0,1,4.13-.21l74.8,67.65a2.94,2.94,0,0,1,.21,4.14l-21.71,24A2.92,2.92,0,0,1,521.9,547.2Zm-70.65-70.79,70.44,63.72,17.77-19.65L469,456.76Z"/><polygon class="cls-7" points="543.6 520.27 531.37 533.8 521.9 544.27 447.11 476.62 457.44 465.19 468.81 452.62 543.6 520.27"/><polygon class="cls-12" points="531.37 533.8 521.9 544.27 447.11 476.62 457.44 465.19 531.37 533.8"/><path class="cls-4" d="M521.9,548.9a4.64,4.64,0,0,1-3.11-1.2L444,480.05a4.55,4.55,0,0,1-1.52-3.2,4.62,4.62,0,0,1,1.19-3.34l2.57-2.84-23-21.11a156.37,156.37,0,1,1,16.21-18.35l23.22,21.3,2.71-3a4.55,4.55,0,0,1,3.2-1.52,4.67,4.67,0,0,1,3.34,1.19l74.79,67.65a4.63,4.63,0,0,1,.33,6.53l-21.71,24A4.65,4.65,0,0,1,521.9,548.9ZM423.2,445.52a1.7,1.7,0,0,1,1.15.45l25.43,23.34a1.69,1.69,0,0,1,.11,2.39l-3.7,4.09a1.22,1.22,0,0,0-.31.89,1.2,1.2,0,0,0,.4.85l74.79,67.65a1.26,1.26,0,0,0,1.74-.09l21.71-24a1.24,1.24,0,0,0-.09-1.74l-74.8-67.65a1.25,1.25,0,0,0-.88-.32,1.21,1.21,0,0,0-.85.41L464,456.06a1.69,1.69,0,0,1-2.41.11L436,432.66a1.7,1.7,0,0,1-.2-2.29A153.6,153.6,0,1,0,422,446,1.67,1.67,0,0,1,423.2,445.52Z"/></g></svg>