<svg id="Layer_1" data-name="Layer 1" xmlns="http://www.w3.org/2000/svg" viewBox="0 0 600 600"><defs><style>.cls-1{fill:#aec341;}.cls-2{fill:#c2dc8f;}.cls-3{fill:#424242;}.cls-4{fill:none;stroke:#424242;stroke-linecap:round;stroke-linejoin:round;stroke-width:5px;}.cls-5{fill:#fff;}.cls-6{fill:#90acf1;}.cls-7{opacity:0.3;}.cls-8{fill:#f8c469;}.cls-9{opacity:0.4;}.cls-10{fill:#606060;}.cls-11{opacity:0.5;}.cls-12{fill:#d2916e;}.cls-13{fill:#aec8f8;}.cls-14{opacity:0.2;}.cls-15{opacity:0.29;}.cls-16{fill:#5e5e5e;}.cls-17{fill:#b47d64;}</style></defs><title>loc trang</title><g id="lọc_trang" data-name="lọc trang"><path class="cls-1" d="M511.31,319.14v42.77a23.87,23.87,0,0,1-23.87,23.86H82.56a23.87,23.87,0,0,1-23.87-23.86V319.14Z"/><path class="cls-2" d="M511.31,237.28v81.86H58.69V230.56a17.15,17.15,0,0,1,17.16-17.15H487.44A23.87,23.87,0,0,1,511.31,237.28Z"/><path class="cls-3" d="M448.86,267.16H268.62a2.36,2.36,0,0,1,0-4.72H448.86a2.36,2.36,0,0,1,0,4.72Z"/><path class="cls-3" d="M448.86,284.21H268.62a2.36,2.36,0,0,1,0-4.72H448.86a2.36,2.36,0,0,1,0,4.72Z"/><circle class="cls-3" cx="292.21" cy="339.49" r="5.01"/><circle class="cls-3" cx="273.63" cy="339.49" r="5.01"/><circle class="cls-3" cx="310.79" cy="339.49" r="5.01"/><path class="cls-3" d="M341.28,304.61H268.62a2.36,2.36,0,0,1,0-4.72h72.66a2.36,2.36,0,0,1,0,4.72Z"/><path class="cls-3" d="M431.92,304.61H356.43a2.36,2.36,0,0,1,0-4.72h75.49a2.36,2.36,0,0,1,0,4.72Z"/><path class="cls-4" d="M487.44,213.41H75.85a17.15,17.15,0,0,0-17.16,17.15V361.9a23.87,23.87,0,0,0,23.87,23.87H487.44a23.87,23.87,0,0,0,23.87-23.87V237.28A23.87,23.87,0,0,0,487.44,213.41Z"/><circle class="cls-5" cx="192.12" cy="299.59" r="61.97"/><rect class="cls-6" x="165.24" y="273.16" width="6.03" height="28.86"/><path class="cls-6" d="M171.27,261v4.55h-6V261a1.48,1.48,0,0,1,1-1.41h0a1.54,1.54,0,0,1,.43-.06h3.07A1.48,1.48,0,0,1,171.27,261Z"/><rect class="cls-6" x="165.24" y="310.46" width="6.03" height="32.75"/><g class="cls-7"><path class="cls-5" d="M166.72,259.5v6h-1.48V261a1.48,1.48,0,0,1,1-1.41h0Z"/></g><g class="cls-7"><rect class="cls-5" x="165.24" y="273.16" width="1.48" height="28.86"/></g><g class="cls-7"><rect class="cls-5" x="165.24" y="310.46" width="1.48" height="32.75"/></g><polygon class="cls-8" points="232.09 311.53 162.1 311.53 162.1 305.15 174.55 305.15 174.55 289.63 224.13 289.63 232.09 311.53"/><g class="cls-9"><rect class="cls-10" x="165.24" y="309.87" width="6.03" height="6.03"/></g><g class="cls-9"><rect class="cls-10" x="165.24" y="271.24" width="6.03" height="6.03"/></g><polygon class="cls-8" points="224.13 289.63 232.09 311.53 162.1 311.53 162.1 305.15 174.55 305.15 174.55 274.09 162.1 274.09 162.1 267.72 232.09 267.72 224.13 289.63"/><g class="cls-11"><polygon class="cls-12" points="232.09 311.53 162.1 311.53 162.1 305.15 174.55 305.15 174.55 289.63 224.13 289.63 232.09 311.53"/></g><path class="cls-3" d="M171.27,266h-6a.46.46,0,0,1-.45-.46V261a1.92,1.92,0,0,1,1.36-1.85h0a2.09,2.09,0,0,1,.55-.08h3.07a1.94,1.94,0,0,1,1.94,1.94v4.55A.47.47,0,0,1,171.27,266Zm-5.57-.92h5.11V261a1,1,0,0,0-1-1h-3.07a1,1,0,0,0-.3,0h0a1,1,0,0,0-.71,1Z"/><path class="cls-3" d="M171.27,343.67h-6a.46.46,0,0,1-.45-.46V312h-2.68a.45.45,0,0,1-.46-.45v-6.37a.45.45,0,0,1,.46-.46h12V274.55h-2.36V302a.47.47,0,0,1-.46.46h-6a.46.46,0,0,1-.45-.46V274.55h-2.68a.45.45,0,0,1-.46-.46v-6.37a.46.46,0,0,1,.46-.46h70a.48.48,0,0,1,.38.2.48.48,0,0,1,.05.42l-7.9,21.74,7.9,21.75a.45.45,0,0,1-.43.61H171.73v31.23A.47.47,0,0,1,171.27,343.67Zm-5.57-.92h5.11V311.53a.46.46,0,0,1,.46-.46h60.17l-7.74-21.29a.42.42,0,0,1,0-.31l7.74-21.29H162.56v5.45h2.68a.46.46,0,0,1,.46.46v27.47h5.11V274.09a.47.47,0,0,1,.46-.46h3.28a.47.47,0,0,1,.46.46v31.07a.46.46,0,0,1-.46.45h-12v5.46h2.68a.45.45,0,0,1,.46.46Z"/><path class="cls-3" d="M171.27,312h-6a.46.46,0,0,1,0-.91h6a.46.46,0,1,1,0,.91Z"/><path class="cls-3" d="M171.27,274.55h-6a.45.45,0,0,1-.45-.46.46.46,0,0,1,.45-.46h6a.47.47,0,0,1,.46.46A.46.46,0,0,1,171.27,274.55Z"/><path class="cls-1" d="M511.31,319.14v42.77a23.87,23.87,0,0,1-23.87,23.86H82.56a23.87,23.87,0,0,1-23.87-23.86V319.14Z"/><path class="cls-2" d="M511.31,237.28v81.86H58.69V230.56a17.15,17.15,0,0,1,17.16-17.15H487.44A23.87,23.87,0,0,1,511.31,237.28Z"/><path class="cls-3" d="M448.86,267.16H268.62a2.36,2.36,0,0,1,0-4.72H448.86a2.36,2.36,0,0,1,0,4.72Z"/><path class="cls-3" d="M448.86,284.21H268.62a2.36,2.36,0,0,1,0-4.72H448.86a2.36,2.36,0,0,1,0,4.72Z"/><circle class="cls-3" cx="292.21" cy="339.49" r="5.01"/><circle class="cls-3" cx="273.63" cy="339.49" r="5.01"/><circle class="cls-3" cx="310.79" cy="339.49" r="5.01"/><path class="cls-3" d="M341.28,304.61H268.62a2.36,2.36,0,0,1,0-4.72h72.66a2.36,2.36,0,0,1,0,4.72Z"/><path class="cls-3" d="M431.92,304.61H356.43a2.36,2.36,0,0,1,0-4.72h75.49a2.36,2.36,0,0,1,0,4.72Z"/><path class="cls-3" d="M487.44,388.72H82.56a26.85,26.85,0,0,1-26.82-26.81V230.56a20.13,20.13,0,0,1,20.11-20.1H487.44a26.85,26.85,0,0,1,26.82,26.82V361.91A26.85,26.85,0,0,1,487.44,388.72ZM75.85,216.36a14.22,14.22,0,0,0-14.21,14.2V361.91a21,21,0,0,0,20.92,20.91H487.44a20.94,20.94,0,0,0,20.92-20.91V237.28a20.94,20.94,0,0,0-20.92-20.92Z"/><circle class="cls-5" cx="188.77" cy="299.59" r="65.32"/><rect class="cls-6" x="160.44" y="271.74" width="6.35" height="30.42"/><path class="cls-6" d="M166.8,258.89v4.8h-6.36v-4.8a1.56,1.56,0,0,1,1.1-1.49h0a1.63,1.63,0,0,1,.45-.07h3.24A1.56,1.56,0,0,1,166.8,258.89Z"/><rect class="cls-6" x="160.44" y="311.05" width="6.35" height="34.52"/><g class="cls-7"><path class="cls-5" d="M162,257.33v6.36h-1.56v-4.8a1.56,1.56,0,0,1,1.1-1.49h0Z"/></g><g class="cls-7"><rect class="cls-5" x="160.44" y="271.74" width="1.56" height="30.42"/></g><g class="cls-7"><rect class="cls-5" x="160.44" y="311.05" width="1.56" height="34.52"/></g><polygon class="cls-8" points="230.91 312.17 157.13 312.17 157.13 305.46 170.25 305.46 170.25 289.09 222.51 289.09 230.91 312.17"/><g class="cls-9"><rect class="cls-10" x="160.44" y="310.43" width="6.35" height="6.35"/></g><g class="cls-9"><rect class="cls-10" x="160.44" y="269.71" width="6.35" height="6.35"/></g><polygon class="cls-8" points="222.51 289.09 230.91 312.17 157.13 312.17 157.13 305.46 170.25 305.46 170.25 272.71 157.13 272.71 157.13 266 230.91 266 222.51 289.09"/><g class="cls-11"><polygon class="cls-12" points="230.91 312.17 157.13 312.17 157.13 305.46 170.25 305.46 170.25 289.09 222.51 289.09 230.91 312.17"/></g><path class="cls-3" d="M166.8,264.17h-6.36a.49.49,0,0,1-.48-.48v-4.8a2,2,0,0,1,1.43-1.95h0a2,2,0,0,1,.58-.09h3.24a2,2,0,0,1,2,2v4.8A.49.49,0,0,1,166.8,264.17Zm-5.87-1h5.38v-4.32a1.07,1.07,0,0,0-1.07-1.07H162a1.1,1.1,0,0,0-.31,0h0a1.05,1.05,0,0,0-.74,1Z"/><path class="cls-3" d="M166.8,346.05h-6.36a.49.49,0,0,1-.48-.49V312.65h-2.82a.48.48,0,0,1-.49-.48v-6.71a.49.49,0,0,1,.49-.49h12.63V273.2h-2.49v28.95a.49.49,0,0,1-.48.49h-6.36a.49.49,0,0,1-.48-.49V273.2h-2.82a.49.49,0,0,1-.49-.49V266a.48.48,0,0,1,.49-.48h73.77a.47.47,0,0,1,.39.2.51.51,0,0,1,.06.45L223,289.09,231.36,312a.49.49,0,0,1-.06.44.47.47,0,0,1-.39.2H167.28v32.91A.49.49,0,0,1,166.8,346.05Zm-5.87-1h5.38V312.17a.49.49,0,0,1,.49-.48h63.42l-8.16-22.44a.47.47,0,0,1,0-.33l8.16-22.44h-72.6v5.75h2.82a.49.49,0,0,1,.49.48v29h5.38v-29a.49.49,0,0,1,.49-.48h3.45a.48.48,0,0,1,.48.48v32.75a.48.48,0,0,1-.48.48H157.62v5.75h2.82a.49.49,0,0,1,.49.48Z"/><path class="cls-3" d="M166.8,312.65h-6.36a.48.48,0,0,1-.48-.48.49.49,0,0,1,.48-.48h6.36a.49.49,0,0,1,.48.48A.48.48,0,0,1,166.8,312.65Z"/><path class="cls-3" d="M166.8,273.2h-6.36a.49.49,0,0,1,0-1h6.36a.49.49,0,0,1,0,1Z"/><path class="cls-6" d="M465.28,487.27v34.06a19,19,0,0,1-19,19H123.75a19,19,0,0,1-19-19V487.27Z"/><path class="cls-13" d="M465.28,422.06v65.21H104.73V416.71A13.67,13.67,0,0,1,118.4,403H446.26A19,19,0,0,1,465.28,422.06Z"/><path class="cls-3" d="M415.53,445.86H272a1.88,1.88,0,0,1,0-3.76H415.53a1.88,1.88,0,1,1,0,3.76Z"/><path class="cls-3" d="M415.53,459.44H272a1.88,1.88,0,0,1,0-3.76H415.53a1.88,1.88,0,1,1,0,3.76Z"/><circle class="cls-3" cx="290.74" cy="503.48" r="3.99"/><circle class="cls-3" cx="275.94" cy="503.48" r="3.99"/><circle class="cls-3" cx="305.54" cy="503.48" r="3.99"/><path class="cls-3" d="M329.83,475.69H272a1.88,1.88,0,0,1,0-3.76h57.88a1.88,1.88,0,0,1,0,3.76Z"/><path class="cls-3" d="M402,475.69H341.9a1.88,1.88,0,0,1,0-3.76H402a1.88,1.88,0,0,1,0,3.76Z"/><path class="cls-3" d="M446.26,542.69H123.75a21.38,21.38,0,0,1-21.37-21.36V416.71a16,16,0,0,1,16-16H446.26a21.4,21.4,0,0,1,21.37,21.37v99.27A21.39,21.39,0,0,1,446.26,542.69ZM118.4,405.39a11.34,11.34,0,0,0-11.32,11.32V521.33A16.68,16.68,0,0,0,123.75,538H446.26a16.68,16.68,0,0,0,16.67-16.66V422.06a16.69,16.69,0,0,0-16.67-16.67Z"/><circle class="cls-5" cx="211.02" cy="471.69" r="49.36"/><rect class="cls-6" x="189.61" y="450.64" width="4.8" height="22.99"/><path class="cls-6" d="M194.41,440.94v3.62h-4.8v-3.62a1.18,1.18,0,0,1,.82-1.13h0a1.27,1.27,0,0,1,.34-.05h2.45A1.18,1.18,0,0,1,194.41,440.94Z"/><rect class="cls-6" x="189.61" y="480.36" width="4.8" height="26.08"/><g class="cls-7"><path class="cls-5" d="M190.78,439.76v4.8h-1.17v-3.62a1.18,1.18,0,0,1,.82-1.13h0Z"/></g><g class="cls-7"><rect class="cls-5" x="189.61" y="450.64" width="1.18" height="22.99"/></g><g class="cls-7"><rect class="cls-5" x="189.61" y="480.36" width="1.18" height="26.08"/></g><polygon class="cls-8" points="242.86 481.2 187.11 481.2 187.11 476.13 197.02 476.13 197.02 463.76 236.51 463.76 242.86 481.2"/><g class="cls-9"><rect class="cls-10" x="189.61" y="479.88" width="4.8" height="4.8"/></g><g class="cls-9"><rect class="cls-10" x="189.61" y="449.11" width="4.8" height="4.8"/></g><polygon class="cls-8" points="236.51 463.76 242.86 481.2 187.11 481.2 187.11 476.13 197.02 476.13 197.02 451.38 187.11 451.38 187.11 446.31 242.86 446.31 236.51 463.76"/><g class="cls-11"><polygon class="cls-12" points="242.86 481.2 187.11 481.2 187.11 476.13 197.02 476.13 197.02 463.76 236.51 463.76 242.86 481.2"/></g><path class="cls-3" d="M194.41,444.93h-4.8a.37.37,0,0,1-.37-.37v-3.62a1.55,1.55,0,0,1,1.09-1.48h0a1.59,1.59,0,0,1,.43-.06h2.45a1.54,1.54,0,0,1,1.54,1.54v3.62A.37.37,0,0,1,194.41,444.93ZM190,444.2H194v-3.26a.82.82,0,0,0-.81-.82h-2.45a.85.85,0,0,0-.23,0h0a.82.82,0,0,0-.56.78Z"/><path class="cls-3" d="M194.41,506.8h-4.8a.36.36,0,0,1-.37-.36V481.57h-2.13a.37.37,0,0,1-.37-.37v-5.07a.37.37,0,0,1,.37-.37h9.54v-24h-1.88v21.88a.37.37,0,0,1-.36.37h-4.8a.37.37,0,0,1-.37-.37V451.75h-2.13a.36.36,0,0,1-.37-.37v-5.07a.37.37,0,0,1,.37-.37h55.75a.37.37,0,0,1,.3.16.39.39,0,0,1,0,.33l-6.3,17.33,6.3,17.32a.38.38,0,0,1,0,.33.37.37,0,0,1-.3.16H194.77v24.87A.36.36,0,0,1,194.41,506.8Zm-4.44-.73H194V481.2a.37.37,0,0,1,.37-.36h47.93l-6.17-17a.36.36,0,0,1,0-.25l6.17-17H187.47V451h2.14a.36.36,0,0,1,.36.36v21.89H194V451.38a.37.37,0,0,1,.37-.36H197a.36.36,0,0,1,.36.36v24.75a.36.36,0,0,1-.36.36h-9.55v4.35h2.14a.36.36,0,0,1,.36.36Z"/><path class="cls-3" d="M194.41,481.57h-4.8a.37.37,0,0,1-.37-.37.36.36,0,0,1,.37-.36h4.8a.36.36,0,0,1,.36.36A.37.37,0,0,1,194.41,481.57Z"/><path class="cls-3" d="M194.41,451.75h-4.8a.37.37,0,1,1,0-.73h4.8a.37.37,0,0,1,0,.73Z"/><path class="cls-12" d="M465.28,143.06v34.06a19,19,0,0,1-19,19H123.75a19,19,0,0,1-19-19V143.06Z"/><path class="cls-8" d="M465.28,77.85v65.21H104.73V72.5A13.67,13.67,0,0,1,118.4,58.83H446.26A19,19,0,0,1,465.28,77.85Z"/><path class="cls-3" d="M415.53,101.65H272a1.88,1.88,0,1,1,0-3.76H415.53a1.88,1.88,0,1,1,0,3.76Z"/><path class="cls-3" d="M415.53,115.23H272a1.88,1.88,0,1,1,0-3.76H415.53a1.88,1.88,0,1,1,0,3.76Z"/><circle class="cls-3" cx="290.74" cy="159.27" r="3.99"/><circle class="cls-3" cx="275.94" cy="159.27" r="3.99"/><circle class="cls-3" cx="305.54" cy="159.27" r="3.99"/><path class="cls-3" d="M329.83,131.48H272a1.88,1.88,0,0,1,0-3.76h57.88a1.88,1.88,0,0,1,0,3.76Z"/><path class="cls-3" d="M402,131.48H341.9a1.88,1.88,0,0,1,0-3.76H402a1.88,1.88,0,0,1,0,3.76Z"/><path class="cls-3" d="M446.26,198.48H123.75a21.38,21.38,0,0,1-21.37-21.36V72.5a16,16,0,0,1,16-16H446.26a21.4,21.4,0,0,1,21.37,21.37v99.27A21.39,21.39,0,0,1,446.26,198.48ZM118.4,61.18A11.34,11.34,0,0,0,107.08,72.5V177.12a16.68,16.68,0,0,0,16.67,16.66H446.26a16.68,16.68,0,0,0,16.67-16.66V77.85a16.69,16.69,0,0,0-16.67-16.67Z"/><circle class="cls-5" cx="211.02" cy="127.48" r="49.36"/><rect class="cls-12" x="189.61" y="106.43" width="4.8" height="22.99"/><path class="cls-12" d="M194.41,96.73v3.62h-4.8V96.73a1.18,1.18,0,0,1,.82-1.13h0a1.27,1.27,0,0,1,.34,0h2.45A1.18,1.18,0,0,1,194.41,96.73Z"/><rect class="cls-12" x="189.61" y="136.14" width="4.8" height="26.08"/><g class="cls-7"><path class="cls-5" d="M190.78,95.55v4.8h-1.17V96.73a1.18,1.18,0,0,1,.82-1.13h0Z"/></g><g class="cls-7"><rect class="cls-5" x="189.61" y="106.43" width="1.18" height="22.99"/></g><g class="cls-7"><rect class="cls-5" x="189.61" y="136.14" width="1.18" height="26.08"/></g><polygon class="cls-8" points="242.86 136.99 187.11 136.99 187.11 131.92 197.02 131.92 197.02 119.55 236.51 119.55 242.86 136.99"/><g class="cls-9"><rect class="cls-10" x="189.61" y="135.67" width="4.8" height="4.8"/></g><g class="cls-9"><rect class="cls-10" x="189.61" y="104.9" width="4.8" height="4.8"/></g><polygon class="cls-8" points="236.51 119.55 242.86 136.99 187.11 136.99 187.11 131.92 197.02 131.92 197.02 107.17 187.11 107.17 187.11 102.1 242.86 102.1 236.51 119.55"/><g class="cls-11"><polygon class="cls-12" points="242.86 136.99 187.11 136.99 187.11 131.92 197.02 131.92 197.02 119.55 236.51 119.55 242.86 136.99"/></g><path class="cls-3" d="M194.41,100.72h-4.8a.37.37,0,0,1-.37-.37V96.73a1.55,1.55,0,0,1,1.09-1.48h0a1.61,1.61,0,0,1,.43-.07h2.45a1.55,1.55,0,0,1,1.54,1.55v3.62A.37.37,0,0,1,194.41,100.72ZM190,100H194V96.73a.82.82,0,0,0-.81-.82h-2.45a.85.85,0,0,0-.23,0h0a.82.82,0,0,0-.56.78Z"/><path class="cls-3" d="M194.41,162.59h-4.8a.36.36,0,0,1-.37-.36V137.36h-2.13a.37.37,0,0,1-.37-.37v-5.07a.37.37,0,0,1,.37-.37h9.54v-24h-1.88v21.88a.37.37,0,0,1-.36.37h-4.8a.37.37,0,0,1-.37-.37V107.54h-2.13a.37.37,0,0,1-.37-.37V102.1a.37.37,0,0,1,.37-.37h55.75a.37.37,0,0,1,.3.16.39.39,0,0,1,0,.33l-6.3,17.33,6.3,17.32a.39.39,0,0,1,0,.33.37.37,0,0,1-.3.16H194.77v24.87A.36.36,0,0,1,194.41,162.59Zm-4.44-.73H194V137a.37.37,0,0,1,.37-.36h47.93l-6.17-17a.36.36,0,0,1,0-.25l6.17-17H187.47v4.35h2.14a.36.36,0,0,1,.36.36v21.89H194V107.17a.37.37,0,0,1,.37-.36H197a.36.36,0,0,1,.36.36v24.75a.36.36,0,0,1-.36.36h-9.55v4.35h2.14a.36.36,0,0,1,.36.36Z"/><path class="cls-3" d="M194.41,137.36h-4.8a.37.37,0,0,1-.37-.37.36.36,0,0,1,.37-.36h4.8a.36.36,0,0,1,.36.36A.37.37,0,0,1,194.41,137.36Z"/><path class="cls-3" d="M194.41,107.54h-4.8a.37.37,0,0,1-.37-.37.36.36,0,0,1,.37-.36h4.8a.36.36,0,0,1,.36.36A.37.37,0,0,1,194.41,107.54Z"/><path class="cls-3" d="M377.73,172.73A160.27,160.27,0,1,0,424.65,286,159.21,159.21,0,0,0,377.73,172.73ZM264.41,437.86C180.7,437.86,112.6,369.74,112.6,286s68.1-151.83,151.81-151.83S416.22,202.33,416.22,286,348.13,437.86,264.41,437.86ZM377.73,172.73A160.27,160.27,0,1,0,424.65,286,159.21,159.21,0,0,0,377.73,172.73ZM264.41,437.86C180.7,437.86,112.6,369.74,112.6,286s68.1-151.83,151.81-151.83S416.22,202.33,416.22,286,348.13,437.86,264.41,437.86Zm209.45,18.26-62.5-57.35a186.43,186.43,0,1,0-16.72,18.93l62.14,57a4.2,4.2,0,0,0,2.85,1.1,4.15,4.15,0,0,0,3.11-1.36l11.36-12.38a4.25,4.25,0,0,0,1.12-3A4.32,4.32,0,0,0,473.86,456.12Zm-14.48,9.55-62-56.93a4.25,4.25,0,0,0-2.85-1.1,4.2,4.2,0,0,0-3,1.29A175.35,175.35,0,0,1,264.41,462.8C166.94,462.8,87.64,383.5,87.64,286s79.3-176.77,176.77-176.77S441.18,188.57,441.18,286a174.63,174.63,0,0,1-38.84,110.55,4.21,4.21,0,0,0,.45,5.74l62.27,57.15ZM377.73,172.73A160.27,160.27,0,1,0,424.65,286,159.21,159.21,0,0,0,377.73,172.73ZM264.41,437.86C180.7,437.86,112.6,369.74,112.6,286s68.1-151.83,151.81-151.83S416.22,202.33,416.22,286,348.13,437.86,264.41,437.86Z"/><g class="cls-14"><path class="cls-5" d="M416.22,286c0,.35,0,.7,0,1-.55,82.88-67.85,150.21-150.75,150.76-.35,0-.69,0-1,0a152.68,152.68,0,0,1-45.84-7.09,152.47,152.47,0,0,1-78-57,150.89,150.89,0,0,1-27.11-71.95v0A148.82,148.82,0,0,1,112.6,286c0-83.71,68.1-151.83,151.81-151.83a152,152,0,0,1,85.69,26.57,152.52,152.52,0,0,1,58.29,77.06,152.76,152.76,0,0,1,7.83,48.2Z"/></g><g class="cls-14"><path class="cls-5" d="M402.84,239.69,220.33,425.19a146.55,146.55,0,0,1-75-54.8L346.8,165.61A146.69,146.69,0,0,1,402.84,239.69Z"/><path class="cls-5" d="M410.37,286c0,.34,0,.67,0,1L265.41,432c-.33,0-.66,0-1,0a143,143,0,0,1-20.18-1.41L409,265.86A143,143,0,0,1,410.37,286Z"/><path class="cls-5" d="M279.6,140.86,119.25,301.19a142.78,142.78,0,0,1-.8-15.15c0-80.48,65.48-146,146-146A146.54,146.54,0,0,1,279.6,140.86Z"/></g><path class="cls-5" d="M466.16,464.51l-6.53,7.11L394.5,411.85A181,181,0,0,1,119.2,178l19.57,15.52a156,156,0,0,0,244.4,193.71h0Z"/><g class="cls-15"><path class="cls-16" d="M466.16,464.51l-6.53,7.11L394.5,411.85A181,181,0,0,1,119.2,178l19.57,15.52a156,156,0,0,0,244.4,193.71h0Z"/></g><path class="cls-5" d="M405.63,399.23A181,181,0,1,0,119.2,178l19.57,15.52a156,156,0,1,1,244.4,193.71h0l83,77.28,4.85-5.28Z"/><path class="cls-3" d="M512.85,537.44a3.5,3.5,0,0,1-2.36-.91l-89.57-81a3.46,3.46,0,0,1-1.15-2.42,3.51,3.51,0,0,1,.9-2.53l26-28.74a3.5,3.5,0,0,1,2.43-1.15,3.45,3.45,0,0,1,2.53.9l89.57,81a3.51,3.51,0,0,1,.25,5l-26,28.74A3.49,3.49,0,0,1,512.85,537.44Zm-84.62-84.78L512.6,529l21.28-23.53-84.36-76.31Z"/><polygon class="cls-12" points="538.84 505.19 524.19 521.39 512.85 533.93 423.27 452.91 435.65 439.23 449.27 424.17 538.84 505.19"/><polygon class="cls-17" points="524.19 521.39 512.85 533.93 423.27 452.91 435.65 439.23 524.19 521.39"/><path class="cls-3" d="M512.85,539.47a5.53,5.53,0,0,1-3.72-1.43l-89.58-81a5.53,5.53,0,0,1-.39-7.83l3.08-3.4-27.55-25.28a187.7,187.7,0,1,1,19.41-22L441.91,424l3.24-3.59a5.53,5.53,0,0,1,3.84-1.82,5.64,5.64,0,0,1,4,1.43l89.57,81a5.56,5.56,0,0,1,.39,7.84l-26,28.74A5.55,5.55,0,0,1,512.85,539.47ZM394.65,415.66a2,2,0,0,1,1.37.54l30.46,28a2,2,0,0,1,.13,2.86l-4.43,4.9a1.49,1.49,0,0,0-.38,1.07,1.45,1.45,0,0,0,.48,1l89.58,81a1.5,1.5,0,0,0,2.08-.11l26-28.73a1.48,1.48,0,0,0-.1-2.09l-89.57-81a1.46,1.46,0,0,0-1.06-.38,1.49,1.49,0,0,0-1,.48l-4.62,5.11a2.05,2.05,0,0,1-1.41.67,2,2,0,0,1-1.47-.54L410,400.27a2,2,0,0,1-.23-2.74,184.5,184.5,0,1,0-16.54,18.72A2.06,2.06,0,0,1,394.65,415.66Z"/></g></svg>