<svg id="Layer_1" data-name="Layer 1" xmlns="http://www.w3.org/2000/svg" viewBox="0 0 600 600"><defs><style>.cls-1{fill:#ddd;}.cls-2,.cls-6,.cls-9{fill:none;}.cls-2,.cls-4{stroke:#424242;}.cls-2,.cls-4,.cls-6,.cls-9{stroke-linecap:round;stroke-linejoin:round;}.cls-2,.cls-6{stroke-width:3px;}.cls-3{fill:#fff;}.cls-4{fill:#f8c469;stroke-width:2px;}.cls-5{opacity:0.26;}.cls-6{stroke:#c2dc8f;}.cls-7{fill:#f8ded8;}.cls-8{fill:#7a7a7a;opacity:0.2;}.cls-9{stroke:#fff;stroke-width:4px;}.cls-10{fill:#d1ebfb;}.cls-11{fill:#90acf1;}</style></defs><title>xe sach</title><g id="xé_sách" data-name="xé sách"><path class="cls-1" d="M432.45,275,475,297.37s-84.22,48.81-92.84,96.14-18.32,132.63-18.32,132.63L224,455.68s-91.65-16.91-88.57-18.14,142.73-95.37,169.81-105.21,69.86-25.23,92.15-33.23A85.12,85.12,0,0,0,432.45,275Z"/><path class="cls-2" d="M436.41,278.66,475,297.37s-84.22,48.81-92.84,96.14-18.32,132.63-18.32,132.63L224,455.68s-91.65-16.91-88.57-18.14,142.73-95.37,169.81-105.21,69.86-25.23,92.15-33.23A167.33,167.33,0,0,0,436.41,278.66Z"/><path class="cls-1" d="M467.06,280.4s-33.2,25-62.19,48.41l0,0,0,0,0,0-5.7-7c-5.79-7.1-35.42-13.63-37.6-32.16-2.08-17.64-17.47-38.35-18.93-40.29h0a.33.33,0,0,1-.06-.08l-.05-.06,10.81-4.32-3-18.19L374.35,236Z"/><path class="cls-1" d="M286.65,212.09l-1.46,4h0c-.44.25-24.08,13.65-34.88,28.23s-35.27,7.06-43.52,12.52-78.64,82.57-78.64,82.57c10.1-42.89,33-100.37,84.09-158.64h80.16L276,196.05Z"/><path class="cls-3" d="M224,461.77,111.35,448.89s6.7-66.66,16.79-109.47c0,0,70.39-77.11,78.64-82.57s32.63,2.19,43.52-12.52,34.44-28,34.88-28.23L280.12,230l8.21,25.12-13.43,16,6.93,10.54,4.82,16.74-6.86,17.69S263.87,425.55,224,461.77Z"/><path class="cls-3" d="M404.87,328.81c-20.06,16.21-39.38,42.13-47.35,83.47-19.11,99.14-12.88,109.13-12.64,109.48L224,461.77h0c.19-.87,8.89-90.17,24.5-103s56.28-66.17,56.74-67h0l-1.95-11.1,22.18-7.83L333,246.35l9.46,2.78.05.06a.33.33,0,0,0,.06.08h0c1.46,1.94,16.85,22.65,18.93,40.29,2.18,18.53,31.81,25.06,37.6,32.16l5.7,7,0,0,0,0Z"/><path class="cls-1" d="M305.24,291.72c-.46.84-33.43,47.21-43.79,70.91-9.74,22.24-34.61,99.59-34.81,100.45L224,461.77l-3.69-.43c24.5-104.6,59.48-145.22,59.48-145.22l6.86-17.69-4.82-16.74h0L291.21,296l-8.15,21.53Z"/><path class="cls-2" d="M374.35,236l-24.12-9.39,3,18.19-10.81,4.32L333,246.35l-7.51,26.43-22.18,7.83,1.95,11.1h0l-22.18,25.76L291.21,296l-9.38-14.26h0l-6.93-10.54,13.43-16L280.12,230l5.06-13.94h0l1.46-4-10.65-16,16.39-15.27H212.23c-51.11,58.27-74,115.75-84.09,158.64s-16.79,109.47-16.79,109.47l109,12.45h0l3.69.43h0l120.88,60c-.24-.35-6.47-10.34,12.64-109.48,8-41.34,27.29-67.26,47.35-83.47,29-23.42,62.19-48.41,62.19-48.41Z"/><path class="cls-4" d="M279.61,73.56,267.26,85.89a1,1,0,0,1-1.38.08L249.1,72.76a1,1,0,0,0-1.63,1.14l8.45,26.38a1,1,0,0,1-.3,1.1l-11.91,10.4a1,1,0,0,0,.92,1.79l21.91-5.06a1,1,0,0,1,.84.17l8.77,6.22a1,1,0,0,0,1.64-.85V101.48a1,1,0,0,1,.94-1l12.78-1.21a1,1,0,0,0,.53-1.86L278.36,87a1.06,1.06,0,0,1-.37-1.13l3.35-11.26A1,1,0,0,0,279.61,73.56Z"/><path class="cls-4" d="M386.7,153.05l10.19,8.42a.8.8,0,0,1,.16,1l-8.75,13.61a.79.79,0,0,0,1,1.15L408.55,169a.8.8,0,0,1,.85.15l8.71,8.22a.78.78,0,0,0,1.28-.82L414,160.38a.76.76,0,0,1,.07-.64l4.05-7.06a.79.79,0,0,0-.76-1.18l-9.47.91a.8.8,0,0,1-.85-.64l-1.83-9.54a.79.79,0,0,0-1.45-.27L396.9,153a.76.76,0,0,1-.82.35l-8.73-1.71A.79.79,0,0,0,386.7,153.05Z"/><path class="cls-4" d="M316.34,320.68l11.31,3.66a.71.71,0,0,1,.48.81l-2.8,14.27a.7.7,0,0,0,1.19.63l13.37-13.31a.71.71,0,0,1,.76-.15l10,4a.7.7,0,0,0,.8-1.11l-9.86-11.72a.68.68,0,0,1-.16-.55l1.05-7.25a.71.71,0,0,0-1-.73l-7.61,3.9a.72.72,0,0,1-.92-.25l-4.7-7.37a.7.7,0,0,0-1.29.25l-2.06,11.52a.7.7,0,0,1-.57.57l-7.87,1.47A.71.71,0,0,0,316.34,320.68Z"/><g class="cls-5"><path class="cls-6" d="M165.75,277.72S232.54,288,267.42,307.65"/><path class="cls-6" d="M154.67,295.61s79.62,10.74,104,27.11"/><path class="cls-6" d="M189.32,322.72s31,3.45,54,13.91"/><path class="cls-6" d="M212.67,275s31,3.45,54,13.91"/><path class="cls-6" d="M150,336.63s50.1,0,93.32,20.62"/><path class="cls-6" d="M263.12,369s49.84,5.16,90.7,30.13"/><path class="cls-6" d="M144.14,364.15s28-3.58,49.6,6.31"/><path class="cls-6" d="M339.12,292.2s36,7.5,52.25,27.93"/><path class="cls-6" d="M285.19,342.48s25.45,1.51,46.57,14.77"/><path class="cls-6" d="M294.92,360.69s26.94,2.32,60.87,19.58"/></g><path class="cls-7" d="M525.66,381.33l-35.39,31.29s-70-106.2-90.63-109.32c-20.26-3.07-35.32-27.25-35.79-28v0c-1.33-3.2-2.6-6.38-3.9-9.43-7.26-17.2-14.62-17.45-12.36-22.41,2.06-4.52,13.45-6.27,21.48-.81a17.05,17.05,0,0,1,2.18,1.75c7.85,7.4,14.56,20,14.77,20.38h0l4.3,3.11-11.05-33.65-22-7c3.6-3.57,13.08-11.83,21.24-9.13,4.57,1.52,9.16,3.2,12.85,4.61l7.36,6.07,4.68,14.61-2.87-17.71h0c3.18-.2,11.64,0,17.33,6.87l2.05,8.49V251l3.35-11.5-1.76-7.16h0c4.28.22,11,2.34,13.1,13.15,3.08,16.2,2.42,39.14,11.34,47.42S525.66,381.33,525.66,381.33Z"/><path class="cls-7" d="M390.31,267.88l-4.3-3.11h0L374.35,236l-14.75-5.74-3.81-1.49s.54-.61,1.48-1.54h0l22,7Z"/><path class="cls-8" d="M390.31,267.88l-4.3-3.11h0L374.35,236l-14.75-5.74-3.81-1.49s.54-.61,1.48-1.54h0l19.14,6.1a5.86,5.86,0,0,1,3.77,3.74Z"/><path class="cls-7" d="M403.41,243.39l-4.68-14.61-7.36-6.07c4.65,1.77,7.89,3.1,7.89,3.1s.47-.08,1.28-.13h0Z"/><path class="cls-8" d="M404,247.14l-5.28-18.36-7.36-6.07c4.65,1.77,7.89,3.1,7.89,3.1s.47-.08,1.28-.13h0L404,238Z"/><path class="cls-7" d="M419.92,251V241l-2.05-8.49a14.07,14.07,0,0,1,3.64-.27h0l1.76,7.16Z"/><path class="cls-8" d="M419.92,251V241l-2.05-8.49a14.07,14.07,0,0,1,3.64-.27h0l1.76,7.16Z"/><path class="cls-7" d="M490.27,412.62h0l-8.4,7.43S412,317.47,392.91,310.8c-15.65-5.48-22.93-20.71-29.06-35.5.47.75,15.53,24.93,35.79,28C420.23,306.42,490.27,412.62,490.27,412.62Z"/><path class="cls-8" d="M490.27,412.62h0l-8.4,7.43S412,317.47,392.91,310.8c-15.65-5.48-22.93-20.71-29.06-35.5.47.75,15.53,24.93,35.79,28C420.23,306.42,490.27,412.62,490.27,412.62Z"/><path class="cls-7" d="M269.66,210.24h0c-.56.37-36.52,24.08-60.87,24.67-24.53.6-117.13,69.78-117.13,69.78L70.2,264.56s94.29-50.5,105.54-55.15,18.63-26.39,27.16-40.5c5.71-9.43,12.8-9,16.87-7.75l-6.47,7.94-4.52,12.71,5.61-8.88,8.69-10.26c9.71-5.6,19.8.17,19.8.17l-5,3.66-8.2,13.81,6.57-7.52,13.39-10.09c4.2,0,9.81-.06,15.33.14,7.36.27,12.82,8.39,15.57,13.61l-21.63.9-19.25,21.3-4.84,11.6,8.57-7.73.06-.05c3.16-2.63,10.13-8.11,17.11-11.51.7-.35,1.39-.66,2.09-1a19.21,19.21,0,0,1,11.16-1c6.16,1.2,11.09,5,11.34,8.41C285.52,202.23,280,200.89,269.66,210.24Z"/><path class="cls-7" d="M249.66,162.7l-13.39,10.09-6.57,7.52,8.2-13.81,5-3.66S245.6,162.75,249.66,162.7Z"/><path class="cls-8" d="M249.66,162.7l-13.39,10.09-6.57,7.52,8.2-13.81,5-3.66S245.6,162.75,249.66,162.7Z"/><path class="cls-7" d="M223.08,162.67l-8.69,10.26-5.61,8.88,4.52-12.71,6.47-7.94A13.81,13.81,0,0,1,223.08,162.67Z"/><path class="cls-8" d="M223.08,162.67l-8.69,10.26-5.61,8.88,4.52-12.71,6.47-7.94A13.81,13.81,0,0,1,223.08,162.67Z"/><path class="cls-7" d="M269.65,210.25c-1.22,1.11-2.52,2.37-3.88,3.81-12.81,13.59-26.39,31.05-46.56,30.66s-121.46,71.4-121.46,71.4l-6.1-11.42s92.6-69.18,117.13-69.78C233.13,234.33,269.09,210.62,269.65,210.25Z"/><path class="cls-8" d="M269.65,210.25c-1.22,1.11-2.52,2.37-3.88,3.81-12.81,13.59-26.39,31.05-46.56,30.66s-121.46,71.4-121.46,71.4l-6.1-11.42s92.6-69.18,117.13-69.78C233.13,234.33,269.09,210.62,269.65,210.25Z"/><path class="cls-7" d="M262.67,181.08,241.74,204c.14-.12.73-.64,1.67-1.43l-8.57,7.73,4.84-11.6,19.25-21.3,21.63-.9a42.71,42.71,0,0,1,2,4.33Z"/><path class="cls-8" d="M262.67,181.08,241.74,204c.14-.12.73-.64,1.67-1.43l-8.57,7.73,4.84-11.6,17.49-19.35a6.26,6.26,0,0,1,4.38-2.06l19-.79a42.71,42.71,0,0,1,2,4.33Z"/><path class="cls-9" d="M383.24,166.21s-16.05,10.61-28.29,25"/><path class="cls-9" d="M405.17,181.45s-4.74,4-12.31,14.36"/><path class="cls-9" d="M264.76,116.79S277.89,133,278.27,151.2"/><path class="cls-9" d="M292.45,113.38s13.13,27.33,8.1,55.74"/><path class="cls-2" d="M446,292.85c-8.92-8.28-8.26-31.22-11.34-47.42-2.06-10.81-8.82-12.93-13.1-13.15a14.07,14.07,0,0,0-3.64.27c-5.69-6.89-14.15-7.08-17.33-6.87-.81,0-1.28.13-1.28.13s-3.24-1.33-7.89-3.1c-3.69-1.41-8.28-3.09-12.85-4.61-8.16-2.7-17.64,5.56-21.24,9.13h0c-.94.93-1.48,1.54-1.48,1.54l3.81,1.49L374.35,236,386,264.76c-.21-.39-6.92-13-14.77-20.38a17.05,17.05,0,0,0-2.18-1.75c-8-5.47-19.42-3.71-21.48.81-2.26,5,5.1,5.21,12.36,22.41,1.3,3,2.57,6.23,3.9,9.43v0c6.13,14.79,13.41,30,29.06,35.5,19,6.67,89,109.26,89,109.26l8.4-7.43h0l35.39-31.29S454.88,301.14,446,292.85Z"/><path class="cls-2" d="M273.83,189a19.21,19.21,0,0,0-11.16,1c-.7.29-1.39.6-2.09,1-7,3.4-13.95,8.88-17.11,11.51l-.06.05c-.94.79-1.53,1.31-1.67,1.43l20.93-22.87,19.91-.3a42.71,42.71,0,0,0-2-4.33c-2.75-5.22-8.21-13.34-15.57-13.61-5.52-.2-11.13-.19-15.33-.14s-6.78.14-6.78.14-10.09-5.77-19.8-.17a13.81,13.81,0,0,0-3.31-1.51c-4.07-1.3-11.16-1.68-16.87,7.75-8.53,14.11-15.9,35.84-27.15,40.5S70.2,264.56,70.2,264.56L91.65,304.7l6.1,11.42S199,244.33,219.21,244.72s33.75-17.07,46.56-30.66c1.36-1.44,2.66-2.7,3.88-3.81h0c10.32-9.35,15.86-8,15.51-12.86C284.92,193.93,280,190.17,273.83,189Z"/><polygon class="cls-10" points="458.25 295.61 401.34 333.13 419.59 354.75 471.33 432.68 535.05 375.24 458.25 295.61"/><polygon class="cls-11" points="403.4 343.41 467.06 440.41 545.19 372.39 467.06 300.51 403.4 343.41"/><path class="cls-8" d="M494.49,416.53l-27.43,23.88-63.65-97,4.21-2.85-6.28-7.44,19.68-13a0,0,0,0,1,0,0l5.73,7.52,65.57,86.08Z"/><path class="cls-2" d="M545.19,372.39l-78.13-71.88-2.48,1.67-6.33-6.57L421,320.14h0l-11.46,7.55-8.22,5.43,6.28,7.44-1.49,1-2.72,1.83h0l26.1,39.77,37.55,57.22h0l27.43-23.88h0Z"/><polygon class="cls-10" points="163.41 207.2 196.46 266.5 100.87 333.09 59.59 253.39 163.41 207.2"/><polygon class="cls-11" points="147.33 214.36 183.81 279.55 102.92 340.26 55.5 247.14 147.33 214.36"/><polygon class="cls-8" points="183.81 244.13 82.02 299.23 102.92 340.26 183.81 279.55 182.1 276.5 196.46 266.5 183.81 244.13"/><polygon class="cls-2" points="196.46 266.5 163.41 207.2 147.33 214.36 55.5 247.14 102.92 340.26 183.81 279.55 182.1 276.5 196.46 266.5"/></g></svg>