<svg id="Layer_1" data-name="Layer 1" xmlns="http://www.w3.org/2000/svg" viewBox="0 0 600 600"><defs><style>.cls-1{fill:#424242;}.cls-2{fill:#c2dc8f;}.cls-3{opacity:0.5;}.cls-4{fill:#aec341;}.cls-5{fill:#d0bbb7;}.cls-6{fill:#f8c469;}.cls-7{fill:#f8ded8;}.cls-8{opacity:0.35;}.cls-9{fill:#fff;}.cls-10{fill:#d1ebfb;}.cls-11{fill:#487fdc;}.cls-12{opacity:0.2;}.cls-13{fill:#5e5e5e;}</style></defs><title>shield avatar</title><g id="shield_avatar" data-name="shield avatar"><path class="cls-1" d="M450.37,111.18l-.18-.16a1.37,1.37,0,0,1,.17.17l.41.38Zm-8.85-8.11q-1.14-1-2.28-1.95c.76.64,1.52,1.29,2.27,1.95l1.06.92ZM117.34,380.49c-.35.44-.68.89-1,1.35l1.14-1.14A2.39,2.39,0,0,1,117.34,380.49Z"/><path class="cls-2" d="M516.1,266.11c0,.95,0,1.9,0,2.85,0,.68,0,1.37,0,2.06l0,1.3c0,.77,0,1.54-.08,2.32,0,.38,0,.76-.05,1.14v.08c0,.11,0,.21,0,.32s0,.21,0,.32c0,.52-.05,1-.08,1.57-.09,1.67-.2,3.35-.33,5,0,.47-.07.92-.11,1.38-.09,1.08-.18,2.14-.29,3.2,0,.51-.1,1-.16,1.53a3.13,3.13,0,0,1,0,.43q-.09,1-.21,1.92c-.08.73-.18,1.46-.27,2.18s-.18,1.41-.27,2.1c-.16,1.2-.33,2.39-.52,3.58-.08.56-.17,1.11-.26,1.67q-.86,5.3-2,10.51c-.18.84-.35,1.67-.54,2.51-.33,1.47-.67,2.94-1,4.4-.09.38-.19.76-.28,1.14-.46,1.82-.94,3.62-1.45,5.43-.17.63-.35,1.27-.54,1.9s-.38,1.31-.58,2-.49,1.61-.74,2.41-.51,1.63-.78,2.44-.53,1.61-.8,2.41c-.54,1.6-1.1,3.2-1.68,4.78l-.74,2c-.08.23-.17.45-.26.68l-.15.41c-.21.55-.43,1.11-.65,1.66s-.41,1-.62,1.56-.48,1.19-.73,1.79c-.18.44-.36.89-.55,1.33l-1,2.31c-.33.78-.67,1.54-1,2.31l-1.05,2.29c-.35.76-.71,1.52-1.07,2.28q-1.08,2.26-2.21,4.51c-.76,1.49-1.53,3-2.32,4.45-.3.57-.6,1.12-.91,1.68s-.52,1-.79,1.42-.67,1.22-1,1.82q-2.14,3.76-4.44,7.42c-.21.34-.41.67-.62,1l-.63,1-.9,1.39c-1.48,2.29-3,4.54-4.59,6.77-.6.85-1.19,1.68-1.81,2.51l-.28.4c-.65.89-1.31,1.77-2,2.65l-1.25,1.65c-.54.7-1.09,1.41-1.65,2.1-1.8,2.29-3.66,4.53-5.55,6.73-.4.47-.8.93-1.21,1.39q-1.79,2.06-3.66,4.07c-.4.45-.83.9-1.25,1.35s-.7.75-1.05,1.12c-1.13,1.19-2.28,2.36-3.43,3.53s-2.41,2.38-3.63,3.55a323.53,323.53,0,0,0-28.67-45.38c-.42-.54-.83-1.08-1.27-1.61l0-.05q-.24-.31-.51-.63l-.17-.21,0,0-.1-.13q-.54-.66-1.11-1.32l0,0a1.07,1.07,0,0,0-.14-.16c-.47-.54-.93-1.06-1.41-1.59s-.83-.9-1.26-1.34l-.28-.3a.23.23,0,0,0-.07-.07l-.05-.06c-.49-.5-1-1-1.48-1.49v0c-.53-.52-1.07-1-1.61-1.54s-1.09-1-1.65-1.53l-1.69-1.48-1.46-1.22-.53-.43-.15-.13-1.31-1-1.77-1.36-2-1.44-1.63-1.14-1.7-1.15-.35-.23-1.59-1-.08-.05L394,352.78c-.62-.38-1.25-.75-1.87-1.11q-2.83-1.65-5.68-3.12c-.43-.23-.87-.45-1.31-.67l-.88-.44c-.65-.32-1.29-.64-1.95-.95l-.05,0c-.51-.25-1-.49-1.54-.72s-1.26-.59-1.9-.87l-1.35-.59-1-.43c-1.49-.63-3-1.24-4.44-1.81l-.2-.08-1.14-.43-1.38-.53-1.33-.48-1.32-.47-1.65-.57-1.86-.62-2-.66-1.61-.49-.79-.24-1-.3-.88-.26-.11,0-1.71-.48-.38-.1-1.31-.36-.83-.22-1.65-.42c-1.42-.36-2.81-.7-4.15-1L345.4,334l-.11,0-1.36-.3-.87-.18-1-.21-1-.19-.91-.18c-.57-.12-1.13-.22-1.68-.32l-.91-.17-.6-.1-1.21-.21-.88-.15-1.86-.28c-1.08-.17-2.06-.31-2.92-.43l-.65-.08h-.12l-.69-.09h-.12l-.42-.05-.38,0-.52-.06-.22,0-.36,0h-.05l-.43,0h-.3a4.36,4.36,0,0,0-4.41,2.73,4.43,4.43,0,0,0,1.1,4.9l-9.26-2.1-1-17.16L311,295.63c4,1.91,9.16,4.12,15.64,6.54l0,0a9.09,9.09,0,0,0,.88.29l1.08.35,1.16.39.43.14.46.15,1,.32,1.57.51,1.1.37.58.19.57.18,1.17.39,7.14,2.35a25,25,0,0,0,4.85,1.08,25.79,25.79,0,0,0,22.44-8.27q1.71-1.92,3.25-4c.23-.31.45-.61.67-.94.75-1.06,1.47-2.15,2.16-3.28.16-.25.31-.51.46-.77s.41-.69.61-1,.56-1,.84-1.51l.43-.82c.27-.53.55-1.06.81-1.6.2-.39.38-.77.57-1.17l.35-.75c.28-.59.55-1.2.81-1.81s.52-1.22.77-1.83.52-1.3.77-2c.2-.5.38-1,.57-1.53s.34-.92.49-1.38c.39-1.09.76-2.2,1.11-3.31.18-.59.36-1.19.53-1.77s.36-1.2.52-1.8c.67-2.36,1.27-4.76,1.82-7.21.21-1,.42-1.93.62-2.9.12-.58.24-1.17.35-1.76l.25-1.35q.38-2,.69-4c.13-.81.26-1.63.38-2.44.05-.32.09-.64.14-1,.09-.59.17-1.18.25-1.78s.2-1.49.29-2.25.2-1.62.29-2.43.18-1.62.26-2.43l.06-.56q.41-4.08.67-8.13l.18-2.93c.1-1.94.19-3.88.26-5.8,0-1,.07-1.92.09-2.87,0-.57,0-1.13,0-1.7,0-.83,0-1.66,0-2.5v-.18c0-.44,0-.87,0-1.3,0-4,0-7.87-.1-11.59,0-.81,0-1.61-.07-2.41-.12-4.17-.31-8.13-.54-11.79-.05-.9-.1-1.77-.17-2.63-.07-1.06-.15-2.09-.22-3.08,2.21.23,3.53.41,3.55.42a7.36,7.36,0,0,0,8.13-5.44c.29-1.16.59-2.32.83-3.36.11-.48.22-.94.33-1.41.07-.29.13-.58.2-.87.1-.44.2-.88.29-1.32s.25-1.16.36-1.73c0-.07,0-.14,0-.2.18-.9.36-1.79.51-2.67.07-.39.15-.78.21-1.16.11-.6.2-1.2.29-1.79,0-.13,0-.25.07-.38.09-.62.19-1.23.27-1.84.06-.43.12-.85.17-1.26l.15-1.25c.1-.82.18-1.64.25-2.44,0-.4.08-.8.1-1.21l.09-1.18c.06-.93.11-1.84.14-2.74.05-1.39.05-2.75,0-4.09,0-.47,0-1-.05-1.41s0-.92-.06-1.38v0c0-.39-.05-.79-.09-1.19-.06-.77-.13-1.54-.22-2.3l-.06-.54-.18-1.31-.15-.9a2.5,2.5,0,0,0-.06-.38c0-.05,0-.09,0-.13s0-.16-.05-.24q-.06-.42-.15-.81a1.42,1.42,0,0,0,0-.2c0-.2-.08-.41-.13-.62a1.62,1.62,0,0,0,0-.19c0-.22-.09-.43-.14-.65a.83.83,0,0,0,0-.15c-.05-.25-.11-.5-.18-.74a.65.65,0,0,0,0-.2c-.05-.21-.1-.42-.16-.63a1.72,1.72,0,0,0-.08-.28c-.07-.29-.15-.58-.25-.88a.73.73,0,0,0-.07-.24l-.06-.22a.44.44,0,0,0-.05-.15c-.13-.45-.27-.9-.43-1.34l-.06-.18c-.16-.47-.33-.93-.5-1.39s-.32-.81-.49-1.21l-.33-.8a.59.59,0,0,1,0-.08c-.14-.33-.29-.65-.44-1-.06-.14-.13-.28-.2-.43-.22-.45-.45-.9-.68-1.34s-.38-.72-.59-1.08c0,0,0,0,0-.05-.12-.2-.23-.41-.36-.62-.23-.42-.47-.83-.73-1.23s-.39-.62-.59-.92-.4-.6-.61-.89-.41-.6-.63-.89-.54-.73-.82-1.08c-.09-.12-.17-.24-.27-.35q-.39-.51-.81-1c-.19-.24-.39-.47-.59-.7s-.32-.37-.5-.56-.45-.5-.69-.75-.47-.5-.71-.74-.48-.5-.73-.73-.49-.49-.74-.73c-.51-.48-1-1-1.55-1.41-.1-.08-.2-.18-.31-.26l-.64-.55-.68-.56a67.36,67.36,0,0,0-8.74-6l-.69-.4c-.48-.28-1-.54-1.45-.81l-.52-.28c-.67-.36-1.35-.72-2-1.06l-.83-.42q-2.13-1.05-4.38-2l-1.52-.65c-1-.44-2-.86-3.11-1.29-2.33-.93-4.76-1.82-7.28-2.69l-1.44-.49-1.6-.53c-.93-.3-1.87-.61-2.83-.9l-1.52-.47c-1.33-.41-2.69-.81-4.08-1.21L345.85,88l-2.49-.68-2.17-.58c-1.93-.51-3.92-1-5.94-1.51l-2-.5-2.35-.56c-3-.71-6-1.4-9.13-2.09a109.42,109.42,0,0,0-26.42-2.81h-.27l-2.22.1-1.22.09-.68,0c-1,.09-2.07.2-3.08.33-.3,0-.6.08-.9.12-.56.08-1.13.16-1.7.26l-.7.12c-.23,0-.47.08-.7.13-.46.08-.92.18-1.37.27l-.89.19-.74.17-1.37.35c-.34.08-.69.18-1,.29l-1.07.31-.11,0-1,.34c-.5.16-1,.33-1.51.51l-1,.38c-1,.39-2,.8-3,1.23l-1.28.6c-.85.41-1.68.84-2.51,1.3l-.6.34-.61.36-.73.43c-1.21.75-2.4,1.53-3.54,2.38C249.39,98.77,244.2,111,242,118.83c-9.77.22-22.25,5.64-29.76,14A32.26,32.26,0,0,0,209.7,136c-.13.17-.25.35-.37.52a6.65,6.65,0,0,0-.36.56c-.25.37-.47.73-.68,1.11a6.12,6.12,0,0,0-.31.56c-.11.18-.21.37-.3.55s-.2.38-.29.57c-.19.37-.36.75-.53,1.13s-.32.76-.46,1.15c-.08.19-.15.38-.22.58-.14.38-.26.77-.38,1.16a24.1,24.1,0,0,0-.79,3.54l-.15,1.2a24.38,24.38,0,0,0-.09,3.42c0,.27,0,.53,0,.8l.06.66,0,.41c0,.21.05.42.08.62s.08.56.13.84c0,.12,0,.25.06.37l.15.74c.06.32.13.63.21,1s.15.58.24.88l.24.82a34.43,34.43,0,0,0,2.37,5.66l.48.88c.12.23.25.45.39.67s.26.45.41.68l.42.68c.18.28.37.58.57.87l.37.53c.45.65.93,1.3,1.43,2,11.38,14.7,18.78,42.85,24.18,63.39,1.32,5,2.54,9.68,3.72,13.8.66,2.36,1.31,4.52,1.95,6.5.09.29.18.57.28.84.17.53.35,1,.53,1.54l.27.74c.38,1.05.77,2,1.16,2.95.24.56.48,1.09.73,1.59a24.68,24.68,0,0,0,1.79,3.18l-16.4,48.34-3.31,9.75-12.16,5.71-8.73,4.11c-1-2-1.48-3.3-1.5-3.36a4.39,4.39,0,0,0-5.59-2.56l-.23.09-.2.07-.13,0-.15.06-.57.22-.47.18a2.18,2.18,0,0,1-.27.11l-.83.34-.47.18-.38.16-.84.35-.45.18-.48.2-.5.21-3,1.27-.9.39c-.18.08-.36.15-.54.24l-1.14.48a.42.42,0,0,1-.14.06l-1.07.47-.85.37c-1.85.8-3.91,1.71-6.22,2.73l-1.07.47-1,.46-.28.12-.17.08c-.56.24-1.13.5-1.72.77l-2.66,1.19L170,340.24l-2.73,1.24-.09,0-2.8,1.28-2,.93-2.57,1.19-2.13,1-1.74.8-5.2,2.41-3.12,1.45-5.13,2.4c-10.5,4.91-19.67,13.35-27.61,23.5a215.68,215.68,0,0,1-29.1-87.69,218.14,218.14,0,0,1-1.18-22.66c0-2.67,0-5.32.15-8,0-.68.05-1.37.07-2.05,0-.41,0-.83.06-1.24,0-.85.09-1.68.15-2.52s.1-1.52.16-2.27l.12-1.54.06-.73c.13-1.51.27-3,.43-4.5,0-.34.07-.7.11-1a2.91,2.91,0,0,1,0-.31c0-.45.09-.89.15-1.33.18-1.55.38-3.09.59-4.63.11-.78.23-1.56.35-2.33.06-.44.13-.87.2-1.31.33-2.09.69-4.18,1.08-6.25.14-.78.3-1.57.46-2.36.12-.62.24-1.22.37-1.83s.2-.94.3-1.41c.63-2.91,1.32-5.81,2.06-8.67.22-.84.45-1.68.68-2.52s.46-1.67.7-2.51.48-1.66.73-2.49c.1-.36.21-.72.32-1.07l.33-1.07s0-.11,0-.16c.3-1,.61-1.95.93-2.91.45-1.38.91-2.74,1.39-4.1l.4-1.14c.4-1.13.82-2.26,1.23-3.37l0-.1c.42-1.12.85-2.24,1.3-3.35s.76-1.92,1.16-2.88c.1-.26.21-.52.32-.77.41-1,.84-2,1.27-3q4.16-9.57,9.19-18.63c.38-.69.76-1.36,1.15-2s.71-1.24,1.07-1.86c.1-.18.2-.36.31-.54l1-1.64c.26-.43.52-.86.79-1.29s.52-.86.78-1.29l.87-1.4,1.25-2c.42-.66.84-1.31,1.27-2,.85-1.31,1.72-2.59,2.61-3.87s1.7-2.44,2.56-3.65l.23-.31,1.26-1.72,1.39-1.86c.47-.63.94-1.24,1.41-1.85.95-1.23,1.91-2.44,2.88-3.65s2-2.4,3-3.59c.49-.59,1-1.18,1.5-1.76s1-1.18,1.53-1.76,1-1.16,1.54-1.73l1.56-1.72,1.58-1.71q.94-1,1.92-2c.32-.33.64-.67,1-1s.48-.5.73-.75q1.22-1.25,2.46-2.46l.75-.73,1-1c.67-.65,1.34-1.29,2-1.92s1.13-1.06,1.71-1.58l1.72-1.56c.57-.52,1.15-1,1.73-1.54s1.17-1,1.75-1.53l1.77-1.5c1.18-1,2.38-2,3.58-3s2.43-1.93,3.66-2.88l1.84-1.41,1.87-1.39,1.72-1.26.31-.23c1.21-.86,2.42-1.72,3.65-2.56s2.56-1.75,3.86-2.61c.65-.43,1.3-.85,2-1.26s1.3-.84,2-1.26l1.4-.86,1.29-.79q.65-.41,1.29-.78l1.64-1,.54-.31L194,78.45,196,77.3q9-5,18.62-9.19l3-1.27.77-.32c1-.39,1.91-.78,2.88-1.16s2.23-.88,3.35-1.3l.1,0c1.11-.42,2.24-.83,3.37-1.24l1.14-.4c1.36-.48,2.72-.94,4.09-1.39,1-.32,1.94-.63,2.92-.93l.16,0,1.06-.33,1.08-.32,2.49-.73,2.51-.7c.83-.23,1.68-.46,2.52-.67,2.86-.75,5.76-1.44,8.67-2.07l1.4-.3,1.84-.37c.79-.16,1.57-.32,2.36-.46,2.07-.39,4.16-.75,6.25-1.08l1.31-.2c.77-.12,1.54-.24,2.32-.34,1.54-.22,3.09-.42,4.64-.6q.66-.09,1.32-.15a3.16,3.16,0,0,1,.32,0c.34-.05.69-.08,1-.12,1.49-.16,3-.3,4.49-.43l.74-.06,1.54-.12,2.27-.16,2.52-.15,1.24-.05,2.05-.08c2.64-.1,5.3-.15,8-.15A215,215,0,0,1,323,51.54c1,.1,2.09.23,3.12.35l2.8.35.57.08h.12l2.74.4,3.09.47,1.59.27,1.48.26,3.06.58,1,.2,1.26.26.56.11.78.17a1,1,0,0,1,.23.05l1.24.26.44.1,1,.22c.85.2,1.7.39,2.54.6l2.61.63,2.17.57q1,.26,2,.54l1.47.41c1,.28,2,.56,3,.86l.54.16.54.16c.36.11.71.23,1.07.33l.73.23,1.62.52.95.31,1.07.35c.35.11.71.23,1.06.36.74.24,1.48.5,2.21.76,1,.36,2.07.73,3.1,1.11s2.06.77,3.09,1.17l2,.78c.87.34,1.73.69,2.59,1l.62.26,2,.86.72.31c.73.31,1.46.64,2.18,1l.35.16,1.33.6c.44.2.89.4,1.32.61l2.42,1.14c.91.43,1.81.88,2.72,1.33.52.25,1,.51,1.55.78l1.73.89,2.3,1.21.22.12c.85.45,1.69.91,2.54,1.38l2.62,1.48c1.74,1,3.48,2,5.19,3.06l2.56,1.58c1.89,1.2,3.78,2.42,5.63,3.67s3.7,2.53,5.52,3.84c.86.62,1.72,1.24,2.57,1.87,1.65,1.22,3.27,2.46,4.88,3.72.74.59,1.49,1.18,2.22,1.78L437,99.28c.74.6,1.48,1.22,2.22,1.84s1.52,1.29,2.28,1.95l1.05.92c.2.17.4.34.59.52l.14.12,1,.89.6.54c.5.44,1,.9,1.49,1.37a3.45,3.45,0,0,1,.28.26.44.44,0,0,1,.11.09l.19.17.25.24c.54.5,1.09,1,1.62,1.52l0,0h0l.85.81.33.32.15.15.18.16.4.39,1.08,1.06.91.91,2,2,1,1.08.7.73c.52.54,1,1.08,1.53,1.62s1,1,1.46,1.58l1,1.14c.42.47.85.94,1.26,1.41l1.39,1.59c.56.64,1.12,1.29,1.66,1.94.23.26.46.53.68.8l1.43,1.71.66.8c.44.53.87,1.07,1.29,1.61,1.27,1.57,2.5,3.17,3.72,4.78.27.37.55.74.83,1.1l.57.78,1.34,1.83q3.38,4.68,6.51,9.54l1,1.58.62,1,.1.17.27.43c.46.74.91,1.49,1.36,2.23l.05.07.21.36c.43.72.86,1.44,1.28,2.16,0,0,0,.07.05.1l.61,1c.17.3.35.59.51.89.06.09.11.18.16.27l.54,1c.31.54.61,1.09.91,1.64s.6,1.1.9,1.65.53,1,.79,1.47c.05.1.1.21.16.31l.81,1.55.83,1.63c.09.19.19.38.29.57.19.39.38.78.58,1.17l.68,1.4c.23.48.46,1,.68,1.42.15.3.29.6.43.9.07.13.13.27.2.41.33.73.68,1.46,1,2.2l.5,1.11c.17.37.33.74.49,1.11l.71,1.61c.05.13.1.25.16.38a1.67,1.67,0,0,1,.08.2c.39.89.76,1.79,1.13,2.7,0,.08.06.16.1.24l0,.11c.2.46.38.91.56,1.37l.15.38c.14.34.27.68.4,1l.12.29c.09.24.19.49.28.74.2.5.39,1,.58,1.5q.67,1.78,1.32,3.57t1.32,3.81c.38,1.14.76,2.27,1.12,3.42l.15.47q.15.47.3,1c0,.12.08.26.12.39.19.61.37,1.22.56,1.83l.54,1.84c.18.61.35,1.23.53,1.84.34,1.23.68,2.47,1,3.71.16.62.31,1.24.47,1.87s.27,1.06.4,1.59.19.81.28,1.21.15.63.22.94c.15.62.29,1.25.43,1.89s.28,1.25.41,1.88.27,1.27.4,1.9.25,1.26.38,1.89.24,1.28.35,1.91.24,1.27.35,1.91l.33,1.92.3,1.93c0,.08,0,.17,0,.26.08.55.17,1.11.25,1.66s.19,1.29.28,1.94.17,1.29.26,1.94.15,1.19.22,1.78c0,.12,0,.25,0,.37s0,.26,0,.4q.08.66.15,1.35a1.5,1.5,0,0,1,0,.22c0,.22,0,.45.07.67.11,1,.21,2,.3,3,.07.66.13,1.31.18,2s.1,1.21.14,1.82.07,1,.11,1.53l.09,1.52c0,.61.07,1.23.11,1.85s.07,1.48.1,2.21c0,.45,0,.9.06,1.35,0,.15,0,.29,0,.44s0,.23,0,.33v.21c0,.69,0,1.38,0,2.06,0,.13,0,.25,0,.38s0,.25,0,.38,0,.53,0,.8v.06c0,.48,0,1,0,1.45Z"/><path class="cls-1" d="M525.41,266.11a224.4,224.4,0,0,1-71.28,164.3c-1.11,1-2.25,2.08-3.39,3.1s-2.28,2-3.43,3h0l-1.25,1.06a226.29,226.29,0,0,1-47.51,31c-1.57.77-3.14,1.52-4.73,2.23.39-1.19.76-2.4,1.11-3.62.08-.27.15-.53.22-.8q.48-1.74.9-3.51c.09-.36.17-.73.25-1.11s.2-.88.29-1.31.14-.66.2-1c0-.07,0-.13,0-.2a213.87,213.87,0,0,0,46.39-31.07c1.14-1,2.27-2,3.39-3.05s2.24-2.07,3.34-3.13,2.43-2.35,3.63-3.55,2.3-2.34,3.43-3.53c.35-.37.71-.74,1.05-1.12s.85-.9,1.25-1.35q1.88-2,3.66-4.07c.41-.46.81-.92,1.21-1.39,1.89-2.2,3.75-4.44,5.55-6.73.56-.69,1.11-1.4,1.65-2.1l1.25-1.65c.67-.88,1.33-1.76,2-2.65l.28-.4c.62-.83,1.21-1.66,1.81-2.51,1.58-2.23,3.11-4.48,4.59-6.77l.9-1.39.63-1c.21-.32.41-.65.62-1q2.29-3.66,4.44-7.42c.34-.6.68-1.21,1-1.82s.53-.94.79-1.42.62-1.11.91-1.68c.79-1.47,1.56-3,2.32-4.45s1.5-3,2.21-4.51c.36-.76.72-1.52,1.07-2.28s.7-1.52,1.05-2.29.68-1.53,1-2.31l1-2.31c.19-.44.38-.88.55-1.33.25-.6.5-1.19.73-1.79s.42-1,.62-1.56.44-1.11.65-1.66l.15-.41c.09-.23.18-.45.26-.68l.74-2q.87-2.37,1.68-4.78c.27-.8.54-1.6.8-2.41s.52-1.62.78-2.44.5-1.6.74-2.41.39-1.31.58-2,.37-1.27.54-1.9c.51-1.81,1-3.61,1.45-5.43.09-.38.19-.76.28-1.14.37-1.46.71-2.93,1-4.4.19-.84.37-1.67.54-2.51q1.11-5.22,2-10.51c.09-.55.18-1.11.26-1.67.19-1.19.36-2.38.52-3.58q.15-1,.27-2.1c.09-.72.19-1.45.27-2.18s.15-1.28.21-1.92a3.13,3.13,0,0,0,0-.43c.06-.51.11-1,.16-1.53.11-1.06.2-2.12.29-3.2,0-.46.08-.91.11-1.38.13-1.66.24-3.34.33-5,0-.53.06-1.05.08-1.57,0-.11,0-.22,0-.32s0-.21,0-.32v-.08c0-.38,0-.76.05-1.14,0-.78.06-1.55.08-2.32l0-1.3c0-.69,0-1.38,0-2.06,0-.95,0-1.9,0-2.85v-1.52c0-.48,0-1,0-1.45v-.06c0-.27,0-.54,0-.8s0-.26,0-.38,0-.25,0-.38c0-.76,0-1.52,0-2.27,0-.1,0-.22,0-.33s0-.29,0-.44c0-.45,0-.9-.06-1.35,0-.73-.07-1.47-.1-2.21s-.07-1.24-.11-1.85l-.09-1.52c0-.51-.07-1-.11-1.53s-.09-1.22-.14-1.82-.11-1.31-.18-2c-.09-1-.19-2-.3-3,0-.22,0-.45-.07-.67a1.5,1.5,0,0,0,0-.22q-.07-.69-.15-1.35c0-.14,0-.27,0-.4s0-.25,0-.37c-.07-.59-.15-1.19-.22-1.78s-.18-1.29-.26-1.94-.21-1.48-.32-2.22c0-.37-.11-.75-.17-1.13l0-.25c0-.09,0-.18,0-.26-.09-.65-.2-1.29-.3-1.93l-.33-1.92c-.11-.64-.22-1.27-.35-1.91s-.23-1.27-.35-1.91-.25-1.26-.38-1.89-.26-1.27-.4-1.9-.27-1.26-.41-1.88-.28-1.27-.43-1.89c-.07-.31-.15-.63-.22-.94s-.19-.81-.28-1.21-.27-1.06-.4-1.59-.31-1.25-.47-1.87c-.32-1.24-.66-2.48-1-3.71-.18-.61-.35-1.23-.53-1.84l-.54-1.84c-.19-.61-.37-1.22-.56-1.83,0-.13-.08-.27-.12-.39q-.15-.49-.3-1l-.15-.47c-.36-1.15-.74-2.28-1.12-3.42s-.87-2.55-1.32-3.81-.86-2.38-1.32-3.57c-.19-.5-.38-1-.58-1.5-.09-.25-.19-.5-.28-.74l-.12-.29c-.13-.33-.26-.67-.4-1l-.15-.38c-.18-.46-.36-.91-.56-1.37l0-.11c0-.08-.06-.16-.1-.24-.37-.91-.74-1.81-1.13-2.7a1.67,1.67,0,0,0-.08-.2c-.06-.13-.11-.25-.16-.38l-.71-1.61c-.16-.37-.32-.74-.49-1.11l-.5-1.11c-.33-.74-.68-1.47-1-2.2-.07-.14-.13-.28-.2-.41-.14-.3-.28-.6-.43-.9-.22-.47-.45-.94-.68-1.42l-.68-1.4c-.2-.39-.39-.78-.58-1.17-.1-.19-.2-.38-.29-.57l-.83-1.63-.81-1.55c-.06-.1-.11-.21-.16-.31-.26-.49-.52-1-.79-1.47s-.59-1.1-.9-1.65-.6-1.1-.91-1.64l-.54-1c-.05-.09-.1-.18-.16-.27-.16-.3-.34-.59-.51-.89l-.61-1s0-.07-.05-.1c-.42-.72-.85-1.44-1.28-2.16l-.21-.36-.05-.07c-.45-.74-.9-1.49-1.36-2.23l-.27-.43-.1-.17-.62-1-1-1.58q-3.13-4.86-6.51-9.54L474,138.24l-.57-.78c-.28-.36-.56-.73-.83-1.1-1.22-1.61-2.45-3.21-3.72-4.78-.42-.54-.85-1.08-1.29-1.61l-.66-.8-1.43-1.71c-.22-.27-.45-.54-.68-.8-.54-.65-1.1-1.3-1.66-1.94l-1.39-1.59-1.26-1.41-1-1.14c-.48-.53-1-1.06-1.46-1.58s-1-1.08-1.53-1.62l-.7-.73-1-1.08-2-2-.91-.91-1.08-1.06-.4-.39-.18-.16-.15-.15-.33-.32-.85-.81h0l0,0c-.53-.52-1.08-1-1.62-1.52L447,108l-.19-.17a.44.44,0,0,0-.11-.09,3.45,3.45,0,0,0-.28-.26c-.5-.47-1-.93-1.49-1.37l-.6-.54c-.33-.31-.66-.6-1-.89l-.14-.12c-.19-.18-.39-.35-.59-.52l-1.05-.92q-1.14-1-2.28-1.95c-.74-.62-1.48-1.24-2.22-1.84l-1.34-1.09c-.73-.6-1.48-1.19-2.22-1.78-1.61-1.26-3.23-2.5-4.88-3.72-.85-.63-1.71-1.25-2.57-1.87-1.82-1.31-3.65-2.59-5.52-3.84s-3.74-2.47-5.63-3.67c-.85-.53-1.7-1.06-2.56-1.58-1.71-1-3.45-2.07-5.19-3.06-.87-.51-1.74-1-2.62-1.48s-1.69-.93-2.54-1.38l-.22-.12-2.3-1.21-1.73-.89c-.51-.27-1-.53-1.55-.78-.91-.45-1.81-.9-2.72-1.33s-1.61-.77-2.42-1.14c-.43-.21-.88-.41-1.32-.61l-1.33-.6L388,69c-.72-.32-1.45-.65-2.18-1l-.72-.31-2-.86-.62-.26c-.86-.36-1.72-.71-2.59-1l-2-.78q-1.55-.6-3.09-1.17c-1-.38-2.06-.76-3.1-1.11-.73-.26-1.47-.52-2.21-.76-.35-.13-.71-.25-1.06-.36L367.34,61l-.95-.31-1.62-.52-.73-.23c-.36-.1-.71-.22-1.07-.33l-.54-.16-.54-.16c-1-.3-2-.58-3-.86L357.43,58q-1-.29-2-.54l-2.17-.57-2.61-.63c-.84-.21-1.69-.41-2.54-.6l-1-.22-.44-.1-1.24-.26a1,1,0,0,0-.23-.05l-.78-.17-.56-.11-1.26-.26-1-.2-3.06-.58L337,53.47l-1.59-.27c-1-.17-2.06-.33-3.09-.47s-1.82-.28-2.74-.4h-.12l-.57-.08c-.93-.13-1.86-.25-2.8-.35s-2.08-.25-3.12-.35a215,215,0,0,0-22.67-1.19c-2.66,0-5.32,0-8,.15l-2.05.08-1.24.05-2.52.15-2.27.16-1.54.12-.74.06c-1.5.13-3,.27-4.49.43-.35,0-.7.07-1,.12a3.16,3.16,0,0,0-.32,0q-.66.06-1.32.15c-1.55.18-3.1.38-4.64.6-.78.1-1.55.22-2.32.34l-1.31.2c-2.09.33-4.18.69-6.25,1.08-.79.14-1.57.3-2.36.46l-1.84.37-1.4.3c-2.91.63-5.81,1.32-8.67,2.07-.84.21-1.69.44-2.52.67l-2.51.7-2.49.73-1.08.32L236.4,60l-.16,0c-1,.3-2,.61-2.92.93-1.37.45-2.73.91-4.09,1.39l-1.14.4c-1.13.41-2.26.82-3.37,1.24l-.1,0c-1.12.42-2.24.85-3.35,1.3s-1.93.77-2.88,1.16l-.77.32-3,1.27Q205.07,72.26,196,77.3L194,78.45c-.62.35-1.23.7-1.85,1.07l-.54.31c-.55.32-1.09.64-1.64,1s-.86.51-1.29.78l-1.29.79-1.4.86c-.66.41-1.31.83-2,1.26s-1.31.83-2,1.26c-1.3.86-2.58,1.72-3.86,2.61s-2.44,1.7-3.65,2.56l-.31.23c-.58.42-1.16.83-1.72,1.26s-1.25.92-1.87,1.39-1.23.93-1.84,1.41q-1.85,1.43-3.66,2.88c-1.2,1-2.4,2-3.58,3q-.89.73-1.77,1.5c-.58.5-1.17,1-1.75,1.53s-1.16,1-1.73,1.54l-1.72,1.56c-.58.52-1.14,1-1.71,1.58s-1.35,1.27-2,1.92l-1,1-.75.73c-.83.8-1.66,1.63-2.46,2.46-.25.25-.5.5-.73.75s-.65.67-1,1q-1,1-1.92,2c-.54.57-1.06,1.14-1.58,1.71L139.87,122c-.52.57-1,1.15-1.54,1.73s-1,1.17-1.53,1.76-1,1.17-1.5,1.76c-1,1.19-2,2.38-3,3.59s-1.93,2.42-2.88,3.65c-.48.61-1,1.22-1.41,1.85s-.94,1.24-1.39,1.86-.84,1.14-1.26,1.72l-.23.31c-.86,1.21-1.72,2.42-2.56,3.65s-1.76,2.56-2.61,3.87c-.43.64-.85,1.29-1.27,2s-.84,1.3-1.25,2l-.87,1.4c-.26.43-.53.86-.78,1.29s-.53.86-.79,1.29l-1,1.64c-.11.18-.21.36-.31.54-.37.62-.72,1.23-1.07,1.86s-.77,1.35-1.15,2q-5,9.06-9.19,18.63c-.43,1-.86,2-1.27,3-.11.25-.22.51-.32.77-.4,1-.78,1.92-1.16,2.88s-.88,2.23-1.3,3.35l0,.1c-.41,1.11-.83,2.24-1.23,3.37l-.4,1.14c-.48,1.36-.94,2.72-1.39,4.1-.32,1-.63,1.94-.93,2.91,0,.05,0,.11,0,.16l-.33,1.07c-.11.35-.22.71-.32,1.07-.25.83-.49,1.66-.73,2.49s-.47,1.67-.7,2.51-.46,1.68-.68,2.52c-.74,2.86-1.43,5.76-2.06,8.67-.1.47-.21.93-.3,1.41s-.25,1.21-.37,1.83c-.16.79-.32,1.58-.46,2.36-.39,2.07-.75,4.16-1.08,6.25-.07.44-.14.87-.2,1.31-.12.77-.24,1.55-.35,2.33-.21,1.54-.41,3.08-.59,4.63-.06.44-.11.88-.15,1.33a2.91,2.91,0,0,0,0,.31c0,.34-.08.7-.11,1-.16,1.5-.3,3-.43,4.5l-.06.73-.12,1.54c-.06.75-.11,1.51-.16,2.27s-.1,1.67-.15,2.52c0,.41,0,.83-.06,1.24,0,.68,0,1.37-.07,2.05-.1,2.65-.15,5.3-.15,8a218.14,218.14,0,0,0,1.18,22.66,215.68,215.68,0,0,0,29.1,87.69c.81,1.35,1.63,2.7,2.47,4-.35.44-.68.89-1,1.35l1.14-1.14c.78,1.25,1.57,2.5,2.38,3.72.66,1,1.33,2,2,3,.56.83,1.14,1.66,1.72,2.49.21.31.43.61.64.91.49.7,1,1.39,1.48,2.07.63.88,1.29,1.75,1.94,2.63.38.5.76,1,1.15,1.52,1,1.33,2.05,2.66,3.1,4,.33.41.66.83,1,1.24.49.61,1,1.22,1.49,1.82l1.17,1.39c.55.66,1.1,1.29,1.65,1.94l1.55,1.77.88,1,1.56,1.71c.82.9,1.65,1.79,2.48,2.67l1.64,1.71c.71.74,1.44,1.48,2.17,2.21s1.18,1.18,1.78,1.77l.77.75,1.7,1.64c.78.74,1.56,1.47,2.35,2.19l1.42,1.3q2.58,2.34,5.23,4.59c.39.34.78.67,1.18,1l1,.87,1.11.91.3.25c.85.68,1.71,1.37,2.58,2,.41.33.83.66,1.26,1q2.35,1.85,4.79,3.61c.41.3.81.6,1.23.89l1.9,1.36,1.37.95c.74.52,1.48,1,2.22,1.52.31.21.63.43,1,.63l1.27.85,1.83,1.19c.88.56,1.76,1.12,2.65,1.67a3.79,3.79,0,0,0,.34.2q1.26.79,2.55,1.56c.93.56,1.86,1.11,2.8,1.65s1.83,1.05,2.75,1.57l.18.1,2.63,1.45.15.08c1,.51,1.93,1,2.9,1.53s1.91,1,2.88,1.47l.25.13a96.82,96.82,0,0,0,3.07,11.77,224,224,0,0,1-68.18-48.1q-4.2-4.32-8.13-8.84a222.8,222.8,0,0,1-16.38-21.25c-.9-1.31-1.79-2.65-2.65-4l-.84-1.3-.06-.08c-.57-.9-1.14-1.8-1.7-2.71A225.1,225.1,0,1,1,525.41,266.11Z"/><path class="cls-1" d="M396.82,459.31c0,.07,0,.13,0,.2-.06.33-.13.66-.2,1s-.19.88-.29,1.31-.16.75-.25,1.11q-.42,1.77-.9,3.51c-.07.27-.14.53-.22.8-.35,1.22-.72,2.43-1.11,3.62q-5.3,2.44-10.73,4.6h0a221.49,221.49,0,0,1-32.4,10.08c-2.1.48-4.26.94-6.39,1.36-2,.39-4.08.78-6.39,1.17q-9.75,1.63-19.68,2.42c-2.79.22-5.58.38-8.37.5h0c-3.16.13-6.31.2-9.48.2h0c-3.14,0-6.32-.07-9.51-.2h0l-2.56-.13h-.06q-2.85-.15-5.7-.37a223.76,223.76,0,0,1-36.35-5.88c-3-.74-6.13-1.57-9.22-2.48-2.85-.83-5.78-1.76-8.72-2.75q-5.37-1.81-10.59-3.88c-1.13-.44-2.24-.9-3.35-1.36q-3.72-1.53-7.37-3.2a96.82,96.82,0,0,1-3.07-11.77l2.75,1.34c.85.41,1.71.82,2.57,1.21.22.12.46.22.69.33.91.42,1.82.83,2.74,1.23.32.15.63.3,1,.43h0l2.07.9c1,.43,2,.86,3.06,1.27s1.9.78,2.86,1.15l.46.18,2.66,1,.47.17c.88.33,1.77.65,2.66,1l.49.18c1,.35,1.95.68,2.92,1,2.81,1,5.62,1.84,8.35,2.64,1.12.33,2.24.64,3.35.95l1.38.38,1.92.5c.73.2,1.46.37,2.19.55A215.83,215.83,0,0,0,271.64,480c2.76.37,5.52.69,8.29.94h0c2.9.28,5.8.49,8.71.65h.05l2.61.12c3,.13,6.06.19,9,.19h0c3,0,6-.07,9-.19,3.78-.16,7.58-.42,11.35-.77h0c2.79-.25,5.57-.57,8.32-.94h0c2.44-.32,4.86-.69,7.26-1.09,2.22-.38,4.24-.74,6.15-1.13s4.09-.83,6.1-1.3a218,218,0,0,0,38.52-12.63C390.39,462.39,393.64,460.89,396.82,459.31Z"/><g class="cls-3"><path class="cls-4" d="M504.74,265.92c0,.91,0,1.81,0,2.7l0,2c0,.41,0,.82,0,1.22,0,.74-.05,1.47-.08,2.2,0,.36,0,.72,0,1.08v.08c0,.1,0,.2,0,.3s0,.21,0,.31c0,.49-.05,1-.08,1.48L380.22,401.47l-34.31,34.31-7.47,7.46h0L318.72,463H218.83q-3.53-1.46-7-3a90.79,90.79,0,0,1-2.91-11.15l-.23-.13c-.92-.45-1.83-.92-2.73-1.39s-1.83-1-2.75-1.45l-.14-.07-2.49-1.37a1.51,1.51,0,0,0-.17-.1c-.87-.49-1.74-1-2.6-1.48s-1.78-1-2.66-1.57-1.62-1-2.42-1.47l-.32-.2L189.92,438l49.53-49.53,18.77-18.77,3.81-3.81,10.79-10.79,6.64-6.64,0,0,19.08-19.08,6.59-6.59,6.57-6.57,15.45-15.46,5.5-5.49.79-.8,4.7-4.69,32.65-32.65,8.54-8.55h0l8-8,84.94-84.94,1,1.49c.19.32.39.62.59.94,0,.05.06.1.09.16s.17.27.26.41l1.29,2.11,0,.06.2.35c.41.68.82,1.36,1.22,2.05a.3.3,0,0,0,0,.08l.58,1c.16.28.33.56.48.85.06.08.1.17.15.25l.52.92.86,1.55.85,1.57c.25.46.5.92.74,1.39.06.1.1.2.16.29l.76,1.47c.27.51.53,1,.79,1.54l.27.55c.19.36.37.73.55,1.1s.44.89.65,1.33.43.9.65,1.34c.13.28.27.57.41.85l.18.39c.32.69.64,1.39.95,2.09.17.35.32.7.48,1.05l.47,1.05c.22.51.45,1,.66,1.53.05.11.1.24.16.36a1.34,1.34,0,0,1,.07.18c.37.85.73,1.71,1.08,2.57l.09.22,0,.1c.18.44.36.87.53,1.3.05.13.1.24.14.36l.38,1c0,.09.08.18.11.27l.27.7c.19.48.37,1,.55,1.43.42,1.12.84,2.25,1.24,3.38s.85,2.4,1.26,3.6.72,2.16,1.06,3.25c0,.14.09.29.14.44.09.3.19.6.28.91l.12.37c.18.58.35,1.16.53,1.74l.51,1.74c.17.58.34,1.16.5,1.74.32,1.16.64,2.34.95,3.52l.45,1.76c.12.5.25,1,.37,1.51l.27,1.15.21.89c.14.59.27,1.19.41,1.78l.39,1.79.37,1.79.36,1.8c.11.61.23,1.21.34,1.81s.22,1.2.32,1.81.21,1.21.31,1.82.2,1.21.3,1.82c0,.08,0,.16,0,.25l0,.24c.05.35.11.71.16,1.06a2.66,2.66,0,0,1,0,.28q.15.91.27,1.83l.24,1.84c.08.56.15,1.12.21,1.69,0,.11,0,.23,0,.35s0,.24.05.37c.05.42.1.85.14,1.28a1.25,1.25,0,0,1,0,.21c0,.21.05.42.07.63.1,1,.2,1.91.29,2.87.06.62.11,1.24.16,1.86s.1,1.15.14,1.73.06,1,.1,1.44l.09,1.44c0,.58.06,1.17.1,1.76s.07,1.39.09,2.09l.06,1.28c0,.14,0,.28,0,.42s0,.21,0,.31v.2c0,.65,0,1.3.05,1.95,0,.12,0,.24,0,.35s0,.24,0,.36,0,.51,0,.76v.06c0,.46,0,.92,0,1.38S504.74,265.44,504.74,265.92Z"/></g><g class="cls-3"><path class="cls-4" d="M442.47,119.17,221.11,340.53l-2,2-3,3-3,3-1.44,1.44-10.23,10.23-5.39,5.4-42.6,42.59c-.52-.53-1-1.08-1.55-1.62-.79-.83-1.58-1.67-2.35-2.52q-.75-.81-1.47-1.62l-.84-.94-1.47-1.68L191.54,354l15-15,.26-.26,12.95-12.95,14.64-14.65L256.54,289l11.86-11.86v0l97.35-97.35,1.12-1.11,9.6-9.6,25.44-25.44,32.16-32.17h0l1,.87.55.49.13.11,1,.85.56.51c.47.42.94.85,1.42,1.3.09.07.17.16.26.24l.1.09.18.16.24.23c.51.47,1,1,1.54,1.44l0,0h0c.28.25.55.51.81.77l.31.29.15.15Z"/></g><g class="cls-3"><path class="cls-4" d="M408.83,92.78,385.59,116,380.65,121,377,124.65l-.37.37-.9.9-2.77,2.77-44.1,44.1L302.64,199l-30.08,30.08h0l-10.3,10.3-5.47,5.47-5.59,5.59L245.66,256l-119.6,119.6c.31-.43.63-.86,1-1.28-.79-1.26-1.56-2.54-2.33-3.82a204.11,204.11,0,0,1-27.57-83.06L218.85,165.66l5.35-5.36,17.39-17.38,2.62-2.62,6.07-6.07.33-.34,10-10,.27-.27,15.5-15.5,1.55-1.54L288,96.55l7.64-7.65,26.23-26.22c1,.1,2,.21,3,.33s1.77.21,2.65.33l.54.07.11,0,2.6.37c1,.14,1.95.3,2.92.46l1.51.25,1.41.25c1,.17,1.93.35,2.9.54l1,.19,1.2.24.53.11.74.16.21,0,1.17.25.42.09,1,.21c.81.19,1.61.37,2.41.57l2.47.6c.68.18,1.37.35,2.05.54l1.88.5,1.39.39,2.84.82.51.15.5.16,1,.31.69.22c.51.15,1,.32,1.54.49l.9.29c.34.11.68.21,1,.33l1,.34c.7.23,1.4.47,2.09.72,1,.34,2,.7,2.94,1.06s1.95.72,2.92,1.1l1.9.74,2.45,1,.59.25,1.92.82.69.29,2.07.91.33.15,1.26.57,1.25.57,2.29,1.08,2.57,1.26c.5.25,1,.49,1.48.75s1.09.55,1.63.84c.73.37,1.45.75,2.18,1.14l.21.12c.8.42,1.6.86,2.4,1.31l2.49,1.39q2.47,1.42,4.91,2.91C407.22,91.77,408,92.27,408.83,92.78Z"/></g><g class="cls-3"><path class="cls-4" d="M283,62.28,96.72,248.57c.13-1.42.26-2.84.41-4.26,0-.33.07-.66.11-1l0-.3q.06-.63.15-1.26c.17-1.46.36-2.93.56-4.39.1-.74.21-1.47.32-2.2.07-.42.13-.83.19-1.24.32-2,.66-4,1-5.92.13-.75.28-1.49.43-2.24.12-.58.23-1.16.36-1.73s.19-.89.28-1.33c.6-2.76,1.25-5.51,2-8.22.21-.79.43-1.59.64-2.39s.44-1.58.67-2.37.45-1.58.69-2.36c.09-.34.2-.68.3-1l.32-1a.83.83,0,0,1,0-.15c.29-.92.58-1.85.89-2.76.42-1.3.86-2.59,1.31-3.88.12-.36.25-.72.38-1.08.38-1.07.78-2.14,1.17-3.2l0-.08q.6-1.6,1.23-3.18c.36-.91.73-1.82,1.1-2.73l.3-.73c.4-.95.8-1.89,1.21-2.83q3.93-9.06,8.71-17.65l1.08-1.93c.33-.59.67-1.18,1-1.76l.3-.51c.31-.52.61-1,.92-1.55l.74-1.23.75-1.22c.27-.44.54-.88.82-1.32.39-.63.79-1.25,1.19-1.86s.79-1.24,1.2-1.85c.81-1.24,1.63-2.45,2.47-3.67s1.61-2.3,2.43-3.45l.21-.3,1.2-1.63c.43-.59.87-1.18,1.31-1.76s.89-1.18,1.34-1.75c.9-1.16,1.8-2.32,2.73-3.46s1.85-2.27,2.8-3.39c.47-.57.94-1.12,1.42-1.68s1-1.11,1.45-1.66,1-1.1,1.46-1.64,1-1.09,1.48-1.63l1.49-1.62c.6-.64,1.21-1.28,1.82-1.91l.92-.94c.22-.24.45-.48.69-.71l2.33-2.33c.24-.24.47-.47.71-.69s.63-.61.94-.92c.63-.62,1.27-1.22,1.92-1.82l1.61-1.5,1.63-1.48,1.64-1.45L167.2,111c.56-.48,1.12-1,1.68-1.42q1.68-1.43,3.39-2.81t3.46-2.72c.58-.45,1.16-.9,1.75-1.34l1.76-1.31,1.63-1.2.3-.22c1.15-.82,2.29-1.63,3.45-2.42s2.43-1.67,3.67-2.47c.61-.41,1.23-.81,1.85-1.2s1.23-.8,1.86-1.19l1.32-.82,1.22-.75,1.23-.74,1.55-.92.51-.3,1.76-1,1.93-1.09q8.58-4.76,17.65-8.71l2.83-1.2.74-.3c.9-.38,1.81-.74,2.72-1.1s2.11-.83,3.18-1.23l.09,0c1.05-.4,2.12-.79,3.19-1.17L233,73c1.29-.45,2.58-.9,3.88-1.32l2.76-.88.15-.05,1-.31c.34-.1.68-.21,1-.3.79-.24,1.57-.47,2.36-.69s1.58-.45,2.37-.67l2.39-.64q4.08-1,8.22-1.95l1.33-.29,1.73-.35c.75-.15,1.5-.3,2.24-.43,2-.38,3.94-.72,5.92-1l1.24-.19,2.21-.32c1.45-.21,2.92-.4,4.38-.57l1.26-.14.3,0,1-.11C280.17,62.54,281.59,62.4,283,62.28Z"/></g><path class="cls-1" d="M275.3,232.4h0c-.06-.24-.12-.48-.19-.71a7.25,7.25,0,0,0-.45-1.08,6.76,6.76,0,0,0-.61-1,7.32,7.32,0,0,0-5.27-3c-.09,2.15-.29,4.55-.64,7.29a1,1,0,0,0,0,.16l0,0-.44,12.54-.07,2.11h0l-.38,10.74-.05,1.36-.22,6.31c2.42-2.63,4-6.4,4.51-11.1a10.24,10.24,0,0,0,0-1.22l0-.32h0v0c.07-.24.13-.48.19-.72h0c.06-.25.13-.48.18-.72.2-.82.4-1.62.58-2.42.15-.61.29-1.21.43-1.81s.29-1.31.43-2c.65-3,1.2-6,1.63-8.74l.27-1.84c.06-.38.11-.76.16-1.14a5.6,5.6,0,0,0,.07-.59c0-.2,0-.41,0-.61A7.39,7.39,0,0,0,275.3,232.4ZM218.36,363.34l.24.35-.17-.25A.43.43,0,0,1,218.36,363.34Zm-.43-.51.07.08a2.12,2.12,0,0,0-.2-.24A1,1,0,0,1,217.93,362.83ZM401.18,120C388.89,100.29,361.67,90.86,321.74,82c-25.3-5.58-45.59-2.93-60.29,7.88C249.39,98.77,244.2,111,242,118.83c-9.77.22-22.25,5.64-29.76,14-10.06,11.15-10,25.09.22,38.26,11.38,14.7,18.78,42.85,24.18,63.39,1.32,5,2.54,9.68,3.72,13.8,2.22,7.88,4.2,13.6,6.71,17.34l-19.71,58.09-20.89,9.82h0l-2.14,1-1.93.67-23,8a7.4,7.4,0,0,0-4.52,4.54,7,7,0,0,0-.38,1.95,7.3,7.3,0,0,0,4.12,7c2.37,1.16,4.84,2.39,7.29,3.64,9.07,4.62,17.87,9.51,20.39,11.58,2.49,5.24,10.65,19.89,24.36,43.76q4.86,8.44,10.63,18.42a7.32,7.32,0,0,0,9.74,2.82l106.24-55.74a7.32,7.32,0,0,0,2.63-10.64l-15.7-22.86a7.82,7.82,0,0,0-1.36-1.5,4,4,0,0,0-.17-.36,7.33,7.33,0,0,0-4.95-3.91l-4.3-1-2.25-.5-8.62-2-9.26-2.1L311,295.63c4,1.91,9.16,4.12,15.64,6.54l0,0a9.09,9.09,0,0,0,.88.29l9.08,3,7.14,2.35a25,25,0,0,0,4.85,1.08,25.79,25.79,0,0,0,22.44-8.27c24.51-27.42,23.67-87.22,21.32-118.25,2.21.23,3.53.41,3.55.42a7.36,7.36,0,0,0,8.13-5.44c.29-1.16.59-2.32.83-3.36C410.62,150.36,409.44,133.19,401.18,120ZM205.61,370.26c.09.25.23.59.42,1A5.39,5.39,0,0,1,205.61,370.26Zm13.93-4.54a7.34,7.34,0,0,0-.53-1.35h0l-.12-.22-.14-.23a2.22,2.22,0,0,0-.15-.23l-.17-.25a.43.43,0,0,1-.07-.1l-.16-.2a2.05,2.05,0,0,0-.2-.23,2.12,2.12,0,0,0-.2-.24l-.15-.16a.39.39,0,0,1-.08-.1l-.27-.26a19.4,19.4,0,0,0-1.49-1.36l-.26-.21-.55-.44c-.66-.51-1.41-1.05-2.29-1.64v0a137.45,137.45,0,0,0-12.18-7.16l5.07-1.76,3.91-1.36.42-.15.29-.14,3.78-1.77h0L236.4,335.6a7.3,7.3,0,0,0,3.82-4.28l20.51-60.4a.29.29,0,0,0,.1,0,10.54,10.54,0,0,0,1.08-.32l.5-.19a5.32,5.32,0,0,0,.5-.21l.47-.23a4.92,4.92,0,0,0,.45-.24l.42-.24.39-.24a12.14,12.14,0,0,0,2.34-2s0,0,0,0c2.42-2.63,4-6.4,4.51-11.1a10.24,10.24,0,0,0,0-1.22l0-.32h0v0c.07-.24.13-.48.19-.72h0c.06-.25.13-.48.18-.72.2-.82.4-1.62.58-2.42.15-.61.29-1.21.43-1.81s.29-1.31.43-2c.65-3,1.2-6,1.63-8.74l.27-1.84c.06-.38.11-.76.16-1.14a5.6,5.6,0,0,0,.07-.59c0-.2,0-.41,0-.61a7.39,7.39,0,0,0-.18-1.56h0c-.06-.24-.12-.48-.19-.71a7.25,7.25,0,0,0-.45-1.08,6.76,6.76,0,0,0-.61-1,7.32,7.32,0,0,0-5.27-3,7,7,0,0,0-2.48.19,7.32,7.32,0,0,0-5.43,6.18,147.58,147.58,0,0,1-3.56,17.78c-.06.23-.1.45-.14.68a8.72,8.72,0,0,0-.08,1.17c-.71-1.95-1.59-4.67-2.64-8.41-1.16-4-2.36-8.62-3.64-13.51-3.89-14.77-8.38-31.85-14.6-46.7-3.46-8.26-7.46-15.83-12.18-21.93a25.91,25.91,0,0,1-3.37-5.52c-2.58-5.89-.69-9.82,1.21-12.44,5.75-8,18.89-11.62,22.2-10.59a7.31,7.31,0,0,0,11-5.69,39.13,39.13,0,0,1,3.16-11,37.72,37.72,0,0,1,9.4-13.07c.79-.7,1.62-1.38,2.51-2,6.7-4.92,15.25-7.54,25.55-7.85h0a94.46,94.46,0,0,1,22.9,2.47c23.64,5.23,42.86,10.7,55.83,18.36,6.35,3.75,11.2,8,14.34,13a26,26,0,0,1,1.4,2.54c3.86,7.76,4.64,17.86,2.4,31.17-.33,2-.72,4-1.19,6.12-1.74-.16-3.78-.32-6-.47-.64,0-1.29-.06-1.95-.07h-.07a7.32,7.32,0,0,0-6.62,4.19,7.56,7.56,0,0,0-.7,2.84,7.38,7.38,0,0,0,1.41,4.62c3.66,41.28,1,91.77-17.22,112.18a11,11,0,0,1-8.84,3.58,6.58,6.58,0,0,1-1-.08,11.19,11.19,0,0,1-2.06-.46l-7.08-2.34L332,288.5c-.12-.05-.24-.08-.37-.12a159.48,159.48,0,0,1-18.71-8.2,42.44,42.44,0,0,1-5.23-3.14,7.32,7.32,0,0,0-12,6L299,342.65a7.33,7.33,0,0,0,5.69,6.74l16,3.61,4.9,1.11.7.16a6.83,6.83,0,0,0,.47,2.08,7.14,7.14,0,0,0,1,1.84,2.8,2.8,0,0,0,.32.38,7.27,7.27,0,0,0,7.39,2.22l1.33,1.93,6.37,9.28-92.69,48.63C238.2,399.37,221.46,370,219.54,365.72Z"/><path class="cls-1" d="M264.34,261.48q-.31,0-.63,0a7.33,7.33,0,0,1-6.68-7.89l.06-.71a7.22,7.22,0,0,1,7.65-7,7.31,7.31,0,0,1,7,7.3c0,.12,0,.23,0,.35,0,.33,0,.73-.08,1.28A7.33,7.33,0,0,1,264.34,261.48Z"/><path class="cls-1" d="M264.41,260.09a5.15,5.15,0,0,1-.55,0,7.33,7.33,0,0,1-6.74-6.55,8.78,8.78,0,0,1,.05-2.05c0-.23.08-.46.14-.68A147.58,147.58,0,0,0,260.87,233a7.32,7.32,0,0,1,13.18-3.39,7.4,7.4,0,0,1,1.33,5.54,168.86,168.86,0,0,1-3.88,19.43A7.31,7.31,0,0,1,264.41,260.09Z"/><path class="cls-1" d="M257.74,271.27a15.3,15.3,0,0,1-4.31-.65,7.34,7.34,0,0,1-5.18-8.17,7.48,7.48,0,0,1,8.34-6.26,11.26,11.26,0,0,0,.36-1.84,7.33,7.33,0,0,1,14.55,1.74c-.71,6.08-3.08,10.62-6.87,13.13A12.38,12.38,0,0,1,257.74,271.27Z"/><path class="cls-5" d="M181.84,350.08s11.32,28.05,12.29,31.56,53.52,48.74,53.52,48.74L353.9,374.63l-10.61-15.39-5.12-7.48c-1.36.51-2.9,1.17-4.62,1.95-36.32,16.44-69.32-8.2-69.32-8.2L268.16,234l0,0a156.16,156.16,0,0,1-3.72,18.68s.17,13.49-8.92,10.83L233.28,329,207.1,341.29Z"/><path class="cls-6" d="M218.24,166.58C233.33,186,241,224,247.41,246.25c2.77,9.77,5.31,16.52,8.07,17.35,9.09,2.67,8.92-10.83,8.92-10.83a155.39,155.39,0,0,0,3.72-18.68c2.75-21.19-3.72-22.74,1.23-39.79,4.12-14.18,14.46-13.37,24.52-6.51a64.33,64.33,0,0,1,13.8,13.31c12.33,15.89,18.07.28,27.61-16.21,4.71-8.16,19.94-10.52,34.06-10.85,2.53,0,5,0,7.39,0q1.74,0,3.39.12c1,0,2,.08,3,.13a.37.37,0,0,1,.22,0c.61,0,1.18,0,1.73.08,7.07.45,11.94,1.12,11.94,1.12.29-1.1.58-2.17.81-3.26,12.89-53.38-11.16-68.41-77.63-83.1-67.83-15-72.4,38.05-72.4,38.05C238.47,121.42,196.56,138.6,218.24,166.58Z"/><path class="cls-7" d="M268.12,234.09l0,0-3.92,111.54s10.64,52.17,79.06,13.59l-7.89-12L306.25,341,303,282.68s6.11,5.1,26.27,12.63h0c31.78,6.08,32.2-14.46,32.2-14.46l-1.41-8,2-9-1.22-12.28,11.53-.72-3-76.81c-14.12.33-29.35,2.69-34.06,10.85C325.74,201.38,320,217,307.67,201.1a64.33,64.33,0,0,0-13.8-13.31c-10.06-6.86-20.4-7.67-24.52,6.51C264.4,211.35,270.87,212.9,268.12,234.09Z"/><path class="cls-5" d="M329.26,295.32l.35.12c2.24.74,10.57,3.46,16.42,5.41a18.82,18.82,0,0,0,19.6-5.12c22.59-25.26,22.17-85.12,18.88-120l-1.2-1.4a.37.37,0,0,0-.22,0c-1-.05-1.95-.1-3-.13s-2.23-.11-3.39-.12c-2.4-.05-4.86-.07-7.39,0l3,76.81-11.53.72L362,263.85l-2,9,1.41,8S361,301.4,329.26,295.32Z"/><g class="cls-8"><path class="cls-9" d="M397.38,146.91s1.8,19-15.48,17.11c-21-2.31-38.53-6.22-46.23,2.48s-11-14.69-32.15-21.8-34.81-12.83-38-1.94,4.08,21.51,4.08,21.51-29.4-21.16-33.58-6.2a43.28,43.28,0,0,0,1.23,27.07S215.05,162.46,222,150.59s20.09-19.13,30.45-13.77-.76-21.15,11.51-30.47,26.78-14.22,49-12.71c6.74.46,57.17,11.37,72.59,27.84A45.05,45.05,0,0,1,397.38,146.91Z"/></g><ellipse class="cls-9" cx="382.9" cy="122.4" rx="3.34" ry="11.53" transform="translate(41.66 334.88) rotate(-49.64)"/><path class="cls-10" d="M446.6,425.19c-1.12,1-2.25,2.05-3.39,3.05a213.87,213.87,0,0,1-46.39,31.07c-3.18,1.58-6.43,3.08-9.72,4.51a218,218,0,0,1-38.52,12.63c-2,.47-4.06.9-6.1,1.3s-3.93.75-6.15,1.13c-2.4.4-4.82.77-7.26,1.09h0c-2.75.37-5.53.69-8.32.94h0c-3.77.35-7.57.61-11.35.77-3,.12-6,.19-9,.19h0c-3,0-6-.06-9-.19l-2.61-.12h-.05c-2.91-.16-5.81-.37-8.71-.65h0c-2.77-.25-5.53-.57-8.29-.94a215.83,215.83,0,0,1-23.26-4.41c-.73-.18-1.46-.35-2.19-.55l-1.92-.5-1.38-.38c-1.11-.31-2.23-.62-3.35-.95-2.73-.8-5.54-1.68-8.35-2.64-1-.33-1.95-.66-2.92-1l-.49-.18c-.89-.31-1.78-.63-2.66-1l-.47-.17-2.66-1-.46-.18c-1-.37-1.91-.75-2.86-1.15s-2-.84-3.06-1.27l-2.07-.9h0c-.33-.13-.64-.28-1-.43-.92-.4-1.83-.81-2.74-1.23-.23-.11-.47-.21-.69-.33-.86-.39-1.72-.8-2.57-1.21l-2.75-1.34-.25-.13c-1-.48-1.93-1-2.88-1.47s-1.93-1-2.9-1.53l-.15-.08L195,454.5l-.18-.1c-.92-.52-1.84-1-2.75-1.57s-1.87-1.09-2.8-1.65-1.71-1-2.55-1.56a3.79,3.79,0,0,1-.34-.2l-2.65-1.67-1.83-1.19-1.27-.85c-.32-.2-.64-.42-1-.63-.75-.5-1.49-1-2.22-1.52l-1.37-.95-1.9-1.36c-.42-.29-.82-.59-1.23-.89q-2.43-1.77-4.79-3.61c-.43-.32-.85-.65-1.26-1-.87-.68-1.73-1.37-2.58-2l-.3-.25-1.11-.91-1-.87c-.4-.32-.79-.65-1.18-1q-2.66-2.25-5.23-4.59l-1.42-1.3c-.79-.72-1.57-1.45-2.35-2.19L150,421l-.77-.75c-.6-.59-1.2-1.17-1.78-1.77S146,417,145.3,416.25l-1.64-1.71c-.83-.88-1.66-1.77-2.48-2.67l-1.56-1.71-.88-1-1.55-1.77c-.55-.65-1.1-1.28-1.65-1.94l-1.17-1.39c-.5-.6-1-1.21-1.49-1.82-.34-.41-.67-.83-1-1.24-1-1.31-2.08-2.64-3.1-4-.39-.5-.77-1-1.15-1.52-.65-.88-1.31-1.75-1.94-2.63-.5-.68-1-1.37-1.48-2.07-.21-.3-.43-.6-.64-.91-.58-.83-1.16-1.66-1.72-2.49-.67-1-1.34-2-2-3-.81-1.22-1.6-2.47-2.38-3.72l-1.14,1.14c.33-.46.66-.91,1-1.35,5.88-7.76,12.46-14.52,19.76-19.42a53.88,53.88,0,0,1,7.24-4.13c44.8-21,56.53-25.24,56.53-25.24s.51,1.32,1.53,3.47h0c.61,1.29,1.4,2.86,2.38,4.63q.5.93,1.08,1.92c1.15,2,2.5,4.12,4.06,6.32.49.68,1,1.37,1.52,2.06,5.4,7.11,12.9,14.35,22.52,17.77a34.38,34.38,0,0,0,8.17,1.86l2.34.24c5,.54,10.2,1.14,15.4,1.64,10,1,20.12,1.57,29.62.65h0a71.46,71.46,0,0,0,10.82-1.86,44.28,44.28,0,0,0,21.43-12.05l.78-.82c1.13-1.21,2.12-2.35,3-3.42h0s0,0,0,0a31.93,31.93,0,0,0,4.72-7.38c.07-.16.13-.32.19-.47h0a9.62,9.62,0,0,0,.7-5.85c-1-4.23-5.69-5.22-5.69-5.22s60.77,5.24,90.83,42.36c.49.6,1,1.21,1.44,1.82A320.19,320.19,0,0,1,446.6,425.19Z"/><path class="cls-1" d="M421.27,376.68c-.42-.54-.83-1.08-1.27-1.61l0-.05q-.24-.31-.51-.63l-.17-.21,0,0-.1-.13q-.54-.66-1.11-1.32l0,0a1.07,1.07,0,0,0-.14-.16c-.47-.54-.93-1.06-1.41-1.59s-.83-.9-1.26-1.34l-.28-.3a.23.23,0,0,0-.07-.07l-.05-.06c-.49-.5-1-1-1.48-1.49v0c-.53-.52-1.07-1-1.61-1.54s-1.09-1-1.65-1.53l-1.69-1.48-1.46-1.22-.53-.43-.15-.13-1.31-1-1.77-1.36-2-1.44-1.63-1.14-1.7-1.15-.35-.23-1.59-1-.08-.05L394,352.78c-.62-.38-1.25-.75-1.87-1.11q-2.83-1.65-5.68-3.12c-.43-.23-.87-.45-1.31-.67l-.88-.44c-.65-.32-1.29-.64-1.95-.95l-.05,0c-.51-.25-1-.49-1.54-.72s-1.26-.59-1.9-.87l-1.35-.59-1-.43c-1.49-.63-3-1.24-4.44-1.81l-.2-.08-1.14-.43-1.38-.53-1.33-.48-1.32-.47-1.65-.57-1.86-.62-2-.66-1.61-.49-.79-.24-1-.3-.88-.26-.11,0-1.71-.48-.38-.1-1.31-.36-.83-.22-1.65-.42c-1.42-.36-2.81-.7-4.15-1L345.4,334l-.11,0-1.36-.3-.87-.18-1-.21-1-.19-.91-.18-1.68-.32-.91-.17-.6-.1-1.21-.21-.88-.15-1.86-.28c-1.08-.17-2.06-.31-2.92-.43l-.65-.08h-.12l-.69-.09h-.12l-.42-.05-.38,0-.52-.06-.22,0-.36,0h-.05l-.43,0h-.3a4.36,4.36,0,0,0-4.41,2.73,4.43,4.43,0,0,0,1.1,4.9h0a.91.91,0,0,0,.17.17,6.65,6.65,0,0,1,2.13,4.6,7.81,7.81,0,0,1-.1,1.79h0l0,.1a18,18,0,0,1-3.95,7.72h0a1.24,1.24,0,0,1-.14.18h0c-.62.76-1.31,1.53-2.05,2.31a35.51,35.51,0,0,1-4.05,3.65h0a40.85,40.85,0,0,1-14.2,7,75.09,75.09,0,0,1-20.08,2.45h0c-5.33,0-10.81-.31-16.35-.8-4.57-.4-9.16-.91-13.74-1.41l-.47-.05-7.12-.77a29.12,29.12,0,0,1-4.72-.86c-10-2.69-17.81-10.22-23.27-17.54-.21-.27-.41-.55-.6-.82h0c-1.55-2.13-2.9-4.23-4.05-6.17-.72-1.2-1.35-2.35-1.91-3.4s-1.13-2.18-1.56-3.07h0c-1-2-1.48-3.3-1.5-3.36a4.39,4.39,0,0,0-5.59-2.56l-.23.09-.2.07-.13,0-.15.06-.57.22-.47.18a2.18,2.18,0,0,1-.27.11l-.83.34-.47.18-.38.16-.84.35-.45.18-.48.2-.5.21-3,1.27-.9.39c-.18.08-.36.15-.54.24l-1.14.48a.42.42,0,0,1-.14.06l-1.07.47-.85.37c-1.85.8-3.91,1.71-6.22,2.73l-1.07.47-1,.46-.28.12-.17.08-1.72.77-2.66,1.19L170,340.24l-2.73,1.24-.09,0-2.8,1.28-2,.93-2.57,1.19-2.13,1-1.74.8-5.2,2.41-3.12,1.45-5.13,2.4c-10.5,4.91-19.67,13.35-27.61,23.5.81,1.35,1.63,2.7,2.47,4-.35.44-.68.89-1,1.35l1.14-1.14c.78,1.25,1.57,2.5,2.38,3.72,7.59-10.3,16.36-18.82,26.35-23.5,11.69-5.48,21.13-9.82,28.7-13.23h0c12.37-5.59,19.71-8.71,23.64-10.33.75,1.59,1.74,3.53,3,5.7l.09.15c1.12,2,2.44,4.14,4,6.36.83,1.22,1.73,2.46,2.7,3.7,1.34,1.75,2.81,3.51,4.41,5.22v0a62,62,0,0,0,6.3,5.87h0a47.38,47.38,0,0,0,11.45,6.89,39.89,39.89,0,0,0,9.43,2.63l1.8.22c2.47.25,5,.53,7.51.81l6.66.72c15,1.56,30.62,2.66,44.49-.65a56.47,56.47,0,0,0,7-2.1h.07A46.49,46.49,0,0,0,325,361.4c1-1.08,2-2.15,2.8-3.21s1.4-1.85,2-2.77h0a1.63,1.63,0,0,1,.11-.17h0a24.18,24.18,0,0,0,3.33-7.56,8,8,0,0,0,.18-.82h0a17,17,0,0,0,.25-4.48,14.09,14.09,0,0,0-.19-1.49,1.48,1.48,0,0,0,0-.19c17.37,2.92,57.78,12.43,79.8,39.95.36.45.72.91,1.07,1.37a317,317,0,0,1,28.93,46.23c1.14-1,2.27-2,3.39-3.05s2.24-2.07,3.34-3.13A323.53,323.53,0,0,0,421.27,376.68ZM218.89,364.15l-.14-.23a2.22,2.22,0,0,0-.15-.23l-.17-.25a.43.43,0,0,1-.07-.1l-.16-.2a2.05,2.05,0,0,0-.2-.23l-.07-.08a1,1,0,0,0-.13-.16l-.15-.16a.39.39,0,0,1-.08-.1l-.27-.26-.42-.41a.46.46,0,0,0-.07-.07l-.08-.08a.87.87,0,0,0-.11-.09l-.32-.3-.06-.05-.43-.36-.26-.21-.55-.44c-.66-.51-1.41-1.05-2.29-1.64a62,62,0,0,0,6.3,5.87Z"/><path class="cls-1" d="M300.35,558.14a104.34,104.34,0,0,1-79.54-172c1.71-2,3.5-4,5.33-5.8,1.17-1.19,2.41-2.39,3.7-3.57s2.75-2.46,4.15-3.61a104.38,104.38,0,0,1,28.87-16.9c.86-.33,1.74-.65,2.61-1a104.36,104.36,0,0,1,33.4-6c1,0,2,0,3,0H302l1.52,0h.13l1.7.07,1.56.09h.14l1.67.13,1.6.13.4.05q.45,0,.9.09c.69.07,1.37.15,2.05.24,1,.13,2,.28,3.06.44.56.08,1.11.18,1.66.28l1.55.28c1.32.26,2.29.46,3.2.66l1.52.36c.54.12,1.07.25,1.6.39l1.36.36.1,0,.56.16c.45.13.91.25,1.36.39l.87.26.18.05,1.11.35.33.11,1.54.5,1.26.43.39.14,1.63.6.3.11,1.33.51,0,0,.32.13.2.08.62.26.45.18c.67.27,1.28.53,1.9.81l.53.23.15.07,1.08.49c.73.33,1.5.7,2.27,1.08l1,.47,1.79.92.26.14c.56.29,1.11.59,1.66.9l1.47.83.07,0,.13.08.09.05.52.3.26.15c.93.56,1.85,1.12,2.76,1.7.55.35,1.14.72,1.71,1.11,1.42.94,2.91,2,4.37,3.05l1,.76,1.41,1.09.1.08c.62.48,1.19.94,1.75,1.41.4.32.81.66,1.22,1,1,.8,2,1.72,3.16,2.78.65.6,1.32,1.22,2,1.85.44.43.88.86,1.31,1.3,1.82,1.82,3.55,3.67,5.14,5.52.51.59,1,1.21,1.56,1.84l.18.22c.48.58.95,1.18,1.42,1.77s1,1.34,1.54,2,1,1.35,1.48,2c.36.5.71,1,1.06,1.52.5.73,1,1.48,1.49,2.24s.89,1.37,1.33,2.1l.33.53c.28.47.59,1,.89,1.51a.41.41,0,0,1,.05.09l.25.43c.1.16.19.32.28.48q.51.88,1,1.77a.54.54,0,0,1,.05.11c.34.61.66,1.22,1,1.84.23.43.48.92.73,1.41s.54,1.09.79,1.64.4.84.59,1.26.52,1.13.78,1.72.46,1.08.7,1.65c.07.15.12.29.17.4l.28.69.33.83.06.15.3.76c.11.29.22.58.32.87l.11.29.24.66c.68,1.87,1.32,3.8,1.88,5.68.12.43.25.85.37,1.29.53,1.86,1,3.75,1.41,5.55.27,1.18.51,2.35.73,3.53.07.37.15.8.22,1.23s.17.92.24,1.4l.18,1.11s0,.05,0,.07c.08.56.17,1.13.24,1.7s.18,1.39.26,2.1.13,1.22.19,1.87.13,1.29.17,1.95.09,1.3.13,2,.07,1.3.1,1.95q0,.49,0,1c0,.25,0,.5,0,.74v.27c0,.68,0,1.35,0,2s0,1.41,0,2.1v.29c0,.55,0,1.1-.05,1.65,0,.39,0,.82-.06,1.26v.12c0,.32,0,.64-.05,1s0,.68-.07,1c0,.52-.07,1-.12,1.55,0,.33-.06.69-.1,1.05-.06.66-.13,1.31-.2,2-.11,1-.24,2-.39,3-.05.37-.11.75-.17,1.14l0,.16c-.05.33-.09.62-.14.9s-.15.85-.22,1.27-.14.77-.22,1.16l-.13.71c-.08.38-.15.75-.23,1.12l0,.16c-.08.39-.16.78-.25,1.17s-.19.83-.29,1.23c-.27,1.2-.58,2.41-.95,3.71-.06.25-.14.55-.23.85-.34,1.2-.72,2.45-1.16,3.81-.57,1.73-1.16,3.38-1.76,4.93-.1.28-.22.58-.34.89l-.05.12c-.19.49-.39,1-.59,1.46s-.42,1-.62,1.45l-.56,1.28c-.21.47-.43,1-.65,1.43l-.61,1.29c-.56,1.16-1.14,2.31-1.72,3.4l-.74,1.38s0,.07-.05.1c-.7,1.25-1.34,2.37-2,3.43q-.48.81-1,1.62-1.15,1.85-2.31,3.54c-.3.45-.62.9-.94,1.35s-.43.62-.66.93l-.36.49c-.41.57-.83,1.13-1.25,1.68s-.92,1.2-1.41,1.81l-1.37,1.69-.17.19c-.14.18-.28.35-.43.52-2,2.41-4.21,4.76-6.48,7-.38.38-.81.79-1.25,1.2s-.89.85-1.37,1.28c-.31.3-.61.57-.91.84l-.37.32c-.15.15-.31.28-.47.42q-.75.68-1.53,1.32l-.06,0-.3.26c-.65.54-1.3,1.08-2,1.6l-1.56,1.22-1.58,1.19-1.44,1c-1.75,1.25-3.51,2.42-5.25,3.51-.57.36-1.16.71-1.75,1.06s-1.13.68-1.73,1-1.17.66-1.79,1l-1.77,1c-.69.36-1.43.74-2.17,1.1l-1.48.71c-.6.29-1.27.59-1.93.89s-1.19.53-1.79.78l-.89.38-1,.42-1.74.68h0l-.2.08-.06,0-1.5.55-.1,0-.6.22c-.48.17-1,.35-1.53.52-1.34.45-2.7.88-4,1.26-.46.14-1,.29-1.5.42-.74.21-1.48.41-2.22.59l-1.81.44-1.38.3a104.39,104.39,0,0,1-13.8,2l-1.63.12c-.81.06-1.61.09-2.42.13l-.78,0c-.51,0-1.08,0-1.65,0S301,558.14,300.35,558.14Zm0-20.62a6.1,6.1,0,0,1,5.69,8.27l.2,0,1.47-.1a92.32,92.32,0,0,0,12.19-1.8l1.31-.29,1.52-.37c.66-.16,1.28-.33,1.89-.5l.09,0,1.28-.36c1.23-.36,2.41-.73,3.59-1.12l1.38-.47.4-.15.16-.06,1.39-.51.12,0,.08,0,1.56-.61.13-.05c.22-.08.43-.17.65-.27l.07,0,.82-.34c.55-.23,1.06-.46,1.58-.69s1.12-.51,1.68-.77l1.36-.66c.66-.32,1.27-.63,1.87-.95l1.59-.85c.54-.29,1-.57,1.53-.86s1.07-.61,1.57-.91l1.55-.94c1.54-1,3.1-2,4.63-3.09L355,528l1.46-1.1,1.37-1.07c.59-.47,1.14-.92,1.68-1.38l.06-.05.31-.26h0l1.38-1.2.15-.12.07-.06a1.29,1.29,0,0,1,.17-.16l.18-.16.15-.13.73-.67.06-.06c.4-.36.8-.73,1.19-1.11s.74-.71,1.08-1.05c2.05-2,4-4.09,5.78-6.22l.05-.06.28-.33.21-.25,1.19-1.47c.42-.53.84-1.06,1.24-1.6s.77-1,1.13-1.51l.12-.16.09-.12.11-.15c.18-.25.36-.5.53-.76l.07-.09c.24-.34.48-.67.7-1l.08-.12c.68-1,1.37-2.05,2.05-3.13.29-.46.58-.94.87-1.43.57-.94,1.14-1.94,1.76-3.06l.71-1.31c.5-.95,1-1.95,1.5-3l.56-1.19c.2-.41.37-.79.53-1.16l.54-1.24c.19-.42.35-.81.51-1.2s.35-.83.5-1.23l.08-.2c.11-.26.21-.52.31-.79.53-1.38,1.05-2.83,1.54-4.33.39-1.2.73-2.32,1-3.38,0,0,0,0,0-.07l.18-.65c.33-1.19.6-2.26.84-3.3l0-.13q.12-.44.21-.87a.3.3,0,0,1,0-.1c.08-.34.15-.69.22-1l.05-.19c.06-.32.12-.6.17-.89l.12-.6a.29.29,0,0,1,0-.09c.06-.31.12-.64.18-1s.13-.75.19-1.12l0-.16.09-.58v-.07l0-.18.15-.95c.13-.91.24-1.79.34-2.68.07-.6.13-1.16.18-1.73a.22.22,0,0,0,0-.08c0-.29.06-.58.08-.88s.07-.85.1-1.26a.76.76,0,0,1,0-.15l.06-.91c0-.3,0-.53,0-.76v-.07c0-.43,0-.8.05-1.16s0-1,.05-1.45v-.24c0-.62,0-1.27,0-1.9s0-1.18,0-1.77h0v-.35c0-.15,0-.3,0-.45V451c0-.26,0-.53,0-.8,0-.6-.05-1.21-.09-1.8s-.07-1.21-.11-1.81-.09-1.09-.15-1.64-.1-1.1-.17-1.65-.14-1.24-.22-1.82c0,0,0-.08,0-.12-.06-.47-.13-.94-.2-1.4l-.17-1.09c-.06-.41-.12-.74-.18-1.07,0,0,0-.07,0-.11-.06-.37-.13-.74-.2-1.1-.2-1.07-.41-2.08-.65-3.14q-.54-2.42-1.26-4.94c-.11-.42-.21-.76-.32-1.11-.48-1.65-1-3.34-1.66-5l-.35-1c-.08-.23-.15-.4-.21-.57a.42.42,0,0,1,0-.1c-.07-.2-.15-.39-.23-.58l-.09-.23c-.09-.24-.16-.42-.24-.59a1.67,1.67,0,0,0-.08-.2,4.22,4.22,0,0,0-.18-.45,3.65,3.65,0,0,1-.14-.35c-.22-.5-.43-1-.65-1.5s-.45-1-.67-1.51-.37-.78-.54-1.14a1,1,0,0,1,0-.1L383,412.8l-.64-1.25c-.32-.61-.61-1.16-.91-1.71h0l0-.07c-.27-.5-.55-1-.83-1.5l-.06-.1-.09-.16-.11-.18-.26-.45-.86-1.45-.07-.12-.14-.22c-.37-.62-.76-1.24-1.16-1.83s-.89-1.36-1.33-2l-.94-1.35c-.44-.61-.87-1.21-1.31-1.8s-.91-1.18-1.37-1.77-.9-1.13-1.36-1.69l-.14-.18-1.31-1.53c-1.4-1.64-2.92-3.27-4.53-4.87-.38-.39-.77-.77-1.16-1.15-.56-.54-1.14-1.09-1.73-1.62-1-1-1.95-1.76-2.79-2.47l-1.08-.9-1.52-1.22-.05,0-1.36-1c-.29-.23-.55-.42-.81-.61-1.34-1-2.65-1.9-3.94-2.75-.51-.35-1-.65-1.47-1-.82-.52-1.62-1-2.42-1.49l-.32-.18-.37-.22,0,0-.09-.05-.22-.12-1.25-.71-1.48-.8-.18-.1-1.62-.83-.8-.4c-.71-.35-1.37-.66-2-1l-.89-.4-.07,0-.22-.1-.35-.15c-.55-.24-1.07-.47-1.6-.68l-.54-.22-.56-.23-.35-.14-.1,0-.06,0-1.1-.42-.28-.11-1.5-.54-.17-.07h0l-1.11-.38-.09,0-1.31-.43-.36-.11-.91-.29-.22-.07-.68-.2-.09,0-1.2-.35-.55-.15-1.15-.3-.09,0-1.29-.33-1.47-.34c-.9-.2-1.84-.39-2.77-.57l-1.38-.25h-.08l-1.26-.21-.09,0c-.93-.14-1.86-.28-2.79-.4-.61-.08-1.17-.15-1.73-.2l-.14,0-.67-.07-.45,0c-.41-.05-.85-.08-1.29-.12l-1.44-.1h-.15l-.27,0a6.11,6.11,0,0,1-5.68,8.28h-.61l-.95,0h-.45a3,3,0,0,1-.42,0l-1.65.06h-.32l-.32,0h-.29l-.88.06h0l-.35,0-.32,0-1.68.15-.2,0-.16,0h0l-1.06.12-.22,0a6.45,6.45,0,0,1-.76,0,7.2,7.2,0,0,1-.78.16l-.74.1a6.06,6.06,0,0,1-.95.06,5.77,5.77,0,0,1-.93.24l-.3.05h-.09a5.54,5.54,0,0,1-.57.07,7,7,0,0,1-.69.17l-.54.1a5.24,5.24,0,0,1-.53.08,5.12,5.12,0,0,1-.56.15l-.85.18a5.67,5.67,0,0,1-1.15.15,6,6,0,0,1-1,.35l-.23.06-.39.09-.37.1h0c-1.05.28-2.09.57-3.08.88l-.14,0h0l-.18.05-.11,0h0c-.61.19-1.21.39-1.82.6h0l-.08,0-.1,0-1.55.55-.16,0-.13.05c-1.21.45-2.43.93-3.61,1.43h0l-.08,0-.12,0c-1.17.5-2.34,1-3.48,1.58l-.12.06-.15.07c-1.28.62-2.6,1.3-3.92,2h0a5.51,5.51,0,0,1-.78.36,6.45,6.45,0,0,1-.69.47l-.71.42c-.2.12-.42.23-.63.33s-.37.27-.56.39c-1,.61-2,1.24-2.92,1.87h0l-.13.09-.1.07c-1,.66-2,1.37-3,2.09l0,0a6.3,6.3,0,0,1-1,.59,6.46,6.46,0,0,1-.84.81c-2.09,1.64-4.11,3.4-6,5.23l-.05.05-.12.12c-.42.39-.83.8-1.24,1.2v0l0,0-.06.05c-.4.41-.81.82-1.21,1.24h0l-.14.15-.16.17c-.33.34-.65.69-1,1h0l-.19.2-.16.19h0l-1.08,1.21-.13.15-.14.16c-1.26,1.46-2.47,3-3.61,4.49h0l-.05.06-.07.11,0,0-.3.4,0,0c-.95,1.3-1.89,2.65-2.78,4a6.94,6.94,0,0,1-.51.67,5.15,5.15,0,0,1-.36.7l-.1.16-.17.27-.13.21-.12.2c-.31.52-.62,1-.92,1.56l0,0h0c-.3.52-.6,1.05-.89,1.58h0l-.09.17-.1.18c-.27.49-.53,1-.78,1.49l-.07.12a.25.25,0,0,1,0,.07c-.59,1.16-1.16,2.34-1.69,3.52h0a.59.59,0,0,0,0,.08l0,.09c-.15.33-.29.65-.43,1l-.07.16h0a5.59,5.59,0,0,1-.75,1.28,6.63,6.63,0,0,1-.37,1.44c-.22.55-.43,1.11-.64,1.67l0,0v0h0l-.08.21c-.4,1.11-.79,2.27-1.16,3.43h0a1.07,1.07,0,0,1-.07.19,1.46,1.46,0,0,1,0,.2h0l-.48,1.6a1.33,1.33,0,0,1-.05.19c0,.06,0,.12,0,.18v0c-.1.34-.19.68-.28,1l0,.14c0,.14-.08.29-.13.43l-.09.42c-.14.54-.27,1.09-.4,1.63l-.06.22c0,.08,0,.15,0,.23v0l-.18.81,0,.16a4.94,4.94,0,0,1-.15.55c0,.19-.05.37-.08.56h0a.13.13,0,0,0,0,.06.29.29,0,0,0,0,.09l-.18.92v0h0l-.09.4c0,.12,0,.24,0,.36-.11.58-.21,1.17-.3,1.76h0v0s0,.07,0,.1,0,.1,0,.15c-.09.6-.18,1.2-.26,1.81h0s0,.08,0,.11h0v.07c-.07.59-.14,1.18-.2,1.77v0l0,.25a2.83,2.83,0,0,1,0,.29h0c-.12,1.2-.21,2.37-.27,3.5a.76.76,0,0,0,0,.15c0,.09,0,.18,0,.26v0c0,.74-.06,1.49-.08,2.24l0,.71v.14c0,.4,0,.81,0,1.21,0,.68,0,1.36,0,2h0v.12a.38.38,0,0,0,0,.1h0a83.57,83.57,0,0,0,3.08,20.41h0v0c0,.06,0,.12,0,.19s0,.11.05.17c.17.59.35,1.19.53,1.77v.06l0,0v0c.34,1.08.72,2.18,1.14,3.37h0c0,.11.07.21.1.32l.12.3c.56,1.51,1.19,3.06,1.88,4.63h0c.09.21.17.43.24.64a5.65,5.65,0,0,1,.31.6h0l.6,1.28.09.18a.8.8,0,0,0,.08.16v0c.83,1.71,1.72,3.41,2.66,5.05l.09.15.09.16h0c1,1.68,2,3.35,3.09,4.94l0,.06c1.08,1.6,2.24,3.18,3.44,4.72a1.34,1.34,0,0,1,.11.14l.09.11,0,0c.72.92,1.49,1.85,2.27,2.76l0,0,.19.24a3.07,3.07,0,0,1,.25.26c.28.33.56.65.85,1h0l.21.24.23.24h0l1.2,1.28,0,0h0l0,0,.06.07c.37.39.75.77,1.12,1.15a1.59,1.59,0,0,1,.13.13l.19.17h0l.93.91c.09.08.16.16.24.24l.24.22,1.08,1h0a1.29,1.29,0,0,1,.17.16l.17.14h0l.16.15,1.05.93h0l.11.1.05,0,0,0,.4.34.29.24c.17.15.33.3.49.47a4.6,4.6,0,0,1,.52.38l.67.54h0a5.82,5.82,0,0,1,.45.4,4.84,4.84,0,0,1,.46.33h0c.42.33.84.66,1.27,1l.06,0,1.21.88h0l.36.29.4.25.53.38.52.36.22.15.2.13h0l1.38.91.15.1.14.08,0,0,1,.62.4.27.4.22h0l.52.32.28.16.61.36.21.11,0,0a6,6,0,0,1,1.07.77,6.44,6.44,0,0,1,1.23.49l.71.38.35.2.34.15.44.22a6.06,6.06,0,0,1,1.08.7,5.84,5.84,0,0,1,1.22.41l.3.14,0,0a5.68,5.68,0,0,1,1.21.74,5.9,5.9,0,0,1,1.39.39l1.48.61.22.09.33.11h0l1,.39h0l.31.13.35.11,1.24.44h0l.28.1.3.1h0l.62.2,0,0q1.31.42,2.64.81h0l.4.13.43.1h0l.95.26h0a6.21,6.21,0,0,1,.61.2l.63.12.14,0,.9.21.64.19c.23,0,.46.06.7.11l.35.08.51.11.14,0,.17,0h0c1.09.22,2.24.43,3.41.61h0l.33.07.25,0h0l1.61.23h.09l.3.05.41,0h0l1.19.14h0l.35.05.35,0h0l1.68.15h0l.2,0h.24l.43,0,1.11.06h0l.3,0h.35l1.15,0a6.21,6.21,0,0,1,1.38.21,6.19,6.19,0,0,1,1.37-.16h.06Zm32.24,2.65h0Zm0,0h0Zm64.79-47.95h0Zm0,0Zm-11.16-4.85h0Zm0,0h0ZM398.63,456h0Zm-12.92-37.17h0Zm0,0h0Zm0,0h0Zm0,0h0Zm0-.05,0,.05Zm0,0h0Zm0,0Zm0,0Zm-54.43-51.87Zm0,0h0Zm0,0h0Zm0,0Zm0,0Zm0,0ZM349,361.39Zm0,0h0Zm0,0,0,0Z"/><circle class="cls-11" cx="300.34" cy="453.74" r="89.87"/><path class="cls-9" d="M398.63,451.83c0-.31,0-.63,0-.94s0-.63,0-.95c0-.62-.05-1.25-.09-1.88s-.08-1.25-.12-1.87-.1-1.21-.16-1.8-.11-1.2-.18-1.79-.15-1.31-.25-2-.14-1.06-.22-1.59-.12-.78-.19-1.16-.12-.82-.2-1.23-.15-.81-.23-1.22c-.2-1.11-.43-2.22-.68-3.32-.4-1.77-.85-3.53-1.34-5.26-.11-.4-.22-.78-.34-1.17q-.81-2.71-1.77-5.37l-.36-1q-.12-.36-.27-.72c-.11-.31-.23-.61-.36-.91s-.19-.5-.29-.73-.19-.49-.3-.73a1.07,1.07,0,0,0-.07-.19c-.24-.56-.47-1.12-.72-1.67s-.48-1.09-.73-1.63l-.57-1.22c-.23-.49-.47-1-.72-1.48l-.69-1.36c-.31-.6-.63-1.19-1-1.79h0c-.3-.57-.62-1.13-.94-1.69-.07-.13-.14-.26-.22-.39l-.31-.54c-.29-.5-.6-1-.9-1.5-.07-.12-.14-.24-.22-.36q-.62-1-1.29-2c-.46-.71-.92-1.41-1.4-2.1l-1-1.44c-.45-.64-.92-1.28-1.39-1.91l-1.44-1.88c-.49-.61-1-1.23-1.48-1.83h0c-.51-.6-1-1.2-1.53-1.79q-2.31-2.69-4.82-5.19c-.41-.41-.82-.82-1.24-1.22-.61-.58-1.23-1.17-1.86-1.74-1-.9-2-1.77-3-2.63-.38-.32-.76-.64-1.15-1s-1.06-.87-1.59-1.29l-1.51-1.16-.91-.68c-1.37-1-2.75-2-4.16-2.91-.52-.35-1.05-.69-1.59-1-.84-.53-1.7-1.06-2.56-1.56-.25-.16-.51-.31-.78-.46l-.1-.07h0l-.14-.08-1.42-.8-1.58-.86-.13-.07-1.46-.75-1.19-.6-2.16-1-1-.44-.65-.3L338,362.9l-1.07-.44-.43-.17h0l-.09,0-1.53-.59-1.63-.59L333,361c-.41-.14-.82-.29-1.24-.42s-1-.33-1.45-.48-.91-.3-1.37-.43l-1-.3-1.89-.53-1.3-.34-1.47-.37-1.47-.34c-1-.22-2-.42-3-.62l-1.51-.27c-.5-.09-1-.18-1.5-.25-1-.16-2-.3-3-.43-.63-.08-1.26-.16-1.9-.22l-1.24-.13-1.49-.13-1.58-.11h0c-.53,0-1-.07-1.57-.09l-1.56-.06-1.57,0h-3a99.17,99.17,0,0,0-31.45,5.63l-2.46.91a98.48,98.48,0,0,0-27.19,15.92q-2,1.64-3.9,3.38c-1.19,1.11-2.36,2.23-3.5,3.39q-2.61,2.63-5,5.45A98.82,98.82,0,0,0,216,403.23q-2.52,4.2-4.63,8.66A98.24,98.24,0,0,0,202,453.74a98.64,98.64,0,0,0,1.8,18.8,96.5,96.5,0,0,0,3.07,11.78,98.48,98.48,0,0,0,93.44,67.73h0l1.79,0,1.54,0,.73,0c.75,0,1.5-.06,2.24-.11.53,0,1.05-.07,1.57-.12a97.43,97.43,0,0,0,13-1.91l1-.21.38-.09,1.69-.41c.7-.17,1.38-.35,2.07-.54l1.44-.41c1.28-.37,2.54-.76,3.79-1.18l1.47-.5.63-.23,1.55-.58a.11.11,0,0,0,.07,0L337,545c.3-.11.59-.23.89-.36l.89-.38c.56-.23,1.12-.48,1.68-.73l1.82-.84,1.41-.68c.68-.33,1.36-.68,2-1s1.13-.59,1.69-.9,1.11-.61,1.66-.93,1.11-.64,1.65-1,1.09-.65,1.63-1q2.51-1.57,4.92-3.29c.46-.33.92-.66,1.37-1s1-.74,1.49-1.11,1-.78,1.5-1.18,1.21-1,1.8-1.47l.37-.31,1.49-1.29.36-.32.35-.31.89-.81c.43-.4.87-.8,1.3-1.22s.78-.74,1.16-1.12q3.21-3.16,6.12-6.61c.19-.21.37-.43.55-.66.44-.52.87-1.05,1.29-1.58s.91-1.14,1.34-1.72.81-1.06,1.2-1.61l.29-.39.64-.9c.29-.41.58-.82.85-1.24.76-1.1,1.49-2.22,2.2-3.35.32-.51.63-1,.94-1.54.64-1.07,1.27-2.16,1.88-3.26l.73-1.37c.56-1.05,1.1-2.12,1.61-3.2.21-.41.41-.83.6-1.25s.39-.85.58-1.27l.56-1.28.54-1.28c.2-.47.39-.93.58-1.41,0,0,0-.05,0-.07.13-.3.24-.61.35-.91.59-1.51,1.14-3,1.64-4.6q.58-1.8,1.11-3.63c.08-.26.15-.53.22-.79q.48-1.74.9-3.51c.09-.36.17-.74.25-1.11s.2-.88.29-1.32.14-.65.2-1c0-.07,0-.13,0-.21l.09-.47.21-1.11c.07-.4.14-.8.2-1.21s.1-.55.14-.83.13-.81.19-1.22c.13-.94.25-1.89.36-2.84.07-.62.14-1.23.2-1.85l.09-1c0-.47.08-1,.11-1.43s0-.69.07-1,0-.6,0-.9,0-.84.05-1.26,0-1,.05-1.57v-.18q0-1,0-2C398.66,453.1,398.65,452.47,398.63,451.83Zm-11.94,26.85c-.14.49-.29,1-.44,1.46s-.28.9-.42,1.35a.42.42,0,0,1,0,.1c-.08.24-.15.48-.23.72s-.17.49-.25.73c-.17.48-.33.95-.51,1.42a1.21,1.21,0,0,0-.05.14l-.48,1.28c-.37.94-.74,1.88-1.13,2.81a.94.94,0,0,0-.06.15h0c-.22.52-.45,1-.69,1.57-.09.21-.18.42-.28.63l-.3.64-.12.27c-.21.45-.43.9-.65,1.34s-.44.88-.67,1.33c-.06.13-.13.25-.2.38l-.06.12c-.33.63-.66,1.25-1,1.87l-.07.15c-.36.63-.72,1.26-1.09,1.89,0,0,0,0,0,.05-.39.65-.78,1.29-1.18,1.93-.2.32-.4.65-.61,1l-.61,1a1,1,0,0,0-.08.11c-.39.59-.79,1.18-1.19,1.76l0,0c-.38.54-.75,1.07-1.13,1.59l-.08.12c-.07.08-.13.17-.2.26l-.65.88c-.21.29-.44.58-.66.86-.38.5-.78,1-1.16,1.49l-.2.23L369,511.7l-.36.41c-.46.55-.93,1.08-1.41,1.61s-1,1.13-1.54,1.67-1,1-1.5,1.55l-.3.32c-.43.43-.88.86-1.32,1.28-.07.08-.15.15-.23.23l-1.22,1.13a2.39,2.39,0,0,1-.23.22.69.69,0,0,1-.13.11c-.51.47-1,.94-1.55,1.39l-.15.13-1.55,1.31-.15.12-1.54,1.24-.18.14-.89.69-.9.68-.05,0-.56.41-1.25.9-.94.65-.94.64c-.58.38-1.17.77-1.76,1.14l-.49.31-1.61,1-.25.15c-.61.36-1.24.73-1.87,1.08s-1.08.6-1.62.88l-.37.2c-.62.33-1.24.64-1.87,1h0c-.64.32-1.28.63-1.93.93l-.14.07-1.85.84-.52.22-1.85.77-1.12.44-.92.36-.09,0h0l-1.59.58-1,.36-1.31.43-1.32.41-1.28.38-1.37.39-1.35.35-1.63.4-.41.09-1,.22-.22.05h-.08c-.53.12-1.07.23-1.61.33l-.06,0-.42.08-1.82.32-1.65.26-.18,0c-.54.08-1.09.16-1.63.22l-1.17.15-1.17.13-1.17.1q-1.18.11-2.37.18l-2.05.11h-.12c-.43,0-.86,0-1.3,0l-.82,0h-1.34c-1.16,0-2.32,0-3.47-.06l-1.71-.09-.81-.05-.92-.06-.82-.07-1.07-.1c-.5,0-1-.1-1.49-.16h0l-1.64-.2-1.11-.15-.24,0-2.13-.34h-.06l-1.08-.2-.33-.06-.1,0-1.45-.29q-2.53-.54-5-1.21c-.54-.14-1.07-.29-1.6-.45l-1.58-.47-.06,0-1.52-.49-1.45-.49-.17-.06L269,538l-1.53-.58-.07,0-1.45-.6c-1-.42-2-.86-3-1.31s-2-.93-2.94-1.42c-.49-.24-1-.49-1.45-.74-1-.51-1.91-1-2.85-1.57,0,0-.05,0-.08,0l-1.32-.78-1.73-1.06c-.53-.33-1.05-.67-1.57-1l-.14-.09c-1.12-.74-2.23-1.52-3.32-2.31l-.09-.07-1-.71c-.32-.24-.64-.48-.95-.73q-1.91-1.47-3.72-3c-.31-.25-.61-.52-.9-.78l-.9-.81-.59-.54-.59-.55c-.39-.37-.79-.74-1.16-1.11l-1.28-1.26-1-1-.1-.1c-.34-.35-.68-.71-1-1.08s-.73-.79-1.08-1.19-.71-.81-1.06-1.22-.71-.82-1-1.23l-1-1.25-1-1.28-.75-1-1.28-1.75-.83-1.18c-.26-.4-.53-.79-.8-1.19l-.79-1.21c-.38-.61-.77-1.21-1.15-1.84l-.74-1.24-.81-1.41c-.2-.37-.41-.73-.61-1.11-.1-.17-.19-.35-.28-.52-.22-.41-.44-.82-.65-1.24l-.09-.16L220,494l-.32-.64c-.25-.49-.48-1-.71-1.47l-.09-.18c-.42-.9-.82-1.8-1.22-2.72l0-.09c-.2-.45-.38-.9-.57-1.35l-.57-1.45c-.12-.28-.22-.57-.33-.86-.27-.71-.52-1.41-.76-2.11L215,482c-.12-.35-.23-.71-.35-1.06s-.26-.81-.38-1.22-.26-.88-.38-1.33-.26-.88-.38-1.33h0l-.24-.91c-.09-.35-.19-.71-.27-1.08s-.18-.72-.26-1.08c-.14-.61-.28-1.24-.41-1.86-.1-.47-.19-.95-.29-1.42a.28.28,0,0,0,0-.09l-.18-.95a1.38,1.38,0,0,1,0-.2c-.13-.69-.25-1.38-.35-2.08-.06-.37-.11-.75-.16-1.12l-.15-1.12c-.07-.53-.13-1.06-.19-1.58,0-.22-.05-.45-.07-.68s-.07-.75-.11-1.13a.11.11,0,0,1,0,0c0-.37-.06-.72-.08-1.09s-.06-.76-.08-1.14c0-.19,0-.38,0-.57,0-.36,0-.72-.05-1.08l-.05-1.07v-.07c0-.49,0-1,0-1.46s0-1,0-1.51,0-1,0-1.43,0-1,0-1.44v-.2c0-.39,0-.79.05-1.19s0-.51.05-.77v-.2c0-.12,0-.24,0-.36,0-.44.06-.88.1-1.32l.09-1.14c.05-.57.11-1.14.17-1.71a.78.78,0,0,1,0-.16l.15-1.31.18-1.33c.06-.48.13-.95.21-1.42s.15-.93.23-1.4c.24-1.35.5-2.69.8-4q.12-.6.27-1.2c0-.1.05-.21.07-.32.09-.38.19-.76.29-1.14.15-.6.3-1.2.47-1.79.08-.3.16-.6.25-.89s.16-.59.26-.89h0l.54-1.75c.15-.49.32-1,.48-1.46s.33-1,.51-1.45l0-.1.3-.82v0c.17-.45.33-.89.51-1.34.45-1.13.91-2.26,1.4-3.37h0c.22-.51.45-1,.68-1.51s.46-1,.71-1.5.49-1,.74-1.49l.75-1.47,1-1.82h0l1-1.79a.21.21,0,0,0,.06-.1l.85-1.39c.47-.76,1-1.53,1.45-2.28.32-.47.63-.94,1-1.4l.26-.39.82-1.16.47-.65.16-.2c.23-.33.48-.67.73-1l1-1.35a3,3,0,0,0,.22-.28l0,0c.36-.46.74-.92,1.1-1.37l0,0,.6-.71.59-.7q.28-.35.6-.69l.61-.69c.41-.46.82-.91,1.24-1.35s.84-.89,1.27-1.33l.12-.13,1.08-1.09c.4-.4.82-.8,1.23-1.18.17-.18.35-.35.53-.51l1-.93,1.24-1.1.06-.05.48-.42c.16-.15.33-.27.48-.41l1-.88,1.27-1c.87-.68,1.75-1.35,2.63-2l.63-.46.62-.45h0c.42-.31.85-.6,1.29-.9l0,0,1.11-.75,1.12-.74c.37-.22.74-.46,1.11-.69q2.21-1.36,4.49-2.61l1-.52,1-.51.93-.46,0,0,1.45-.7,1.5-.7c.49-.21,1-.44,1.47-.64l1-.43.18-.07.42-.18,1-.38,1.17-.46.89-.32,1-.38,1.33-.45c.51-.18,1-.35,1.54-.51l1.22-.37,1.26-.37.29-.08.45-.12c.15,0,.3-.09.45-.12.42-.12.82-.23,1.24-.33h.06c.88-.22,1.77-.43,2.65-.63l.16,0,1.88-.38,1.9-.35c1.69-.3,3.4-.55,5.12-.74l1.05-.12,1.42-.13.91-.07,1.26-.09.7,0,.7,0,1.21,0h.38l1.24,0,1.42,0h1.34l.82,0,1.42,0L306,364h.13c.55,0,1.08.08,1.63.12h.08l1.39.12q.72.06,1.44.15l1.47.18.22,0,1.68.24h.26l1,.17c.61.1,1.22.21,1.82.33l.42.08h.06c.54.1,1.08.21,1.61.33h.08l1.5.34h0l2,.49c.26.06.53.13.79.21l.44.11.91.26.66.19h0l.19.07.1,0,.09,0,.1,0,.18.05h0l1.44.44.73.24.71.24.43.14h0a1.39,1.39,0,0,0,.19.06h0l.42.14,1.59.58,0,0c.36.13.71.26,1.06.41h0l1.38.55,2,.86.34.15,1.16.52,1.17.55c.39.19.78.37,1.16.57l1.16.58q1.2.61,2.37,1.26l1,.54,1.15.66h0c1.39.81,2.76,1.67,4.1,2.56l1,.67,1,.69c.33.23.65.45,1,.69l1,.71.28.21q1.74,1.29,3.41,2.67l.1.09.92.77.91.79c.6.52,1.2,1.06,1.79,1.6l1.11,1,.48.45,1.07,1c.65.65,1.29,1.32,1.93,2,.47.51.95,1,1.41,1.54s.72.8,1.07,1.21l.7.82c.32.38.65.77,1,1.17l.09.11c.44.53.87,1.07,1.28,1.61.22.28.44.56.65.85s.43.55.63.84l0,0c.25.33.49.67.74,1,0,0,0,0,0,0,.43.6.86,1.21,1.28,1.82s.77,1.15,1.15,1.73l.08.12a.36.36,0,0,0,.07.1,1.19,1.19,0,0,0,.09.15q.58.9,1.14,1.83c.26.42.52.85.77,1.28.47.82.95,1.65,1.4,2.48a1.34,1.34,0,0,0,.06.12c.24.45.47.88.7,1.33.46.88.91,1.77,1.34,2.67.22.46.43.91.64,1.37s.42.9.62,1.36c.29.67.58,1.34.85,2,.38.92.74,1.85,1.09,2.79l.1.28c.19.51.37,1,.55,1.55.11.31.21.61.31.92s.21.62.31.92c.2.61.38,1.22.57,1.84v0c.18.63.36,1.26.53,1.89.08.28.15.55.23.84s.14.56.22.85l.09.37.21.87c.08.29.14.58.21.88.14.6.27,1.21.4,1.82a1.48,1.48,0,0,0,0,.19q.19.93.36,1.86c.11.64.22,1.28.32,1.93a.07.07,0,0,1,0,.05c.09.5.16,1,.23,1.5,0,.07,0,.12,0,.19s.06.42.09.63.07.61.11.91.07.6.11.9c.06.6.13,1.2.18,1.81v.07c0,.58.1,1.16.14,1.74,0,.18,0,.36,0,.54s0,.56.05.84,0,.56,0,.84c0,.59.05,1.19.06,1.77,0,.18,0,.36,0,.54,0,.59,0,1.18,0,1.78s0,1,0,1.51,0,.94,0,1.42v.16c0,.82-.07,1.63-.12,2.44,0,.08,0,.15,0,.23l-.06.85c0,.34-.05.67-.08,1s-.08.94-.13,1.4-.1,1-.16,1.46-.11,1-.18,1.44c-.12,1-.27,1.92-.43,2.87a5.86,5.86,0,0,1-.1.58c-.05.33-.11.65-.17,1-.09.48-.18,1-.28,1.44s-.19.94-.29,1.4-.24,1.06-.36,1.59a1.21,1.21,0,0,1-.05.18c-.08.37-.17.74-.27,1.1s-.24.95-.37,1.42S386.83,478.19,386.69,478.68Z"/><path class="cls-9" d="M348.21,418.48c-18.4-8.38-35.79-21.16-42.43-26.28a9,9,0,0,0-10.91,0c-6.59,5.12-24,17.9-42.37,26.28a9.1,9.1,0,0,0-5.35,8.89c1.07,12.89,4.9,44.34,18,59a273.09,273.09,0,0,0,31.12,29.32,6.35,6.35,0,0,0,4.11,1.46,6.8,6.8,0,0,0,4.16-1.46,274,274,0,0,0,31.12-29.32c13.05-14.63,16.88-46.08,17.95-59v-.67A9.11,9.11,0,0,0,348.21,418.48Zm-16.49,64.37a268.41,268.41,0,0,1-30.49,28.76,1.3,1.3,0,0,1-1.75,0A259.93,259.93,0,0,1,269,482.85c-12.32-13.78-15.87-46.25-16.65-55.87a3.78,3.78,0,0,1,2.3-3.77c18.18-8.28,35-20.43,43.44-26.9a3.68,3.68,0,0,1,4.56,0c4.17,3.26,10.47,7.88,18,12.77a201.54,201.54,0,0,0,25.43,14.13,3.8,3.8,0,0,1,2.31,3.77C347.59,436.6,344.05,469.07,331.72,482.85Z"/><path class="cls-9" d="M340.28,433.35c-.85,9.76-3.86,33.81-13.62,44.73a216.57,216.57,0,0,1-23.89,22.58,4,4,0,0,1-2.43.89,3.68,3.68,0,0,1-2.37-.89,210.55,210.55,0,0,1-24-22.58c-9.71-10.92-12.77-35-13.61-44.73a6,6,0,0,1,3.58-5.91c13.77-6.39,26.64-15.62,32.71-20.26a5.92,5.92,0,0,1,7.33,0c6.07,4.64,18.89,13.87,32.71,20.26A5.94,5.94,0,0,1,340.28,433.35Z"/><g class="cls-12"><path class="cls-13" d="M398.66,453.74q0,1,0,2V456c0,.53,0,1.05-.05,1.57s0,.84-.05,1.26,0,.6,0,.9-.05.7-.07,1-.07,1-.11,1.43l-.09,1c-.06.62-.13,1.23-.2,1.85-.11.95-.23,1.9-.36,2.84-.06.41-.13.81-.19,1.22s-.09.56-.14.83-.13.81-.2,1.21l-.21,1.11-.09.47c0,.08,0,.14,0,.21-.06.33-.13.65-.2,1s-.19.88-.29,1.32-.16.75-.25,1.11q-.42,1.77-.9,3.51c-.07.26-.14.53-.22.79q-.53,1.83-1.11,3.63c-.5,1.55-1.05,3.09-1.64,4.6-.11.3-.22.61-.35.91,0,0,0,.05,0,.07-.19.48-.38.94-.58,1.41l-.54,1.28-.56,1.28c-.19.42-.38.85-.58,1.27s-.39.84-.6,1.25c-.51,1.08-1.05,2.15-1.61,3.2l-.73,1.37c-.61,1.1-1.24,2.19-1.88,3.26-.31.52-.62,1-.94,1.54-.71,1.13-1.44,2.25-2.2,3.35-.27.42-.56.83-.85,1.24l-.64.9-.29.39c-.39.55-.79,1.08-1.2,1.61s-.89,1.16-1.34,1.72-.85,1.06-1.29,1.58c-.18.23-.36.45-.55.66q-2.91,3.45-6.12,6.61c-.38.38-.77.75-1.16,1.12s-.87.82-1.3,1.22l-.89.81-.35.31-.36.32-1.49,1.29-.37.31q-.88.75-1.8,1.47c-.5.4-1,.8-1.5,1.18s-1,.75-1.49,1.11-.91.67-1.37,1q-2.42,1.71-4.92,3.29c-.54.33-1.08.66-1.63,1s-1.09.66-1.65,1-1.11.63-1.66.93-1.12.61-1.69.9-1.34.7-2,1l-1.41.68-1.82.84c-.56.25-1.12.5-1.68.73l-.89.38c-.3.13-.59.25-.89.36l-1.72.67a.11.11,0,0,1-.07,0l-1.55.58-.63.23-1.47.5c-1.25.42-2.51.81-3.79,1.18l-1.44.41c-.69.19-1.37.37-2.07.54l-1.69.41-.38.09-1,.21a97.43,97.43,0,0,1-13,1.91c-.52,0-1,.08-1.57.12-.74,0-1.49.08-2.24.11l-.73,0-1.54,0-1.79,0V355.42h1.58l1.57,0,1.56.06c.53,0,1,.05,1.57.09h0l1.58.11,1.49.13L311,356c.64.06,1.27.14,1.9.22,1,.13,2,.27,3,.43.5.07,1,.16,1.5.25l1.51.27c1,.2,2,.4,3,.62l1.47.34,1.47.37,1.3.34,1.89.53,1,.3c.46.13.91.28,1.37.43s1,.31,1.45.48.83.28,1.24.42l.21.08,1.63.59,1.53.59.09,0h0l.43.17,1.07.44,1.72.73.65.3,1,.44,2.16,1,1.19.6,1.46.75.13.07,1.58.86,1.42.8.14.08h0l.1.07c.27.15.53.3.78.46.86.5,1.72,1,2.56,1.56.54.34,1.07.68,1.59,1,1.41.94,2.79,1.9,4.16,2.91l.91.68,1.51,1.16q.8.63,1.59,1.29c.39.31.77.63,1.15,1,1,.85,2,1.73,3,2.63.63.57,1.25,1.16,1.86,1.74.42.4.83.81,1.24,1.22q2.51,2.5,4.82,5.19c.52.59,1,1.19,1.53,1.79h0c.5.61,1,1.22,1.48,1.83L379.1,395c.47.63.94,1.27,1.39,1.91l1,1.44c.48.69.94,1.39,1.4,2.1s.88,1.35,1.29,2c.08.12.15.24.22.36.3.5.61,1,.9,1.5l.31.54c.08.13.15.26.22.39.32.56.64,1.12.94,1.69h0c.32.6.64,1.19,1,1.79l.69,1.36c.25.49.49,1,.72,1.48l.57,1.22c.25.54.5,1.09.73,1.63s.48,1.11.72,1.67a1.07,1.07,0,0,1,.07.19c.11.24.21.48.3.73s.2.48.29.73.25.6.36.91.19.48.27.72l.36,1q1,2.65,1.77,5.37c.12.39.23.77.34,1.17.49,1.73.94,3.49,1.34,5.26.25,1.1.48,2.21.68,3.32.08.41.16.81.23,1.22s.14.81.2,1.23.13.77.19,1.16.16,1.06.22,1.59.17,1.3.25,2,.13,1.19.18,1.79.12,1.2.16,1.8.09,1.24.12,1.87.07,1.26.09,1.88c0,.32,0,.63,0,.95s0,.63,0,.94C398.65,452.47,398.66,453.1,398.66,453.74Z"/></g></g></svg>