<svg id="Layer_1" data-name="Layer 1" xmlns="http://www.w3.org/2000/svg" viewBox="0 0 600 600"><defs><style>.cls-1{fill:#abe0fb;}.cls-1,.cls-17,.cls-2,.cls-3{stroke:#424242;}.cls-1,.cls-15,.cls-16,.cls-17,.cls-2,.cls-3{stroke-linecap:round;stroke-linejoin:round;}.cls-1,.cls-2,.cls-3{stroke-width:4px;}.cls-2{fill:#d1ebfb;}.cls-3{fill:#90acf1;}.cls-14,.cls-4{fill:#434343;}.cls-4{opacity:0.51;}.cls-5{fill:#f6ddd6;}.cls-6{fill:#f3c293;}.cls-7{fill:#dc9241;}.cls-8{fill:#aec23f;}.cls-9{fill:#c6d861;}.cls-10{fill:#221f1f;opacity:0.24;}.cls-11{fill:#c2db8e;}.cls-12{fill:#d0e9f9;}.cls-13{fill:#94aad7;}.cls-15,.cls-16,.cls-17{fill:none;}.cls-15{stroke:#434343;}.cls-15,.cls-16{stroke-width:2px;}.cls-16{stroke:#fff;}.cls-17{stroke-width:3px;opacity:0.44;}</style></defs><title>tay xoa</title><g id="tẩy_xóa" data-name="tẩy xóa"><path class="cls-1" d="M119.78,300.7s7.73,15.67,19.7,36.63c21.06,36.83,55.29,90,83.91,103.21,0,0,138.45,20.16,238.56-37.54a213.62,213.62,0,0,0,28.35-19.46L368.67,255.65S253.13,328.21,119.78,300.7Z"/><path class="cls-2" d="M159.28,266.59s10,20.24,24.84,45.5c6.94,11.76,14.93,24.6,23.46,37,17.62,25.54,37.53,49.16,55.3,57.34,0,0,167.13,24.34,266.93-57L408.17,221.54S292.63,294.1,159.28,266.59Z"/><path class="cls-3" d="M102.82,332.13S161.53,451.27,206.41,472c0,0,167.13,24.34,266.93-57L462,403c-100.11,57.7-238.56,37.54-238.56,37.54-28.62-13.18-62.85-66.38-83.91-103.21A299.06,299.06,0,0,1,102.82,332.13Z"/><path class="cls-4" d="M184.12,312.09c6.94,11.76,8.8,15.48,17.33,27.88,10.13.46,42.36,3.3,53.39,3.3,66.06,0,106.19-2.42,106.19-13.46s-55.55-20-121.62-20C219.46,309.82,200.65,310.64,184.12,312.09Z"/><path class="cls-5" d="M85.5,106.49l-1.22,87.05,2.89,12.83S201.06,253.58,208.82,258s15,12.27,31.66,16.87c7.59,2.08,21.09.21,27.42-.86,2.15-.36,3.47-.64,3.47-.64a19.46,19.46,0,0,0,2,1.5c3.68,2.43,9.6,5.5,9.6,5.5l.12.31c.06.16.14.34.22.53a40.54,40.54,0,0,0,2.07,4.1c.27.46.54.94.85,1.43s.5.81.78,1.24c.67,1,1.41,2.12,2.2,3.18h0c4,5.34,9.2,10.47,14.3,11.86a10.81,10.81,0,0,0,1.46.3,13.25,13.25,0,0,0,5.35-.33,7.38,7.38,0,0,0,5.55-7.95,15.25,15.25,0,0,0-2.46-7c-.66-1.07-1.28-2.15-1.84-3.22a72.52,72.52,0,0,1-4.82-12c-1.06-3.38-1.86-6.27-2.75-8.29-1.11-2.48-4-5.3-8-8.61-1.19-1-2.46-2-3.82-3a3.27,3.27,0,0,1,3.53-.77l15.89,6.26h0l2.47,1,20.73,27.44,1.14,1.52c1.56-34.29,0-47.17-20.19-74.71s-29.42-17.07-77.85-7.07S85.5,106.49,85.5,106.49Z"/><path class="cls-6" d="M292.27,252.89c1.36,1.06,2.63,2.08,3.82,3,4,3.31,6.86,6.13,8,8.61.89,2,1.69,4.91,2.75,8.29l4.91,7.74,23.2,6.23-20.73-27.44-2.47-1h0l-15.89-6.26A3.27,3.27,0,0,0,292.27,252.89Z"/><path class="cls-7" d="M306.81,272.83a72.52,72.52,0,0,0,4.82,12l.09-4.27h0Z"/><path class="cls-8" d="M310.38,303l3.81,5.6L325.35,325a6.9,6.9,0,0,0,.69.83l.52-21.83-14.84-23.38-.09,4.27c.56,1.07,1.18,2.15,1.84,3.22C318,295.42,316,301.34,310.38,303Z"/><path class="cls-9" d="M326,325.79a5.54,5.54,0,0,0,2.66,1.46L347.52,332c2.94.69,4.92-1.87,4.92-4.88l.11-17-26-6.15,0,0Z"/><path class="cls-5" d="M289.27,291.16a84.61,84.61,0,0,1,1.78,9.84v.05c1.8,9.83,3.57,12.34,8.58,11.42,2.82-.5,3.71-3.45,3.95-5.92a18.19,18.19,0,0,0,0-3.53C298.47,301.63,293.24,296.5,289.27,291.16Z"/><path class="cls-10" d="M283,245.9c3.34,2.53,6.46,4.86,9.25,7a3.27,3.27,0,0,1,3.53-.77l15.89,6.26,1.9.63-1.69-4.19a22.27,22.27,0,0,1-1.41-5.31l-.42-3.09c-8.74-3.71-8.92-11.83-13.6-13.1l-10-1.42S272.37,237.83,283,245.9Z"/><path class="cls-5" d="M273.41,274.86s0,.58.12,1.6h0c.59,7.18,3.55,36.07,11.85,34.19,4.71-1.07,6.47-2.77,5.67-9.6V301a84.61,84.61,0,0,0-1.78-9.84h0c-.79-1.06-1.53-2.14-2.2-3.18-.28-.43-.54-.83-.78-1.24s-.58-1-.85-1.43a40.54,40.54,0,0,1-2.07-4.1c-.08-.19-.16-.37-.22-.53l-.12-.31S277.09,277.29,273.41,274.86Z"/><path class="cls-5" d="M303.59,306.55s3.11,6.31,8.4,3.63l2.2-1.59-3.81-5.6a13.25,13.25,0,0,1-5.35.33,10.81,10.81,0,0,1-1.46-.3A18.19,18.19,0,0,1,303.59,306.55Z"/><path class="cls-10" d="M289.27,291.16a84.61,84.61,0,0,1,1.78,9.84v.05c1.8,9.83,3.57,12.34,8.58,11.42,2.82-.5,3.71-3.45,3.95-5.92a18.19,18.19,0,0,0,0-3.53C298.47,301.63,293.24,296.5,289.27,291.16Z"/><path class="cls-10" d="M273.41,274.86s0,.58.12,1.6h0c.59,7.18,3.55,36.07,11.85,34.19,4.71-1.07,6.47-2.77,5.67-9.6V301a84.61,84.61,0,0,0-1.78-9.84h0c-.79-1.06-1.53-2.14-2.2-3.18-.28-.43-.54-.83-.78-1.24s-.58-1-.85-1.43a40.54,40.54,0,0,1-2.07-4.1c-.08-.19-.16-.37-.22-.53l-.12-.31S277.09,277.29,273.41,274.86Z"/><path class="cls-10" d="M303.59,306.55s3.11,6.31,8.4,3.63l2.2-1.59-3.81-5.6a13.25,13.25,0,0,1-5.35.33,10.81,10.81,0,0,1-1.46-.3A18.19,18.19,0,0,1,303.59,306.55Z"/><polygon class="cls-11" points="311.73 280.57 311.73 280.58 326.56 303.95 326.58 303.99 352.55 310.14 336.06 288.32 334.92 286.8 311.73 280.57"/><path class="cls-10" d="M84.28,193.54l2.89,12.83S201.06,253.58,208.82,258s15,12.27,31.66,16.87c7.59,2.08,21.09.21,27.42-.86,2.15-.36,3.47-.64,3.47-.64a19.46,19.46,0,0,0,2,1.5c3.68,2.43,9.6,5.5,9.6,5.5l.12.31c.06.16.14.34.22.53a40.54,40.54,0,0,0,2.07,4.1c.27.46.54.94.85,1.43s.5.81.78,1.24c.67,1,1.41,2.12,2.2,3.18h0c4,5.34,9.2,10.47,14.3,11.86.49.13-7.68-5.22-9.56-13.26-.51-2.21-2.77-5.55-3.79-7.12-7.65-11.49-5.24-14.28-20.3-13.29-3.76.24-7.7.41-11.68.41-14.1,0-28.67-2-37.61-9.49-10.94-9.14-125-61.55-135.56-66.37a1.23,1.23,0,0,1-.23-.11l-.35-.15Z"/><path class="cls-12" d="M195.65,239.9l14.64,8.38c4.77-22.18,11.59-54,11.59-54.74l-12.24-7.78Z"/><polygon class="cls-13" points="84.2 89.64 77.81 171.51 195.65 239.91 209.64 185.76 84.2 89.64"/><polygon class="cls-13" points="77.81 171.51 74.7 216.24 188.74 265.76 190.72 259.01 195.65 239.91 77.81 171.51"/><path class="cls-12" d="M190.72,259l15,10.34,4.54-21.07-14.64-8.38Z"/><polygon class="cls-10" points="77.81 171.51 74.7 216.24 188.74 265.76 190.72 259.01 195.65 239.91 77.81 171.51"/><path class="cls-10" d="M190.72,259l15,10.34,4.54-21.07-14.64-8.38Z"/><path class="cls-14" d="M83,89.71,73.5,216.31a1.24,1.24,0,0,0,.72,1l114,49.52a1.2,1.2,0,0,0,1.64-.77l1.51-5.15,13.65,9.39a1.21,1.21,0,0,0,1.87-.74l2.16-10.06c1.82,1.1,3.67,2.4,5.6,3.76,5.9,4.16,13.25,9.34,25.47,12.71,7.63,2.11,20.79.39,28-.82,1.32-.22,2.35-.42,2.94-.54.36.29.76.58,1.2.88,0,.27,0,.6.08,1,0,.06,0,.12,0,.17.75,8.89,3.12,29.61,9.4,34.21a4.58,4.58,0,0,0,3.9.89c3-.69,4.92-1.74,5.92-3.57a11.69,11.69,0,0,0,1.61,3.25c1.95,2.63,4.59,2.53,6.68,2.14s3.55-1.82,4.35-4.16a8,8,0,0,0,3.3,2.25,6.37,6.37,0,0,0,5-.48l.17-.1,1.19-.87,10.46,15.34a8.11,8.11,0,0,0,.83,1,6.92,6.92,0,0,0,3.26,1.79l18.78,4.77a5.89,5.89,0,0,0,1.24.14,4.71,4.71,0,0,0,2.93-1,6.59,6.59,0,0,0,2.25-5.18l.11-17a1.21,1.21,0,0,0-.24-.74l-16.22-21.48c1.5-33.53.17-46.86-20.44-75-16.61-22.67-26.11-20.3-54.32-13.29-7.07,1.76-15.07,3.75-24.75,5.75-4.83,1-10.53.77-16.94-.69,2.24-10.65,2.24-10.9,2.24-11.13a1.18,1.18,0,0,0-.55-1l-12.19-7.76L85,88.69a1.21,1.21,0,0,0-1.3-.12A1.23,1.23,0,0,0,83,89.71Zm2.58,2.55L208.89,186.7s.06.06.1.07l11.58,7.36c-.23,1.15-.85,4.17-2.33,11.2a1.21,1.21,0,0,0,.89,1.42c7.23,1.77,13.66,2.11,19.13,1,9.73-2,17.76-4,24.85-5.77,27.77-6.9,36.14-9,51.78,12.38C334.46,241.05,336.26,254.15,335,285l-20.46-26.67a1.25,1.25,0,0,0-.51-.4l-18.53-7.07a1.3,1.3,0,0,0-.91,0l-2.84,1.68,1.77,1.39,1.57-.66L312.85,260l22.25,29,16.24,21.48-.11,16.61a4.26,4.26,0,0,1-1.34,3.3,2.35,2.35,0,0,1-2.09.42L329,326.08a4.33,4.33,0,0,1-2.12-1.15,4.84,4.84,0,0,1-.53-.65l-11-16.1-.19-.26-3.62-5.37a8.6,8.6,0,0,1-2.41.72l3.35,5.06-1.15.82a3.88,3.88,0,0,1-3.08.3c-2.24-.74-3.59-3.41-3.6-3.43a1.21,1.21,0,0,0-1.3-.66,1.19,1.19,0,0,0-1,1.07c-.29,2.92-1.29,4.55-3,4.86-2.49.46-3.5-.13-4.31-1.21-1.1-1.47-1.95-4.25-2.87-9.25a1.21,1.21,0,0,0-1.36-1,1.19,1.19,0,0,0-1,1.34c.73,6.38-.8,7.38-4.75,8.29a2.3,2.3,0,0,1-1.95-.49c-4.51-3.31-7.36-19.65-8.42-32.64a.65.65,0,0,0,0-.16c-.07-.91-.11-1.41-.11-1.41a1.17,1.17,0,0,0-.54-.94,18.39,18.39,0,0,1-1.91-1.4,1.25,1.25,0,0,0-1-.27s-1.32.28-3.43.63c-5.6.95-19.44,2.93-26.91.89-11.8-3.28-18.66-8.1-24.71-12.36-2.3-1.62-4.46-3.15-6.67-4.4l-.6-.32a1.21,1.21,0,0,0-1.73.82l-2.13,9.9L191.41,258a1.2,1.2,0,0,0-1.85.65L188,264.11,75.86,215.43Z"/><path class="cls-15" d="M273.25,274.86l9.88,5.81c3.84,10.19,15.13,21.86,20.44,22.35,4.71.42,5.59.25,9.17-1.12s4.45-7.4,1.22-13-7.54-17.32-9.38-23.08-9.4-10.63-20.64-19.23,2.58-14.7,2.58-14.7a43.06,43.06,0,0,0,10.63,1.67"/><line class="cls-15" x1="219.42" y1="205.58" x2="208.26" y2="257.69"/><line class="cls-15" x1="209.64" y1="185.76" x2="190.5" y2="259.75"/><path class="cls-16" d="M316.53,100.37s11.78,8.81,19.34.71-7.49-4.83-9.48.07,5.64,14.66,19.68,9.7,1-8.92-5.15-4,2.48,12.27,15.14,11.32"/><path class="cls-16" d="M287.36,496.21s12.91,7.05,19.24-2-8.09-3.72-9.37,1.42,7.66,13.7,20.86,6.81-.25-9-5.67-3.25,4.2,11.8,16.59,9.07"/><path class="cls-16" d="M436.41,205.85s-19.67-.15-6.79-11.45c11.17-9.79,8.87,16.23-13.94,2.07"/><path class="cls-16" d="M74.16,271.7s14.3,16.83,14.76-2.39c.39-16.68-20.37,4,8.24,13.49"/><path class="cls-16" d="M193.64,115.88s14.29,16.83,14.75-2.39c.4-16.68-20.36,4,8.25,13.49"/><path class="cls-16" d="M476.29,480.3s-10.5-3.39-8.81-11.54,6.2,2.5,4.06,5.84-11.41,2.9-14.46-7.85,5-4.5,4.69,1.42-8.59,3.79-13.5-4.36"/><path class="cls-17" d="M400.37,241.33c-2.39,3,.47,7.42,3.65,9.59s7.21,4.13,8,7.91c.25,1.25.1,2.63.73,3.74.8,1.41,2.54,1.91,3.95,2.72,4.42,2.56,5.68,8.47,9.52,11.83,2.16,1.89,5.22,3.07,6.23,5.76.84,2.22-.06,4.75.44,7.08,1.17,5.45,8.39,6.47,12.88,9.78,4.33,3.19,6.35,9,11,11.72,2.36,1.39,5.15,1.84,7.73,2.75,4.33,1.53,8.06,4.33,11.71,7.1l7.12,5.39a14.86,14.86,0,0,1,2.59,2.29,17.93,17.93,0,0,1,2,3.6,50.67,50.67,0,0,0,7.22,11"/><path class="cls-17" d="M365.08,251.56a24.72,24.72,0,0,0,15.27,9,3.19,3.19,0,0,1,1.55.53c1,.86.45,2.59-.55,3.49s-2.32,1.45-3,2.6c-1.1,1.8-.06,4.23,1.58,5.55s3.74,1.9,5.64,2.81a17,17,0,0,1,9,11.27,10.42,10.42,0,0,0,1.1,3.41c2.12,3.22,7.54,2,10.27,4.69,2,1.94,1.8,5.13,3,7.62,2.13,4.54,8.36,6.25,10,11a14.62,14.62,0,0,0,.92,2.63c1.95,3.32,7.66,1.72,10.25,4.57,1.52,1.67,1.39,4.25,2.36,6.29,1.8,3.81,6.67,4.69,10.74,5.79s8.71,4.2,7.81,8.32"/><path class="cls-17" d="M344.26,275.23a21.92,21.92,0,0,0,17.71,11c-.63,3.17-1.21,6.65.34,9.49a13.8,13.8,0,0,0,3.34,3.69l7.11,6.17"/><path class="cls-17" d="M387.73,318.81,399,327.4a5.89,5.89,0,0,1,1.89,2c.59,1.21.3,2.64.32,4,.08,5,4.44,8.76,8.75,11.24s9.2,4.59,11.82,8.81c2.36,3.8,3,9.34,7.23,10.87,1.62.58,3.46.39,5,1.14a12.46,12.46,0,0,1,3,2.53c3.78,3.6,9.07,5,14.12,6.32l-5.31.45"/><path class="cls-17" d="M348.52,334.57c3.68.39,7.46.82,10.74,2.52s6,5,5.91,8.72a14.77,14.77,0,0,0-.09,3.81c.57,2.38,3.21,3.54,5.51,4.37,3.77,1.36,7.66,2.84,10.44,5.72,2.43,2.52,3.81,5.92,6.32,8.36,3.87,3.77,10.34,5.29,12,10.43"/></g></svg>