<svg id="Layer_1" data-name="Layer 1" xmlns="http://www.w3.org/2000/svg" viewBox="0 0 600 600"><defs><style>.cls-1{fill:#90acf1;opacity:0.6;}.cls-15,.cls-17,.cls-2,.cls-20,.cls-25,.cls-3,.cls-30,.cls-31,.cls-6{fill:none;}.cls-2{stroke:#231f20;}.cls-15,.cls-2,.cls-20,.cls-21,.cls-25,.cls-3,.cls-6{stroke-miterlimit:10;}.cls-2,.cls-20,.cls-3{stroke-width:5px;}.cls-3,.cls-6{stroke:#595959;}.cls-4{fill:#d0bbb7;}.cls-5{fill:#f8c469;}.cls-31,.cls-6{stroke-width:4px;}.cls-7{fill:#b27e5c;}.cls-8{fill:#d79977;}.cls-9{fill:#f8dbce;}.cls-10{opacity:0.15;}.cls-11{fill:#cb9980;}.cls-12,.cls-24{fill:#fff;}.cls-13{fill:#f2e7db;}.cls-14{fill:#d2916e;}.cls-15{stroke:#b27e5c;}.cls-15,.cls-17,.cls-30,.cls-31{stroke-linecap:round;}.cls-15,.cls-17,.cls-21,.cls-30{stroke-width:2px;}.cls-16{fill:#b47d64;}.cls-17{stroke:#926654;}.cls-17,.cls-30,.cls-31{stroke-linejoin:round;}.cls-18{opacity:0.16;}.cls-19,.cls-21{fill:#f8ded8;}.cls-20{stroke:#595757;}.cls-21{stroke:#5b5a5b;}.cls-22{opacity:0.13;}.cls-23{fill:#e4e4e4;}.cls-24{opacity:0.35;}.cls-25{stroke:#666;stroke-width:7px;}.cls-26{fill:#d6def6;opacity:0.2;}.cls-27{fill:#d1ebfb;}.cls-28{fill:#abe0fb;}.cls-29{opacity:0.1;}.cls-30{stroke:#fff;}.cls-31{stroke:#424242;}.cls-32{fill:#c2dc8f;}.cls-33{fill:#aec341;}.cls-34{fill:#9eac36;}.cls-35{fill:#ec7055;}.cls-36{fill:#d02227;}</style></defs><title>khien</title><g id="khiên_chắn" data-name="khiên chắn"><path class="cls-1" d="M519.51,307.92A211.27,211.27,0,0,1,418.4,488.31h0l-1.15.69q-1.07.66-2.16,1.29-5.77,3.4-11.8,6.45l-1.4.7a210,210,0,0,1-79.49,21.4q-7.08.48-14.29.48c-116.76,0-211.41-94.65-211.41-211.41,0-111,85.49-202,194.2-210.72l.93-.08h0l2.11-.14c4.68-.31,9.41-.47,14.16-.47A211.32,211.32,0,0,1,519.51,307.92Z"/><ellipse class="cls-1" cx="308.1" cy="307.92" rx="199.02" ry="202.95"/><path class="cls-2" d="M351.05,193.54c0,.08,0,.18,0,.31C351,193.71,351,193.62,351.05,193.54Z"/><path class="cls-2" d="M351.07,193.35a.18.18,0,0,1,0,.05,49.9,49.9,0,0,1-.27-6.15h0v0h0A48,48,0,0,0,351.07,193.35Z"/><path class="cls-2" d="M353.38,197.24v.06c-2.19.29-2.42-1.88-2.38-3.1C351,195.44,351.22,197.54,353.38,197.24Z"/><path class="cls-3" d="M356.81,192.15c3.13-6.8,7.46-18.55,13.23-24,8.29-7.88-4.25-15.42-7.51-14,0,0,1.13-17.16-21.27-15.7-22,1.44-30.38,5.06-28.88,22.75,0,.35.06.72.1,1.08,0,0,1.59,0,3.87.23a5.14,5.14,0,0,1,.55.06l-.44.39c-2.76,11-5.83,30.08.15,39.27a6,6,0,0,0,4.84,2.67,6.75,6.75,0,0,0,1.18-.08l5.51-.93.12,0h0c6.81-1.42,9-2.75,9-2.75l-4,18.87-6.18,6.57a13.59,13.59,0,0,0,.59,1.64c-.51-.34-1-.62-1.38-.85l-2,2.14-4.14,4.4L347.72,251s13.77-17.14,14.26-18.21,7.5-10.81,7.5-10.81l-7.72-3.13-7.42-3-1-18.53c-2.19.29-2.42-1.88-2.38-3.1,0,1.24.22,3.34,2.38,3v.06C354.31,197.17,355.45,195.14,356.81,192.15Zm-5.75,1.25a49.9,49.9,0,0,1-.27-6.15h0v0h0a48,48,0,0,0,.27,6.15A.18.18,0,0,1,351.06,193.4Z"/><path class="cls-3" d="M351.05,193.54c0,.08,0,.18,0,.31C351,193.71,351,193.62,351.05,193.54Z"/><path class="cls-3" d="M351.07,193.35a.18.18,0,0,1,0,.05,49.9,49.9,0,0,1-.27-6.15v0h0A48,48,0,0,0,351.07,193.35Z"/><path class="cls-3" d="M353.38,197.24v.06c-2.19.29-2.42-1.88-2.38-3.1C351,195.44,351.22,197.54,353.38,197.24Z"/><polygon class="cls-2" points="350.79 187.21 350.79 187.25 350.78 187.26 350.79 187.21"/><path class="cls-4" d="M369.48,222s-7,9.73-7.5,10.81S347.72,251,347.72,251l-27.55-17.15,4.15-4.39,2-2.14c.41.23.87.51,1.38.85,10.8,7,18.88-5.1,18.88-5.1l4.2-35.84h0a50.28,50.28,0,0,0,.28,6.15s-.72,4.3,2.32,3.9l1,18.57,7.41,3Z"/><path class="cls-5" d="M370,168.12c-5.78,5.47-10.1,17.23-13.23,24-1.36,3-2.5,5-3.43,5.15-3,.41-2.31-3.9-2.31-3.9a50.21,50.21,0,0,1-.28-6.15c.16-6.91,2.3-7.08,1.56-12.77-.62-4.74-4-5-7.52-3.28a20.77,20.77,0,0,0-5.06,3.57c-4.72,4.48-5.79-.79-8-6.53-1.11-2.84-5.86-4.34-10.35-5.13-.81-.14-1.59-.26-2.36-.36l-1.09-.13-1-.1a.08.08,0,0,0-.07,0l-.56-.06c-2.28-.21-3.87-.23-3.87-.23,0-.36-.08-.72-.1-1.08-1.5-17.69,6.92-21.31,28.88-22.75,22.4-1.46,21.27,15.7,21.27,15.7C365.78,152.7,378.33,160.24,370,168.12Z"/><path class="cls-6" d="M426.19,513.36c-.62,2.93-11.09,15.21-18.2,17.81s-20.77,6.1-23.07-4a1.13,1.13,0,0,1,0-.15v0a.31.31,0,0,1,0-.08c0-.11-.09-.22-.13-.33a5.69,5.69,0,0,1-.2-2.54,6,6,0,0,1,1.32-2.94l14-16.9a17.2,17.2,0,0,1,4.17-3.65,19.7,19.7,0,0,1,6-2.53l3.92-.94a7.89,7.89,0,0,1,2.15-.21,7.21,7.21,0,0,1,6.62,4.41l2,5.32a3.39,3.39,0,0,1,.15.45c0,.15.07.31.1.46s0,.15.05.22l0,.23.1,0A7.9,7.9,0,0,1,426.19,513.36Z"/><path class="cls-6" d="M336.21,386.21a7.71,7.71,0,0,0-3.86-3.17l-.05.07-.16-.14-.16-.13a4.79,4.79,0,0,0-.69-.49l-4.43-2.63a6.81,6.81,0,0,0-8.48,1.49l-2.16,2.57a14.27,14.27,0,0,0-3.49,9.22l0,18.39a4.87,4.87,0,0,0,.77,2.64,5.41,5.41,0,0,0,1.6,1.63l.28.15.06.06.11.09c7.42,5.74,14.84-3.36,18.27-8.67S337.47,388.51,336.21,386.21Z"/><path class="cls-7" d="M425.06,508.27a5.5,5.5,0,0,1-.21,1.89c-.06.17-.11.34-.18.51-1.21,3-4.76,8.43-15.14,14.88-.83.52-1.64,1-2.43,1.42a31.59,31.59,0,0,0-2.73-2.71c-3.21-2.87-8.77-6.78-13.86-5.34a8.45,8.45,0,0,0-3.35,1.86,13.46,13.46,0,0,0-2.63,3.24,6,6,0,0,1,1.32-2.94l14-16.9a17.2,17.2,0,0,1,4.17-3.65,19.7,19.7,0,0,1,6-2.53l3.92-.94a7.89,7.89,0,0,1,2.15-.21,7.21,7.21,0,0,1,6.62,4.41l2,5.32a3.39,3.39,0,0,1,.15.45l.06.23a1.57,1.57,0,0,1,0,.23c0,.07,0,.15.05.22l0,.23C425,508.05,425.06,508.16,425.06,508.27Z"/><path class="cls-7" d="M333.62,385.14c.88,2.63,1.55,8.07-1.92,17.59-.28.75-.57,1.47-.87,2.15,0,0-19.47-4.22-17.29,9.15a4.87,4.87,0,0,1-.77-2.64l0-18.39a14.27,14.27,0,0,1,3.49-9.22l2.16-2.57a6.81,6.81,0,0,1,8.48-1.49l4.43,2.63A5.24,5.24,0,0,1,333.62,385.14Z"/><path class="cls-8" d="M330.83,404.88h0a24.38,24.38,0,0,1-8.25,10.58,6.76,6.76,0,0,1-7.44.19,5.41,5.41,0,0,1-1.6-1.63C311.36,400.66,330.83,404.88,330.83,404.88Z"/><path class="cls-9" d="M336.21,386.21c1.26,2.3,1.07,15.8-2.35,21.08S323,421.7,315.59,416l-.11-.09a6.81,6.81,0,0,0,7.1-.4,24.38,24.38,0,0,0,8.25-10.58h0c.3-.68.59-1.4.87-2.15,3.47-9.52,2.8-15,1.92-17.59a5,5,0,0,0-1.32-2l.05-.07A7.71,7.71,0,0,1,336.21,386.21Z"/><path class="cls-10" d="M331.29,382.35a5.45,5.45,0,0,1,1,.76,5,5,0,0,1,1.32,2c.88,2.63,1.55,8.07-1.92,17.59-.28.75-.57,1.47-.87,2.15h0a24.38,24.38,0,0,1-8.25,10.58,6.81,6.81,0,0,1-7.1.4c-.19-.16-.37-.32-.53-.48,1.05.15,5-.13,12.24-10.71l.19-.29a22.39,22.39,0,0,0,3.19-18.72,16.24,16.24,0,0,0-3.71-5.95Z"/><ellipse class="cls-11" cx="318.04" cy="385.29" rx="6.88" ry="1.95" transform="translate(-180.63 415.66) rotate(-53.95)"/><ellipse class="cls-12" cx="314.32" cy="409.5" rx="0.95" ry="2.09"/><path class="cls-10" d="M319.77,394.25c0-5.43-1.51-7.39-3.37-7.31s-3.37,2.19-3.37,7.63,1.51,9.61,3.07,8.63C319.6,401,319.78,399.69,319.77,394.25Z"/><path class="cls-6" d="M419.73,495.23h0l-.72.29c-.58-2.28-1.17-4.44-1.76-6.51-1-3.42-1.95-6.55-2.94-9.42-7.46-21.77-15.21-28.75-23.86-36.81l-.13-.11s0,0,0,0a56.39,56.39,0,0,0-8.95-5.92,58,58,0,0,0-14.38-5.56s-2.78-15.11-5.57-38.74a53.14,53.14,0,0,0-7.82-22.19,56.12,56.12,0,0,0-4.1-5.7c-10.23-12.59-24.78-20.15-35.38-24.31-2.14-.84-4.12-1.55-5.87-2.12-2.93-1-5.22-1.59-6.55-1.92l-1-.25-.25-.06h0l3.12-1.27a3.59,3.59,0,0,1,.35-.12,8.47,8.47,0,0,1,1-.32c.17-.06.36-.11.55-.16a13.57,13.57,0,0,1,2.46-.4,14.51,14.51,0,0,1,4.72.4l.75.18,21.4,5.37,29.15,7.31A14.71,14.71,0,0,1,374.92,360c.08,1,.14,1.93.19,2.92.17,3.13.26,6.38.27,9.69,0,.79,0,1.59,0,2.39-.09,21.63-2.86,44.88-3.65,51.09-.07.49-.11.86-.15,1.13s-.07.46-.07.46h0l.43.13.15.05.27.08c.94.28,2.59.81,4.67,1.61l.63.24.7.27.95.39.61.26c.34.15.69.31,1.06.46l.54.26,1.13.53h0c.25.14.51.26.76.39a57.3,57.3,0,0,1,5.08,2.85c.43.27.88.55,1.3.85a36,36,0,0,1,10.8,10.7,168.35,168.35,0,0,1,11.88,24.63l.48,1.22c.2.48.39,1,.58,1.47s.3.78.44,1.17c.05.14.1.28.17.43l.78,2.13.21.59c.06.16.12.32.17.48h0c.17.48.34.94.5,1.41.5,1.44,1,2.82,1.39,4.13l.44,1.43c.22.7.43,1.39.61,2.05,0,.12.07.25.11.36s.12.42.16.61.1.35.14.52c.14.51.27,1,.38,1.45s.24,1,.33,1.49A11.06,11.06,0,0,1,419.73,495.23Z"/><path class="cls-6" d="M419.41,492.38c-.09-.46-.2-1-.33-1.49s-.24-.94-.38-1.45c0-.17-.09-.35-.14-.52s-.11-.4-.17-.6-.06-.25-.1-.37c-.18-.66-.39-1.35-.61-2.05l-.44-1.43c-.43-1.31-.89-2.69-1.39-4.13-.16-.47-.33-.94-.5-1.41h0s0,0,0,0l-.18-.47-.21-.59c-.25-.7-.52-1.41-.78-2.13-.07-.15-.12-.29-.17-.43-.14-.39-.3-.78-.44-1.17s-.38-1-.58-1.47l-.48-1.22a168.35,168.35,0,0,0-11.88-24.63,36,36,0,0,0-10.8-10.7l-1,3.61c-6.76-3.79-12.53-5.49-16.86-11.85q-.2-.28-.39-.6c-3.82-6-6.45-15.92-7.6-34.74a46.66,46.66,0,0,0-6.39-21.09,50.72,50.72,0,0,0-3.41-5.09C343.39,352.12,326,344,314,339.74c-2.23-.78-4.28-1.43-6.06-2-2.81-.82-5-1.36-6.28-1.64-.46-.11-.81-.18-1-.22l-.25-.06c-14.34,6-44.67,20.29-54.56,37.9a15.66,15.66,0,0,0,5,21,20.59,20.59,0,0,0,10.25,3.42c10.69.82,33.08-1.79,46.11-3.51l1.14-.15a14.65,14.65,0,0,0,4.4-1.29,1.74,1.74,0,0,0,.34-.16,13,13,0,0,0,5.45-5,3.37,3.37,0,0,0,.19-.32.89.89,0,0,0,0-.15,9.86,9.86,0,0,0-.92-3.73,9.61,9.61,0,0,1,.93,3.72,1,1,0,0,1,0,.16c.1-.17.18-.33.26-.5a11.71,11.71,0,0,0,.66-1.6l1.95-6.06.17-.53.84-2.62,1.7-5.29-47.53,10.3c-.19,0-.29-.2-.11-.28l52.06-20.38s.29,5.4,1.24,13.63c.28,2.35.6,4.94,1,7.7h0c.17,1.19.35,2.41.54,3.68.06.35.11.72.16,1.08.47,3,1,6.09,1.61,9.28.06.27.11.55.16.82h0c.47,2.43,1,4.9,1.55,7.38a.08.08,0,0,1,0,0,.24.24,0,0,1,0,.08v0a1.14,1.14,0,0,0,.06.25c2.52,11.07,6,22.41,10.79,31.61a30.81,30.81,0,0,0,8.45,9.94c11.16,8.74,38.76,18.72,44.8,42.11a37.7,37.7,0,0,1,1.18,9.16l1.6-.18,1.5-.17L416,495.87l3.05-.35.72-.29A11,11,0,0,0,419.41,492.38ZM317,382.84l0,0,0,0,.24.29A3.33,3.33,0,0,0,317,382.84Z"/><path class="cls-8" d="M407.1,527h0c-6.32,3.44-11.58,4.35-15.5,4.29-.21,0-.41,0-.62,0a6,6,0,0,1-.74-.09l-.43-.1-.56-.16a4.3,4.3,0,0,1-.54-.2,6.89,6.89,0,0,1-1.49-.81l-.38-.29a4.28,4.28,0,0,1-.45-.4,3.73,3.73,0,0,1-.34-.35,6.41,6.41,0,0,1-1.16-1.84v0c-.06-.14-.1-.27-.15-.41a5.69,5.69,0,0,1-.2-2.54,13.46,13.46,0,0,1,2.63-3.24,8.45,8.45,0,0,1,3.35-1.86c5.09-1.44,10.65,2.47,13.86,5.34A31.59,31.59,0,0,1,407.1,527Z"/><path class="cls-9" d="M426.19,513.36c-.62,2.93-11.09,15.21-18.2,17.81s-20.77,6.1-23.07-4a1.13,1.13,0,0,1,0-.15,6.41,6.41,0,0,0,1.16,1.84,2.79,2.79,0,0,0,.34.35,4.28,4.28,0,0,0,.45.4l.38.29a6.89,6.89,0,0,0,1.49.81,3.16,3.16,0,0,0,.54.2,3.92,3.92,0,0,0,.56.16l.43.1a6,6,0,0,0,.74.09,4.3,4.3,0,0,0,.62,0c3.92.06,9.18-.85,15.5-4.29h0c.79-.43,1.6-.9,2.43-1.42,10.38-6.45,13.93-11.88,15.14-14.88.07-.17.12-.34.18-.51a5.72,5.72,0,0,0,.21-1.89c0-.11,0-.22,0-.33l.1,0A7.9,7.9,0,0,1,426.19,513.36Z"/><path class="cls-10" d="M425.06,508.27a5.72,5.72,0,0,1-.21,1.89c-.06.17-.11.34-.18.51-1.21,3-4.76,8.43-15.14,14.88-.83.52-1.64,1-2.43,1.42h0c-6.32,3.44-11.58,4.35-15.5,4.29-.21,0-.41,0-.62,0a6,6,0,0,1-.74-.09l-.43-.1-.56-.16a4.3,4.3,0,0,1-.54-.2,6.89,6.89,0,0,1-1.49-.81l-.38-.29a4.28,4.28,0,0,1-.45-.4,3.73,3.73,0,0,1-.34-.35,6.41,6.41,0,0,1-1.16-1.84v0a.31.31,0,0,1,0-.08,5.59,5.59,0,0,1-.09-.7c.82.83,4.62,3.18,19.21-1.8l.39-.13a29.13,29.13,0,0,0,17.15-15.11c1.59-3.34,1.2-7.89,1.2-7.89l2,5.32a3.39,3.39,0,0,1,.15.45l.06.23a1.57,1.57,0,0,1,0,.23c0,.07,0,.15.05.22l0,.23C425,508.05,425.06,508.16,425.06,508.27Z"/><path class="cls-11" d="M416.58,500h0a3.65,3.65,0,0,1-.44.26,26.71,26.71,0,0,1-4.9,2.07,29.72,29.72,0,0,1-4.09,1,15.93,15.93,0,0,1-2.53.25c-1.11,0-1.85-.18-2-.6s.39-1.17,1.53-1.9a3.76,3.76,0,0,1,.47-.3,26.15,26.15,0,0,1,5.08-2.18,24.37,24.37,0,0,1,6.49-1.27h.34c1,0,1.66.21,1.82.6S417.87,499.18,416.58,500Z"/><ellipse class="cls-12" cx="388.7" cy="520.37" rx="2.5" ry="1.06" transform="translate(-259.38 477.22) rotate(-49.43)"/><path class="cls-10" d="M405.24,510c4.14-5,4.28-7.78,2.54-8.93s-4.71-.2-8.86,4.79-6,9.82-3.81,9.95C399.91,516.06,401.1,514.94,405.24,510Z"/><path class="cls-13" d="M416.59,500h0l-.45.25a26.71,26.71,0,0,1-4.9,2.07c-.83.27-1.64.49-2.42.67-.58.14-1.14.26-1.67.35a15,15,0,0,1-2.52.26.68.68,0,0,1-.05-.23l-.07-.33-.36-1.85,0-.1-.11-.54-.64-3.25-.1-.53-1.46-7.41a3.26,3.26,0,0,1,.65-2.69,3,3,0,0,1,2-1.13h.09l6.62-.9a3.13,3.13,0,0,1,3.48,2.7l.46,3,.87,5.57.15,1,.07.47.27,1.72Z"/><path class="cls-10" d="M324.83,377.35s-1.64,18.72-17.73,18.07l.64-5.27s13.39-12.8,14.12-13.24l.74-.44A7.44,7.44,0,0,1,324.83,377.35Z"/><path class="cls-14" d="M419.73,495.23h0l-.72.29-3.05.35-12.57,1.41-1.5.17-1.6.18a37.7,37.7,0,0,0-1.18-9.16c-6-23.39-33.64-33.37-44.8-42.11a30.81,30.81,0,0,1-8.45-9.94c-4.77-9.2-8.27-20.54-10.79-31.61a1.14,1.14,0,0,1-.06-.25.65.65,0,0,0,0-.11.08.08,0,0,0,0,0c-.11-.9-.55-4.49-1.13-9.35-.41-3.45-.89-7.53-1.34-11.75v0a1.23,1.23,0,0,1,0-.2c-.94-8.55-1.84-17.6-2.07-22.89a23.2,23.2,0,0,1,.05-4.16c.23-1.26-2.67-1.29-7.38-.4-13.48,2.55-41.75,12.73-53.48,24.09a2.78,2.78,0,0,0,.52,4.45l.05,0,.18.12.23.13.48.25.25.12.23.1.05,0,.28.11a2.85,2.85,0,0,0,.31.12l.11,0,.13,0,.41.13h0l.31.1c.12,0,.22.07.34.09l.41.11.16,0,.13,0c.22.06.44.1.67.14.39.08.81.16,1.24.22l.17,0c.45.07.91.11,1.4.16l.41,0,.3,0a5.3,5.3,0,0,0,.57,0c.23,0,.46,0,.7,0h.53c.84,0,1.73,0,2.69,0,.5,0,1,0,1.56-.08l.4,0,.53,0c.94-.08,1.94-.18,3-.3,2.48-.3,4.81-.69,7-1.1l3.43-.72,1.84-.41,1.61-.39,1.53-.36c5.82-1.39,10-2.33,12.41-.86a3.74,3.74,0,0,1,.81.64l0,0a3.33,3.33,0,0,1,.25.28,4.38,4.38,0,0,1,.51.78,9.86,9.86,0,0,1,.92,3.73.89.89,0,0,1,0,.15,3.37,3.37,0,0,1-.19.32,13,13,0,0,1-5.45,5,1.74,1.74,0,0,1-.34.16,14.65,14.65,0,0,1-4.4,1.29l-1.14.15c-13,1.72-35.42,4.33-46.11,3.51a20.59,20.59,0,0,1-10.25-3.42,15.66,15.66,0,0,1-5-21c9.89-17.61,40.22-31.91,54.56-37.9l.25.06c.21,0,.56.11,1,.22,1.28.28,3.47.82,6.28,1.64,1.78.53,3.83,1.18,6.06,2,12.07,4.23,29.42,12.38,40.21,26.6a50.72,50.72,0,0,1,3.41,5.09A46.66,46.66,0,0,1,364,392.52c1.15,18.82,3.78,28.76,7.6,34.74q.19.32.39.6c4.33,6.36,10.1,8.06,16.86,11.85l1-3.61a36,36,0,0,1,10.8,10.7,168.35,168.35,0,0,1,11.88,24.63l.48,1.22c.2.48.39,1,.58,1.47s.3.78.44,1.17c.05.14.1.28.17.43l.78,2.13.21.59c.06.16.12.32.17.48h0c.17.48.34.94.5,1.41.5,1.44,1,2.82,1.39,4.13l.44,1.43c.22.7.43,1.39.61,2.05,0,.12.07.25.11.36s.12.42.16.61.1.35.14.52c.14.51.27,1,.38,1.45s.24,1,.33,1.49A11.06,11.06,0,0,1,419.73,495.23Z"/><path class="cls-15" d="M407.22,475.12c1.14,2.89,2.14,5.59,3,8"/><path class="cls-15" d="M404.05,470.09c1.14,2.37,2.23,4.76,3.25,7.12"/><path class="cls-15" d="M397.54,458.1c1.26,2,2.48,4.17,3.66,6.37"/><path class="cls-15" d="M388.54,446.5a45.71,45.71,0,0,1,4.77,5.39"/><path class="cls-15" d="M378.09,439.26l6.47,4.07"/><path class="cls-15" d="M367.5,418q-.31,3.46-.7,7.08"/><path class="cls-15" d="M368.54,402.74c-.1,2.13-.23,4.33-.38,6.58"/><path class="cls-15" d="M368.92,389.9c0,1.82-.06,3.71-.11,5.65"/><path class="cls-15" d="M368.83,378.33c.05,1.8.08,3.69.1,5.67"/><path class="cls-15" d="M368.24,366c.13,1.88.26,4,.37,6.26"/><path class="cls-15" d="M367,354.1s.4,2.42.85,7"/><path class="cls-16" d="M328.72,360.82,276.66,381.2c-.18.08-.08.32.11.28l47.53-10.31-4.66,14.5a11.37,11.37,0,0,1-.93,2.11c-.92-11.76-11.17-4.08-30.36-1.78-12,1.43-17-.68-19.09-2.45a2.36,2.36,0,0,1-.13-3.37c16.16-21.07,62.8-33.12,61.88-28.25s3.74,50.67,4,52.62A296.08,296.08,0,0,1,328.72,360.82Z"/><path class="cls-16" d="M419.73,495.23h0l-.72.29c-.58-2.28-1.17-4.44-1.76-6.51-1-3.42-1.95-6.55-2.94-9.42-7.46-21.77-15.21-28.75-23.86-36.81l-.13-.11s0,0,0,0a56.39,56.39,0,0,0-8.95-5.92,58,58,0,0,0-14.38-5.56s-2.78-15.11-5.57-38.74a53.14,53.14,0,0,0-7.82-22.19,56.12,56.12,0,0,0-4.1-5.7c-10.23-12.59-24.78-20.15-35.38-24.31-2.14-.84-4.12-1.55-5.87-2.12-2.93-1-5.22-1.59-6.55-1.92l-1-.25-.25-.06h0l3.12-1.27a3.59,3.59,0,0,1,.35-.12,8.47,8.47,0,0,1,1-.32c.17-.06.36-.11.55-.16a13.57,13.57,0,0,1,2.46-.4,14.51,14.51,0,0,1,4.72.4l.75.18,21.4,5.37,29.15,7.31A14.71,14.71,0,0,1,374.92,360c.08,1,.14,1.93.19,2.92.17,3.13.26,6.38.27,9.69,0,.79,0,1.59,0,2.39-.09,21.63-2.86,44.88-3.65,51.09-.07.49-.11.86-.15,1.13s-.07.46-.07.46h0l.43.13.15.05.27.08c.94.28,2.59.81,4.67,1.61l.63.24.7.27.95.39.61.26c.34.15.69.31,1.06.46l.54.26,1.13.53h0c.25.14.51.26.76.39a57.3,57.3,0,0,1,5.08,2.85c.43.27.88.55,1.3.85a36,36,0,0,1,10.8,10.7,168.35,168.35,0,0,1,11.88,24.63l.48,1.22c.2.48.39,1,.58,1.47s.3.78.44,1.17c.05.14.1.28.17.43l.78,2.13.21.59c.06.16.12.32.17.48h0c.17.48.34.94.5,1.41.5,1.44,1,2.82,1.39,4.13l.44,1.43c.22.7.43,1.39.61,2.05,0,.12.07.25.11.36s.12.42.16.61.1.35.14.52c.14.51.27,1,.38,1.45s.24,1,.33,1.49A11.06,11.06,0,0,1,419.73,495.23Z"/><path class="cls-17" d="M367.62,407.16c0,2.28-.09,4.65-.18,7.13"/><path class="cls-17" d="M367.34,391.48c.11,2.15.2,4.43.25,6.84"/><path class="cls-17" d="M366.11,378.3c.27,1.91.51,4,.72,6.21"/><path class="cls-17" d="M363.06,364.49a64.51,64.51,0,0,1,1.82,6.78"/><path class="cls-17" d="M283.6,373.67c-2.13,1.27-4.19,2.6-6.16,4"/><path class="cls-17" d="M298.69,365.86c-2.65,1.2-5.35,2.5-8,3.88"/><path class="cls-17" d="M313.79,359.67c-2.3.85-4.81,1.82-7.44,2.89"/><path class="cls-17" d="M327.27,355.14s-2.13.61-5.65,1.78"/><path class="cls-18" d="M301.18,335.52s22.57,32.62,74.2,39.52l.38-11.7-41.24-23.89-24.8-6.18-5,.81Z"/><path class="cls-19" d="M350.79,187.25h0l-4.21,35.84s-8.06,12.11-18.85,5.12a16.16,16.16,0,0,1-.61-1.71l6.18-6.56,4-18.88s-2.2,1.33-9,2.75h0c-10.46.39-9.59-6.19-9.59-6.19l.85-2.51-.19-3,1-3.86-3.65-.8,4.72-24.39c4.49.79,9.24,2.29,10.35,5.13,2.24,5.74,3.31,11,8,6.53a20.77,20.77,0,0,1,5.06-3.57c3.55-1.7,6.9-1.46,7.52,3.28C353.09,180.17,351,180.34,350.79,187.25Z"/><path class="cls-20" d="M383.68,229.47a2.07,2.07,0,0,0-.4-.71c-4.95-6.12-19.35-11.5-22.44-12.61-1,1.12-4.3,4.13-13.43,11.59-12.59,10.31-17.68,5.12-19.69.48a16.16,16.16,0,0,1-.61-1.71c-.1-.34-.18-.67-.26-1a14.53,14.53,0,0,1-.35-2.39c-5,.62-15.46,6.53-22.84,13.47-.85.81-1.73,1.67-2.62,2.58-2.47,2.49-5.05,5.31-7.54,8.08-5.36,5.94-10.29,11.62-12.65,13.22a2.22,2.22,0,0,0-1,1.74,38.38,38.38,0,0,0,.51,8.55,33,33,0,0,0,.78,3.49h0s0,.06,0,.13a34.73,34.73,0,0,0,12.62,18.18,2.25,2.25,0,0,0,2.78-.08l12.91-10.74a2.27,2.27,0,0,1,3.7,1.53c1.91,19.12-6.37,43.56-8.42,49.25a2.25,2.25,0,0,0,.4,2.23,89.89,89.89,0,0,0,10.38,10.1c-5.19-11.11-.66-37.18-.17-53.15-.49,16-5,42,.18,53.15,24,19.9,55.95,27.13,64.77,28.8a2.23,2.23,0,0,0,2.65-1.93C396.34,271.87,385.08,233.69,383.68,229.47Zm-102.5,44.88a47.8,47.8,0,0,0,6.92,10.38c.19.21.38.4.57.59C284.63,281.31,281.49,275,281.18,274.35Zm8.86,12.2c.17.14.33.27.5.39C290.37,286.82,290.21,286.69,290,286.55Zm-1.32-1.18.55.52Zm.66.62.51.45Zm4.17,2.45-.3-.07Zm-.7-.21c-.1,0-.2-.07-.3-.12C292.65,288.16,292.75,288.19,292.85,288.23Zm-.66-.28a8.85,8.85,0,0,1-.84-.47A8.85,8.85,0,0,0,292.19,288Zm-1-.55c-.17-.11-.34-.22-.5-.34C290.87,287.18,291,287.29,291.21,287.4Zm2.76,1.14.29,0Zm.72.07h0Zm3.11-1-.15.09Zm-.7.42-.22.1Zm-.71.3-.25.08Zm-.71.18-.27,0Zm10.07-8.65c2.83-2.66,5.2-4.18,7-2.47C311,275.7,308.58,277.22,305.75,279.88Zm9.64,11.71v0Z"/><path class="cls-21" d="M297,279.45s-3.58,2.36-7.88,4.74c-3.91,2.16-8.42,4.32-11.31,4.69-1,.13-2.37-1.1-4-3.24h0c-8.27-11.06-22.73-46.48-22.73-46.48S238,231.08,238,230.48s7.86-11.2,7.86-11.2l9.84,1.31,1.78,13.81a121.63,121.63,0,0,0,12.48,20,47.08,47.08,0,0,1,9,17.39l.51-.37,1.73-1.22,9.11-6.53Z"/><path class="cls-22" d="M289.27,279.84l-.17,4.35c-3.91,2.16-8.42,4.32-11.31,4.69-1,.13-2.37-1.1-4-3.24.29,0,5.51-.11,7.84-1.52s-2.23-12.66-2.23-12.66l1.73-1.22a25.38,25.38,0,0,1,3,3C285.55,275,289.27,279.84,289.27,279.84Z"/><path class="cls-12" d="M383,371.77a2.23,2.23,0,0,1-2.65,1.93c-8.82-1.67-40.81-8.9-64.77-28.8-6.4-13.68,2-50-.67-62.32s-8.58-2.71-16.4,4.48c-3.45,3.17-7.24,1.05-10.4-2.33a48.67,48.67,0,0,1-7-10.43h0a33,33,0,0,1-.78-3.49,38.38,38.38,0,0,1-.51-8.55,2.22,2.22,0,0,1,1-1.74c2.36-1.6,7.29-7.28,12.65-13.22,2.49-2.77,5.07-5.59,7.54-8.08.89-.91,1.77-1.77,2.62-2.58,7.38-6.94,17.87-12.85,22.84-13.47a14.53,14.53,0,0,0,.35,2.39c.08.29.16.62.26,1a16.16,16.16,0,0,0,.61,1.71c2,4.64,7.1,9.83,19.69-.48,9.13-7.46,12.45-10.47,13.43-11.59,3.09,1.11,17.49,6.49,22.44,12.61a2.07,2.07,0,0,1,.4.71C385.08,233.69,396.34,271.87,383,371.77Z"/><path class="cls-23" d="M315.56,344.9a89.89,89.89,0,0,1-10.38-10.1,2.25,2.25,0,0,1-.4-2.23c2.05-5.69,10.33-30.13,8.42-49.25a2.27,2.27,0,0,0-3.7-1.53l-12.91,10.74a2.25,2.25,0,0,1-2.78.08,34.73,34.73,0,0,1-12.62-18.18c0-.07,0-.11,0-.13.32.65,9.67,19.82,17.35,12.76s13.8-16.74,16.41-4.48S309.16,331.22,315.56,344.9Z"/><path class="cls-23" d="M372.71,260s6.28,17.24-6.15,27.88c-9.86,8.45-18.65,15.05-22.46,15.84a2,2,0,0,1-2.22-1.08l-1.4-6.27s-11.1,5.21-18-6.25a187.48,187.48,0,0,1-11.38-22.36l30.05,8.29Z"/><path class="cls-21" d="M354.24,259.54c-.81.13-13.78,4.76-21.52,11.87a38.88,38.88,0,0,0-11.39-15.71c-8.44-7-19.8-11.71-24.16-23.34s-5.62-24-6.09-24.49-13.07-.55-13.07-.55l-4.59,16.79L287,236.81l5.63,8.49s11.27,26.41,35.73,46.67a10.33,10.33,0,0,0,9.76,1.89A49,49,0,0,0,357,282Z"/><path class="cls-22" d="M334.63,269.78s6.18,19.7,2,24.43l9.06-2.49,3.91-15s0-5.27-3.91-8.32-6.47-3.38-6.47-3.38Z"/><path class="cls-12" d="M345.69,251c-6.39,4.56-12.18,8.72-12.24,8.88s8,27.58,10.7,36.7a2.05,2.05,0,0,0,3.26,1c2-1.62,5.09-4.15,8.48-7Z"/><path class="cls-12" d="M355.89,290.54c7.95-6.82,17.55-15.68,18.78-19.73,1.81-5.95,1.32-19.72,1.12-23.86a2,2,0,0,0-1.13-1.74l-11.13-5.57a2.05,2.05,0,0,0-2.11.15c-2.53,1.8-9.42,6.69-15.73,11.19Z"/><path class="cls-4" d="M328.26,203.82l-.12,0-5.51.93a6.14,6.14,0,0,1-6-2.6c-6-9.17-2.91-28.28-.15-39.26l.45-.39a.08.08,0,0,1,.07,0l1,.1,1.09.13c.77.1,1.55.22,2.36.36l-4.72,24.39,3.65.8-1,3.86.19,3-.85,2.51S317.8,204.21,328.26,203.82Z"/><path class="cls-24" d="M313.76,153.06s-1.51,6,4.1,6.23c6.83.29,12.62-.1,14.66,3.06s4.24-4.16,11.34-5.4,11.75-2.39,12.23,1.24-2.36,6.68-2.36,6.68,10.43-5.32,11-.34a14,14,0,0,1-1.72,8.59s8.21-6.16,6.57-10.29-5.48-7.1-9.05-5.89,1.28-6.73-2.19-10.3-7.86-5.86-15-6.47c-2.17-.18-18.82.84-24.56,5.35A14.55,14.55,0,0,0,313.76,153.06Z"/><ellipse class="cls-12" cx="319.58" cy="145.94" rx="3.73" ry="1.08" transform="translate(-29.05 189.4) rotate(-31.65)"/><path class="cls-25" d="M227.78,99.5s-15.35,7.14-34.4,18.15l-1.28.74c-21,12.25-46.19,29.07-60.12,46.13,0,0-8.83,99,37.64,163.09l0,.06a126.36,126.36,0,0,0,35.76,33.62C302.29,290.49,314,147.18,314,147.18,292.28,118.82,227.78,99.5,227.78,99.5Zm53.1,51.06c.43.35.86.7,1.28,1.06C281.74,151.26,281.31,150.91,280.88,150.56Zm-6.47-4.77,0,0h0a0,0,0,0,1,0,0h0Zm-75.2,194.87c23.25-17,40.67-39,53.7-61.67-13,22.72-30.44,44.68-53.7,61.67ZM299.48,151.43c.14.4.28.8.38,1.19C299.76,152.23,299.61,151.83,299.48,151.43Z"/><path class="cls-26" d="M418.4,488.31c.06.21.12.42.16.61s.1.35.14.52c.14.51.27,1,.38,1.45s.24,1,.33,1.49a11.06,11.06,0,0,1,.32,2.85h0l-.72.29-3.05.35.15,1a7.21,7.21,0,0,1,6.62,4.41l2,5.32a3.39,3.39,0,0,1,.15.45l.06.23a1.57,1.57,0,0,1,0,.23c0,.07,0,.15.05.22l0,.23.1,0a7.9,7.9,0,0,1,1.06,5.45c-.62,2.93-11.09,15.21-18.2,17.81s-20.77,6.1-23.07-4a1.13,1.13,0,0,1,0-.15v0c-.06-.14-.1-.27-.15-.41a5.69,5.69,0,0,1-.2-2.54,6,6,0,0,1,1.32-2.94l14-16.9a17.2,17.2,0,0,1,4.17-3.65l-.64-3.25-1.5.17a210,210,0,0,1-79.49,21.4l-5.81-8.16L205.43,361.29l4.54-15,1-12.1,15.57-182.39.1-1.18.84-9.82,1.33-15.62L229,124l.2-2.41.17-2,.38.12.29.09L227.78,99.5,488,196.8A211.52,211.52,0,0,1,418.4,488.31Z"/><path class="cls-12" d="M299.86,152.62c-4.6-17.91-46.14-39.55-62.06-46.9-13.87-6.41-38.79,8.77-44.42,11.93l-1.28.74c-21,12.25-46.19,29.07-60.12,46.13,0,0-8.83,99,37.64,163.09l0,.06c19.13,23.89,31.42,23,31.42,23C277.81,306.07,304.45,170.55,299.86,152.62Zm-100.65,188a101.52,101.52,0,0,1-9.34-6.53h0v0l-.06-.1c-1.79-2.71-33.45-46.58-37.78-88.19a221.57,221.57,0,0,1-1.29-27.71c1-49.38,22.83-65.34,47.67-77.33,23.83-11.51,52.12-4.14,66.57,1.11l1.94.73c2.3.9,4.16,1.69,5.46,2.25l.86.39.24.11c.49.22.81.38,1,.43l0,0h0c6.48,4.39,12.19,9.24,16.17,14.46C290.64,160.29,280.8,281,199.21,340.66Z"/><path class="cls-27" d="M218,120.13c-.9.41-58.19,27.19-80.71,54.77,0,0-9.82,110.13,52.53,159.2v0h0a99.61,99.61,0,0,0,9.34,6.53C175,177.79,217.31,121.09,218,120.13Z"/><path class="cls-28" d="M274.48,145.83h0a0,0,0,0,1,0,0C251.19,130.05,218,120.12,218,120.12h0c-.72,1-43.05,57.66-18.82,220.53C280.8,281,290.64,160.29,290.64,160.29,286.66,155.07,281,150.22,274.48,145.83Z"/><path class="cls-27" d="M314,147.18S302.29,290.49,205.43,361.29a126.36,126.36,0,0,1-35.76-33.62c19.13,23.89,31.42,23,31.42,23,76.72-44.57,103.36-180.09,98.77-198s-56.05-41.25-72.62-47c-3.12-1.08-28.23,8.87-33.86,12,19.05-11,34.4-18.15,34.4-18.15S292.28,118.82,314,147.18Z"/><path class="cls-29" d="M290.64,160.29S280.8,281,199.21,340.66a99.61,99.61,0,0,1-9.34-6.53h0v0a108,108,0,0,1-20.1-20.86c13.68,16.69,28.17,18.4,28.17,18.4,62.23-29.95,76.89-144.38,72.13-163.82-4.6-18.76-60.38-31.86-60.38-31.86l-62.91,29.1c26-23.78,70.48-44.57,71.27-44.93h0s33.15,9.93,56.37,25.68a0,0,0,0,0,0,0h0C281,150.22,286.66,155.07,290.64,160.29Z"/><path class="cls-30" d="M446.21,207.21s-11.32-4.57-8.81-13.42,6.64,3.24,4,6.76-12.83,2.29-15.35-9.8,5.89-4.57,5.06,1.93-9.77,3.51-14.55-5.88"/><path class="cls-30" d="M167.14,387.18s-10.56-6.12-6.83-14.53,6.12,4.14,3,7.26-13,.46-13.81-11.88,6.48-3.69,4.74,2.63-10.18,2.1-13.57-7.87"/><path class="cls-30" d="M265.41,312.84s8.57,13.89,11-.1c2.15-12.15-15.33.68,4.52,10.77"/><path class="cls-30" d="M355.64,486.16s-18.1-2.91-4.65-11.5c11.66-7.46,5.89,16.19-13.13-.05"/><path class="cls-30" d="M460.59,316.1s-18.1-2.91-4.66-11.5c11.67-7.46,5.89,16.19-13.12-.05"/><path class="cls-30" d="M285,94.05s6.92,6,12,1.3S292.5,92,291,95s2.86,9.35,11.8,6.9,1-5.5-3-2.72,1,7.73,8.9,7.7"/><path class="cls-31" d="M142.64,103.08a2,2,0,0,0-1.83,1.06,8.19,8.19,0,0,0-.76,2c-.2.93-.26,1.87-.38,2.81a10.53,10.53,0,0,1-4.19,7.15,5.27,5.27,0,0,1-5.92.74c-.63-.31-1.28-.57-1.92-.85a19.26,19.26,0,0,0-5-1.9l-.2-.06a7.77,7.77,0,0,1-1.37-1.16,9.78,9.78,0,0,1-1.81-4.83c-.12-1.34-.09-2.7-.1-4.06a16.47,16.47,0,0,0-.44-4.43,4.11,4.11,0,0,0-1.46-2.35h0l-.14-.13-.14-.08a1.79,1.79,0,0,0-2.87.41,3.09,3.09,0,0,0-.4,2.6c.27.94.56,1.88.92,2.8s.79,1.77,1.19,2.65c1.32,2.84,1,5.76.15,8.69a1.8,1.8,0,0,1-1.36,1.23c-.63.16-1.25.35-1.88.53l-.28.1-.16.07c-.19.08-.4.14-.58.23a12.71,12.71,0,0,0-3,2.37c-.78.76-1.55,1.53-2.38,2.23a6.39,6.39,0,0,1-4.65,1.51A14.36,14.36,0,0,1,96,120.66c-1.76-.91-3.54-1.79-5.34-2.62a4.28,4.28,0,0,0-3.4,0,2.9,2.9,0,0,0-2.14,2.29,2.61,2.61,0,0,0,1.45,2.74,17,17,0,0,0,2.36.87l4.25.55c2.81.36,5.35,1.2,7,3.54,0,.1.07.2.12.3.59,1.22,1.21,2.42,1.75,3.66a8.45,8.45,0,0,1,.62,4.42c0,.13-.11.25-.17.38h0a6.46,6.46,0,0,1-1.71,2.21,22.1,22.1,0,0,1-11,5.41,17.24,17.24,0,0,0-3.37,1,5.43,5.43,0,0,0-3,2.3,1.34,1.34,0,0,0-.07,1.64,1.66,1.66,0,0,0,1.7.81c.92-.14,1.82-.43,2.73-.65a2.7,2.7,0,0,0,.4-.14c.92-.56,1.85-1.1,2.75-1.7a20.54,20.54,0,0,1,4-2.26,38.93,38.93,0,0,1,7-1.85,4.87,4.87,0,0,1,3.59.45h0l.12.07a7.8,7.8,0,0,1,.91,1.27,16.54,16.54,0,0,1,.73,2.19,4,4,0,0,0,3.5,3.1c.73.11,1.46.26,2.17.44a2.33,2.33,0,0,1,1.67,1.4,5,5,0,0,1,.37,1.19c.19,1.37.36,2.74.5,4.12a20.68,20.68,0,0,1-1.38,10.94,8.12,8.12,0,0,0-.62,2.38,1.65,1.65,0,0,0,1.61,2,7.87,7.87,0,0,0,2.22,0,1.66,1.66,0,0,0,1.53-2.25,27.78,27.78,0,0,0-1-2.7.86.86,0,0,0,0-.17,8.83,8.83,0,0,1-.29-6.2,34.33,34.33,0,0,1,2.78-6.67,3.62,3.62,0,0,1,.72-.94,3,3,0,0,1,2.83-.71c1,.33,1.9.7,2.87,1s1.74.48,2.61.71a2.21,2.21,0,0,0,2.55-1.43,13.13,13.13,0,0,0,.52-1.36c.29-.77.52-1.57.86-2.33a2.65,2.65,0,0,1,1.94-1.63l.39,0c4.29-.22,8,.91,10.84,4a9,9,0,0,0,1.44,1.32,1.45,1.45,0,0,0,1.78.13,1.82,1.82,0,0,0,1.15-1.75,1.73,1.73,0,0,0-1.07-1.76c-.82-.34-1.68-.61-2.53-.87a8.87,8.87,0,0,1-2.9-1.4,20.65,20.65,0,0,1-3.53-3.83,2.52,2.52,0,0,1-.34-.7,8.21,8.21,0,0,1,2.92-8.72,3.17,3.17,0,0,0,.4-.14,8.75,8.75,0,0,1,4.37-1c1.48.05,3,.2,4.43.31a14,14,0,0,0,4.91-.25,2.24,2.24,0,0,0,1.88-2.52,3.31,3.31,0,0,0-3.93-2.72c-1.22.25-2.44.53-3.65.85-1.54.42-3,1-4.59,1.31a4.69,4.69,0,0,1-3.49-.2,12,12,0,0,1-3.13-2.46,8.11,8.11,0,0,1-2.05-7.95c.21-.76.42-1.53.62-2.29a16.87,16.87,0,0,1,3-6.45c.62-.76,1.26-1.51,1.85-2.3a7.42,7.42,0,0,0,1.7-3.32,1.68,1.68,0,0,0-.4-1.55A3.23,3.23,0,0,0,142.64,103.08ZM115.07,168h0c0,.06,0,.11.05.17S115.08,168.06,115.07,168Zm10.09-15.93a2.07,2.07,0,0,0-.46.38A2.07,2.07,0,0,1,125.16,152.07ZM85.77,121.73a.3.3,0,0,1,.14-.19.3.3,0,0,0-.14.19Zm38.51,31.15c.14-.13.27-.28.41-.42-.14.14-.27.29-.41.42Z"/><path class="cls-32" d="M122.62,114.14a19.26,19.26,0,0,1,5,1.9,22,22,0,0,0,2.25,2.65,17.15,17.15,0,0,0,2.9,1.83,7.23,7.23,0,0,1,3.58,4.66c.29,1.08.56,2.17.89,3.24a6.73,6.73,0,0,0,1.39,2.74c.46.5.94,1,1.39,1.5a2,2,0,0,1,.19,2.79,10.73,10.73,0,0,1-2.43,2.42,4.83,4.83,0,0,0-2,4.1,6.24,6.24,0,0,1-.1,1.83,7.48,7.48,0,0,1-3,4,17.26,17.26,0,0,1-1.64.91c-.88.5-1.73,1.05-2.62,1.54-1.08.6-2.2,1.15-3.27,1.77a5.16,5.16,0,0,0-.88.81l-.29,0a1.08,1.08,0,0,0-.28-.15,3.39,3.39,0,0,0-3.69,1.29,24.56,24.56,0,0,0-1.78,3.36A14.49,14.49,0,0,0,116.6,165a5.92,5.92,0,0,0,1.22,3.13,27.78,27.78,0,0,1,1,2.7,1.66,1.66,0,0,1-1.53,2.25,7.51,7.51,0,0,1-2.22,0,1.65,1.65,0,0,1-1.61-2,8.12,8.12,0,0,1,.62-2.38,20.68,20.68,0,0,0,1.38-10.94c-.14-1.38-.31-2.75-.5-4.12a5,5,0,0,0-.37-1.19A2.33,2.33,0,0,0,113,151c-.71-.18-1.44-.33-2.17-.44a4,4,0,0,1-3.5-3.1,16.54,16.54,0,0,0-.73-2.19,7.8,7.8,0,0,0-.91-1.27l-.12-.07h0a1.59,1.59,0,0,0-.26-.35,3.8,3.8,0,0,0-2.17-.68A22.63,22.63,0,0,0,96.32,144a13.72,13.72,0,0,0-2.77,1.15c-2.12,1.15-3.79,2.87-5.69,4.29-.91.22-1.81.52-2.73.65a1.66,1.66,0,0,1-1.7-.81,3.87,3.87,0,0,1,0-.76,3.66,3.66,0,0,1,2.23-2.22l-1.39,1.41.09.1a7.83,7.83,0,0,1,3.19-1.92l-.1-.31.07-.12.27.4c.15-.17.59,0,.41-.46a1.13,1.13,0,0,1,.31-.19c1.1-.23,2.2-.42,3.28-.7a16.34,16.34,0,0,0,2.86-.88,25.69,25.69,0,0,0,3.18-1.83,13.74,13.74,0,0,0,4.18-3.77,6,6,0,0,0,.51-1.26l.17-.38a4.86,4.86,0,0,0,.47-3.59,10.24,10.24,0,0,0-2.18-4.58.58.58,0,0,0-.78-.21c-1.67-2.34-4.2-3.18-7-3.54L88.9,124a9.1,9.1,0,0,0-.85-.37,4.55,4.55,0,0,1-1.91-1.19l.3,0a8.07,8.07,0,0,0,4.67.17,8.31,8.31,0,0,1-4.49-.76l-.26-.15c-.19,0-.42-.4-.59,0a3.83,3.83,0,0,1-.27-1.3c.14-1.08,1-1.63,2-2a4.71,4.71,0,0,1,3.82.44c1.61.82,3.2,1.68,4.81,2.5a13.32,13.32,0,0,0,4.46,1.52,7.81,7.81,0,0,0,4.14-.44,11.43,11.43,0,0,0,3.56-2.82,17.4,17.4,0,0,1,3.26-3c.26-.15.5-.33.75-.5l.16-.07.28-.1c.63-.18,1.25-.37,1.88-.53A1.8,1.8,0,0,0,116,114.2c.83-2.93,1.17-5.85-.15-8.69l-1.32-5a.74.74,0,0,1,0-.14c-.07-.59-.15-1.19-.19-1.79,0-.1.16-.22.24-.32l0,.33.66-.09v-.6l-.41.05-.26-.06a1.39,1.39,0,0,1,1.8-1l.64.16.14.08.14.13h0a3.49,3.49,0,0,1,.15.34,9.11,9.11,0,0,1,.8,2.18,42.41,42.41,0,0,1,.12,4.65c0,2.17-.11,4.34.89,6.36a7.53,7.53,0,0,0,2,2.82,1.57,1.57,0,0,0,1.24.48h0ZM115.07,168l.59-.48-.73-.21-.17.59a5.19,5.19,0,0,0-.38,3.41c0-.05.06-.08.06-.12a6.63,6.63,0,0,1,.69-2.88C115.17,168.23,115.09,168.11,115.07,168ZM107,134.81a2.67,2.67,0,0,0,.2-2.76c-.58-1.1-1.25-2.16-1.87-3.24a2.17,2.17,0,0,1-.29-2.07,8.93,8.93,0,0,1,1.76-2.94l3.25-3.07,1.94-1.88-.07-.09c-.14.07-.27.13-.4.21-1.1.73-2.21,1.44-3.3,2.2a11.07,11.07,0,0,0-4.14,4.45,3.1,3.1,0,0,0-.14,3c.66,1.06,1.42,2.06,2.17,3.05a3.64,3.64,0,0,1,.91,1.84C107.06,133.92,107,134.32,107,134.81Zm9.33,14.39a2.23,2.23,0,0,0-.08-1.61,4.15,4.15,0,0,0-3.39-3.24,16.14,16.14,0,0,1-2.7-.82,2,2,0,0,1-1.51-2c0-.38,0-.75,0-1.19a2.75,2.75,0,0,0,1.16,4.31,14,14,0,0,0,3.39,1,2.46,2.46,0,0,1,1.4.74A8.45,8.45,0,0,1,116.34,149.2Zm-.24-46.57a7.64,7.64,0,0,1-.92-4l-.65.16A7.13,7.13,0,0,0,116.1,102.63Z"/><path class="cls-33" d="M124.28,152.88a5.16,5.16,0,0,1,.88-.81c1.07-.62,2.19-1.17,3.27-1.77.89-.49,1.74-1,2.62-1.54a17.26,17.26,0,0,0,1.64-.91,7.48,7.48,0,0,0,3-4,6.24,6.24,0,0,0,.1-1.83,4.83,4.83,0,0,1,2-4.1,10.73,10.73,0,0,0,2.43-2.42,2,2,0,0,0-.19-2.79c-.45-.51-.93-1-1.39-1.5a6.73,6.73,0,0,1-1.39-2.74c-.33-1.07-.6-2.16-.89-3.24a7.23,7.23,0,0,0-3.58-4.66,17.15,17.15,0,0,1-2.9-1.83,22,22,0,0,1-2.25-2.65c.64.28,1.29.54,1.92.85a5.27,5.27,0,0,0,5.92-.74,10.53,10.53,0,0,0,4.19-7.15c.12-.94.18-1.88.38-2.81a8.19,8.19,0,0,1,.76-2,2,2,0,0,1,1.83-1.06,3.23,3.23,0,0,1,2.59,1.1,1.68,1.68,0,0,1,.4,1.55,7.06,7.06,0,0,1-.48.8c-1,1.17-1.92,2.35-2.93,3.49a11.64,11.64,0,0,0-2.67,4.14,36.24,36.24,0,0,0-1,4,12.87,12.87,0,0,0-.11,2,8.11,8.11,0,0,0,2.05,7.95,12,12,0,0,0,3.13,2.46,4.69,4.69,0,0,0,3.49.2c1.55-.36,3-.89,4.59-1.31,1.21-.32,2.43-.6,3.65-.85a3.31,3.31,0,0,1,3.93,2.72,3.08,3.08,0,0,0-.16.38,1.8,1.8,0,0,1-1.62,1.54,21.09,21.09,0,0,1-3.17.2c-1.52,0-3-.23-4.54-.33a10.25,10.25,0,0,0-3.89.39,8.28,8.28,0,0,0-5.53,10.11,2.52,2.52,0,0,0,.34.7,20.65,20.65,0,0,0,3.53,3.83,8.87,8.87,0,0,0,2.9,1.4c.85.26,1.71.53,2.53.87a1.73,1.73,0,0,1,1.07,1.76,1.82,1.82,0,0,1-1.15,1.75,1.27,1.27,0,0,1-1.25-.23c-.4-.35-.75-.76-1.12-1.14l1.21.67.17.09,0-.07h-.19s0-.09,0-.1a5.8,5.8,0,0,1-1.83-2.13l-.41.14,0-.09.36-.3-.24-.37-.41.34-.77-.53a12.16,12.16,0,0,0-7.94-2.25,11.25,11.25,0,0,0-2,.5,2.68,2.68,0,0,0-2,1.63c-.33.76-.56,1.56-.84,2.33-.17.46-.32.92-.53,1.36a2.21,2.21,0,0,1-2.55,1.43ZM152,130.1a10.89,10.89,0,0,1,4.55-.47V129A8.51,8.51,0,0,0,152,130.1Zm5.42-.47c0-.65-.06-.72-.65-.56C156.74,129.68,156.85,129.78,157.46,129.63Z"/><path class="cls-33" d="M86.36,121.68l.26.15-.18.59-.3,0a4.55,4.55,0,0,0,1.91,1.19,9.1,9.1,0,0,1,.85.37,17,17,0,0,1-2.36-.87,2.61,2.61,0,0,1-1.45-2.74,2.9,2.9,0,0,1,2.14-2.29,4.28,4.28,0,0,1,3.4,0c1.8.83,3.58,1.71,5.34,2.62a14.36,14.36,0,0,0,5.67,1.81,6.39,6.39,0,0,0,4.65-1.51c.83-.7,1.6-1.47,2.38-2.23a12.71,12.71,0,0,1,3-2.37c.18-.09.39-.15.58-.23-.25.17-.49.35-.75.5a17.4,17.4,0,0,0-3.26,3,11.43,11.43,0,0,1-3.56,2.82,7.81,7.81,0,0,1-4.14.44,13.32,13.32,0,0,1-4.46-1.52c-1.61-.82-3.2-1.68-4.81-2.5a4.71,4.71,0,0,0-3.82-.44c-1,.34-1.84.89-2,2a3.83,3.83,0,0,0,.27,1.3l-.1.41.57.2Z"/><path class="cls-33" d="M117.82,168.11A5.92,5.92,0,0,1,116.6,165a14.49,14.49,0,0,1,1.64-7.56,24.56,24.56,0,0,1,1.78-3.36,3.39,3.39,0,0,1,3.69-1.29,1.08,1.08,0,0,1,.28.15c0,.16-.11.33-.16.5a3,3,0,0,0-2.83.71,3.9,3.9,0,0,0-.73.94,34.92,34.92,0,0,0-2.77,6.67,8.83,8.83,0,0,0,.29,6.2A.86.86,0,0,1,117.82,168.11Z"/><path class="cls-33" d="M87.86,149.47c1.9-1.42,3.57-3.14,5.69-4.29A13.72,13.72,0,0,1,96.32,144a22.63,22.63,0,0,1,6.78-1.09,3.8,3.8,0,0,1,2.17.68,1.59,1.59,0,0,1,.26.35,4.87,4.87,0,0,0-3.59-.45,38.93,38.93,0,0,0-7,1.85,20.54,20.54,0,0,0-4,2.26c-.9.6-1.83,1.14-2.75,1.7A2.7,2.7,0,0,1,87.86,149.47Z"/><path class="cls-33" d="M122.42,114.08a1.57,1.57,0,0,1-1.24-.48,7.53,7.53,0,0,1-2-2.82c-1-2-.92-4.19-.89-6.36a42.41,42.41,0,0,0-.12-4.65,9.11,9.11,0,0,0-.8-2.18,3.49,3.49,0,0,0-.15-.34,4.11,4.11,0,0,1,1.46,2.35,16.47,16.47,0,0,1,.44,4.43c0,1.36,0,2.72.1,4.06a9.78,9.78,0,0,0,1.81,4.83A7.77,7.77,0,0,0,122.42,114.08Z"/><path class="cls-33" d="M87.49,145.49l-.07.12c-.16,0-.37-.11-.49-.05-.39.21-.76.47-1.14.71l-.18.06h0a3.66,3.66,0,0,0-2.23,2.22,3.87,3.87,0,0,0,0,.76,1.34,1.34,0,0,1,.07-1.64,5.43,5.43,0,0,1,3-2.3,17.24,17.24,0,0,1,3.37-1,22.1,22.1,0,0,0,11-5.41,6.46,6.46,0,0,0,1.71-2.21,6,6,0,0,1-.51,1.26,13.74,13.74,0,0,1-4.18,3.77,25.69,25.69,0,0,1-3.18,1.83,16.34,16.34,0,0,1-2.86.88c-1.08.28-2.18.47-3.28.7a1.13,1.13,0,0,0-.31.19C87.9,145.09,87.68,145.11,87.49,145.49Z"/><path class="cls-34" d="M143.33,134.83a6.93,6.93,0,0,1,2.61-1.39,10.25,10.25,0,0,1,3.89-.39c1.51.1,3,.29,4.54.33a21.09,21.09,0,0,0,3.17-.2,1.8,1.8,0,0,0,1.62-1.54,3.08,3.08,0,0,1,.16-.38,2.24,2.24,0,0,1-1.88,2.52,14,14,0,0,1-4.91.25c-1.48-.11-2.95-.26-4.43-.31a8.75,8.75,0,0,0-4.37,1A3.17,3.17,0,0,1,143.33,134.83Z"/><path class="cls-34" d="M138.48,120.09a12.87,12.87,0,0,1,.11-2,36.24,36.24,0,0,1,1-4,11.64,11.64,0,0,1,2.67-4.14c1-1.14,2-2.32,2.93-3.49a7.06,7.06,0,0,0,.48-.8,7.42,7.42,0,0,1-1.7,3.32c-.59.79-1.23,1.54-1.85,2.3a16.87,16.87,0,0,0-3,6.45C138.9,118.56,138.69,119.33,138.48,120.09Z"/><path class="cls-34" d="M146.18,151l0,.09a3.42,3.42,0,0,0,.23.42c.26.34.54.66.81,1s.72.79,1.12,1.14a1.27,1.27,0,0,0,1.25.23,1.45,1.45,0,0,1-1.78-.13,9,9,0,0,1-1.44-1.32c-2.84-3.14-6.55-4.27-10.84-4l-.39,0a11.25,11.25,0,0,1,2-.5,12.16,12.16,0,0,1,7.94,2.25l.77.53Z"/><path class="cls-33" d="M100.17,128a.58.58,0,0,1,.78.21,10.24,10.24,0,0,1,2.18,4.58,4.86,4.86,0,0,1-.47,3.59A8.45,8.45,0,0,0,102,132c-.54-1.24-1.16-2.44-1.75-3.66C100.24,128.24,100.21,128.14,100.17,128Z"/><path class="cls-33" d="M114.5,98.24c-.08.1-.25.22-.24.32,0,.6.12,1.2.19,1.79a.74.74,0,0,0,0,.14l1.32,5c-.4-.88-.84-1.75-1.19-2.65s-.65-1.86-.93-2.8a3.13,3.13,0,0,1,.41-2.6,1.79,1.79,0,0,1,2.87-.41l-.64-.16a1.39,1.39,0,0,0-1.8,1l.26.06Z"/><path class="cls-34" d="M123.83,153.42c0-.17.11-.34.16-.5l.29,0,5,2.25c-.87-.23-1.75-.44-2.61-.71S124.79,153.75,123.83,153.42Z"/><path class="cls-35" d="M112.72,116l-.28.1Z"/><path class="cls-33" d="M117.25,97.26l-.14-.13Z"/><path class="cls-33" d="M122.62,114.14l-.2-.06Z"/><path class="cls-33" d="M105.53,144l.12.07Z"/><path class="cls-12" d="M107,134.81c0-.49,0-.89,0-1.28a3.64,3.64,0,0,0-.91-1.84c-.75-1-1.51-2-2.17-3.05a3.1,3.1,0,0,1,.14-3,11.07,11.07,0,0,1,4.14-4.45c1.09-.76,2.2-1.47,3.3-2.2.13-.08.26-.14.4-.21l.07.09-1.94,1.88-3.25,3.07a8.93,8.93,0,0,0-1.76,2.94,2.17,2.17,0,0,0,.29,2.07c.62,1.08,1.29,2.14,1.87,3.24A2.67,2.67,0,0,1,107,134.81Z"/><path class="cls-12" d="M116.34,149.2a8.45,8.45,0,0,0-1.78-2.75,2.46,2.46,0,0,0-1.4-.74,14,14,0,0,1-3.39-1,2.75,2.75,0,0,1-1.16-4.31c0,.44,0,.81,0,1.19a2,2,0,0,0,1.51,2,16.14,16.14,0,0,0,2.7.82,4.15,4.15,0,0,1,3.39,3.24A2.23,2.23,0,0,1,116.34,149.2Z"/><path class="cls-12" d="M86.44,122.42l.18-.59a8.31,8.31,0,0,0,4.49.76A8.07,8.07,0,0,1,86.44,122.42Z"/><path class="cls-12" d="M116.1,102.63a7.13,7.13,0,0,1-1.57-3.84l.65-.16A7.64,7.64,0,0,0,116.1,102.63Z"/><path class="cls-12" d="M85.79,146.27c.38-.24.75-.5,1.14-.71.12-.06.33,0,.49.05l.1.31a7.83,7.83,0,0,0-3.19,1.92l-.09-.1,1.39-1.41h0Z"/><path class="cls-12" d="M115.07,168c0,.11.1.23.06.31a6.63,6.63,0,0,0-.69,2.88s0,.07-.06.12a5.19,5.19,0,0,1,.38-3.41h0l.34.12Z"/><path class="cls-12" d="M114.5,98.24l.29-.31.41-.05v.6l-.66.09Z"/><path class="cls-12" d="M86.36,121.68l-.12.66-.57-.2.1-.41C85.94,121.28,86.17,121.71,86.36,121.68Z"/><path class="cls-12" d="M114.76,167.9l.17-.59.73.21-.59.48h0l-.34-.12Z"/><path class="cls-12" d="M87.49,145.49c.19-.38.41-.4.68-.06s-.26.29-.41.46Z"/><path class="cls-12" d="M152,130.1A8.51,8.51,0,0,1,156.6,129v.62A10.89,10.89,0,0,0,152,130.1Z"/><path class="cls-12" d="M147.26,152.49c-.27-.33-.55-.65-.81-1a3.42,3.42,0,0,1-.23-.42l.41-.14a5.8,5.8,0,0,0,1.83,2.13s0,.07,0,.1h0Z"/><path class="cls-12" d="M157.46,129.63c-.61.15-.72.05-.65-.56C157.4,128.91,157.49,129,157.46,129.63Z"/><path class="cls-12" d="M146.18,151l-.29-.33.41-.34.24.37Z"/><path class="cls-12" d="M148.47,153.17h.19l0,.07-.17-.09Z"/><path class="cls-36" d="M85.79,146.27l-.18.06Z"/><path class="cls-36" d="M114.74,167.89l.34.12Z"/><path class="cls-31" d="M392.27,105.53a1.42,1.42,0,0,0-.8-1.29,6.45,6.45,0,0,0-1.48-.5c-.66-.12-1.34-.14-2-.21a7.57,7.57,0,0,1-5.21-2.85,3.78,3.78,0,0,1-.64-4.23c.2-.45.37-.92.56-1.39a13.47,13.47,0,0,0,1.26-3.63l0-.14a5,5,0,0,1,.8-1,7,7,0,0,1,3.42-1.4c1-.11,1.93-.12,2.9-.16a11.68,11.68,0,0,0,3.17-.4,2.93,2.93,0,0,0,1.65-1.09h0l.08-.1.06-.1a1.28,1.28,0,0,0-.36-2,2.26,2.26,0,0,0-1.86-.24c-.67.22-1.34.45-2,.73s-1.25.6-1.87.9a8.67,8.67,0,0,1-6.22.29,1.26,1.26,0,0,1-.91-1c-.13-.45-.28-.89-.42-1.33a1.19,1.19,0,0,0-.08-.2.37.37,0,0,0-.05-.11c-.06-.14-.11-.29-.18-.42a9,9,0,0,0-1.76-2.11c-.56-.55-1.13-1.08-1.65-1.67a4.56,4.56,0,0,1-1.17-3.29,10.22,10.22,0,0,1,1.18-4.1c.61-1.28,1.2-2.57,1.76-3.88a3,3,0,0,0-.08-2.43,2.07,2.07,0,0,0-1.68-1.49,1.88,1.88,0,0,0-1.93,1.1,11.07,11.07,0,0,0-.57,1.71c-.11,1-.22,2-.31,3.05-.2,2-.75,3.86-2.39,5.1l-.21.09c-.86.45-1.71.92-2.59,1.33a6.07,6.07,0,0,1-3.15.54l-.28-.11h0a4.7,4.7,0,0,1-1.62-1.18,15.81,15.81,0,0,1-4.09-7.74,12.54,12.54,0,0,0-.76-2.39,3.87,3.87,0,0,0-1.7-2.07,1,1,0,0,0-1.18,0,1.16,1.16,0,0,0-.54,1.23,18.49,18.49,0,0,0,.52,1.94,1,1,0,0,0,.11.29c.42.64.82,1.3,1.27,1.93a14.73,14.73,0,0,1,1.7,2.8,27.74,27.74,0,0,1,1.47,4.94,3.49,3.49,0,0,1-.25,2.58h0l-.05.09a6.18,6.18,0,0,1-.89.68,12.06,12.06,0,0,1-1.56.56,2.85,2.85,0,0,0-2.14,2.58q-.1.78-.27,1.56a1.69,1.69,0,0,1-1,1.22,3.8,3.8,0,0,1-.84.29c-1,.17-2,.32-2.95.45a14.81,14.81,0,0,1-7.86-.77,6,6,0,0,0-1.71-.39,1.19,1.19,0,0,0-1.41,1.2,5.23,5.23,0,0,0,.06,1.58,1.19,1.19,0,0,0,1.64,1.06c.66-.21,1.28-.54,1.91-.81l.13,0a6.33,6.33,0,0,1,4.43-.34,24.42,24.42,0,0,1,4.83,1.85,3,3,0,0,1,.69.5,2.14,2.14,0,0,1,.57,2c-.22.69-.46,1.38-.66,2.08s-.31,1.25-.46,1.88a1.6,1.6,0,0,0,1.08,1.8,8.9,8.9,0,0,0,1,.34c.56.19,1.13.34,1.68.56a1.91,1.91,0,0,1,1.21,1.37,2.45,2.45,0,0,1,0,.27,9.23,9.23,0,0,1-2.67,7.85,7.69,7.69,0,0,0-.92,1,1.06,1.06,0,0,0-.05,1.29,1.3,1.3,0,0,0,1.28.78,1.23,1.23,0,0,0,1.23-.8c.23-.6.4-1.22.58-1.83a6.18,6.18,0,0,1,.94-2.11,14.93,14.93,0,0,1,2.66-2.61,2,2,0,0,1,.5-.25,5.84,5.84,0,0,1,6.3,1.91c0,.09.07.19.11.28a6.28,6.28,0,0,1,.79,3.11c0,1.06-.08,2.12-.13,3.18a9.89,9.89,0,0,0,.28,3.51,1.61,1.61,0,0,0,1.84,1.29,2.37,2.37,0,0,0,1.87-2.87c-.21-.87-.43-1.74-.69-2.59-.33-1.09-.74-2.16-1-3.26a3.4,3.4,0,0,1,.07-2.51,8.75,8.75,0,0,1,1.7-2.29,5.82,5.82,0,0,1,5.65-1.63l1.65.4a12,12,0,0,1,4.68,2c.56.43,1.11.88,1.69,1.28a5.29,5.29,0,0,0,2.41,1.15,1.21,1.21,0,0,0,1.1-.32A2.27,2.27,0,0,0,392.27,105.53ZM345.21,87.14h0l-.11,0ZM356.83,94a1.4,1.4,0,0,0-.28-.32A1.4,1.4,0,0,1,356.83,94ZM377.74,65.2a.28.28,0,0,1,.14.09.28.28,0,0,0-.14-.09ZM356.23,93.42l.32.29-.32-.29Z"/><path class="cls-32" d="M383.94,91.43a13.47,13.47,0,0,1-1.26,3.63,16.31,16.31,0,0,0-1.85,1.67,12.71,12.71,0,0,0-1.25,2.12,5.19,5.19,0,0,1-3.26,2.65c-.77.23-1.54.45-2.3.71a4.68,4.68,0,0,0-1.93,1.05c-.35.34-.69.69-1,1a1.43,1.43,0,0,1-2,.19,7.56,7.56,0,0,1-1.79-1.69,3.42,3.42,0,0,0-3-1.36,4.17,4.17,0,0,1-1.32,0,5.29,5.29,0,0,1-3-2,9.52,9.52,0,0,1-.68-1.16c-.38-.61-.79-1.22-1.16-1.84s-.87-1.55-1.34-2.31a3.46,3.46,0,0,0-.6-.61l0-.2a.67.67,0,0,0,.1-.21,2.42,2.42,0,0,0-1-2.61,17.86,17.86,0,0,0-2.44-1.21,10.34,10.34,0,0,0-5.45-1,4.22,4.22,0,0,0-2.22.93c-.63.27-1.25.6-1.91.81a1.19,1.19,0,0,1-1.64-1.06,5.23,5.23,0,0,1-.06-1.58,1.19,1.19,0,0,1,1.41-1.2,6,6,0,0,1,1.71.39,14.81,14.81,0,0,0,7.86.77c1-.13,2-.28,2.95-.45a3.8,3.8,0,0,0,.84-.29,1.69,1.69,0,0,0,1-1.22q.17-.78.27-1.56a2.85,2.85,0,0,1,2.14-2.58,12.06,12.06,0,0,0,1.56-.56,6.18,6.18,0,0,0,.89-.68l.05-.09h0a.82.82,0,0,0,.25-.2,2.68,2.68,0,0,0,.44-1.56,16.27,16.27,0,0,0-.92-4.83,9.9,9.9,0,0,0-.89-2,33.12,33.12,0,0,0-3.18-4,18.49,18.49,0,0,1-.52-1.94,1.16,1.16,0,0,1,.54-1.23,2.46,2.46,0,0,1,.54,0,2.62,2.62,0,0,1,1.64,1.55l-1-1-.07.07A5.62,5.62,0,0,1,360.45,67l.23-.08.08,0-.28.21c.12.1,0,.42.34.28a.74.74,0,0,1,.14.22c.19.78.35,1.57.57,2.34a10.94,10.94,0,0,0,.69,2,18.89,18.89,0,0,0,1.37,2.24,9.94,9.94,0,0,0,2.79,2.91,4.18,4.18,0,0,0,.91.35l.28.11a3.47,3.47,0,0,0,2.58.26,7.24,7.24,0,0,0,3.23-1.66.41.41,0,0,0,.14-.56c1.64-1.24,2.19-3.08,2.39-5.1.09-1,.2-2,.31-3.05.08-.2.17-.41.24-.62a3.38,3.38,0,0,1,.81-1.4l0,.22a5.79,5.79,0,0,0,0,3.35,6,6,0,0,1,.45-3.23l.1-.19c0-.14.28-.31,0-.42a2.87,2.87,0,0,1,.92-.22c.78.08,1.19.67,1.46,1.38a3.39,3.39,0,0,1-.24,2.74c-.55,1.17-1.14,2.32-1.69,3.49a9.71,9.71,0,0,0-1,3.23,5.47,5.47,0,0,0,.4,3,8,8,0,0,0,2.09,2.49,12.29,12.29,0,0,1,2.23,2.27c.12.18.25.35.38.53l.05.11.08.2c.14.44.29.88.42,1.33a1.26,1.26,0,0,0,.91,1,8.67,8.67,0,0,0,6.22-.29l3.57-1.05.09,0c.43-.06.85-.13,1.28-.17.07,0,.16.11.24.16l-.24,0,.08.47.43,0-.05-.29,0-.2a1,1,0,0,1,.74,1.28c0,.15-.07.3-.1.46l-.06.1-.08.1h0l-.24.11a6.61,6.61,0,0,1-1.55.62,33.24,33.24,0,0,1-3.32.18,9.55,9.55,0,0,0-4.54.77,5.52,5.52,0,0,0-2,1.48,1.12,1.12,0,0,0-.31.9h0Zm-38.73-4.29.36.41.14-.52-.43-.12a3.78,3.78,0,0,0-2.45-.2s.06.05.09.05a4.67,4.67,0,0,1,2.07.43C345.05,87.22,345.14,87.16,345.21,87.14Zm23.6-6.46a1.89,1.89,0,0,0,2,.08c.78-.43,1.53-.93,2.28-1.4a1.56,1.56,0,0,1,1.48-.25,6.48,6.48,0,0,1,2.14,1.2L379,82.57c.46.46.92.9,1.39,1.35l.06,0a2.54,2.54,0,0,0-.16-.28c-.55-.77-1.08-1.56-1.64-2.32a8,8,0,0,0-3.28-2.87,2.22,2.22,0,0,0-2.16,0c-.75.49-1.44,1.06-2.14,1.62a2.7,2.7,0,0,1-1.3.69A9.11,9.11,0,0,1,368.81,80.68Zm-10.11,7a1.57,1.57,0,0,0,1.15-.09,3,3,0,0,0,2.25-2.49,12.74,12.74,0,0,1,.53-2A1.46,1.46,0,0,1,364,82l.85,0a2,2,0,0,0-3.07.91,11,11,0,0,0-.66,2.45,1.75,1.75,0,0,1-.49,1A6.16,6.16,0,0,1,358.7,87.66Zm33.35-1.14a5.45,5.45,0,0,1,2.84-.74l-.13-.46A5,5,0,0,0,392.05,86.52Z"/><path class="cls-33" d="M356.23,93.42a3.46,3.46,0,0,1,.6.61c.47.76.88,1.55,1.34,2.31s.78,1.23,1.16,1.84a9.52,9.52,0,0,0,.68,1.16,5.29,5.29,0,0,0,3,2,4.17,4.17,0,0,0,1.32,0,3.42,3.42,0,0,1,3,1.36,7.56,7.56,0,0,0,1.79,1.69,1.43,1.43,0,0,0,2-.19c.36-.34.7-.69,1-1a4.68,4.68,0,0,1,1.93-1.05c.76-.26,1.53-.48,2.3-.71a5.19,5.19,0,0,0,3.26-2.65,12.71,12.71,0,0,1,1.25-2.12,16.31,16.31,0,0,1,1.85-1.67c-.19.47-.36.94-.56,1.39a3.78,3.78,0,0,0,.64,4.23,7.57,7.57,0,0,0,5.21,2.85c.68.07,1.36.09,2,.21a6.45,6.45,0,0,1,1.48.5,1.42,1.42,0,0,1,.8,1.29,2.27,2.27,0,0,1-.73,1.88,1.21,1.21,0,0,1-1.1.32,4.13,4.13,0,0,1-.58-.33c-.86-.67-1.73-1.33-2.57-2a8.2,8.2,0,0,0-3-1.83c-.93-.26-1.89-.44-2.85-.61a9.46,9.46,0,0,0-1.41,0,5.82,5.82,0,0,0-5.65,1.63,8.64,8.64,0,0,0-1.7,2.3,3.38,3.38,0,0,0-.07,2.5c.29,1.1.7,2.17,1,3.26.26.85.48,1.72.69,2.59a2.37,2.37,0,0,1-1.87,2.87c-.09,0-.18-.08-.27-.1a1.31,1.31,0,0,1-1.14-1.13,14.52,14.52,0,0,1-.21-2.27c0-1.09.1-2.17.14-3.25a7.28,7.28,0,0,0-.36-2.78,4.83,4.83,0,0,0-1.05-1.84,5.84,5.84,0,0,0-6.3-1.91,2,2,0,0,0-.5.25,14.93,14.93,0,0,0-2.66,2.61,6.18,6.18,0,0,0-.94,2.11c-.18.61-.35,1.23-.58,1.83a1.23,1.23,0,0,1-1.23.8,1.3,1.3,0,0,1-1.28-.78.93.93,0,0,1,.14-.91c.24-.29.52-.55.79-.82l-.46.88-.06.12.06,0v-.14h.07a4.21,4.21,0,0,1,1.49-1.35l-.11-.29.06,0,.22.26.27-.19-.26-.28.36-.56a8.67,8.67,0,0,0,1.45-5.73,7.35,7.35,0,0,0-.4-1.42,1.91,1.91,0,0,0-1.21-1.37c-.55-.22-1.12-.37-1.68-.56a8.9,8.9,0,0,1-1-.34,1.6,1.6,0,0,1-1.08-1.8C355.23,95.85,355.73,94.64,356.23,93.42Zm16.89,19.41a7.7,7.7,0,0,1,.43,3.24H374A6,6,0,0,0,373.12,112.83Zm.45,3.87c.46,0,.52-.06.39-.48C373.52,116.18,373.45,116.26,373.57,116.7Z"/><path class="cls-33" d="M377.78,65.62l-.1.19-.43-.12,0-.22a3.38,3.38,0,0,0-.81,1.4c-.07.21-.16.42-.24.62a11.07,11.07,0,0,1,.57-1.71,1.88,1.88,0,0,1,1.93-1.1,2.07,2.07,0,0,1,1.68,1.49,3,3,0,0,1,.08,2.43c-.56,1.31-1.15,2.6-1.76,3.88a10.22,10.22,0,0,0-1.18,4.1,4.56,4.56,0,0,0,1.17,3.29c.52.59,1.09,1.12,1.65,1.67a9,9,0,0,1,1.76,2.11c.07.13.12.28.18.42-.13-.18-.26-.35-.38-.53a12.29,12.29,0,0,0-2.23-2.27,8,8,0,0,1-2.09-2.49,5.47,5.47,0,0,1-.4-3,9.71,9.71,0,0,1,1-3.23c.55-1.17,1.14-2.32,1.69-3.49a3.39,3.39,0,0,0,.24-2.74c-.27-.71-.68-1.3-1.46-1.38a2.87,2.87,0,0,0-.92.22l-.3-.06-.13.41Z"/><path class="cls-33" d="M345.19,89.11a4.22,4.22,0,0,1,2.22-.93,10.34,10.34,0,0,1,5.45,1,17.86,17.86,0,0,1,2.44,1.21,2.42,2.42,0,0,1,1,2.61.67.67,0,0,1-.1.21l-.36-.11a2.14,2.14,0,0,0-.57-2,3,3,0,0,0-.69-.5,24.42,24.42,0,0,0-4.83-1.85,6.33,6.33,0,0,0-4.43.34Z"/><path class="cls-33" d="M357.92,67.27a33.12,33.12,0,0,1,3.18,4,9.9,9.9,0,0,1,.89,2,16.27,16.27,0,0,1,.92,4.83,2.68,2.68,0,0,1-.44,1.56.82.82,0,0,1-.25.2,3.49,3.49,0,0,0,.25-2.58A27.74,27.74,0,0,0,361,72.29a14.73,14.73,0,0,0-1.7-2.8c-.45-.63-.85-1.29-1.27-1.93A1,1,0,0,1,357.92,67.27Z"/><path class="cls-33" d="M384,91.29a1.12,1.12,0,0,1,.31-.9,5.52,5.52,0,0,1,2-1.48,9.55,9.55,0,0,1,4.54-.77,33.24,33.24,0,0,0,3.32-.18,6.61,6.61,0,0,0,1.55-.62l.24-.11a2.93,2.93,0,0,1-1.65,1.09,11.68,11.68,0,0,1-3.17.4c-1,0-1.94,0-2.9.16a7,7,0,0,0-3.42,1.4A5,5,0,0,0,384,91.29Z"/><path class="cls-33" d="M360.76,66.92l-.08,0c0-.12.06-.27,0-.35-.16-.28-.35-.54-.53-.81l-.05-.13v0a2.62,2.62,0,0,0-1.64-1.55,2.46,2.46,0,0,0-.54,0,1,1,0,0,1,1.18,0,3.87,3.87,0,0,1,1.7,2.07,12.54,12.54,0,0,1,.76,2.39,15.81,15.81,0,0,0,4.09,7.74,4.7,4.7,0,0,0,1.62,1.18,4.18,4.18,0,0,1-.91-.35,9.94,9.94,0,0,1-2.79-2.91A18.89,18.89,0,0,1,362.22,72a10.94,10.94,0,0,1-.69-2c-.22-.77-.38-1.56-.57-2.34a.74.74,0,0,0-.14-.22C361.05,67.21,361,67.05,360.76,66.92Z"/><path class="cls-34" d="M369.55,106.69a4.83,4.83,0,0,1,1.05,1.84,7.28,7.28,0,0,1,.36,2.78c0,1.08-.14,2.16-.14,3.25a14.52,14.52,0,0,0,.21,2.27,1.31,1.31,0,0,0,1.14,1.13c.09,0,.18.07.27.1a1.61,1.61,0,0,1-1.84-1.29,9.89,9.89,0,0,1-.28-3.51c.05-1.06.12-2.12.13-3.18a6.28,6.28,0,0,0-.79-3.11C369.62,106.88,369.59,106.78,369.55,106.69Z"/><path class="cls-34" d="M380,102.91a9.46,9.46,0,0,1,1.41,0c1,.17,1.92.35,2.85.61a8.2,8.2,0,0,1,3,1.83c.84.69,1.71,1.35,2.57,2a4.13,4.13,0,0,0,.58.33,5.29,5.29,0,0,1-2.41-1.15c-.58-.4-1.13-.85-1.69-1.28a12,12,0,0,0-4.68-2Z"/><path class="cls-34" d="M358,109.06l-.06,0a1.78,1.78,0,0,0-.3.17c-.23.19-.46.4-.69.6s-.55.53-.79.82a.93.93,0,0,0-.14.91,1.06,1.06,0,0,1,.05-1.29,7.69,7.69,0,0,1,.92-1,9.23,9.23,0,0,0,2.67-7.85l0-.27a7.35,7.35,0,0,1,.4,1.42,8.67,8.67,0,0,1-1.45,5.73l-.36.56Z"/><path class="cls-33" d="M373.52,75.64a.41.41,0,0,1-.14.56,7.24,7.24,0,0,1-3.23,1.66,3.47,3.47,0,0,1-2.58-.26,6.07,6.07,0,0,0,3.15-.54c.88-.41,1.73-.88,2.59-1.33Z"/><path class="cls-33" d="M395.16,85.28c-.08,0-.17-.17-.24-.16-.43,0-.85.11-1.28.17l-.09,0L390,86.37c.62-.3,1.23-.63,1.87-.9s1.32-.51,2-.73a2.26,2.26,0,0,1,1.86.24,1.28,1.28,0,0,1,.36,2c0-.16.06-.31.1-.46a1,1,0,0,0-.74-1.28l0,.2Z"/><path class="cls-34" d="M355.84,93.11l.36.11,0,.2c-.5,1.22-1,2.43-1.51,3.65.15-.63.28-1.26.46-1.88S355.62,93.8,355.84,93.11Z"/><path class="cls-35" d="M382.43,84.38l-.08-.2Z"/><path class="cls-33" d="M395.92,87.23l.08-.1Z"/><path class="cls-33" d="M383.94,91.43l0-.15Z"/><path class="cls-33" d="M362.23,79.81l-.05.09Z"/><path class="cls-12" d="M368.81,80.68a9.11,9.11,0,0,0,.92,0A2.7,2.7,0,0,0,371,80c.7-.56,1.39-1.13,2.14-1.62a2.22,2.22,0,0,1,2.16,0,8,8,0,0,1,3.28,2.87c.56.76,1.09,1.55,1.64,2.32a2.54,2.54,0,0,1,.16.28l-.06,0c-.47-.45-.93-.89-1.39-1.35l-2.27-2.26a6.48,6.48,0,0,0-2.14-1.2,1.56,1.56,0,0,0-1.48.25c-.75.47-1.5,1-2.28,1.4A1.89,1.89,0,0,1,368.81,80.68Z"/><path class="cls-12" d="M358.7,87.66a6.16,6.16,0,0,0,1.94-1.33,1.75,1.75,0,0,0,.49-1,11,11,0,0,1,.66-2.45,2,2,0,0,1,3.07-.91L364,82a1.46,1.46,0,0,0-1.38,1.13,12.74,12.74,0,0,0-.53,2,3,3,0,0,1-2.25,2.49A1.57,1.57,0,0,1,358.7,87.66Z"/><path class="cls-12" d="M377.25,65.69l.43.12a6,6,0,0,0-.45,3.23A5.79,5.79,0,0,1,377.25,65.69Z"/><path class="cls-12" d="M392.05,86.52a5,5,0,0,1,2.71-1.2l.13.46A5.45,5.45,0,0,0,392.05,86.52Z"/><path class="cls-12" d="M360.17,65.72c.18.27.37.53.53.81,0,.08,0,.23,0,.35l-.23.08A5.62,5.62,0,0,0,359,64.71l.07-.07,1,1v0Z"/><path class="cls-12" d="M345.21,87.14c-.07,0-.16.08-.22,0a4.67,4.67,0,0,0-2.07-.43s-.06,0-.09-.05a3.78,3.78,0,0,1,2.45.2h0l-.08.24Z"/><path class="cls-12" d="M395.16,85.28l.22.21.05.29-.43,0-.08-.47Z"/><path class="cls-12" d="M377.78,65.62l-.47-.07.13-.41.3.06C378.06,65.31,377.76,65.48,377.78,65.62Z"/><path class="cls-12" d="M345.28,86.91l.43.12-.14.52-.36-.41h0l.08-.24Z"/><path class="cls-12" d="M360.76,66.92c.27.13.29.29.06.49s-.22-.18-.34-.28Z"/><path class="cls-12" d="M373.12,112.83a6,6,0,0,1,.88,3.24h-.45A7.7,7.7,0,0,0,373.12,112.83Z"/><path class="cls-12" d="M357,109.87c.23-.2.46-.41.69-.6a1.78,1.78,0,0,1,.3-.17c0,.09.07.18.11.29a4.21,4.21,0,0,0-1.49,1.35h-.07Z"/><path class="cls-12" d="M373.57,116.7c-.12-.44-.05-.52.39-.48C374.09,116.64,374,116.71,373.57,116.7Z"/><path class="cls-12" d="M358,109.06l.23-.21.26.28-.27.19Z"/><path class="cls-12" d="M356.53,110.75v.14l-.06,0,.06-.12Z"/><path class="cls-36" d="M360.17,65.72l-.05-.13Z"/><path class="cls-36" d="M345.29,86.91l-.08.24Z"/><path class="cls-31" d="M214.65,300.91a2.72,2.72,0,0,0-2.8-.61,11.4,11.4,0,0,0-2.61,1.37c-1,.74-2,1.63-2.92,2.45a14.25,14.25,0,0,1-10.66,3.36,7.11,7.11,0,0,1-6.59-4.64c-.35-.87-.76-1.72-1.15-2.58a26.33,26.33,0,0,0-3.28-6.45l-.15-.23a10.07,10.07,0,0,1-.31-2.4,13,13,0,0,1,2.56-6.47c1.09-1.45,2.35-2.78,3.57-4.14a22.49,22.49,0,0,0,3.58-4.83,5.46,5.46,0,0,0,.66-3.66h0l0-.25-.06-.2a2.4,2.4,0,0,0-3.24-2.18,4.2,4.2,0,0,0-2.76,2.21c-.58,1.2-1.14,2.4-1.61,3.64s-.81,2.48-1.21,3.72c-1.25,4.05-4.24,6.64-7.72,8.82a2.36,2.36,0,0,1-2.47,0c-.78-.4-1.57-.77-2.36-1.16l-.37-.16-.23-.07c-.26-.1-.52-.22-.79-.3a17,17,0,0,0-5.17-.37c-1.46.05-2.93.12-4.4.07a8.6,8.6,0,0,1-6-2.71,19,19,0,0,1-4-6.94c-.94-2.5-1.92-5-3-7.45a5.76,5.76,0,0,0-3.4-3.08c-1.49-.57-3-.72-4.21.35a3.52,3.52,0,0,0-1,4.06,21.45,21.45,0,0,0,1.57,3l3.74,4.41c2.49,2.9,4.26,6,3.8,9.89l-.15.4c-.51,1.75-1,3.52-1.56,5.24a11.51,11.51,0,0,1-3.38,5l-.52.22h0a8.67,8.67,0,0,1-3.71.66c-5.62-.19-11-1.33-15.85-4.53a23.81,23.81,0,0,0-4.23-2.1,7.34,7.34,0,0,0-5-.38c-.78.25-1.49.64-1.55,1.59a2.2,2.2,0,0,0,1,2.34c1,.7,2.2,1.22,3.31,1.82a2.5,2.5,0,0,0,.53.23c1.42.27,2.84.58,4.28.79a27.27,27.27,0,0,1,6,1.34,52.45,52.45,0,0,1,8.62,4.45,6.61,6.61,0,0,1,3.18,3.7h0a1.21,1.21,0,0,0,0,.18,10.39,10.39,0,0,1-.24,2.1,21.73,21.73,0,0,1-1.26,2.84,5.37,5.37,0,0,0,.69,6.27,29.82,29.82,0,0,1,1.77,2.41,3.11,3.11,0,0,1,.39,2.91,6.51,6.51,0,0,1-.69,1.52c-1,1.55-2.13,3.07-3.24,4.58-3,4.05-6.47,7.57-11.29,9.66a11.16,11.16,0,0,0-2.77,1.82,2.24,2.24,0,0,0-.21,3.47,10.07,10.07,0,0,0,2.23,2c1.47.95,2.82.63,3.56-.85a35.74,35.74,0,0,0,1.41-3.65,2.26,2.26,0,0,0,.13-.2,12,12,0,0,1,5.32-6.46,46.72,46.72,0,0,1,8.82-4.14,5.45,5.45,0,0,1,1.57-.29,4,4,0,0,1,3.47,1.86c.65,1.2,1.27,2.42,2,3.6s1.31,2.05,2,3.07a3,3,0,0,0,3.85.89,19.17,19.17,0,0,0,1.75-.89c1-.52,1.94-1.1,3-1.55a3.55,3.55,0,0,1,3.43.13l.4.33c4.49,3.67,7.17,8.15,7.16,13.86a13,13,0,0,0,.24,2.63,2,2,0,0,0,1.67,1.75,2.47,2.47,0,0,0,2.73-.72,2.34,2.34,0,0,0,.52-2.73c-.52-1.08-1.12-2.12-1.74-3.16a11.82,11.82,0,0,1-1.62-4,27.5,27.5,0,0,1-.06-7,3.16,3.16,0,0,1,.3-1,9.38,9.38,0,0,1,3.9-4.34,9.49,9.49,0,0,1,6.9-1.72,4,4,0,0,0,.53.22,11.94,11.94,0,0,1,5.25,3c1.43,1.39,2.77,2.88,4.14,4.32a18.62,18.62,0,0,0,5.14,4.2,3,3,0,0,0,4.16-.81,4.48,4.48,0,0,0-1.47-6.28q-2.17-1.29-4.42-2.45c-1.91-1-3.89-1.81-5.77-2.85a6.38,6.38,0,0,1-3.3-3.36,16.39,16.39,0,0,1-.9-5.3,11,11,0,0,1,5.15-9.8l2.7-1.72a22.6,22.6,0,0,1,8.81-3.74c1.32-.2,2.64-.37,3.94-.62a10.1,10.1,0,0,0,4.71-1.78,2.24,2.24,0,0,0,1-1.91A4.26,4.26,0,0,0,214.65,300.91ZM128.3,340.79h0l-.09.21ZM152.81,334a3.55,3.55,0,0,0-.8,0A3.55,3.55,0,0,1,152.81,334ZM141,268a.46.46,0,0,1,.31-.07.46.46,0,0,0-.31.07Zm10.25,66L152,334l-.79.06Z"/><path class="cls-32" d="M184.64,293.81a26.33,26.33,0,0,1,3.28,6.45,29.37,29.37,0,0,0-.15,4.68A23.38,23.38,0,0,0,189,309.4a9.83,9.83,0,0,1-.65,7.9c-.69,1.34-1.4,2.68-2.05,4a9.09,9.09,0,0,0-1.09,4c0,.92,0,1.85,0,2.77a2.7,2.7,0,0,1-2.34,3,14.32,14.32,0,0,1-4.62.21,6.45,6.45,0,0,0-5.72,2.27,8.53,8.53,0,0,1-1.77,1.73,10.07,10.07,0,0,1-6.65,1.34,19.49,19.49,0,0,1-2.46-.58c-1.34-.29-2.68-.52-4-.83-1.62-.38-3.24-.84-4.87-1.2a7.24,7.24,0,0,0-1.61,0l-.32-.23a1.93,1.93,0,0,0-.15-.4,4.58,4.58,0,0,0-4.85-2.05,33.88,33.88,0,0,0-4.83,1.74c-3.27,1.43-6.36,3.14-8.47,6.07a7.92,7.92,0,0,0-1.63,4.23,35.74,35.74,0,0,1-1.41,3.65c-.74,1.48-2.09,1.8-3.56.85a10.07,10.07,0,0,1-2.23-2,2.24,2.24,0,0,1,.21-3.47,11.16,11.16,0,0,1,2.77-1.82c4.82-2.08,8.3-5.61,11.29-9.66q1.66-2.26,3.24-4.58a6.51,6.51,0,0,0,.69-1.52,3.11,3.11,0,0,0-.39-2.91,29.82,29.82,0,0,0-1.77-2.41,5.37,5.37,0,0,1-.69-6.27,21.73,21.73,0,0,0,1.26-2.84,10.39,10.39,0,0,0,.24-2.1l-.06-.18h0a2.37,2.37,0,0,0,.06-.59,5.06,5.06,0,0,0-1.56-2.63,30.25,30.25,0,0,0-7.76-5.06,19,19,0,0,0-3.81-1.35c-3.15-.78-6.37-.58-9.56-.88-1.11-.6-2.27-1.12-3.31-1.82a2.2,2.2,0,0,1-1-2.34,4.61,4.61,0,0,1,.66-.79,4.92,4.92,0,0,1,4.23-.21l-2.66.15v.19a10.65,10.65,0,0,1,4.92,1l.19-.41.17-.05-.09.65c.31,0,.63.5.83-.1a1.87,1.87,0,0,1,.48.11c1.31.75,2.58,1.56,3.91,2.27a22.75,22.75,0,0,0,3.65,1.7,34.5,34.5,0,0,0,4.84,1.06,18.61,18.61,0,0,0,7.58,0,8.4,8.4,0,0,0,1.66-.79l.52-.22a6.53,6.53,0,0,0,3.71-3.16,13.73,13.73,0,0,0,2-6.56.76.76,0,0,0-.59-.91c.46-3.86-1.31-7-3.8-9.89l-3.74-4.41c-.17-.38-.32-.77-.51-1.14a6,6,0,0,1-.84-2.92l.27.31a10.79,10.79,0,0,0,4.51,4.39,11.3,11.3,0,0,1-3.8-4.81l-.12-.39c-.22-.15-.06-.78-.63-.49a5.08,5.08,0,0,1,.9-1.54c1.12-1,2.46-.74,3.77-.17A6.38,6.38,0,0,1,149,270.2c.86,2.28,1.67,4.58,2.53,6.85a18,18,0,0,0,3.09,5.56,10.4,10.4,0,0,0,4.53,3.31,15.24,15.24,0,0,0,6.11.41,23.61,23.61,0,0,1,6-.07c.4.08.8.12,1.2.18l.23.07.37.16c.79.39,1.58.76,2.36,1.17a2.38,2.38,0,0,0,2.47,0c3.48-2.18,6.47-4.77,7.72-8.82l3.23-6.21a1.22,1.22,0,0,1,.07-.17c.48-.66.94-1.32,1.45-2,.08-.11.34-.07.53-.11l-.25.38.74.51.53-.61-.46-.31-.2-.31a1.87,1.87,0,0,1,2.68.66l.5.74.06.2,0,.25h0c-.05.15-.09.31-.15.46a12.5,12.5,0,0,1-1.18,2.91,59.53,59.53,0,0,1-4.09,4.75c-2,2.15-4,4.24-4.88,7.17a10.43,10.43,0,0,0-.57,4.61,2.15,2.15,0,0,0,.81,1.6h0Zm-56.34,47,1,0-.54-.86-.71.42c-1.06.26-3.35,2.27-3.46,3.07a.67.67,0,0,0,.17-.06,8.93,8.93,0,0,1,3.3-2.26C128.19,341.1,128.23,340.91,128.3,340.79Zm22-40.47a3.56,3.56,0,0,0,2.69-2.57c.43-1.63.72-3.29,1.07-4.93a2.93,2.93,0,0,1,1.59-2.33,12.08,12.08,0,0,1,4.42-1.34c2-.06,4-.08,6-.13,1.22,0,2.43-.08,3.65-.12v-.16c-.2,0-.39-.11-.59-.14-1.76-.27-3.52-.57-5.29-.79-2.8-.36-5.56-.48-8.17.69-1.37.62-2.59,1.37-2.87,2.89s-.44,3.34-.6,5a4.94,4.94,0,0,1-.76,2.66A15.92,15.92,0,0,1,150.32,300.32Zm-3.72,22.83a3,3,0,0,0,1.38-1.68,5.59,5.59,0,0,0-.45-6.3,23,23,0,0,1-2-3.27,2.72,2.72,0,0,1,.28-3.33c.33-.38.64-.77,1-1.23a3.7,3.7,0,0,0-2.75,5.36,19.16,19.16,0,0,0,2.46,4.09,3.28,3.28,0,0,1,.73,2A11.58,11.58,0,0,1,146.6,323.15Zm42-46.74a10.22,10.22,0,0,1,2.7-4.83l-.79-.43A9.5,9.5,0,0,0,188.55,276.41Z"/><path class="cls-33" d="M151.2,334a7.24,7.24,0,0,1,1.61,0c1.63.36,3.25.82,4.87,1.2,1.34.31,2.68.54,4,.83a19.49,19.49,0,0,0,2.46.58,10.07,10.07,0,0,0,6.65-1.34,8.53,8.53,0,0,0,1.77-1.73,6.45,6.45,0,0,1,5.72-2.27,14.32,14.32,0,0,0,4.62-.21,2.7,2.7,0,0,0,2.34-3c0-.92,0-1.85,0-2.77a9.09,9.09,0,0,1,1.09-4c.65-1.36,1.36-2.7,2.05-4a9.83,9.83,0,0,0,.65-7.9,23.38,23.38,0,0,1-1.25-4.46,29.37,29.37,0,0,1,.15-4.68c.39.86.8,1.71,1.15,2.58a7.11,7.11,0,0,0,6.59,4.64,14.25,14.25,0,0,0,10.66-3.36c1-.82,1.89-1.71,2.92-2.45a11.4,11.4,0,0,1,2.61-1.37,2.72,2.72,0,0,1,2.8.61,4.26,4.26,0,0,1,1.58,3.44,2.24,2.24,0,0,1-1,1.91,10.47,10.47,0,0,1-1.21.36c-2,.3-4.05.61-6.09.83a15.92,15.92,0,0,0-6.42,1.72,52,52,0,0,0-4.55,3.09,18.41,18.41,0,0,0-1.89,1.86,11,11,0,0,0-5.15,9.8,16.39,16.39,0,0,0,.9,5.3,6.38,6.38,0,0,0,3.3,3.36c1.88,1,3.86,1.87,5.77,2.85q2.25,1.15,4.42,2.45a4.48,4.48,0,0,1,1.47,6.28,3,3,0,0,0-.51.24,2.42,2.42,0,0,1-3,.06,26.16,26.16,0,0,1-3.35-2.67c-1.48-1.42-2.81-3-4.23-4.44a14.07,14.07,0,0,0-4.24-3.13,9.36,9.36,0,0,0-3.88-1,9.49,9.49,0,0,0-6.9,1.72,9.38,9.38,0,0,0-3.9,4.34,3.16,3.16,0,0,0-.3,1,27.5,27.5,0,0,0,.06,7,11.82,11.82,0,0,0,1.62,4c.62,1,1.22,2.08,1.74,3.16a2.34,2.34,0,0,1-.52,2.73,2.47,2.47,0,0,1-2.73.72,1.78,1.78,0,0,1-1-1.38c-.08-.71-.06-1.43-.09-2.15.21.59.41,1.18.61,1.77l.09.25.09-.06-.19-.18s.09-.08.08-.11a7.85,7.85,0,0,1,.11-3.79l-.54-.22,0-.14.63,0,.09-.6-.71,0c-.1-.41-.2-.82-.29-1.23a16.36,16.36,0,0,0-5.89-9.44,15.48,15.48,0,0,0-2.45-1.31,3.55,3.55,0,0,0-3.43-.13c-1,.45-2,1-3,1.55a19.17,19.17,0,0,1-1.75.89,3,3,0,0,1-3.85-.89C153.19,338.55,152.19,336.29,151.2,334Zm48.37,2.39a14.89,14.89,0,0,1,5,3.64l.57-.6A11.43,11.43,0,0,0,199.57,336.41Zm5.84,4.44c.61-.62.59-.78-.14-1.15C204.64,340.24,204.66,340.44,205.41,340.85Z"/><path class="cls-33" d="M141.58,268.51l.12.39-.71.42-.27-.31a6,6,0,0,0,.84,2.92c.19.37.34.76.51,1.14a21.45,21.45,0,0,1-1.57-3,3.52,3.52,0,0,1,1-4.06c1.24-1.07,2.72-.92,4.21-.35a5.76,5.76,0,0,1,3.4,3.08c1.05,2.46,2,4.95,3,7.45a19,19,0,0,0,4,6.94,8.6,8.6,0,0,0,6,2.71c1.47.05,2.94,0,4.4-.07a17,17,0,0,1,5.17.37c.27.08.53.2.79.3-.4-.06-.8-.1-1.2-.18a23.61,23.61,0,0,0-6,.07,15.24,15.24,0,0,1-6.11-.41,10.4,10.4,0,0,1-4.53-3.31,18,18,0,0,1-3.09-5.56c-.86-2.27-1.67-4.57-2.53-6.85a6.38,6.38,0,0,0-3.42-3.89c-1.31-.57-2.65-.79-3.77.17A5.08,5.08,0,0,0,141,268l-.48.32.39.71Z"/><path class="cls-33" d="M131,343.38a7.92,7.92,0,0,1,1.63-4.23c2.11-2.93,5.2-4.64,8.47-6.07a33.88,33.88,0,0,1,4.83-1.74,4.58,4.58,0,0,1,4.85,2.05,1.93,1.93,0,0,1,.15.4l-.62.36a4,4,0,0,0-3.47-1.86,5.45,5.45,0,0,0-1.57.29,46.72,46.72,0,0,0-8.82,4.14,12,12,0,0,0-5.32,6.46A2.26,2.26,0,0,1,131,343.38Z"/><path class="cls-33" d="M117.91,297.62c3.19.3,6.41.1,9.56.88a19,19,0,0,1,3.81,1.35,30.25,30.25,0,0,1,7.76,5.06,5.06,5.06,0,0,1,1.56,2.63,2.37,2.37,0,0,1-.06.59,6.61,6.61,0,0,0-3.18-3.7,52.45,52.45,0,0,0-8.62-4.45,27.27,27.27,0,0,0-6-1.34c-1.44-.21-2.86-.52-4.28-.79A2.5,2.5,0,0,1,117.91,297.62Z"/><path class="cls-33" d="M184.49,293.58a2.15,2.15,0,0,1-.81-1.6,10.43,10.43,0,0,1,.57-4.61c.84-2.93,2.88-5,4.88-7.17a59.53,59.53,0,0,0,4.09-4.75,12.5,12.5,0,0,0,1.18-2.91c.06-.15.1-.31.15-.46a5.46,5.46,0,0,1-.66,3.66,22.49,22.49,0,0,1-3.58,4.83c-1.22,1.36-2.48,2.69-3.57,4.14a13,13,0,0,0-2.56,6.47A10.07,10.07,0,0,0,184.49,293.58Z"/><path class="cls-33" d="M121.14,293.31l-.17.05c-.15-.16-.27-.43-.45-.48-.58-.15-1.19-.23-1.78-.33l-.24-.1h0a4.92,4.92,0,0,0-4.23.21,4.61,4.61,0,0,0-.66.79c.06-1,.77-1.34,1.55-1.59a7.34,7.34,0,0,1,5,.38,23.81,23.81,0,0,1,4.23,2.1c4.86,3.2,10.23,4.34,15.85,4.53a8.67,8.67,0,0,0,3.71-.66,8.4,8.4,0,0,1-1.66.79,18.61,18.61,0,0,1-7.58,0,34.5,34.5,0,0,1-4.84-1.06,22.75,22.75,0,0,1-3.65-1.7c-1.33-.71-2.6-1.52-3.91-2.27a1.87,1.87,0,0,0-.48-.11C121.92,293.29,121.67,293.1,121.14,293.31Z"/><path class="cls-34" d="M186.57,333.24a9.36,9.36,0,0,1,3.88,1,14.07,14.07,0,0,1,4.24,3.13c1.42,1.47,2.75,3,4.23,4.44a26.16,26.16,0,0,0,3.35,2.67,2.42,2.42,0,0,0,3-.06,3,3,0,0,1,.51-.24,3,3,0,0,1-4.16.81,18.62,18.62,0,0,1-5.14-4.2c-1.37-1.44-2.71-2.93-4.14-4.32a11.94,11.94,0,0,0-5.25-3A4,4,0,0,1,186.57,333.24Z"/><path class="cls-34" d="M195.08,314.12a18.41,18.41,0,0,1,1.89-1.86,52,52,0,0,1,4.55-3.09,15.92,15.92,0,0,1,6.42-1.72c2-.22,4.06-.53,6.09-.83a10.47,10.47,0,0,0,1.21-.36,10.1,10.1,0,0,1-4.71,1.78c-1.3.25-2.62.42-3.94.62a22.6,22.6,0,0,0-8.81,3.74Z"/><path class="cls-34" d="M174.79,352a.74.74,0,0,0,0,.14,3.3,3.3,0,0,0-.15.62c0,.57-.07,1.14-.1,1.72s0,1.44.09,2.15a1.78,1.78,0,0,0,1,1.38,2,2,0,0,1-1.67-1.75,13,13,0,0,1-.24-2.63c0-5.71-2.67-10.19-7.16-13.86l-.4-.33a15.48,15.48,0,0,1,2.45,1.31,16.36,16.36,0,0,1,5.89,9.44c.09.41.19.82.29,1.23C174.79,351.57,174.79,351.77,174.79,352Z"/><path class="cls-33" d="M149.61,287.37a.76.76,0,0,1,.59.91,13.73,13.73,0,0,1-2,6.56,6.53,6.53,0,0,1-3.71,3.16,11.51,11.51,0,0,0,3.38-5c.58-1.72,1-3.49,1.56-5.24Z"/><path class="cls-33" d="M190.93,270.57c-.19,0-.45,0-.53.11-.51.64-1,1.3-1.45,2a1.22,1.22,0,0,0-.07.17L185.65,279c.4-1.24.74-2.5,1.21-3.72s1-2.44,1.61-3.64a4.2,4.2,0,0,1,2.76-2.21,2.4,2.4,0,0,1,3.24,2.18l-.5-.74a1.87,1.87,0,0,0-2.68-.66l.2.31Z"/><path class="cls-34" d="M150.26,334.15l.62-.36.32.23c1,2.27,2,4.53,3,6.8-.65-1-1.35-2-2-3.07S150.91,335.35,150.26,334.15Z"/><path class="cls-35" d="M173.1,286.67l-.37-.16Z"/><path class="cls-33" d="M194.56,272.08l0-.25Z"/><path class="cls-33" d="M184.64,293.81l-.15-.24Z"/><path class="cls-33" d="M140.54,308.13l.06.18Z"/><path class="cls-12" d="M150.32,300.32a15.92,15.92,0,0,0,1.17-1.25,4.94,4.94,0,0,0,.76-2.66c.16-1.68.29-3.37.6-5s1.5-2.27,2.87-2.89c2.61-1.17,5.37-1.05,8.17-.69,1.77.22,3.53.52,5.29.79.2,0,.39.1.59.14v.16c-1.22,0-2.43.09-3.65.12-2,.05-4,.07-6,.13a12.08,12.08,0,0,0-4.42,1.34,2.93,2.93,0,0,0-1.59,2.33c-.35,1.64-.64,3.3-1.07,4.93A3.56,3.56,0,0,1,150.32,300.32Z"/><path class="cls-12" d="M146.6,323.15a11.58,11.58,0,0,0,.72-4.36,3.28,3.28,0,0,0-.73-2,19.16,19.16,0,0,1-2.46-4.09,3.7,3.7,0,0,1,2.75-5.36c-.39.46-.7.85-1,1.23a2.72,2.72,0,0,0-.28,3.33,23,23,0,0,0,2,3.27,5.59,5.59,0,0,1,.45,6.3A3,3,0,0,1,146.6,323.15Z"/><path class="cls-12" d="M141,269.32l.71-.42a11.3,11.3,0,0,0,3.8,4.81A10.79,10.79,0,0,1,141,269.32Z"/><path class="cls-12" d="M188.55,276.41a9.5,9.5,0,0,1,1.91-5.26l.79.43A10.22,10.22,0,0,0,188.55,276.41Z"/><path class="cls-12" d="M118.74,292.55c.59.1,1.2.18,1.78.33.18.05.3.32.45.48l-.19.41a10.65,10.65,0,0,0-4.92-1v-.19l2.66-.15h0Z"/><path class="cls-12" d="M128.3,340.79c-.07.12-.11.31-.21.35a8.93,8.93,0,0,0-3.3,2.26.67.67,0,0,1-.17.06c.11-.8,2.4-2.81,3.46-3.07h0l.23.42Z"/><path class="cls-12" d="M190.93,270.57l.56,0,.46.31-.53.61-.74-.51Z"/><path class="cls-12" d="M141.58,268.51l-.72.54-.39-.71L141,268C141.52,267.73,141.36,268.36,141.58,268.51Z"/><path class="cls-12" d="M128.08,340.39l.71-.42.54.86-1,0h0l-.23-.42Z"/><path class="cls-12" d="M121.14,293.31c.53-.21.78,0,.74.55-.2.6-.52.07-.83.1Z"/><path class="cls-12" d="M199.57,336.41a11.43,11.43,0,0,1,5.54,3l-.57.6A14.89,14.89,0,0,0,199.57,336.41Z"/><path class="cls-12" d="M174.5,354.44c0-.58.05-1.15.1-1.72a3.3,3.3,0,0,1,.15-.62l.54.22a7.85,7.85,0,0,0-.11,3.79s-.05.07-.08.11h0Z"/><path class="cls-12" d="M205.41,340.85c-.75-.41-.77-.61-.14-1.15C206,340.07,206,340.23,205.41,340.85Z"/><path class="cls-12" d="M174.79,352c0-.19,0-.39,0-.58l.71,0-.09.6Z"/><path class="cls-12" d="M175.1,356.22l.19.18-.09.06-.09-.25Z"/><path class="cls-36" d="M118.74,292.55l-.24-.1Z"/><path class="cls-36" d="M128.08,340.38l.23.42Z"/></g></svg>