<svg id="Layer_1" data-name="Layer 1" xmlns="http://www.w3.org/2000/svg" viewBox="0 0 600 600"><defs><style>.cls-1{fill:#c2dc8f;}.cls-2{fill:#424242;}.cls-3{fill:#b47d64;}.cls-4{fill:#d2916e;}.cls-5{fill:#b27e5c;}.cls-6{fill:#d0bbb7;}.cls-7{fill:#f8c469;}.cls-8{fill:#f8ded8;}.cls-9{opacity:0.35;}.cls-10{fill:#fff;}.cls-11{fill:#d1ebfb;}.cls-12{opacity:0.29;}.cls-13{fill:#5e5e5e;}</style></defs><title>thinking</title><g id="suy_nghĩ" data-name="suy nghĩ"><path class="cls-1" d="M388.47,523c15.3,4.67,29.72-13.35,32.18-29.15s-2.43-31.84-2-47.82c.87-31.21,21.62-58.18,43.79-80.15,11.76-11.64,24.57-23.14,30.73-38.5,11.06-27.62-2.38-58.32-14.43-85.53-19.91-44.91-37.52-92.63-72.24-127.39A169.48,169.48,0,0,0,302.08,65.86c-8.12-.7-16.55-.76-24.12,2.26-8,3.2-14.34,9.56-19.77,16.28a134.46,134.46,0,0,0-21.11,36.84c-3.12,8.25-5.53,17-11,23.92-7.31,9.23-19,13.78-30.32,16.93s-23.2,5.42-33.21,11.63S144.64,191.4,146.79,203c1,5.1,3.71,9.66,6.42,14.09l16.27,26.61c3.49,5.7,7.08,11.75,7.19,18.43.24,13.87-13.76,23.05-25.8,29.92-14,8-27.9,16.71-38.66,28.73s-18.15,27.83-17,43.91c1.32,17.8,12.79,33.35,26.17,45.16s29,20.91,42.44,32.61c23.43,20.34,39.92,50.19,46.24,80.57Z"/><path class="cls-2" d="M336.22,525.82H250a2.82,2.82,0,0,1-2.82-2.8l-.49-89.69a2.82,2.82,0,0,1,2.87-2.83l28.22.56a3.81,3.81,0,0,1,.6-.06l62.07,1.27a2.81,2.81,0,0,1,2,.9,2.78,2.78,0,0,1,.76,2.05L339,523.14A2.82,2.82,0,0,1,336.22,525.82Zm-83.45-5.63h80.77l3.87-82.34-58.58-1.2a3,3,0,0,1-.6.06l-25.92-.52Z"/><polygon class="cls-3" points="296.62 434.27 292.46 523.01 249.97 523.01 249.48 433.31 278.3 433.91 296.62 434.27"/><polygon class="cls-4" points="340.37 435.09 336.22 523.01 288.08 523.01 278.3 433.91 278.29 433.89 278.29 433.82 340.37 435.09"/><path class="cls-5" d="M324.37,518.55h0a1.41,1.41,0,0,1-1.39-1.43l.18-16.55a1.4,1.4,0,0,1,1.41-1.39h0a1.41,1.41,0,0,1,1.4,1.42l-.19,16.55A1.4,1.4,0,0,1,324.37,518.55Z"/><path class="cls-5" d="M324.71,486.68h0a1.42,1.42,0,0,1-1.4-1.42l.18-15.9a1.48,1.48,0,0,1,1.42-1.4,1.41,1.41,0,0,1,1.39,1.43l-.17,15.9A1.41,1.41,0,0,1,324.71,486.68Z"/><path class="cls-5" d="M325,456.66h0a1.4,1.4,0,0,1-1.39-1.42l.1-9.2a1.41,1.41,0,0,1,2.82,0l-.1,9.2A1.41,1.41,0,0,1,325,456.66Z"/><path class="cls-2" d="M310.05,321.32H280.2a2.83,2.83,0,0,1-2.71-2L268.81,290a2.8,2.8,0,0,1,.54-2.61l2.59-3.07a3,3,0,0,1,.66-.58,2.92,2.92,0,0,1,1-1.13l12-7.29,3.12-19.62c-1.93.71-4.49,1.53-7.81,2.41h0a2.33,2.33,0,0,1-.38.08l-4,.88-3.36.74a11.76,11.76,0,0,1-2.21.26,10.81,10.81,0,0,1-9.08-4.47c-9.58-13.2-6.35-39.83-3.92-53.16-1.29,0-2.09,0-2.1,0a2.78,2.78,0,0,1-2.9-2.39c-.08-.52-.16-1-.22-1.55-1.43-10.5-.17-17.9,4-23.25,6.19-8,18.51-10.89,36.36-13,11.26-1.3,19.95.74,25.84,6.06A23.29,23.29,0,0,1,326.12,182a19.32,19.32,0,0,1,12.5,7.36c3.79,5.18,3.15,11.11-1.78,16.29-5.73,6-10.26,18.12-13.57,27-.8,2.13-1.55,4.12-2.25,5.88-1.37,3.47-2.51,5.91-3.8,7.38l6.27,27.26L335,285.65a2.82,2.82,0,0,1,.56,2.92l-7,18.21a2.64,2.64,0,0,1-.18.38c-2.3,4.07-4.89,8.78-5.21,9.61-.49,1.23-1.21,3.06-12.71,4.53Zm-27.75-5.64h27.56a48.09,48.09,0,0,0,8.34-1.7c1.08-2.25,4-7.46,5.12-9.41l6.3-16.39-10.79-11.75a2.84,2.84,0,0,1-.67-1.27l-6.37-27.73a5,5,0,0,1-1.73-.93c-1.45-1.19-2.24-3.18-2.28-5.76a2.84,2.84,0,0,1,.07-.66V240a75.7,75.7,0,0,1-.82-8.44,2.81,2.81,0,0,1,0-.71,3,3,0,0,1,.7-1.58,2.82,2.82,0,0,1,4.93,1.79,65,65,0,0,0,.77,8,1.24,1.24,0,0,1,0,.27,3.21,3.21,0,0,1-.06.76s0,.06,0,.09,0,.27,0,.41a4.71,4.71,0,0,0,.07.84,36.44,36.44,0,0,0,2.29-5h0c.69-1.73,1.43-3.68,2.21-5.78,3.68-9.81,8.25-22,14.77-28.86,2.85-3,3.39-5.79,1.68-8.54-2.46-3.94-8.26-6-9.67-5.61a2.77,2.77,0,0,1-2.73-.16,2.83,2.83,0,0,1-1.28-2.43c0-.06,0-7.5-5.65-12.54-4.64-4.16-11.83-5.7-21.36-4.6-16.4,1.91-27.57,4.39-32.56,10.83-3,3.92-4,9.69-3,18.08.84,0,1.84,0,3,.07.38,0,.64,0,.9.06a2.81,2.81,0,0,1,1.76,4.77c-3.5,18.11-4.61,40.65,2.61,50.58a5.35,5.35,0,0,0,4.43,2.15,5.28,5.28,0,0,0,1.12-.13l3.33-.74,4.08-.89.12,0,.08,0c8.31-2.19,11.15-4,11.17-4a2.86,2.86,0,0,1,3.08,0,2.83,2.83,0,0,1,1.26,2.79L291,277.54a2.81,2.81,0,0,1-1.32,2l-11,6.7a2.81,2.81,0,0,1-3.89,3.56l-.12.14Zm36.24-1.87Zm-39.44-61h0Zm0,0Z"/><path class="cls-2" d="M310.6,243h-.06a2.82,2.82,0,0,1-2.76-2.87c0-.23,0-.41,0-.56a2.82,2.82,0,0,1,5.63.18v.49A2.82,2.82,0,0,1,310.6,243Z"/><path class="cls-2" d="M310.63,242.42h-.06a2.83,2.83,0,0,1-2.73-2.4,72.28,72.28,0,0,1-.83-8.72,2.93,2.93,0,0,1,.71-2,2.82,2.82,0,0,1,4.93,1.79,65,65,0,0,0,.77,8,1.24,1.24,0,0,1,0,.27,3.21,3.21,0,0,1-.06.76A2.81,2.81,0,0,1,310.63,242.42Z"/><path class="cls-2" d="M313.36,247.65a5.08,5.08,0,0,1-3.3-1.15c-1.45-1.19-2.24-3.18-2.28-5.76a2.82,2.82,0,0,1,2.77-2.85h.05a2.82,2.82,0,0,1,2.82,2.75,4.38,4.38,0,0,0,.18,1.28,2.82,2.82,0,0,1,3.28,2.61v.08a2.82,2.82,0,0,1-2.3,2.93A6.66,6.66,0,0,1,313.36,247.65Z"/><path class="cls-6" d="M325.87,305.78s-1.12,12.77-1.71,14.27-14.11-1.55-14.11-1.55H280.19l-8.68-29.26,2.59-3.06c.57.28,1.22.64,1.94,1.06,15.24,8.86,30.51-6.82,30.51-6.82l3.27-49.26h0a70.32,70.32,0,0,0,.8,8.38s-.68,5.93,3.44,5.17l6.84,29.82,12,13Z"/><path class="cls-7" d="M334.8,203.75c-7.51,7.88-12.6,24.24-16.4,33.75-1.66,4.17-3.08,7-4.33,7.27-4.12.77-3.44-5.16-3.44-5.16a70.64,70.64,0,0,1-.8-8.39c-.26-9.45,2.66-9.84,1.24-17.56-1.17-6.42-5.76-6.53-10.49-4a28.23,28.23,0,0,0-6.67,5.24c-6.14,6.43-8-.69-11.42-8.37-1.71-3.81-8.31-5.53-14.5-6.3-1.11-.14-2.19-.24-3.25-.33-.51,0-1-.08-1.5-.1l-1.31-.07a.17.17,0,0,0-.1,0l-.77,0c-3.12-.12-5.3,0-5.3,0-.08-.5-.16-1-.21-1.47-3.28-24.07,8-29.6,37.88-33.09,30.51-3.54,30.15,20,30.15,20C327.93,183,345.59,192.41,334.8,203.75Z"/><path class="cls-8" d="M309.83,231.22h0l-3.27,49.25s-6.66,28.8-35,8.76l4.88-5.79,11.7-7.57L292.33,251s-2.92,2-12.13,4.38h0c-14.26,1.25-13.52-7.81-13.52-7.81l1-3.47-.46-4,1.09-5.35-5-.84L268,200.27c6.19.77,12.79,2.49,14.5,6.3,3.46,7.68,5.28,14.8,11.42,8.37a28.23,28.23,0,0,1,6.67-5.24c4.73-2.57,9.32-2.46,10.49,4C312.49,221.38,309.57,221.77,309.83,231.22Z"/><path class="cls-6" d="M280.19,255.42l-.16,0-7.46,1.64a8.37,8.37,0,0,1-8.4-3.13c-8.81-12.12-5.94-38.44-2.93-53.63l.59-.57a.17.17,0,0,1,.1,0l1.31.07c.49,0,1,.06,1.5.1,1.06.09,2.14.19,3.25.33l-4.75,33.65,5,.84-1.09,5.35.46,4-1,3.47S265.93,256.67,280.19,255.42Z"/><g class="cls-9"><path class="cls-10" d="M256.87,187.07s-1.65,8.29,6,8.22c9.34-.07,17.23-1,20.23,3.17s5.51-6,15.12-8.16,15.89-4.08,16.8.85-2.76,9.28-2.76,9.28,13.88-8,15.05-1.22a19.16,19.16,0,0,1-1.75,11.86s10.79-9,8.27-14.52-8-9.32-12.78-7.43,1.28-9.27-3.7-13.92-11.14-7.45-21-7.78c-3-.1-25.66,2.44-33.19,9A20,20,0,0,0,256.87,187.07Z"/></g><ellipse class="cls-10" cx="264.33" cy="176.94" rx="5.1" ry="1.48" transform="translate(-53.72 181.12) rotate(-34.55)"/><path class="cls-11" d="M348.31,449.58H265c-5.48-21.13,1.5-95.19,1.5-95.19l-11.51,3L244.86,360V325.4l26.65-41.94,11.21-5.57c8.55,13.42,43.89-2.82,43.89-2.82S342,285.54,346,291.7C366.82,324,333.69,418.18,348.31,449.58Z"/><path class="cls-11" d="M265,449.58H243.37c0-26.48,11.63-92.22,11.63-92.22l11.51-3S259.53,428.45,265,449.58Z"/><g class="cls-12"><path class="cls-13" d="M304,372.44s-22-1.9-23.78-1.18a153.55,153.55,0,0,1-15.29,3.21,126.9,126.9,0,0,0,0-19.67L255,357.36s-11.63,65.74-11.63,92.22H265c-3.13-12.07-2.2-41.4-.82-64.33,9,3.56,26,8.84,34.79,2.13C311.31,378,304,372.44,304,372.44Z"/></g><path class="cls-2" d="M348.31,451H243.37a1.41,1.41,0,0,1-1.41-1.41c0-23.5,9.26-78.62,11.28-90.3l-8,2.1a1.4,1.4,0,0,1-1.76-1.38l.47-34.73a1.48,1.48,0,0,1,.22-.73l26.16-41.83a1.47,1.47,0,0,1,.57-.51l11.21-5.57a1.41,1.41,0,0,1,1.81.5c6.48,10.16,32.6,1,42.13-3.34a1.42,1.42,0,0,1,1.38.11c.64.44,15.71,10.7,19.79,17h0c11.44,17.73,7.06,53,2.83,87.08-3.62,29.2-7,56.78-.44,71a1.41,1.41,0,0,1-.09,1.35A1.43,1.43,0,0,1,348.31,451Zm-83.14-2.82h81c-5.8-15.33-2.47-42.16,1-70.49,4.17-33.6,8.49-68.34-2.4-85.22h0c-3.32-5.15-15.43-13.74-18.36-15.78-5.2,2.29-34.76,14.6-44.2,3l-9.78,4.87L246.74,325.7l-.44,32.49,8.35-2.19a1.4,1.4,0,0,1,1.31.33,1.42,1.42,0,0,1,.43,1.28c-.11.64-11.22,63.43-11.6,90.56h20.38Z"/><path class="cls-2" d="M294.78,390.76c-8.76,0-23.84-3-54.08-20.72a3,3,0,0,1-.68-.29l-5.09-3.16q-3.45-2.1-7.19-4.47a2.81,2.81,0,0,1,1-5.15l15.62-2.79a2.83,2.83,0,0,1,3.26,2.21l6.65-1.76a2.9,2.9,0,0,1,1.52,0l2.15.64,1.36.41,6.75,2a2.77,2.77,0,0,1,.58.26c4,1.27,7.26,2.39,9.77,3.32,1.29.47,2.57,1,3.88,1.64.93-1.86,2.54-4.76,5.37-9.45l2.2-3.58a3,3,0,0,1,.5-.64,2.79,2.79,0,0,1,3.3-.5l23.46,12.35a2.83,2.83,0,0,1,1.28,3.61l0,.13a1.11,1.11,0,0,1-.07.16l-.07.21c0,.1-.08.21-.13.33h0l-.25.64-.25.6-.86,2.06-.6,1.36-.24.54-.07.18h0l-.68,1.47c-.9,2-1.85,3.85-2.83,5.61-4.5,8.19-8.69,12.32-12.79,12.61C296.67,390.72,295.76,390.76,294.78,390.76Zm-52.3-26.12a2.31,2.31,0,0,1,.58.25c32.64,19.18,46.47,20.69,54.05,20.15,1.4-.1,4.4-2.7,8.26-9.71.89-1.62,1.81-3.43,2.64-5.24l.64-1.4a.36.36,0,0,0,0-.09l.27-.6c.21-.5.42-1,.61-1.4l.69-1.64-18.9-10-.65,1.06-.16.26c-5.32,8.81-5.94,10.69-6,11a2.77,2.77,0,0,1-1.47,2.05,2.83,2.83,0,0,1-2.55,0l-2.3-1.13a37.87,37.87,0,0,0-3.77-1.62c-2.58-.95-6-2.11-10.2-3.45a2.31,2.31,0,0,1-.51-.22l-6.07-1.83-1.37-.41-1.36-.41-9.36,2.46a2.81,2.81,0,0,1-3.52-2.44l-5.11.91.93.57Zm50.22-11.82-.06.1Z"/><g class="cls-12"><polygon class="cls-13" points="340.37 324.95 323.03 377.49 281.1 349.83 320.7 367.62 340.37 324.95"/></g><path class="cls-8" d="M313.81,363.64l-.11.3c-.05.1-.09.23-.15.37a.19.19,0,0,0,0,.08.84.84,0,0,0-.06.14c-.07.18-.15.4-.25.64s-.33.81-.54,1.32-.35.83-.55,1.3-.55,1.24-.86,1.94h0a0,0,0,0,1,0,0c-.23.48-.45,1-.69,1.5-.79,1.72-1.72,3.59-2.74,5.42-3.08,5.61-6.93,10.91-10.52,11.16-7.71.55-24-.19-68.07-28.11l13.6-2.42,2-.37V360L255,357.36l2.52.76c4.1,1.24,12.32,3.78,17.91,5.85a42.3,42.3,0,0,1,4,1.73l2.3,1.13c.24-1.64,3.85-7.79,6.3-11.85.08-.14.17-.27.24-.4.26-.43.5-.83.73-1.19l1.21-2a.79.79,0,0,1,.1-.14Z"/><g class="cls-12"><path class="cls-13" d="M313.81,363.64s-1,2.72-3.24,7.62l-22.73-16.44L286,357.66l0-.06c2.17-3.46,4.32-6.31,4.32-6.31Z"/></g><polygon class="cls-11" points="340.37 324.95 320.7 367.62 281.1 349.83 313.76 303.07 333.18 319.03 340.37 324.95"/><g class="cls-12"><path class="cls-13" d="M265.23,360.45l-23.73,6.9-12.26-7.61L244.86,357V360L255,357.36Z"/></g><path class="cls-2" d="M232.19,362.83a17.42,17.42,0,0,1-15-8.55,2.48,2.48,0,0,1-.17-.37c-7.06-19,9-62.71,10.71-67.16.38-2.76,3-21.27,4.88-28.06.92-3.35,2.54-5.66,4.81-6.86a7.29,7.29,0,0,1,3.66-.83c.16-.14.34-.27.53-.41a12.37,12.37,0,0,1,5-2,9.86,9.86,0,0,1,1.22-1.09l.24-.16a11.27,11.27,0,0,1,4.58-1.86,8.66,8.66,0,0,1,1.88-1,17,17,0,0,1,4-1.08,7.16,7.16,0,0,1,7.8,4.46,21.45,21.45,0,0,1,1,7.1l4.29.32a2.82,2.82,0,0,1,1.46,5.08,10.44,10.44,0,0,1-4.65,1.79c-1.75.31-2.34.42-3.09,3.5-1.71,6.94-13.34,19.68-17.84,24.4l-2.54,36.4a2.64,2.64,0,0,1,1.37.3,2.82,2.82,0,0,1,1.54,2.51l.11,28.33a2.89,2.89,0,0,1-2,2.74,12.23,12.23,0,0,1-1.62.5c-2,.48-5,1.06-9,1.74A19.67,19.67,0,0,1,232.19,362.83Zm-9.95-11.1A11.81,11.81,0,0,0,234.51,357c3.47-.58,6.13-1.08,7.93-1.49l-.08-21.07a2.79,2.79,0,0,1-1.85-.31,2.83,2.83,0,0,1-1.45-2.66l3-42.84a2.81,2.81,0,0,1,.82-1.79c7.49-7.79,16-18.14,17.09-22.54a12.19,12.19,0,0,1,2.29-5,2.82,2.82,0,0,1-.55-2c0-.05.06-.59.08-1.39a17.93,17.93,0,0,0-.67-6.08,1.5,1.5,0,0,0-1.65-.84,12.25,12.25,0,0,0-2.66.69,2.65,2.65,0,0,0-.88.51,2.94,2.94,0,0,1-2,.88h0a5.57,5.57,0,0,0-2.68,1l-.16.11a3.56,3.56,0,0,0-.68.73,2.84,2.84,0,0,1-2.25,1.24,7.14,7.14,0,0,0-3.31,1.09,3.83,3.83,0,0,0-.71.62,2.81,2.81,0,0,1-3,.81c-1.17-.29-2.36,1-3.06,3.56-1.9,6.84-4.74,27.44-4.77,27.64a3.23,3.23,0,0,1-.16.63C233,288.91,215.91,333.92,222.24,351.73Z"/><path class="cls-8" d="M271.3,257.29c-3.41,2.51-6.8.29-8.6,7.68-1.75,7.13-16.85,22.83-17.78,23.79l-.06.06-3,42.83,3.29-2.4.11,27.62v.7l-.33.07-10,2.13a14.65,14.65,0,0,1-15.3-6.84c-7-18.87,10.82-65.48,10.82-65.48s2.88-20.92,4.85-28S242,254,242,254a6.56,6.56,0,0,1,1.22-1.08,9.93,9.93,0,0,1,4.85-1.6,6.38,6.38,0,0,1,1.46-1.51h0a8.29,8.29,0,0,1,4.28-1.57l0,0a5.38,5.38,0,0,1,1.77-1.13,14,14,0,0,1,3.37-.89,4.31,4.31,0,0,1,4.73,2.66,21,21,0,0,1,.84,7.09c0,1-.1,1.66-.1,1.66l1.21.06Z"/><path class="cls-6" d="M271.3,257.29c-3.41,2.51-6.8.29-8.6,7.68-1.75,7.13-16.85,22.83-17.78,23.79l-.06.06-3,42.83,3.29-2.4.11,28.32-8.4,1.88-1.13-9.22a78.07,78.07,0,0,1,.3-21.1l6.27-41.44L241,280.36l0,0,.14-.26c.52-.91,1.85-4.1,0-10-2.3-7.11,1.57-6.54,1.57-6.54s-.9,4,1.55,4.43,2.35,0,2.35,0l1,1.51c4.1,2.08,4.83-2.49,4.83-2.49l.31.06a4.53,4.53,0,0,0,3.69-.87l.56-.43c3.66,3,7.68-11.19,7.68-11.19h0c.12.91.38,2.16,1.81,2.33Z"/><path class="cls-2" d="M254.32,357.51a1.06,1.06,0,0,1-.26-2.08l10.56-2.68a1.07,1.07,0,0,1,1.29.76,1.05,1.05,0,0,1-.77,1.28l-10.56,2.69A1.15,1.15,0,0,1,254.32,357.51Z"/><path class="cls-2" d="M288.08,524.42a1.42,1.42,0,0,1-1.4-1.26l-7.89-71.95a1.41,1.41,0,0,1,2.8-.31l7.89,72a1.41,1.41,0,0,1-1.24,1.56Z"/><path class="cls-10" d="M291.41,93.06a1.45,1.45,0,0,1,2-.52,20.65,20.65,0,0,0,6.69,2.32,5.21,5.21,0,0,1,.18-1.77c.94-3.39,6-6.13,9.09-6.54,2.24-.29,3.17.66,3.52,1.26,1,1.73-.36,4-1.48,5.47a10.82,10.82,0,0,1-7,4.37,8,8,0,0,0,.93.91,10.83,10.83,0,0,0,7.21,2.29,5.64,5.64,0,0,1,1.87-4.77c3-3,8.09-3.89,10.81-2.83a2.83,2.83,0,0,1,2,2.46c.07,1.9-1.85,3.74-6.06,5.8a24.68,24.68,0,0,1-3.68,1.43c2.57,1.59,7.22,2.43,12.56,1.41a1.45,1.45,0,0,1,.55,2.85c-7,1.34-13.84-.17-16.71-3.53a13.75,13.75,0,0,1-10.4-2.88,10.12,10.12,0,0,1-2.46-3,21.62,21.62,0,0,1-9-2.78,1.48,1.48,0,0,1-.52-2Zm15.75-2.8c-2.11,1-3.79,2.48-4.11,3.61A2.58,2.58,0,0,0,303,95a8.19,8.19,0,0,0,6.05-3.39,7.27,7.27,0,0,0,1.23-2.16A7.27,7.27,0,0,0,307.16,90.26Zm9.26,7.87a2.73,2.73,0,0,0-1.05,2.36,20.47,20.47,0,0,0,4.46-1.59c3.14-1.53,4.07-2.54,4.33-2.94C323,95.44,318.84,95.71,316.42,98.13Z"/><path class="cls-10" d="M354.61,419.75a1.46,1.46,0,0,1,1.89-.8,20.45,20.45,0,0,0,6.94,1.35,5.63,5.63,0,0,1-.07-1.78c.46-3.48,5.09-6.92,8.08-7.75,2.18-.61,3.23.2,3.66.74l0,0c1.22,1.57.18,3.94-.71,5.6a10.85,10.85,0,0,1-6.35,5.32,9.48,9.48,0,0,0,1.05.77,10.85,10.85,0,0,0,7.46,1.25,5.66,5.66,0,0,1,1.18-5c2.53-3.37,7.46-5,10.3-4.32a2.78,2.78,0,0,1,2.31,2.15c.35,1.87-1.29,4-5.17,6.59a24.42,24.42,0,0,1-3.44,2c2.77,1.2,7.49,1.38,12.64-.39a1.45,1.45,0,0,1,.94,2.74c-6.76,2.33-13.72,1.8-17-1.13a13.7,13.7,0,0,1-10.7-1.37,9.84,9.84,0,0,1-2.86-2.59,21.39,21.39,0,0,1-9.33-1.47,1.51,1.51,0,0,1-.6-.45A1.45,1.45,0,0,1,354.61,419.75Zm15.19-5c-1.94,1.28-3.4,3-3.55,4.15a2.65,2.65,0,0,0,.1,1.07,8.17,8.17,0,0,0,5.51-4.21,7,7,0,0,0,.91-2.31A7.34,7.34,0,0,0,369.8,414.75Zm10.28,6.47a2.76,2.76,0,0,0-.7,2.49,20.13,20.13,0,0,0,4.19-2.21c2.89-2,3.67-3.09,3.87-3.52C386.26,417.63,382.14,418.48,380.08,421.22Z"/><path class="cls-10" d="M226.73,455.73a1.47,1.47,0,0,1,1.94-.69,26.92,26.92,0,0,0,7.25,2.39,14.94,14.94,0,0,1,3.44-5.37c3.71-4.09,6.14-3,7-2.38,1.74,1.28,1.94,4.12.45,6.59a9.06,9.06,0,0,1-7.19,4.16c1.79.93,5.5,1.07,8,.81a1.45,1.45,0,1,1,.31,2.89c-1.61.17-9.73.82-11.79-3.21a3.23,3.23,0,0,1-.24-.58,28.88,28.88,0,0,1-8.46-2.67,1.4,1.4,0,0,1-.53-.43A1.46,1.46,0,0,1,226.73,455.73ZM244.64,452c-.16-.12-1.21-.13-3.14,2a14.94,14.94,0,0,0-2.55,3.58c2.73-.18,4.49-1.32,5.39-2.81a2.78,2.78,0,0,0,.37-2.7Z"/><path class="cls-10" d="M157.25,361a1.44,1.44,0,0,1,2.05-.07c2.3,2.15,6.08,4.73,8.35,4.76-3.2-2.76-4.29-6-4-8.79.33-3.13,2.35-5.47,4.69-5.45,1.17,0,4,.68,4.5,6.71a16.16,16.16,0,0,1-.59,7.2,30.17,30.17,0,0,0,8.3,2.86,1.45,1.45,0,0,1-.59,2.84,32,32,0,0,1-9.44-3.36,4.23,4.23,0,0,1-.68.41c-4.45,2.18-11.22-3.84-12.53-5.06l-.16-.18A1.43,1.43,0,0,1,157.25,361ZM170,358.43c-.27-3-1.15-4.06-1.64-4.07s-1.57,1-1.78,2.85c-.21,2.05.67,4.4,3.21,6.49A16.1,16.1,0,0,0,170,358.43Z"/><path class="cls-10" d="M182.35,181.42a1.44,1.44,0,0,1,2.05-.07c2.3,2.15,6.08,4.73,8.34,4.76-3.2-2.76-4.28-6-4-8.79.33-3.13,2.34-5.47,4.68-5.45,1.18,0,4,.68,4.51,6.71a16.17,16.17,0,0,1-.6,7.21,30.74,30.74,0,0,0,8.31,2.85,1.45,1.45,0,0,1-.59,2.84,32.27,32.27,0,0,1-9.44-3.35,5.06,5.06,0,0,1-.68.4c-4.46,2.18-11.22-3.83-12.54-5.06,0-.06-.11-.11-.15-.17A1.44,1.44,0,0,1,182.35,181.42Zm12.71-2.57c-.27-3-1.15-4.08-1.64-4.08s-1.58,1-1.78,2.85c-.22,2,.67,4.4,3.21,6.49A16.05,16.05,0,0,0,195.06,178.85Z"/><path class="cls-10" d="M439.64,234.8a1.45,1.45,0,0,1,2.3-1.77h0a14.31,14.31,0,0,0,6.7,5.11,18.89,18.89,0,0,1-.92-1.92c-1.4-3.4-1.54-5.51-.44-6.66a2.47,2.47,0,0,1,2.73-.48c2.15.8,4.69,4,4.88,7.29a4.69,4.69,0,0,1-1.15,3.63,7.74,7.74,0,0,0,4.67,1.95h.28a8.46,8.46,0,0,1-1.46-5.68c.14-1.51.51-3.59,2.15-4.12.58-.18,1.73-.28,3,1.16,1.6,1.81,3.12,6.09,1.9,8.59a3.8,3.8,0,0,1-.55.84,15.09,15.09,0,0,0,4.42,1.75h0a1.45,1.45,0,1,1-.57,2.85,16.48,16.48,0,0,1-6.44-2.89,8,8,0,0,1-2.81.4,10.63,10.63,0,0,1-7.39-3.55c-3.39.34-8-2.22-11.24-6.44Zm9.83-2.73a12.59,12.59,0,0,0,.93,3,15.28,15.28,0,0,0,1.4,2.66,2.31,2.31,0,0,0,.2-1.23,6.2,6.2,0,0,0-1.35-3.29A5.94,5.94,0,0,0,449.47,232.07Zm12.19,8.55c.6-1.23-.49-4.12-1.35-5.27a7.61,7.61,0,0,0-.19,1.18,5.75,5.75,0,0,0,1.37,4.35A1.45,1.45,0,0,0,461.66,240.62Z"/></g></svg>